<svg width="16" height="16" viewBox="0 0 16 16" fill="none" xmlns="http://www.w3.org/2000/svg">
<path d="M8.00009 2.19824C8.29829 2.19828 8.54012 2.44007 8.54012 2.73828V11.9609L11.938 8.57441C12.1492 8.36391 12.4911 8.36442 12.7016 8.57559C12.9122 8.78681 12.9115 9.12872 12.7003 9.33926L8.38368 13.6418C8.37031 13.6553 8.35621 13.668 8.34149 13.6801C8.33643 13.6842 8.33104 13.6879 8.32587 13.6918C8.317 13.6985 8.3082 13.7053 8.29891 13.7115C8.29195 13.7162 8.28475 13.7203 8.27762 13.7246C8.26993 13.7292 8.26232 13.734 8.25438 13.7383C8.24714 13.7422 8.23969 13.7455 8.23231 13.749C8.22328 13.7533 8.21427 13.7577 8.20497 13.7615C8.20041 13.7634 8.1957 13.7649 8.1911 13.7666C8.179 13.7712 8.16688 13.7758 8.15438 13.7795C8.15161 13.7803 8.14877 13.7809 8.14598 13.7816C8.13192 13.7856 8.11771 13.7892 8.10321 13.792C8.10081 13.7925 8.09839 13.7927 8.09598 13.7932C8.08145 13.7958 8.06676 13.798 8.05184 13.7994C8.04002 13.8005 8.02816 13.8008 8.0163 13.8012C8.01091 13.8013 8.00552 13.8021 8.00009 13.8021L7.99989 13.802C7.98255 13.802 7.96522 13.8011 7.94794 13.7994C7.93402 13.7981 7.92032 13.7959 7.90673 13.7936C7.90315 13.7929 7.89955 13.7925 7.89598 13.7918C7.88282 13.7892 7.86992 13.7859 7.85712 13.7824C7.85304 13.7813 7.84887 13.7805 7.84481 13.7793C7.83386 13.776 7.82324 13.7719 7.81259 13.768C7.80641 13.7657 7.80014 13.7636 7.79403 13.7611C7.78647 13.758 7.77915 13.7544 7.77177 13.751C7.76265 13.7467 7.75353 13.7425 7.74462 13.7377C7.73857 13.7344 7.73275 13.7308 7.72684 13.7273C7.71808 13.7222 7.70919 13.7172 7.70067 13.7115C7.69144 13.7054 7.68273 13.6985 7.67391 13.6918C7.66875 13.6879 7.66334 13.6842 7.65829 13.6801C7.6505 13.6737 7.64324 13.6668 7.63583 13.66C7.6302 13.6548 7.6241 13.65 7.61864 13.6445L3.2995 9.33926C3.08837 9.12872 3.08784 8.78678 3.29833 8.57559C3.50885 8.36441 3.85078 8.36394 4.062 8.57441L7.46005 11.9613V2.73828C7.46005 2.44005 7.70185 2.19824 8.00009 2.19824Z" fill="#787A88"/>
</svg>
