<svg width="16" height="16" viewBox="0 0 16 16" fill="none" xmlns="http://www.w3.org/2000/svg">
<g clip-path="url(#clip0_4456_290499)">
<path d="M12.7234 4.77832C12.7234 4.59422 12.6871 4.41196 12.6166 4.24186C12.5462 4.07174 12.4428 3.91701 12.3126 3.78678C12.1823 3.65652 12.0277 3.55259 11.8575 3.4821C11.6873 3.41161 11.5046 3.37533 11.3204 3.37533C11.1364 3.37535 10.954 3.41169 10.784 3.4821C10.6138 3.55259 10.4591 3.65652 10.3289 3.78678L10.0235 4.09147L12.0073 6.0752L12.3126 5.77051C12.4428 5.64028 12.5461 5.48557 12.6166 5.31543C12.6871 5.14523 12.7234 4.96254 12.7234 4.77832ZM3.27419 10.8415V12.8245H5.25857L11.2436 6.83887L9.25987 4.85514L3.27419 10.8415ZM13.8035 4.77832C13.8035 5.10437 13.7395 5.42761 13.6147 5.72884C13.4899 6.03001 13.3068 6.30367 13.0763 6.53418L5.86403 13.7464C5.76276 13.8477 5.62509 13.9046 5.48187 13.9046H2.73448C2.43624 13.9046 2.19476 13.6625 2.19476 13.3643V10.6169C2.1948 10.4738 2.25124 10.3366 2.35232 10.2354L9.56521 3.02311C9.79576 2.79256 10.0693 2.60947 10.3705 2.4847C10.6717 2.35996 10.9944 2.29592 11.3204 2.2959C11.6465 2.2959 11.9697 2.35993 12.2709 2.4847C12.5721 2.60947 12.8458 2.79261 13.0763 3.02311C13.3067 3.25363 13.4899 3.52729 13.6147 3.82845C13.7394 4.12959 13.8035 4.45239 13.8035 4.77832Z" fill="#787A88"/>
</g>
<defs>
<clipPath id="clip0_4456_290499">
<rect width="16" height="16" fill="white"/>
</clipPath>
</defs>
</svg>
