<svg width="16" height="16" viewBox="0 0 16 16" fill="none" xmlns="http://www.w3.org/2000/svg">
<path d="M7.99967 13.8066C8.29791 13.8066 8.53939 13.5652 8.53939 13.2669V4.03385L11.943 7.42513C12.1543 7.63542 12.4963 7.63435 12.7067 7.42318C12.917 7.21191 12.9166 6.86994 12.7054 6.65951L8.38118 2.35091C8.34858 2.31844 8.31229 2.29195 8.27441 2.26953C8.237 2.24733 8.19715 2.22885 8.15462 2.21615C8.13512 2.21034 8.1153 2.20603 8.09538 2.20247C8.06449 2.19696 8.0328 2.19338 8.00032 2.19336L7.99967 2.19401C7.96627 2.19403 7.93374 2.1973 7.90202 2.20313C7.89942 2.2036 7.8968 2.20391 7.89421 2.20443C7.88298 2.20666 7.87196 2.20933 7.861 2.21224C7.85562 2.21367 7.85007 2.21454 7.84473 2.21615C7.80051 2.2294 7.75902 2.24865 7.72038 2.27214C7.68438 2.294 7.64997 2.31987 7.61881 2.35091L3.2946 6.65951C3.08349 6.86987 3.08258 7.21189 3.29264 7.42318C3.50305 7.63433 3.84504 7.63534 4.05631 7.42513L7.45996 4.03385V13.2669C7.45996 13.5651 7.70155 13.8065 7.99967 13.8066Z" fill="#787A88"/>
</svg>
