<svg width="16" height="16" viewBox="0 0 16 16" fill="none" xmlns="http://www.w3.org/2000/svg">
<g clip-path="url(#clip0_4456_290504)">
<path d="M9.16241 3.36296C9.16227 4.00481 8.64152 4.52498 7.99965 4.52507C7.35784 4.52492 6.83769 4.00477 6.83754 3.36296C6.83763 2.72109 7.3578 2.20034 7.99965 2.2002C8.64155 2.20028 9.16233 2.72106 9.16241 3.36296ZM9.16241 8.00033C9.16232 8.64222 8.64155 9.16235 7.99965 9.16244C7.35781 9.16229 6.83764 8.64218 6.83754 8.00033C6.83763 7.35846 7.3578 6.83771 7.99965 6.83757C8.64155 6.83765 9.16233 7.35843 9.16241 8.00033ZM9.16241 12.6377C9.16237 13.2796 8.64158 13.7997 7.99965 13.7998C7.35778 13.7997 6.83759 13.2796 6.83754 12.6377C6.83763 11.9958 7.3578 11.4751 7.99965 11.4749C8.64155 11.475 9.16233 11.9958 9.16241 12.6377Z" fill="#787A88"/>
</g>
<defs>
<clipPath id="clip0_4456_290504">
<rect width="16" height="16" fill="white"/>
</clipPath>
</defs>
</svg>
