<svg width="16" height="16" viewBox="0 0 16 16" fill="none" xmlns="http://www.w3.org/2000/svg">
<g clip-path="url(#clip0_5983_221041)">
<path d="M12.8206 2.20459L12.8922 2.20722C13.035 2.21789 13.1733 2.26035 13.2974 2.33083L13.3584 2.3684L13.4161 2.41018C13.5471 2.51242 13.6496 2.64631 13.7151 2.79855C13.79 2.97243 13.8139 3.16409 13.7845 3.35072C13.7559 3.53237 13.6773 3.70304 13.5571 3.84338L13.5575 3.84373L9.97527 8.16368V11.4349L9.97351 11.495C9.96521 11.635 9.92762 11.7723 9.86255 11.8974C9.78818 12.0404 9.67984 12.1638 9.546 12.2556L9.54582 12.2557L7.58257 13.601L7.5824 13.6008C7.43532 13.7016 7.26326 13.7605 7.0843 13.7695C6.90524 13.7786 6.72774 13.7375 6.5711 13.6515C6.41459 13.5657 6.28534 13.4388 6.1959 13.2858C6.10653 13.133 6.0598 12.9591 6.05949 12.7826V8.16421L2.465 3.84443L2.46535 3.84408C2.34498 3.70379 2.26619 3.53312 2.23746 3.35143C2.20797 3.165 2.23173 2.97339 2.30628 2.7996C2.38088 2.62574 2.50388 2.47583 2.66216 2.36945C2.82062 2.26297 3.00706 2.2051 3.19889 2.20459H12.8206ZM3.19854 3.18235C3.19645 3.18721 3.19544 3.19344 3.19643 3.19973C3.19741 3.20595 3.19994 3.21017 3.20187 3.21237C3.20508 3.216 3.20826 3.21972 3.21135 3.22344L6.91803 7.67805C6.99059 7.76525 7.03022 7.8752 7.03022 7.98864V12.7809C7.03023 12.787 7.03199 12.7922 7.03409 12.7958C7.03475 12.7969 7.03562 12.7976 7.03619 12.7983L8.99716 11.4548C8.99793 11.4542 8.99957 11.4526 9.0012 11.4495C9.00306 11.4459 9.00454 11.441 9.00453 11.4355V7.98864C9.00453 7.87549 9.04397 7.76585 9.1162 7.67875L12.8101 3.22414L12.8201 3.21237C12.822 3.21017 12.8245 3.20595 12.8255 3.19973C12.8265 3.19343 12.8255 3.18721 12.8234 3.18235C12.8216 3.17814 12.8194 3.17622 12.8185 3.1755H3.20345C3.20254 3.17621 3.20036 3.17814 3.19854 3.18235Z" fill="#787A88"/>
</g>
<defs>
<clipPath id="clip0_5983_221041">
<rect width="16" height="16" fill="white"/>
</clipPath>
</defs>
</svg>
