<svg width="20" height="20" viewBox="0 0 20 20" fill="none" xmlns="http://www.w3.org/2000/svg">
<path d="M6.00049 2.625H11.3755V4C11.3755 5.44975 12.5507 6.625 14.0005 6.625H15.3755V16C15.3755 16.7594 14.7599 17.375 14.0005 17.375H6.00049C5.2411 17.375 4.62549 16.7594 4.62549 16V4C4.62549 3.24061 5.2411 2.625 6.00049 2.625Z" stroke="#EF4444" stroke-width="1.25"/>
<path d="M12.001 2L14.001 4L16.001 6H14.001C12.8964 6 12.001 5.10457 12.001 4V2Z" fill="#EF4444"/>
<rect x="2.5" y="6.25" width="7.5" height="7.5" rx="1.25" fill="#EF4444"/>
<path d="M5.99609 7.46875C6.19014 7.46875 6.32196 7.5673 6.40332 7.70996C6.48367 7.85087 6.5156 8.03484 6.51562 8.21191C6.51562 8.52447 6.43334 8.95494 6.26562 9.48047C6.35257 9.63619 6.44663 9.79687 6.55371 9.94336L6.55469 9.94434C6.69372 10.1424 6.84956 10.3273 7.02051 10.4971C7.30417 10.446 7.56626 10.4238 7.79297 10.4238C8.22352 10.4238 8.53808 10.5145 8.69531 10.6836H8.69629C8.76978 10.7674 8.8181 10.9325 8.74512 11.082L8.74414 11.0811C8.72335 11.1389 8.68389 11.2031 8.60742 11.252C8.52995 11.3014 8.41815 11.334 8.25879 11.334C8.00163 11.334 7.49653 11.2487 6.92578 10.7295C6.69296 10.7698 6.46226 10.8223 6.23438 10.8857H6.2334C6.01654 10.9451 5.79933 11.0192 5.58105 11.0938C5.43651 11.3622 5.22396 11.7167 4.97949 12.0059C4.85557 12.1524 4.72278 12.2836 4.58594 12.3779C4.44936 12.472 4.30648 12.5312 4.16309 12.5312C3.97426 12.5312 3.86266 12.434 3.83301 12.4111L3.83008 12.4082C3.74223 12.3184 3.70136 12.202 3.72559 12.0771C3.74175 11.9944 3.78917 11.9086 3.86133 11.8223C3.93356 11.7359 4.03213 11.6475 4.15332 11.5586C4.39419 11.382 4.72754 11.2013 5.13086 11.0352C5.27587 10.7667 5.40779 10.4762 5.52441 10.1924C5.65348 9.88064 5.76941 9.56341 5.87402 9.24219C5.73572 8.9257 5.64751 8.60728 5.61426 8.33008C5.58079 8.0507 5.6025 7.80769 5.68848 7.65137V7.65039C5.75261 7.5438 5.87327 7.46889 5.99609 7.46875ZM4.94629 11.3525C4.66476 11.4828 4.43043 11.6171 4.25781 11.7451C4.1621 11.8161 4.08583 11.8844 4.03125 11.9482C3.9765 12.0124 3.9443 12.0698 3.93457 12.1191V12.1211C3.92333 12.1673 3.93895 12.2085 3.97656 12.248C4.00271 12.2681 4.03396 12.2794 4.06641 12.2793H4.06738C4.11393 12.2792 4.17179 12.258 4.24023 12.2129C4.30842 12.1679 4.38419 12.1005 4.46582 12.0127C4.61361 11.8536 4.77719 11.6286 4.94629 11.3525ZM7.77051 10.6377C7.58867 10.6374 7.40734 10.6523 7.22754 10.6797C7.47112 10.877 7.71299 11.005 7.96777 11.0674C8.01376 11.0751 8.04778 11.082 8.08887 11.082C8.23468 11.082 8.32827 11.0118 8.34668 10.918C8.36293 10.8308 8.33496 10.7756 8.29395 10.7383C8.25084 10.6991 8.19024 10.6778 8.14062 10.667H8.13965C8.05535 10.6453 7.92589 10.6377 7.77051 10.6377ZM6.16602 9.76172C6.09939 9.94779 6.03137 10.1461 5.95117 10.3379C5.88292 10.5006 5.80841 10.6603 5.73047 10.8184C5.88155 10.7685 6.03387 10.7226 6.1875 10.6816C6.37363 10.6299 6.56168 10.5856 6.75098 10.5479C6.62014 10.3956 6.4933 10.2397 6.37109 10.0801L6.37012 10.0791C6.30023 9.98142 6.23108 9.87191 6.16602 9.76172ZM5.98145 7.69043C5.95832 7.69098 5.9357 7.69822 5.91602 7.71094C5.89616 7.7238 5.87973 7.74193 5.86914 7.76367V7.76465C5.82189 7.85116 5.79803 8.0143 5.81543 8.2334C5.83075 8.4263 5.87931 8.65836 5.96387 8.91309C6.07141 8.53213 6.1347 8.20402 6.13477 7.98535C6.13477 7.91449 6.12781 7.83781 6.10352 7.78027C6.09153 7.7519 6.07583 7.72993 6.05664 7.71484C6.03785 7.70012 6.01366 7.69043 5.98145 7.69043Z" fill="white" stroke="white" stroke-width="0.0625"/>
</svg>
