<svg width="1463" height="32" viewBox="0 0 1463 32" fill="none" xmlns="http://www.w3.org/2000/svg">
<path opacity="0.3" d="M21.1486 17.8395C21.1486 18.424 20.9033 18.9354 20.4127 19.3738C19.9456 19.7913 19.3616 20 18.6608 20C18.0068 20 17.4345 19.7913 16.9439 19.3738C16.4534 18.9354 16.1614 18.4449 16.068 17.9022C15.8811 16.8167 16.0796 15.7521 16.6636 14.7084C17.2709 13.6438 18.1352 12.8089 19.2565 12.2035C19.7236 11.9322 20.1208 11.9322 20.4478 12.2035C20.7748 12.4749 20.7281 12.7567 20.3076 13.0489C19.9339 13.3203 19.5835 13.6647 19.2565 14.0822C18.9294 14.4788 18.7075 14.9485 18.5907 15.4912C18.544 15.6791 18.6725 15.773 18.9762 15.773C19.5134 15.773 20.004 15.9817 20.4478 16.3992C20.915 16.7958 21.1486 17.2759 21.1486 17.8395ZM27 17.8395C27 18.424 26.7547 18.9354 26.2642 19.3738C25.797 19.7913 25.213 20 24.5123 20C23.8582 20 23.2859 19.7913 22.7954 19.3738C22.3048 18.9354 22.0128 18.4449 21.9194 17.9022C21.7325 16.8167 21.9311 15.7521 22.5151 14.7084C23.1224 13.6438 23.9867 12.8089 25.1079 12.2035C25.5751 11.9322 25.9722 11.9322 26.2992 12.2035C26.6263 12.4749 26.5795 12.7567 26.1591 13.0489C25.7853 13.3203 25.4349 13.6647 25.1079 14.0822C24.7809 14.4788 24.559 14.9485 24.4422 15.4912C24.3955 15.6791 24.5123 15.773 24.7926 15.773C25.3532 15.773 25.8554 15.9817 26.2992 16.3992C26.7664 16.7958 27 17.2759 27 17.8395Z" fill="#787A88"/>
<path d="M41.043 12.583V13.5605H35.3936V12.583H37.6279V11.0342H38.8213V12.583H41.043ZM38.2246 14.2461C39.6719 14.2461 40.6875 15.3252 40.7002 16.8613C40.6875 18.4102 39.6719 19.502 38.2246 19.502C36.8027 19.502 35.749 18.4102 35.7617 16.8613C35.749 15.3252 36.8027 14.2461 38.2246 14.2461ZM38.2246 15.249C37.3994 15.249 36.8281 15.9219 36.8281 16.8613C36.8281 17.8262 37.3994 18.4736 38.2246 18.4736C39.0371 18.4736 39.6338 17.8262 39.6338 16.8613C39.6338 15.9219 39.0371 15.249 38.2246 15.249ZM45.1562 10.7041V22.0791H44.0137V16.4297H42.7061V21.5459H41.5635V10.958H42.7061V15.4395H44.0137V10.7041H45.1562ZM55.5525 10.7041V13.5859H57.1902V14.5762H55.5525V17.4199H54.3337V10.7041H55.5525ZM51.8709 17.6357C54.1941 17.6357 55.6414 18.4482 55.6414 19.8447C55.6414 21.2412 54.1941 22.0664 51.8709 22.0537C49.5222 22.0664 48.0496 21.2412 48.0496 19.8447C48.0496 18.4482 49.5222 17.6357 51.8709 17.6357ZM51.8709 18.6133C50.2205 18.6006 49.2302 19.0576 49.2429 19.8447C49.2302 20.6318 50.2205 21.0889 51.8709 21.0889C53.4832 21.0889 54.4734 20.6318 54.4861 19.8447C54.4734 19.0576 53.4832 18.6006 51.8709 18.6133ZM52.1628 11.542V12.5195H48.2781V15.6172C50.5188 15.6108 51.782 15.541 53.2166 15.249L53.3308 16.2266C51.8074 16.5439 50.449 16.5947 47.9861 16.5947H47.0847V11.542H52.1628ZM70.7463 10.7041V22.0791H69.5911V10.7041H70.7463ZM68.4993 10.958V21.4951H67.3567V16.0488H65.9348V14.9697H67.3567V10.958H68.4993ZM66.2395 12.1006V13.0908H65.3635V18.1689C65.7507 18.1436 66.1252 18.0991 66.468 18.0547L66.5569 18.9307C64.7542 19.2861 62.3928 19.3369 60.9202 19.3369L60.7805 18.3213L61.8977 18.3086V13.0908H61.0217V12.1006H66.2395ZM62.9895 18.2959C63.4021 18.2832 63.8274 18.2705 64.2463 18.2451V13.0908H62.9895V18.2959ZM81.5107 10.7041V22.1045H80.3047V10.7041H81.5107ZM75.4297 11.5547C77.1182 11.5547 78.3623 13.1035 78.3623 15.541C78.3623 17.9912 77.1182 19.54 75.4297 19.54C73.7158 19.54 72.4844 17.9912 72.4844 15.541C72.4844 13.1035 73.7158 11.5547 75.4297 11.5547ZM75.4297 12.6338C74.376 12.6338 73.6524 13.751 73.6524 15.541C73.6524 17.3438 74.376 18.4609 75.4297 18.4609C76.4707 18.4609 77.1943 17.3438 77.1943 15.541C77.1943 13.751 76.4707 12.6338 75.4297 12.6338ZM87.4636 14.0557C87.4636 15.96 88.7078 17.9277 90.4597 18.6768L89.7996 19.6162C88.4602 19.0259 87.3938 17.7754 86.867 16.252C86.3401 17.877 85.2673 19.2607 83.947 19.9082L83.2488 18.9561C84.9627 18.1562 86.2322 16.0107 86.2449 14.0557V12.8496H83.6423V11.8467H90.0535V12.8496H87.4636V14.0557ZM92.6941 10.7041V22.0791H91.488V10.7041H92.6941ZM104.246 10.7041V22.0791H103.09V10.7041H104.246ZM101.935 10.9199V21.5205H100.78V16.0361H99.4976C99.396 18.2578 98.4439 19.6416 97.0347 19.6289C95.5493 19.6416 94.5845 18.0801 94.5845 15.6172C94.5845 13.1543 95.5493 11.6055 97.0347 11.6182C98.4185 11.6055 99.3579 12.9194 99.4976 15.0586H100.78V10.9199H101.935ZM97.0347 12.748C96.2095 12.748 95.7017 13.8018 95.7017 15.6172C95.7017 17.4326 96.2095 18.4863 97.0347 18.4863C97.8726 18.4863 98.3931 17.4326 98.3931 15.6172C98.3931 13.8018 97.8726 12.748 97.0347 12.748ZM115.098 11.5674V12.2021C115.085 12.9639 115.085 14.0938 114.806 15.5664L113.612 15.4521C113.86 14.189 113.898 13.2749 113.917 12.5576H109.359V11.5674H115.098ZM112.19 14.1191V16.4678C113.409 16.4297 114.666 16.3408 115.809 16.1758L115.885 17.0518C113.511 17.4707 110.794 17.5088 108.788 17.5215L108.674 16.5439C109.372 16.5376 110.166 16.5312 110.997 16.5059V14.1191H112.19ZM117.764 10.7041V14.3223H119.325V15.3379H117.764V19.248H116.532V10.7041H117.764ZM118.132 20.8604V21.8379H110.4V18.4736H111.606V20.8604H118.132ZM128.884 10.7168V14.373H130.534V15.376H128.884V19.2227H127.678V10.7168H128.884ZM126.738 12.0371V13.0146H119.959V12.0371H122.752V10.7041H123.958V12.0371H126.738ZM123.348 13.5605C124.986 13.5605 126.103 14.4111 126.103 15.7061C126.103 17.001 124.986 17.8389 123.348 17.8389C121.698 17.8389 120.581 17.001 120.581 15.7061C120.581 14.4111 121.698 13.5605 123.348 13.5605ZM123.348 14.4873C122.384 14.4873 121.736 14.957 121.749 15.7061C121.736 16.4424 122.384 16.8994 123.348 16.8994C124.313 16.8994 124.961 16.4424 124.973 15.7061C124.961 14.957 124.313 14.4873 123.348 14.4873ZM129.366 20.8604V21.8379H121.673V18.5498H122.879V20.8604H129.366ZM143.735 10.7041V16.5566H142.529V13.6367H140.129V12.6592H142.529V10.7041H143.735ZM143.735 17.0898V19.9209H137.501V20.9746H144.128V21.9395H136.321V19.0068H142.541V18.042H136.295V17.0898H143.735ZM138.25 12.0625C138.25 13.5098 139.291 14.8555 141.005 15.4014L140.37 16.3408C139.12 15.9092 138.174 15.0522 137.679 13.9668C137.178 15.1855 136.2 16.144 134.861 16.6074L134.213 15.6426C135.991 15.0713 137.044 13.6621 137.057 12.0625V11.0723H138.25V12.0625ZM154.918 10.7041V17.4199H153.712V15.7314H151.236V16.6582H145.955V11.5547H151.236V12.4941H153.712V10.7041H154.918ZM147.148 12.5195V15.6934H150.056V12.5195H147.148ZM151.109 17.7373C153.496 17.7373 154.956 18.5244 154.956 19.9082C154.956 21.2793 153.496 22.0664 151.109 22.0537C148.723 22.0664 147.25 21.2793 147.263 19.9082C147.25 18.5244 148.723 17.7373 151.109 17.7373ZM151.109 18.6641C149.446 18.6768 148.456 19.1084 148.456 19.9082C148.456 20.6699 149.446 21.127 151.109 21.127C152.772 21.127 153.763 20.6699 153.763 19.9082C153.763 19.1084 152.772 18.6768 151.109 18.6641ZM151.236 14.7539H153.712V13.459H151.236V14.7539ZM166.038 10.7041V22.1045H164.832V10.7041H166.038ZM159.957 11.5547C161.645 11.5547 162.889 13.1035 162.889 15.541C162.889 17.9912 161.645 19.54 159.957 19.54C158.243 19.54 157.011 17.9912 157.011 15.541C157.011 13.1035 158.243 11.5547 159.957 11.5547ZM159.957 12.6338C158.903 12.6338 158.179 13.751 158.179 15.541C158.179 17.3438 158.903 18.4609 159.957 18.4609C160.998 18.4609 161.721 17.3438 161.721 15.541C161.721 13.751 160.998 12.6338 159.957 12.6338ZM181.549 15.1729V16.1631H179.784V22.0664H178.578V10.7041H179.784V15.1729H181.549ZM172.548 11.8086V18.207C174.135 18.207 175.792 18.0737 177.601 17.6992L177.741 18.7148C175.798 19.1084 173.995 19.21 172.294 19.21H171.355V11.8086H172.548ZM187.946 11.707V12.6973H183.808V14.8936H187.718V15.8584H183.808V18.4102C185.706 18.4038 187.108 18.3213 188.759 18.0547L188.873 19.0322C187.121 19.3242 185.598 19.3877 183.503 19.3877H182.589V11.707H187.946ZM190.968 10.7041V15.1855H192.796V16.2012H190.968V22.0791H189.762V10.7041H190.968ZM202.227 10.7168V13.1797H203.89V14.1826H202.227V16.6455H201.021V10.7168H202.227ZM195.016 11.2246V15.1602C196.559 15.1475 198.171 15.0396 199.917 14.6777L200.069 15.6807C198.152 16.0361 196.413 16.1631 194.737 16.1631H193.81V11.2246H195.016ZM196.108 17.2168V18.6133H201.021V17.2168H202.227V21.9395H194.928V17.2168H196.108ZM196.108 20.9619H201.021V19.5908H196.108V20.9619ZM213.918 10.7041V22.0791H212.712V10.7041H213.918ZM206.365 11.8086V18.1436C208.022 18.1309 209.767 17.9976 211.595 17.623L211.76 18.6387C209.742 19.0449 207.914 19.1846 206.124 19.1846H205.171V11.8086H206.365ZM224.518 10.7041V15.1094H226.346V16.0996H224.518V22.1045H223.312V10.7041H224.518ZM221.458 11.7959V12.7734H217.345V18.2705C219.256 18.2642 220.69 18.1816 222.309 17.8896L222.461 18.9053C220.684 19.2227 219.173 19.2861 217.053 19.2734H216.139V11.7959H221.458ZM228.135 21.0889C227.64 21.0889 227.221 20.6826 227.233 20.1875C227.221 19.6924 227.64 19.2861 228.135 19.2861C228.617 19.2861 229.036 19.6924 229.036 20.1875C229.036 20.6826 228.617 21.0889 228.135 21.0889Z" fill="#787A88"/>
</svg>
