<svg width="40" height="40" viewBox="0 0 40 40" fill="none" xmlns="http://www.w3.org/2000/svg">
<path d="M0 8C0 3.58172 3.58172 0 8 0H32C36.4183 0 40 3.58172 40 8V32C40 36.4183 36.4183 40 32 40H8C3.58172 40 0 36.4183 0 32V8Z" fill="url(#paint0_linear_18398_48)"/>
<path d="M8 1H32C35.866 1 39 4.13401 39 8V32C39 35.866 35.866 39 32 39H8C4.13401 39 1 35.866 1 32V8C1 4.13401 4.13401 1 8 1Z" stroke="white" stroke-opacity="0.08" stroke-width="2"/>
<path d="M29 15V13C29 11.895 28.105 11 27 11H13C11.895 11 11 11.895 11 13V15C11 16.105 11.895 17 13 17C11.895 17 28.105 17 27 17C28.105 17 29 16.105 29 15Z" fill="url(#paint1_linear_18398_48)"/>
<path d="M27 11.5C27.827 11.5 28.5 12.173 28.5 13V15C28.5 15.827 27.827 16.5 27 16.5H13C12.173 16.5 11.5 15.827 11.5 15V13C11.5 12.173 12.173 11.5 13 11.5H27ZM27 11H13C11.895 11 11 11.895 11 13V15C11 16.105 11.895 17 13 17C13.947 17 27.054 17 27.054 17C27.054 17 27.036 17 27 17C28.105 17 29 16.105 29 15V13C29 11.895 28.105 11 27 11Z" fill="url(#paint2_linear_18398_48)"/>
<path d="M29 21V19C29 17.895 28.105 17 27 17H13C11.895 17 11 17.895 11 19V21C11 22.105 11.895 23 13 23C11.895 23 28.105 23 27 23C28.105 23 29 22.105 29 21Z" fill="url(#paint3_linear_18398_48)"/>
<path d="M27 17.5C27.827 17.5 28.5 18.173 28.5 19V21C28.5 21.827 27.827 22.5 27 22.5H13C12.173 22.5 11.5 21.827 11.5 21V19C11.5 18.173 12.173 17.5 13 17.5H27ZM27 17H13C11.895 17 11 17.895 11 19V21C11 22.105 11.895 23 13 23C13.947 23 27.054 23 27.054 23C27.054 23 27.036 23 27 23C28.105 23 29 22.105 29 21V19C29 17.895 28.105 17 27 17Z" fill="url(#paint4_linear_18398_48)"/>
<path d="M31 27C31 26.62 31.171 26.281 31.44 26.054C31.679 25.851 31.784 25.529 31.674 25.235C31.48 24.722 31.205 24.249 30.864 23.833C30.672 23.599 30.35 23.51 30.068 23.618C29.73 23.748 29.339 23.732 29 23.536C28.66 23.34 28.45 23.008 28.395 22.649C28.35 22.355 28.117 22.12 27.824 22.07C27.556 22.024 27.281 22 27 22C26.719 22 26.444 22.024 26.177 22.07C25.884 22.12 25.651 22.355 25.606 22.649C25.587 22.772 25.544 22.889 25.49 23.001H13C11.895 23.001 11 23.896 11 25.001V27.001C11 28.106 11.895 29.001 13 29.001C13.553 29.001 18.555 29.001 22.438 29.001C22.622 29.421 22.85 29.818 23.137 30.168C23.329 30.402 23.651 30.491 23.933 30.383C24.271 30.253 24.662 30.269 25.001 30.465C25.341 30.661 25.551 30.993 25.606 31.352C25.651 31.646 25.884 31.881 26.177 31.931C26.444 31.976 26.719 32 27 32C27.281 32 27.556 31.976 27.823 31.93C28.116 31.88 28.349 31.645 28.394 31.351C28.449 30.991 28.659 30.66 28.999 30.464C29.338 30.268 29.728 30.252 30.067 30.382C30.349 30.491 30.671 30.401 30.863 30.167C31.205 29.75 31.48 29.278 31.673 28.765C31.784 28.472 31.679 28.149 31.439 27.946C31.171 27.719 31 27.38 31 27Z" fill="url(#paint5_linear_18398_48)"/>
<path d="M27 22.5C27.246 22.5 27.495 22.521 27.74 22.562C27.822 22.576 27.888 22.643 27.901 22.724C27.982 23.25 28.291 23.703 28.75 23.969C29.014 24.121 29.314 24.202 29.617 24.202C29.833 24.202 30.045 24.162 30.247 24.084C30.268 24.076 30.291 24.072 30.314 24.072C30.376 24.072 30.437 24.101 30.476 24.15C30.787 24.529 31.032 24.954 31.205 25.412C31.244 25.516 31.182 25.617 31.116 25.673C30.725 26.004 30.5 26.488 30.5 27C30.5 27.512 30.725 27.996 31.117 28.328C31.182 28.383 31.245 28.485 31.206 28.589C31.033 29.047 30.788 29.471 30.477 29.851C30.437 29.9 30.376 29.929 30.314 29.929C30.291 29.929 30.268 29.925 30.247 29.917C30.045 29.839 29.832 29.799 29.617 29.799C29.314 29.799 29.014 29.88 28.75 30.032C28.291 30.297 27.981 30.751 27.901 31.277C27.889 31.358 27.822 31.425 27.74 31.439C27.495 31.479 27.246 31.5 27 31.5C26.754 31.5 26.505 31.479 26.26 31.438C26.178 31.424 26.112 31.357 26.099 31.276C26.018 30.75 25.709 30.297 25.25 30.031C24.986 29.879 24.686 29.798 24.383 29.798C24.167 29.798 23.955 29.838 23.753 29.916C23.732 29.924 23.709 29.928 23.686 29.928C23.624 29.928 23.563 29.899 23.523 29.85C23.282 29.556 23.076 29.212 22.895 28.799L22.765 28.5H22.438H13C12.173 28.5 11.5 27.827 11.5 27V25C11.5 24.173 12.173 23.5 13 23.5H25.489H25.803L25.939 23.217C26.022 23.044 26.075 22.883 26.099 22.724C26.111 22.643 26.178 22.576 26.26 22.562C26.505 22.521 26.754 22.5 27 22.5ZM27 22C26.719 22 26.444 22.024 26.177 22.07C25.884 22.12 25.651 22.355 25.606 22.649C25.587 22.772 25.544 22.889 25.49 23.001H13C11.895 23.001 11 23.896 11 25.001V27.001C11 28.106 11.895 29.001 13 29.001C13.553 29.001 18.555 29.001 22.438 29.001C22.622 29.421 22.85 29.818 23.137 30.168C23.274 30.335 23.478 30.429 23.686 30.429C23.769 30.429 23.852 30.414 23.933 30.383C24.076 30.328 24.229 30.299 24.383 30.299C24.593 30.299 24.805 30.352 25 30.465C25.34 30.661 25.55 30.993 25.605 31.352C25.65 31.646 25.883 31.881 26.176 31.931C26.444 31.976 26.719 32 27 32C27.281 32 27.556 31.976 27.823 31.93C28.116 31.88 28.349 31.645 28.394 31.351C28.449 30.991 28.659 30.66 28.999 30.464C29.194 30.351 29.407 30.298 29.616 30.298C29.77 30.298 29.923 30.327 30.066 30.382C30.146 30.413 30.23 30.428 30.313 30.428C30.521 30.428 30.725 30.334 30.862 30.167C31.204 29.75 31.479 29.278 31.672 28.765C31.783 28.472 31.678 28.149 31.438 27.946C31.171 27.719 31 27.38 31 27C31 26.62 31.171 26.281 31.44 26.054C31.679 25.851 31.784 25.529 31.674 25.235C31.48 24.722 31.205 24.249 30.864 23.833C30.727 23.666 30.523 23.572 30.315 23.572C30.232 23.572 30.149 23.587 30.068 23.618C29.925 23.673 29.772 23.702 29.618 23.702C29.408 23.702 29.196 23.649 29.001 23.536C28.661 23.34 28.451 23.008 28.396 22.649C28.351 22.355 28.118 22.12 27.825 22.07C27.556 22.024 27.281 22 27 22Z" fill="url(#paint6_linear_18398_48)"/>
<path d="M31 27C31 26.62 31.171 26.281 31.44 26.054C31.679 25.851 31.784 25.529 31.674 25.235C31.48 24.722 31.205 24.249 30.864 23.833C30.672 23.599 30.35 23.51 30.068 23.618C29.73 23.748 29.339 23.732 29 23.536C28.66 23.34 28.45 23.008 28.395 22.649C28.35 22.355 28.117 22.12 27.824 22.07C27.556 22.024 27.281 22 27 22C26.719 22 26.444 22.024 26.177 22.07C25.884 22.12 25.651 22.355 25.606 22.649C25.55 23.008 25.34 23.34 25 23.536C24.661 23.732 24.271 23.748 23.932 23.618C23.65 23.509 23.328 23.599 23.136 23.833C22.794 24.25 22.519 24.722 22.326 25.235C22.215 25.529 22.32 25.851 22.56 26.054C22.829 26.281 23 26.62 23 27C23 27.38 22.829 27.719 22.56 27.946C22.321 28.149 22.216 28.471 22.326 28.765C22.52 29.278 22.795 29.751 23.136 30.167C23.328 30.401 23.65 30.49 23.932 30.382C24.27 30.252 24.661 30.268 25 30.464C25.34 30.66 25.55 30.992 25.605 31.351C25.65 31.645 25.883 31.88 26.176 31.93C26.444 31.976 26.719 32 27 32C27.281 32 27.556 31.976 27.823 31.93C28.116 31.88 28.349 31.645 28.394 31.351C28.449 30.991 28.659 30.66 28.999 30.464C29.338 30.268 29.728 30.252 30.067 30.382C30.349 30.491 30.671 30.401 30.863 30.167C31.205 29.75 31.48 29.278 31.673 28.765C31.784 28.472 31.679 28.149 31.439 27.946C31.171 27.719 31 27.38 31 27ZM27 29C25.895 29 25 28.104 25 27C25 25.896 25.895 25 27 25C28.105 25 29 25.896 29 27C29 28.104 28.105 29 27 29Z" fill="url(#paint7_linear_18398_48)"/>
<defs>
<linearGradient id="paint0_linear_18398_48" x1="35.5" y1="0" x2="0" y2="35.5" gradientUnits="userSpaceOnUse">
<stop offset="0.5" stop-color="#F02EF0"/>
<stop offset="1" stop-color="#FCD5FC"/>
</linearGradient>
<linearGradient id="paint1_linear_18398_48" x1="14.586" y1="8.586" x2="25.414" y2="19.414" gradientUnits="userSpaceOnUse">
<stop stop-color="white" stop-opacity="0.6"/>
<stop offset="1" stop-color="white" stop-opacity="0.3"/>
</linearGradient>
<linearGradient id="paint2_linear_18398_48" x1="14.586" y1="8.586" x2="25.414" y2="19.414" gradientUnits="userSpaceOnUse">
<stop stop-color="white" stop-opacity="0.6"/>
<stop offset="0.493" stop-color="white" stop-opacity="0"/>
<stop offset="0.997" stop-color="white" stop-opacity="0.3"/>
</linearGradient>
<linearGradient id="paint3_linear_18398_48" x1="14.586" y1="14.586" x2="25.414" y2="25.414" gradientUnits="userSpaceOnUse">
<stop stop-color="white" stop-opacity="0.6"/>
<stop offset="1" stop-color="white" stop-opacity="0.3"/>
</linearGradient>
<linearGradient id="paint4_linear_18398_48" x1="14.586" y1="14.586" x2="25.414" y2="25.414" gradientUnits="userSpaceOnUse">
<stop stop-color="white" stop-opacity="0.6"/>
<stop offset="0.493" stop-color="white" stop-opacity="0"/>
<stop offset="0.997" stop-color="white" stop-opacity="0.3"/>
</linearGradient>
<linearGradient id="paint5_linear_18398_48" x1="15.138" y1="20.034" x2="28.07" y2="32.966" gradientUnits="userSpaceOnUse">
<stop stop-color="white" stop-opacity="0.6"/>
<stop offset="1" stop-color="white" stop-opacity="0.3"/>
</linearGradient>
<linearGradient id="paint6_linear_18398_48" x1="15.138" y1="20.034" x2="28.07" y2="32.966" gradientUnits="userSpaceOnUse">
<stop stop-color="white" stop-opacity="0.6"/>
<stop offset="0.493" stop-color="white" stop-opacity="0"/>
<stop offset="0.997" stop-color="white" stop-opacity="0.3"/>
</linearGradient>
<linearGradient id="paint7_linear_18398_48" x1="23.482" y1="23.482" x2="30.518" y2="30.518" gradientUnits="userSpaceOnUse">
<stop stop-color="white" stop-opacity="0.7"/>
<stop offset="0.519" stop-color="white" stop-opacity="0.45"/>
<stop offset="1" stop-color="white" stop-opacity="0.55"/>
</linearGradient>
</defs>
</svg>
