<svg width="40" height="40" viewBox="0 0 40 40" fill="none" xmlns="http://www.w3.org/2000/svg">
<path d="M0 8C0 3.58172 3.58172 0 8 0H32C36.4183 0 40 3.58172 40 8V32C40 36.4183 36.4183 40 32 40H8C3.58172 40 0 36.4183 0 32V8Z" fill="url(#paint0_linear_18398_78)"/>
<path d="M8 1H32C35.866 1 39 4.13401 39 8V32C39 35.866 35.866 39 32 39H8C4.13401 39 1 35.866 1 32V8C1 4.13401 4.13401 1 8 1Z" stroke="white" stroke-opacity="0.08" stroke-width="2"/>
<path d="M28 13V27C28 28.657 26.657 30 25 30H15C13.343 30 12 28.657 12 27V25C12 24.448 12.448 24 13 24C13.552 24 14 23.552 14 23C14 22.448 13.552 22 13 22C12.448 22 12 21.552 12 21V20.834C12 20.3 12.212 19.787 12.59 19.409L13.413 18.586C13.789 18.211 14 17.701 14 17.17V13C14 11.343 15.343 10 17 10H25C26.657 10 28 11.343 28 13Z" fill="url(#paint1_linear_18398_78)"/>
<path d="M25 10.5C26.379 10.5 27.5 11.621 27.5 13V27C27.5 28.379 26.379 29.5 25 29.5H15C13.621 29.5 12.5 28.379 12.5 27V25C12.5 24.724 12.724 24.5 13 24.5C13.827 24.5 14.5 23.827 14.5 23C14.5 22.173 13.827 21.5 13 21.5C12.724 21.5 12.5 21.276 12.5 21V20.835C12.5 20.43 12.658 20.05 12.944 19.764L13.767 18.941C14.24 18.467 14.5 17.839 14.5 17.17V13C14.5 11.621 15.621 10.5 17 10.5H25ZM25 10H17C15.343 10 14 11.343 14 13V17.17C14 17.701 13.789 18.211 13.413 18.587L12.59 19.41C12.212 19.788 12 20.3 12 20.835V21C12 21.552 12.448 22 13 22C13.552 22 14 22.448 14 23C14 23.552 13.552 24 13 24C12.448 24 12 24.448 12 25V27C12 28.657 13.343 30 15 30H25C26.657 30 28 28.657 28 27V13C28 11.343 26.657 10 25 10Z" fill="url(#paint2_linear_18398_78)"/>
<path d="M25 16C25.552 16 26 15.552 26 15V13C26 12.448 25.552 12 25 12C24.448 12 24 12.448 24 13V15C24 15.552 24.448 16 25 16Z" fill="url(#paint3_linear_18398_78)"/>
<path d="M21 16C21.552 16 22 15.552 22 15V13C22 12.448 21.552 12 21 12C20.448 12 20 12.448 20 13V15C20 15.552 20.448 16 21 16Z" fill="url(#paint4_linear_18398_78)"/>
<path d="M17 16C17.552 16 18 15.552 18 15V13C18 12.448 17.552 12 17 12C16.448 12 16 12.448 16 13V15C16 15.552 16.448 16 17 16Z" fill="url(#paint5_linear_18398_78)"/>
<defs>
<linearGradient id="paint0_linear_18398_78" x1="29" y1="-3.52412e-07" x2="1" y2="41" gradientUnits="userSpaceOnUse">
<stop offset="0.456731" stop-color="#316CF4"/>
<stop offset="1" stop-color="#CAE0FF"/>
</linearGradient>
<linearGradient id="paint1_linear_18398_78" x1="12.879" y1="12.879" x2="28.121" y2="28.121" gradientUnits="userSpaceOnUse">
<stop stop-color="white" stop-opacity="0.6"/>
<stop offset="1" stop-color="white" stop-opacity="0.3"/>
</linearGradient>
<linearGradient id="paint2_linear_18398_78" x1="12.879" y1="12.879" x2="28.121" y2="28.121" gradientUnits="userSpaceOnUse">
<stop stop-color="white" stop-opacity="0.6"/>
<stop offset="0.493" stop-color="white" stop-opacity="0"/>
<stop offset="0.997" stop-color="white" stop-opacity="0.3"/>
</linearGradient>
<linearGradient id="paint3_linear_18398_78" x1="23.793" y1="12.793" x2="26.207" y2="15.207" gradientUnits="userSpaceOnUse">
<stop stop-color="white" stop-opacity="0.7"/>
<stop offset="0.519" stop-color="white" stop-opacity="0.45"/>
<stop offset="1" stop-color="white" stop-opacity="0.55"/>
</linearGradient>
<linearGradient id="paint4_linear_18398_78" x1="19.793" y1="12.793" x2="22.207" y2="15.207" gradientUnits="userSpaceOnUse">
<stop stop-color="white" stop-opacity="0.7"/>
<stop offset="0.519" stop-color="white" stop-opacity="0.45"/>
<stop offset="1" stop-color="white" stop-opacity="0.55"/>
</linearGradient>
<linearGradient id="paint5_linear_18398_78" x1="15.793" y1="12.793" x2="18.207" y2="15.207" gradientUnits="userSpaceOnUse">
<stop stop-color="white" stop-opacity="0.7"/>
<stop offset="0.519" stop-color="white" stop-opacity="0.45"/>
<stop offset="1" stop-color="white" stop-opacity="0.55"/>
</linearGradient>
</defs>
</svg>
