<svg width="48" height="48" viewBox="0 0 48 48" fill="none" xmlns="http://www.w3.org/2000/svg">
<path d="M23.7137 11.5905C23.858 11.3405 24.2188 11.3405 24.3632 11.5905L38.7099 36.4397C38.8543 36.6897 38.6738 37.0022 38.3852 37.0022H9.69169C9.40302 37.0022 9.2226 36.6897 9.36693 36.4397L23.7137 11.5905Z" fill="#FFF1E0" stroke="#FF8F0E"/>
<path d="M24.0489 20.8192C24.7753 20.8192 25.3425 21.4473 25.2685 22.1699L24.5476 29.2172C24.5214 29.473 24.306 29.6675 24.0489 29.6675C23.7918 29.6675 23.5764 29.473 23.5503 29.2172L22.8293 22.1699C22.7554 21.4473 23.3225 20.8192 24.0489 20.8192Z" fill="#FF8F0E"/>
<circle cx="24.049" cy="32.5845" r="1.15425" fill="#FF8F0E"/>
</svg>
