<svg width="48" height="48" viewBox="0 0 48 48" fill="none" xmlns="http://www.w3.org/2000/svg">
<path d="M24.3339 37.8321C32.1797 37.8321 38.54 31.4718 38.54 23.626C38.54 15.7801 32.1797 9.41983 24.3339 9.41983C16.488 9.41983 10.1277 15.7801 10.1277 23.626C10.1277 31.4718 16.488 37.8321 24.3339 37.8321Z" fill="#ECECEE" stroke="#9698A3" stroke-linecap="round" stroke-linejoin="round"/>
<path d="M23.8388 27.1904V25.2657C23.8389 24.9958 24.0577 24.7769 24.3276 24.7769C26.6825 24.7768 28.4585 23.1553 28.4588 21.3064C28.4588 19.4573 26.6827 17.835 24.3276 17.835C21.9725 17.835 20.1965 19.4573 20.1965 21.3064C20.1963 21.5762 19.9775 21.7952 19.7076 21.7952C19.4378 21.7952 19.219 21.5762 19.2188 21.3064C19.2188 18.7814 21.5794 16.8573 24.3276 16.8573C27.0758 16.8573 29.4364 18.7814 29.4364 21.3064C29.4362 23.68 27.3497 25.5214 24.8164 25.7335V27.1904C24.8164 27.4604 24.5975 27.6792 24.3276 27.6793C24.0576 27.6793 23.8388 27.4604 23.8388 27.1904Z" fill="#9698A3"/>
<path d="M25.3275 30.1428C25.3275 30.6951 24.8798 31.1428 24.3275 31.1428C23.7753 31.1428 23.3275 30.6951 23.3275 30.1428C23.3275 29.5905 23.7753 29.1428 24.3275 29.1428C24.8798 29.1428 25.3275 29.5905 25.3275 30.1428Z" fill="#9698A3"/>
</svg>
