<svg width="24" height="24" viewBox="0 0 24 24" fill="none" xmlns="http://www.w3.org/2000/svg">
<path d="M12 4.5C12.4227 4.50002 12.7656 4.84297 12.7656 5.26562V11.2344H18.7354C19.1577 11.2347 19.4999 11.5776 19.5 12C19.5 12.4225 19.1577 12.7653 18.7354 12.7656H12.7656V18.7354C12.7653 19.1577 12.4225 19.5 12 19.5C11.5775 19.5 11.2347 19.1578 11.2344 18.7354V12.7656H5.26562C4.84296 12.7656 4.5 12.4227 4.5 12C4.50007 11.5774 4.843 11.2344 5.26562 11.2344H11.2344V5.26562C11.2344 4.84296 11.5773 4.5 12 4.5Z" fill="#141518"/>
</svg>
