<svg width="24" height="24" viewBox="0 0 24 24" fill="none" xmlns="http://www.w3.org/2000/svg">
<path d="M12.0002 3.3858C12.4474 3.3859 12.8098 3.74808 12.8098 4.19537V11.1905H19.8C20.2473 11.1905 20.6096 11.5527 20.6096 12.0001C20.6095 12.4474 20.2473 12.8096 19.8 12.8096H12.8098V19.8047C12.8098 20.252 12.4474 20.6142 12.0002 20.6143C11.5528 20.6143 11.1906 20.2521 11.1906 19.8047V12.8096H4.20038C3.75305 12.8096 3.38986 12.4474 3.38983 12.0001C3.38983 11.5527 3.75303 11.1905 4.20038 11.1905H11.1906V4.19537C11.1906 3.74802 11.5528 3.3858 12.0002 3.3858Z" fill="#141518"/>
</svg>
