<svg width="24" height="24" viewBox="0 0 24 24" fill="none" xmlns="http://www.w3.org/2000/svg">
<path d="M11.9995 2.40002C17.3013 2.40002 21.5998 6.69784 21.6 11.9995C21.6 17.3014 17.3014 21.6 11.9995 21.6C6.6978 21.5998 2.39999 17.3013 2.39999 11.9995C2.4002 6.69797 6.69794 2.40024 11.9995 2.40002ZM11.9995 6.691C11.5524 6.69122 11.1899 7.05335 11.1899 7.50056V11.191H7.49955C7.0524 11.1912 6.68999 11.5533 6.68999 12.0005C6.69028 12.4475 7.05258 12.8099 7.49955 12.8101H11.1899V16.5005C11.1902 16.9474 11.5525 17.3098 11.9995 17.31C12.4466 17.31 12.8088 16.9475 12.8091 16.5005V12.8101H16.4995C16.9466 12.81 17.3087 12.4476 17.309 12.0005C17.309 11.5532 16.9468 11.191 16.4995 11.191H12.8091V7.50056C12.8091 7.05324 12.4468 6.69105 11.9995 6.691Z" fill="#141518"/>
</svg>
