<svg width="24" height="24" viewBox="0 0 24 24" fill="none" xmlns="http://www.w3.org/2000/svg">
<path d="M10.8606 11.6294C12.2256 11.4585 13.6122 11.5827 14.925 11.9937C15.3516 12.1275 15.5897 12.5826 15.4563 13.0093C15.3226 13.4359 14.8674 13.6729 14.4407 13.5396C13.3493 13.198 12.1965 13.0947 11.0618 13.2368C9.92678 13.3791 8.83513 13.7643 7.86156 14.3647C6.88803 14.9653 6.05468 15.7678 5.41821 16.7183C4.78182 17.6686 4.3567 18.7448 4.17211 19.8735C4.0999 20.3147 3.68359 20.6142 3.24242 20.5425C2.80117 20.4702 2.5015 20.0541 2.57348 19.6128C2.79544 18.255 3.30604 16.9601 4.07153 15.8169C4.8371 14.6737 5.83996 13.7082 7.01098 12.9858C8.18202 12.2635 9.49538 11.8005 10.8606 11.6294ZM19.5657 11.2456C19.8148 10.9151 20.2847 10.8492 20.6155 11.0981C20.9461 11.3472 21.0127 11.8171 20.7639 12.1479L20.4368 12.5815L21.1223 13.1157C21.4158 13.345 21.4674 13.7682 21.2385 14.062C21.0092 14.3559 20.5852 14.4085 20.2913 14.1792L19.6252 13.6597L19.3694 13.9985L20.5325 14.9399C20.8219 15.1744 20.8662 15.5995 20.6321 15.8892C20.3976 16.1787 19.9726 16.2241 19.6829 15.9897L18.5569 15.0786L18.3059 15.4116C18.4558 15.5558 18.5933 15.7174 18.7141 15.897C19.6324 17.2626 19.2701 19.1154 17.9045 20.0337C16.539 20.9518 14.6871 20.5886 13.7688 19.2231C12.8508 17.8577 13.2133 16.0068 14.5784 15.0884C15.3129 14.5945 16.1877 14.4734 16.9827 14.6772L19.5657 11.2456ZM16.885 16.229C16.427 16.0085 15.8675 16.0284 15.4153 16.3325C14.7375 16.7886 14.5582 17.7082 15.0139 18.3862C15.47 19.064 16.3896 19.2443 17.0676 18.7886C17.7455 18.3325 17.9259 17.412 17.47 16.7339C17.3299 16.5257 17.1458 16.3646 16.9387 16.2544C16.9208 16.2462 16.9025 16.2387 16.885 16.229ZM12.2776 2.25342C14.4968 2.36586 16.262 4.20061 16.262 6.44775L16.2561 6.66357C16.1434 8.88249 14.3087 10.6478 12.0618 10.6479L11.845 10.6421C9.69778 10.533 7.97646 8.81078 7.86742 6.66357L7.86156 6.44775C7.86156 4.1282 9.74222 2.24664 12.0618 2.24658L12.2776 2.25342ZM12.0618 3.86768C10.6369 3.86774 9.48168 5.0229 9.48168 6.44775C9.48205 7.8723 10.6371 9.02777 12.0618 9.02783C13.4863 9.02773 14.6415 7.87227 14.6418 6.44775C14.6418 5.02292 13.4866 3.86778 12.0618 3.86768Z" fill="#141518"/>
</svg>
