<svg width="24" height="24" viewBox="0 0 24 24" fill="none" xmlns="http://www.w3.org/2000/svg">
<path d="M14.3662 11.8008C14.3662 10.3842 13.2174 9.23538 11.8008 9.23538C10.3842 9.23538 9.23535 10.3842 9.23535 11.8008C9.23535 13.2174 10.3842 14.3662 11.8008 14.3662C13.2174 14.3662 14.3662 13.2174 14.3662 11.8008ZM15.9853 11.8008C15.9853 14.1121 14.1121 15.9854 11.8008 15.9854C9.48946 15.9854 7.6162 14.1121 7.6162 11.8008C7.6162 9.48949 9.48946 7.61624 11.8008 7.61624C14.1121 7.61624 15.9853 9.48949 15.9853 11.8008Z" fill="#141518"/>
<path d="M11.8004 2.21741C12.0495 2.21741 12.2957 2.27947 12.5143 2.39905L16.2262 4.43225C16.6185 4.6471 16.7623 5.13949 16.5475 5.53186C16.3325 5.92389 15.8401 6.0679 15.4478 5.85315L11.8004 3.8551L4.51035 7.84729V15.7545L11.8004 19.7457L19.0904 15.7555V11.8004C19.0904 11.3531 19.4536 10.9908 19.901 10.9908C20.3482 10.9909 20.7105 11.3531 20.7105 11.8004V15.8346C20.7106 16.1011 20.6393 16.3632 20.5035 16.5924C20.3677 16.8216 20.1727 17.0104 19.9391 17.1383L12.5143 21.2028L12.5133 21.2037C12.2948 21.3232 12.0494 21.3854 11.8004 21.3854C11.5514 21.3853 11.3059 21.3233 11.0875 21.2037L3.66269 17.1383C3.42959 17.0107 3.23501 16.8228 3.09921 16.5944C2.96338 16.3658 2.89181 16.1044 2.8912 15.8385V7.76428C2.89181 7.4984 2.96338 7.23699 3.09921 7.00842C3.235 6.77997 3.42958 6.59208 3.66269 6.46448L11.0875 2.39905L11.2564 2.31995C11.4291 2.25193 11.6137 2.21746 11.8004 2.21741Z" fill="#141518"/>
<path d="M19.2827 4.34787C19.4214 3.94176 19.9958 3.94176 20.1344 4.34786L20.5573 5.58604C20.6173 5.76183 20.7554 5.89991 20.9312 5.95994L22.1693 6.38276C22.5754 6.52144 22.5754 7.09579 22.1693 7.23447L20.9312 7.65729C20.7554 7.71733 20.6173 7.8554 20.5573 8.0312L20.1344 9.26937C19.9958 9.67547 19.4214 9.67547 19.2827 9.26937L18.8599 8.0312C18.7999 7.8554 18.6618 7.71733 18.486 7.65729L17.2478 7.23447C16.8417 7.09579 16.8417 6.52144 17.2478 6.38276L18.486 5.95994C18.6618 5.89991 18.7999 5.76183 18.8599 5.58604L19.2827 4.34787Z" fill="#141518"/>
</svg>
