<svg width="24" height="24" viewBox="0 0 24 24" fill="none" xmlns="http://www.w3.org/2000/svg">
<path d="M10.7744 3.5572C9.56698 3.27348 8.30129 3.37073 7.15136 3.83552C6.90488 3.93524 6.72325 4.14932 6.66503 4.40876C6.60681 4.66823 6.6791 4.93985 6.85936 5.13532L9.82128 8.34431L9.56054 9.55915L8.34569 9.8199L5.13573 6.85896C4.94026 6.6787 4.66863 6.60641 4.40917 6.66462C4.14973 6.72284 3.93566 6.90448 3.83593 7.15095C3.37113 8.30088 3.27389 9.56658 3.55761 10.774C3.84135 11.9814 4.49164 13.0716 5.41991 13.8941C6.34829 14.7167 7.50932 15.2314 8.74218 15.3677C9.75336 15.4795 10.7722 15.3316 11.7051 14.9439L15.8496 19.7506C15.8624 19.7654 15.8758 19.7797 15.8896 19.7935C16.4074 20.3113 17.1096 20.6021 17.8418 20.6021C18.574 20.6021 19.2762 20.3113 19.7939 19.7935C20.3117 19.2758 20.6025 18.5736 20.6025 17.8414C20.6025 17.1092 20.3116 16.4069 19.7939 15.8892C19.7801 15.8754 19.7658 15.862 19.751 15.8492L14.9453 11.7037C15.3326 10.7712 15.4798 9.75253 15.3682 8.74177C15.2318 7.50891 14.7171 6.34788 13.8945 5.4195C13.072 4.49124 11.9818 3.84094 10.7744 3.5572ZM18.9834 17.8414C18.9834 18.144 18.8624 18.4341 18.6484 18.648C18.4345 18.862 18.1444 18.983 17.8418 18.983C17.5456 18.9829 17.2623 18.8663 17.0498 18.6607L12.5264 13.4176L12.4258 13.3189C12.1732 13.1125 11.8151 13.0756 11.5215 13.2379C10.7289 13.6758 9.81999 13.8569 8.91991 13.7574C8.01974 13.6579 7.17199 13.2828 6.49413 12.6822C5.81629 12.0816 5.34098 11.2855 5.13378 10.4039C5.02326 9.9336 4.99569 9.45134 5.04198 8.97615L7.55468 11.2955C7.74825 11.4741 8.01688 11.5481 8.2744 11.4927L10.4121 11.0328C10.7233 10.9658 10.9662 10.7229 11.0332 10.4117L11.4932 8.274C11.5485 8.01649 11.4745 7.74784 11.2959 7.55427L8.97753 5.0406C9.45238 4.99446 9.93437 5.02294 10.4043 5.13337C11.2859 5.34058 12.082 5.81589 12.6826 6.49372C13.2832 7.17158 13.6583 8.01934 13.7578 8.9195C13.8573 9.81958 13.6762 10.7284 13.2383 11.5211C13.0529 11.8564 13.1279 12.2756 13.418 12.5259L18.6621 17.0484C18.8677 17.2609 18.9833 17.5452 18.9834 17.8414Z" fill="#141518"/>
<path d="M18.4202 2.69313C18.5589 2.28702 19.1333 2.28702 19.2719 2.69313L19.6948 3.9313C19.7548 4.1071 19.8929 4.24517 20.0687 4.30521L21.3068 4.72803C21.7129 4.8667 21.7129 5.44106 21.3068 5.57973L20.0687 6.00255C19.8929 6.06259 19.7548 6.20066 19.6948 6.37646L19.2719 7.61463C19.1333 8.02073 18.5589 8.02074 18.4202 7.61463L17.9974 6.37646C17.9374 6.20066 17.7993 6.06259 17.6235 6.00255L16.3853 5.57973C15.9792 5.44106 15.9792 4.8667 16.3853 4.72803L17.6235 4.30521C17.7993 4.24517 17.9374 4.1071 17.9974 3.9313L18.4202 2.69313Z" fill="#141518"/>
</svg>
