<svg width="24" height="24" viewBox="0 0 24 24" fill="none" xmlns="http://www.w3.org/2000/svg">
<path d="M16.9848 3.29046C17.4739 3.29046 17.9588 3.3865 18.4106 3.57366C18.8623 3.76082 19.2729 4.03554 19.6186 4.38128C19.9642 4.72702 20.2391 5.13762 20.4262 5.58929C20.6132 6.04089 20.7094 6.52532 20.7094 7.01409C20.7094 7.50301 20.6133 7.98816 20.4262 8.43987C20.2391 8.89147 19.9643 9.30222 19.6186 9.64788L8.80024 20.4662C8.64836 20.618 8.4417 20.7035 8.227 20.7035H4.10591C3.65875 20.7035 3.29657 20.3401 3.29634 19.893V15.7719C3.29639 15.5575 3.38122 15.3514 3.53266 15.1996L14.352 4.38128C14.6978 4.03552 15.1083 3.76082 15.56 3.57366C16.0117 3.38656 16.4959 3.29051 16.9848 3.29046ZM19.9672 19.0278C20.4142 19.0282 20.7768 19.3903 20.7768 19.8373C20.7768 20.2844 20.4142 20.6465 19.9672 20.6469H11.8813C11.4339 20.6469 11.0717 20.2847 11.0717 19.8373C11.0718 19.39 11.434 19.0278 11.8813 19.0278H19.9672ZM4.91548 16.1088V19.0834H7.89204L16.8696 10.1049L13.894 7.12933L4.91548 16.1088ZM5.14888 2.84124C5.34352 2.27181 6.14949 2.27186 6.34419 2.84124L6.67134 3.80022C6.84489 4.30844 7.24422 4.70764 7.75239 4.88128L8.71138 5.2094C9.28101 5.40402 9.28107 6.2092 8.71138 6.40374L7.75239 6.73089C7.24425 6.90446 6.84497 7.30382 6.67134 7.81194L6.34419 8.77093C6.14963 9.34065 5.34343 9.34065 5.14888 8.77093L4.82173 7.81194C4.64807 7.30381 4.24886 6.90443 3.74067 6.73089L2.78169 6.40374C2.21225 6.20911 2.21234 5.40413 2.78169 5.2094L3.74067 4.88128C4.24895 4.70768 4.64815 4.30852 4.82173 3.80022L5.14888 2.84124ZM16.9848 4.9096C16.7088 4.90965 16.4352 4.96417 16.1801 5.06976C15.9249 5.1755 15.6928 5.33145 15.4975 5.52679L15.0395 5.98382L18.0151 8.9594L18.4731 8.50237C18.6683 8.30714 18.8234 8.07481 18.9291 7.81976C19.0348 7.5646 19.0892 7.29028 19.0893 7.01409C19.0893 6.73806 19.0347 6.46446 18.9291 6.2094C18.8235 5.95429 18.6683 5.7221 18.4731 5.52679C18.2777 5.33141 18.0457 5.1755 17.7905 5.06976C17.5352 4.96403 17.2611 4.9096 16.9848 4.9096Z" fill="#141518"/>
</svg>
