<svg width="24" height="24" viewBox="0 0 24 24" fill="none" xmlns="http://www.w3.org/2000/svg">
<path d="M11.9995 2.3999C17.3012 2.39995 21.5999 6.69784 21.6001 11.9995L21.5874 12.4937C21.3304 17.566 17.1357 21.6 11.9995 21.6001L11.5063 21.5874C6.43386 21.3305 2.39995 17.1358 2.3999 11.9995C2.40011 6.69794 6.69794 2.40011 11.9995 2.3999ZM11.9995 4.02002C7.59263 4.02023 4.02023 7.59263 4.02002 11.9995C4.02007 16.4065 7.59254 19.9798 11.9995 19.98C16.4066 19.9799 19.9799 16.4066 19.98 11.9995C19.9798 7.59254 16.4065 4.02007 11.9995 4.02002ZM11.9995 15.0347C12.6341 15.0347 13.1489 15.5495 13.1489 16.1841C13.1487 16.8185 12.634 17.3325 11.9995 17.3325C11.3652 17.3323 10.8513 16.8184 10.8511 16.1841C10.8511 15.5496 11.3651 15.0349 11.9995 15.0347ZM11.9995 6.62744C12.4469 6.62744 12.8091 6.98966 12.8091 7.43701V12.9507C12.809 13.3979 12.4468 13.7612 11.9995 13.7612C11.5524 13.761 11.1901 13.3978 11.1899 12.9507V7.43701C11.1899 6.98978 11.5523 6.62764 11.9995 6.62744Z" fill="#141518"/>
</svg>
