<svg width="24" height="24" viewBox="0 0 24 24" fill="none" xmlns="http://www.w3.org/2000/svg">
<path d="M4.1123 4.16992C4.55949 4.17012 4.92188 4.53226 4.92188 4.97949V18.1455L20.7441 18.1699C21.1913 18.1708 21.5544 18.5342 21.5537 18.9814C21.553 19.4286 21.1893 19.7905 20.7422 19.79L4.11133 19.7646C3.66447 19.764 3.30273 19.401 3.30273 18.9541V4.97949C3.30273 4.53214 3.66495 4.16992 4.1123 4.16992ZM11.5947 8.36035C11.8377 8.36424 12.067 8.47643 12.2178 8.66699L15.6416 12.998L19.582 8.65625C19.8826 8.32494 20.3953 8.29999 20.7266 8.60059C21.0573 8.90112 21.0823 9.41299 20.7822 9.74414L16.2002 14.7949C16.0403 14.9711 15.8101 15.0676 15.5723 15.0596C15.3347 15.0514 15.1124 14.9393 14.9648 14.7529L11.5615 10.4502L7.28711 15.5195C6.99878 15.8613 6.48745 15.9043 6.14551 15.6162C5.80398 15.3278 5.7608 14.8174 6.04883 14.4756L10.9629 8.64746L11.0254 8.58203C11.1781 8.43737 11.3821 8.35708 11.5947 8.36035Z" fill="black"/>
</svg>
