<svg width="24" height="24" viewBox="0 0 24 24" fill="none" xmlns="http://www.w3.org/2000/svg">
<path d="M9.065 3.39644C10.9653 2.85123 13.1092 2.9023 15.5437 3.65338L15.5683 3.66099L15.5929 3.67037C17.9517 4.56823 19.437 5.83867 20.3059 7.21793C21.1714 8.59184 21.387 10.013 21.3114 11.1537C21.2817 11.6 20.8958 11.9377 20.4495 11.9081C20.0032 11.8784 19.6652 11.4928 19.6948 11.0464C19.7515 10.1915 19.5908 9.12206 18.9354 8.0816C18.2858 7.05042 17.1119 5.98703 15.0404 5.19381C12.8603 4.52546 11.0506 4.51221 9.51207 4.95357C7.96762 5.39668 6.62754 6.31755 5.42515 7.62603C4.44264 8.73664 3.25078 11.8207 5.37857 14.761C5.60403 14.9445 5.72329 15.2434 5.66246 15.5482L4.97662 18.9815L9.28648 17.6215L9.37818 17.5958C9.56254 17.5511 9.75044 17.5452 9.93043 17.5726L10.0195 17.589L10.0318 17.5914L10.0661 17.5969L10.0669 17.5972C10.0679 17.5974 10.0697 17.5977 10.0719 17.5981C10.0767 17.5991 10.0842 17.6008 10.0942 17.6028C10.1143 17.6068 10.1447 17.6127 10.1833 17.6201C10.2607 17.6349 10.371 17.6551 10.5 17.6763C10.6038 17.6935 10.717 17.7099 10.8328 17.7255C11.1151 17.7599 11.4024 17.7815 11.6941 17.7894C11.9535 17.7924 12.2172 17.7862 12.4166 17.778C12.8635 17.7596 13.2407 18.1071 13.2591 18.5541C13.2774 19.001 12.93 19.3783 12.4831 19.3966C12.3586 19.4018 12.2028 19.4061 12.0325 19.4087C12.0047 19.4115 11.9766 19.4136 11.9481 19.4136C11.8495 19.4136 11.7512 19.4119 11.6534 19.4092C11.5249 19.4075 11.3951 19.4043 11.2699 19.3972C11.0423 19.3844 10.805 19.3571 10.5893 19.3275C10.2966 19.2904 10.0081 19.2419 9.72447 19.1819L5.12544 20.6333C4.10277 20.956 3.10846 20.0642 3.31841 19.0126L3.99722 15.6132C1.48535 12.0426 2.79319 8.29475 4.09009 6.69644L4.21666 6.54703L4.22545 6.53707C5.58058 5.06033 7.16714 3.94097 9.065 3.39644Z" fill="#141518"/>
<path fill-rule="evenodd" clip-rule="evenodd" d="M17.0428 12.1354C17.373 11.4665 18.327 11.4665 18.6571 12.1354L19.2717 13.3808C19.4028 13.6464 19.6563 13.8304 19.9494 13.873L21.3237 14.0728C22.0619 14.1801 22.3565 15.0873 21.8223 15.608L20.828 16.5774C20.6159 16.7842 20.5189 17.0821 20.569 17.374L20.804 18.7427C20.93 19.4779 20.1582 20.0385 19.4979 19.6914L18.2689 19.0454C18.0067 18.9075 17.6932 18.9075 17.431 19.0454L16.202 19.6914L16.1396 19.7215C15.4942 20.0034 14.7738 19.4549 14.896 18.7427L15.1309 17.374C15.1779 17.1003 15.0955 16.8214 14.9103 16.6172L14.8719 16.5774L13.8776 15.608C13.3435 15.0873 13.6381 14.1801 14.3762 14.0728L15.7505 13.873C16.0254 13.8331 16.2655 13.6688 16.4024 13.4295L16.4282 13.3808L17.0428 12.1354ZM17.7735 14.0447C17.4239 14.753 16.7478 15.2439 15.9662 15.3575L15.7951 15.3821L15.919 15.5031C16.4846 16.0544 16.7427 16.8489 16.6092 17.6274L16.5799 17.7979L16.7332 17.7176L16.7991 17.6842C17.4623 17.3612 18.2376 17.3612 18.9008 17.6842L18.9668 17.7176L19.1197 17.7979L19.0907 17.6274C18.9572 16.8489 19.2153 16.0544 19.7809 15.5031L19.9045 15.3821L19.7337 15.3575C18.9521 15.2439 18.276 14.753 17.9264 14.0447L17.85 13.8897L17.7735 14.0447Z" fill="#141518"/>
<path d="M11.7002 11.8501C12.1144 11.8501 12.4502 12.1859 12.4502 12.6001C12.4502 13.0142 12.1144 13.35 11.7002 13.3501H8.70025C8.28606 13.3501 7.95028 13.0142 7.95025 12.6001C7.95025 12.1858 8.28604 11.8501 8.70025 11.8501H11.7002Z" fill="#141518"/>
<path d="M15.0002 8.55006C15.4144 8.55013 15.7502 8.88589 15.7502 9.30006C15.7502 9.7142 15.4144 10.05 15.0002 10.0501H8.70025C8.28606 10.0501 7.95028 9.71424 7.95025 9.30006C7.95025 8.88584 8.28604 8.55006 8.70025 8.55006H15.0002Z" fill="#141518"/>
</svg>
