<svg width="24" height="24" viewBox="0 0 24 24" fill="none" xmlns="http://www.w3.org/2000/svg">
<path d="M20.187 3.55408C21.2971 3.55408 22.1971 4.45404 22.1971 5.56414V17.7276C22.197 18.8377 21.2971 19.7377 20.187 19.7377H11.3818L11.9596 20.3388C12.2695 20.6614 12.2593 21.1744 11.9367 21.4844C11.6141 21.7942 11.1011 21.7838 10.7912 21.4612L8.89601 19.4889C8.59486 19.1755 8.59491 18.6798 8.89601 18.3663L10.7912 16.3937C11.1012 16.0712 11.6142 16.061 11.9367 16.3709C12.2593 16.6808 12.2695 17.1938 11.9596 17.5164L11.3818 18.1176H20.187C20.4024 18.1176 20.5772 17.943 20.5773 17.7276V5.56414C20.5773 5.34874 20.4024 5.17419 20.187 5.17419H3.81359C3.59823 5.17423 3.42365 5.34877 3.42365 5.56414V17.7276C3.42368 17.9429 3.59825 18.1175 3.81359 18.1176H5.6549C6.10225 18.1176 6.46495 18.4803 6.46495 18.9276C6.46491 19.3749 6.10222 19.7377 5.6549 19.7377H3.81359C2.70355 19.7376 1.80357 18.8376 1.80353 17.7276V5.56414C1.80353 4.45407 2.70353 3.55412 3.81359 3.55408H20.187Z" fill="#141518"/>
<path fill-rule="evenodd" clip-rule="evenodd" d="M7.75284 8.03503C8.23078 8.03506 8.65949 8.32973 8.83068 8.77595L10.6251 13.4535C10.8234 13.9705 10.4417 14.5256 9.888 14.5258C9.55095 14.5258 9.25089 14.3118 9.14122 13.9931L8.93322 13.3893C8.92332 13.3898 8.91334 13.3908 8.90333 13.3908H6.62374C6.58955 13.3908 6.55602 13.3871 6.52325 13.382L6.30206 14.0098C6.19315 14.3189 5.90087 14.5257 5.57316 14.5258C5.03013 14.5257 4.65675 13.9803 4.85304 13.474L6.67677 8.77185C6.84907 8.32774 7.27648 8.03504 7.75284 8.03503ZM6.97824 12.0906H8.48673L7.74142 9.9241L6.97824 12.0906Z" fill="#141518"/>
<path fill-rule="evenodd" clip-rule="evenodd" d="M14.1448 8.03503C14.5598 8.03504 14.9351 8.12054 15.2707 8.29138C15.6064 8.45617 15.872 8.69437 16.0673 9.00564C16.2625 9.31077 16.3603 9.68308 16.3603 10.1224C16.3602 10.5496 16.2625 10.9219 16.0673 11.2392C15.872 11.5504 15.6064 11.7887 15.2707 11.9535C14.9351 12.1182 14.5598 12.2005 14.1448 12.2005H12.9179V13.7066C12.9178 14.159 12.5512 14.5257 12.0987 14.5258C11.6463 14.5257 11.2794 14.159 11.2793 13.7066V8.85447C11.2793 8.41325 11.6282 8.05416 12.0651 8.0365V8.03503H14.1448ZM12.9179 10.9829H13.8612C14.0197 10.9829 14.163 10.9524 14.291 10.8915C14.4253 10.8243 14.5325 10.7264 14.6118 10.5982C14.6911 10.4701 14.7305 10.3115 14.7305 10.1224C14.7305 9.93331 14.6911 9.7745 14.6118 9.64636C14.5325 9.51209 14.4253 9.41443 14.291 9.35339C14.163 9.28636 14.0198 9.25294 13.8612 9.25291H12.9179V10.9829Z" fill="#141518"/>
<path d="M17.7806 8.03503C18.2331 8.03503 18.6 8.40194 18.6 8.85447V13.7066C18.6 14.1591 18.2331 14.5258 17.7806 14.5258C17.3281 14.5257 16.9612 14.1591 16.9611 13.7066V8.85447C16.9611 8.40197 17.3281 8.03507 17.7806 8.03503Z" fill="#141518"/>
</svg>
