<svg width="24" height="24" viewBox="0 0 24 24" fill="none" xmlns="http://www.w3.org/2000/svg">
<path d="M11.9996 3.26953C13.5609 3.26953 15.0287 3.67989 16.2985 4.39941C16.6876 4.61992 16.8245 5.11377 16.6041 5.50293C16.3836 5.89203 15.8898 6.02891 15.5006 5.80859C14.468 5.2234 13.2738 4.88867 11.9996 4.88867C8.07236 4.88876 4.88831 8.07285 4.88831 12C4.88832 15.9271 8.07237 19.1103 11.9996 19.1104C15.927 19.1104 19.1109 15.9272 19.111 12C19.111 11.4759 19.054 10.966 18.9469 10.4756C18.8515 10.0385 19.129 9.60714 19.566 9.51172C20.003 9.4164 20.4345 9.69288 20.5299 10.1299C20.6616 10.7331 20.7311 11.3589 20.7311 12C20.7311 16.8219 16.8216 20.7305 11.9996 20.7305C7.17771 20.7304 3.26918 16.8219 3.26917 12C3.26917 7.17811 7.1777 3.26961 11.9996 3.26953ZM19.3483 5.08984C19.6646 4.77391 20.1775 4.77479 20.4938 5.09082C20.8099 5.40712 20.8099 5.92005 20.4938 6.23633L12.5729 14.1562C12.2566 14.4726 11.7437 14.4726 11.4274 14.1562L8.2594 10.9883C7.94333 10.672 7.94237 10.1591 8.25842 9.84277C8.5746 9.52674 9.08761 9.52697 9.40393 9.84277L11.9996 12.4375L19.3483 5.08984Z" fill="#141518"/>
</svg>
