<svg width="24" height="24" viewBox="0 0 24 24" fill="none" xmlns="http://www.w3.org/2000/svg">
<path d="M15 2.49023C15.7784 2.49043 16.4099 3.12099 16.4102 3.89941V4.29102H17.3994C18.6752 4.29102 19.71 5.32481 19.71 6.60059V19.2002C19.7097 20.4757 18.675 21.5107 17.3994 21.5107H6.59961C5.32416 21.5105 4.2903 20.4756 4.29004 19.2002V6.60059C4.29004 5.32493 5.324 4.29121 6.59961 4.29102H7.59082V3.89941C7.59103 3.121 8.22159 2.49045 9 2.49023H15ZM6.59961 5.91016C6.2187 5.91035 5.90918 6.21963 5.90918 6.60059V19.2002C5.90944 19.5809 6.21886 19.8904 6.59961 19.8906H17.3994C17.7803 19.8906 18.0896 19.581 18.0898 19.2002V6.60059C18.0898 6.21951 17.7805 5.91016 17.3994 5.91016H16.4102V6.2998C16.4102 7.0784 15.7786 7.70976 15 7.70996H9C8.22146 7.70975 7.59082 7.0784 7.59082 6.2998V5.91016H6.59961ZM15.3271 10.5264C15.6434 10.2105 16.1564 10.2105 16.4727 10.5264C16.7889 10.8426 16.7888 11.3565 16.4727 11.6729L12.3975 15.748C11.8468 16.2987 10.954 16.2986 10.4033 15.748L8.12695 13.4727C7.81086 13.1565 7.81105 12.6435 8.12695 12.3271C8.44329 12.011 8.95717 12.0109 9.27344 12.3271L11.3994 14.4531L15.3271 10.5264ZM9.20996 6.08984H14.79V4.10938H9.20996V6.08984Z" fill="#141518"/>
</svg>
