<svg width="24" height="24" viewBox="0 0 24 24" fill="none" xmlns="http://www.w3.org/2000/svg">
<path d="M18.9002 3.30023C19.8943 3.30023 20.7002 4.10612 20.7002 5.10023V18.9002C20.7002 19.8943 19.8943 20.7002 18.9002 20.7002H5.10017L5.00759 20.6979C4.0565 20.6497 3.30017 19.8633 3.30017 18.9002V5.10023C3.30017 4.13717 4.0565 3.35076 5.00759 3.30258L5.10017 3.30023H18.9002ZM4.92029 18.9002C4.92029 18.9996 5.00076 19.0801 5.10017 19.0801H18.9002C18.9996 19.0801 19.0801 18.9996 19.0801 18.9002V15.6017H16.0598C15.9751 15.6017 15.8945 15.638 15.8366 15.6998C15.4512 16.111 15.0022 16.4607 14.5045 16.7337C13.7147 17.1669 12.828 17.394 11.9272 17.3941C11.0266 17.3941 10.1403 17.1673 9.35056 16.7343C8.8525 16.4612 8.40294 16.1113 8.01726 15.6998C7.95934 15.6381 7.87896 15.6017 7.79431 15.6017H4.92029V18.9002ZM5.10017 4.92035C5.00076 4.92035 4.92029 5.00082 4.92029 5.10023V14.1161H8.18455C8.48188 14.1161 8.75565 14.2668 8.9489 14.4928C9.2669 14.8647 9.66347 15.2114 10.0648 15.4315C10.6356 15.7444 11.2762 15.9085 11.9272 15.9084C12.5782 15.9084 13.2191 15.7442 13.7899 15.4312C14.2159 15.1975 14.593 14.886 14.9023 14.5148C15.0991 14.2786 15.3795 14.1167 15.6869 14.1166L19.0801 14.1161V5.10023C19.0801 5.00082 18.9996 4.92035 18.9002 4.92035H5.10017ZM15.9002 10.3332C16.3144 10.3332 16.6502 10.669 16.6502 11.0832C16.6502 11.4975 16.3144 11.8332 15.9002 11.8332H8.10017C7.68596 11.8332 7.35017 11.4975 7.35017 11.0832C7.35017 10.669 7.68596 10.3332 8.10017 10.3332H15.9002ZM15.9002 6.66674C16.3144 6.66674 16.6502 7.00252 16.6502 7.41674C16.6502 7.83095 16.3144 8.16674 15.9002 8.16674H8.10017C7.68596 8.16674 7.35017 7.83095 7.35017 7.41674C7.35017 7.00252 7.68596 6.66674 8.10017 6.66674H15.9002Z" fill="black"/>
</svg>
