<svg width="24" height="24" viewBox="0 0 24 24" fill="none" xmlns="http://www.w3.org/2000/svg">
<path d="M18.3926 17.5821C18.3924 17.6321 18.3868 17.681 18.3779 17.7286C18.3774 17.7311 18.3775 17.7338 18.3769 17.7364C18.3684 17.7797 18.356 17.8217 18.3408 17.8623C18.3375 17.8711 18.3346 17.88 18.3311 17.8887C18.3262 17.9004 18.3198 17.9114 18.3144 17.9229C18.3085 17.9355 18.3035 17.9486 18.2969 17.961C18.2815 17.9896 18.2637 18.0166 18.2451 18.043C18.2185 18.0809 18.1891 18.1176 18.1553 18.1514C18.1225 18.1842 18.0864 18.2123 18.0498 18.2383C17.9182 18.3318 17.7584 18.3881 17.585 18.3887L8.41892 18.4209C7.97169 18.4224 7.60811 18.0605 7.60642 17.6133C7.60504 17.1662 7.96593 16.8015 8.41306 16.7999L15.6348 16.7745L5.84568 6.98651C5.5294 6.67018 5.52937 6.1583 5.84568 5.84199C6.162 5.52586 6.67394 5.52577 6.99021 5.84199L16.7793 15.6299L16.8037 8.40934C16.8056 7.96243 17.1702 7.60139 17.6172 7.60271C18.0642 7.60461 18.4254 7.96904 18.4238 8.41618L18.3926 17.5821Z" fill="#141518"/>
</svg>
