<svg width="24" height="24" viewBox="0 0 24 24" fill="none" xmlns="http://www.w3.org/2000/svg">
<path d="M3.29596 12.0006C3.29622 12.4477 3.65834 12.8091 4.10553 12.8091H17.9483L12.8604 17.9332C12.5454 18.2506 12.5479 18.7635 12.8653 19.0787C13.1827 19.3936 13.6957 19.3921 14.0108 19.0748L20.4698 12.5709C20.5216 12.5186 20.5631 12.4601 20.5977 12.399C20.601 12.3932 20.6043 12.3873 20.6075 12.3814C20.627 12.3449 20.6438 12.3076 20.6573 12.2691C20.6616 12.2568 20.6662 12.2446 20.67 12.232C20.6734 12.2204 20.6758 12.2086 20.6788 12.1968C20.6818 12.1848 20.6851 12.1729 20.6876 12.1607C20.6886 12.1556 20.6886 12.1502 20.6895 12.1451C20.698 12.0981 20.7032 12.05 20.7032 12.0005L20.7042 11.9996C20.7041 11.9495 20.6982 11.9007 20.6895 11.8531C20.6888 11.8492 20.6883 11.8453 20.6876 11.8414C20.6791 11.799 20.6672 11.758 20.6524 11.7183C20.6489 11.709 20.6465 11.6992 20.6426 11.69C20.6383 11.6796 20.6327 11.6699 20.628 11.6597C20.6214 11.6456 20.6149 11.6315 20.6075 11.6177C20.6043 11.6118 20.601 11.606 20.5977 11.6002C20.5631 11.5394 20.5214 11.4813 20.4698 11.4293L14.0108 4.92535C13.6958 4.60818 13.1828 4.60599 12.8653 4.92047C12.548 5.23554 12.5456 5.74852 12.8604 6.06598L17.9483 11.19L4.10553 11.19C3.65818 11.19 3.29596 11.5532 3.29596 12.0006Z" fill="#141518"/>
</svg>
