<svg width="24" height="24" viewBox="0 0 24 24" fill="none" xmlns="http://www.w3.org/2000/svg">
<path d="M17.5821 5.60743C17.6321 5.60764 17.681 5.61317 17.7286 5.62208C17.7311 5.62256 17.7338 5.62255 17.7364 5.62305C17.7797 5.63162 17.8217 5.644 17.8623 5.65918C17.8711 5.66246 17.88 5.66537 17.8887 5.66895C17.9004 5.67381 17.9114 5.68017 17.9229 5.68555C17.9355 5.69148 17.9486 5.69651 17.961 5.70313C17.9896 5.71846 18.0166 5.73635 18.043 5.75489C18.0809 5.78147 18.1176 5.81091 18.1514 5.84473C18.1842 5.87751 18.2123 5.91364 18.2383 5.9502C18.3318 6.08175 18.3881 6.24157 18.3887 6.41505L18.4209 15.5811C18.4224 16.0283 18.0605 16.3919 17.6133 16.3936C17.1662 16.395 16.8015 16.0341 16.7999 15.5869L16.7745 8.36524L6.98651 18.1543C6.67018 18.4706 6.1583 18.4706 5.84199 18.1543C5.52586 17.838 5.52577 17.3261 5.84199 17.0098L15.6299 7.22071L8.40934 7.1963C7.96243 7.1944 7.60139 6.82976 7.60271 6.38282C7.60461 5.93576 7.96904 5.57462 8.41617 5.57618L17.5821 5.60743Z" fill="#141518"/>
</svg>
