<svg width="24" height="24" viewBox="0 0 24 24" fill="none" xmlns="http://www.w3.org/2000/svg">
<path d="M12.0001 3.29715C12.4474 3.2972 12.8102 3.65989 12.8102 4.10721V17.9412L17.9069 12.8614C18.2237 12.5457 18.7366 12.5464 19.0524 12.8632C19.3682 13.18 19.3672 13.6929 19.0504 14.0087L12.5755 20.4625C12.5554 20.4827 12.5343 20.5018 12.5122 20.5199C12.5046 20.5261 12.4965 20.5316 12.4888 20.5375C12.4755 20.5476 12.4623 20.5578 12.4483 20.5671C12.4379 20.574 12.4271 20.5803 12.4164 20.5867C12.4049 20.5936 12.3935 20.6008 12.3815 20.6072C12.3707 20.613 12.3595 20.618 12.3484 20.6233C12.3349 20.6298 12.3214 20.6363 12.3074 20.6421C12.3006 20.6449 12.2935 20.6471 12.2866 20.6497C12.2685 20.6566 12.2503 20.6634 12.2315 20.669C12.2274 20.6703 12.2231 20.6711 12.2189 20.6722C12.1979 20.6782 12.1765 20.6836 12.1548 20.6878C12.1512 20.6885 12.1475 20.6889 12.1439 20.6895C12.1221 20.6934 12.1001 20.6968 12.0777 20.6989C12.06 20.7006 12.0422 20.701 12.0244 20.7015C12.0163 20.7018 12.0082 20.703 12.0001 20.703L11.9998 20.7027C11.9738 20.7027 11.9478 20.7014 11.9219 20.6989C11.901 20.6969 11.8804 20.6937 11.8601 20.6901C11.8547 20.6892 11.8493 20.6885 11.8439 20.6875C11.8242 20.6836 11.8048 20.6787 11.7856 20.6734C11.7795 20.6717 11.7733 20.6705 11.7672 20.6687C11.7508 20.6638 11.7348 20.6577 11.7188 20.6517C11.7096 20.6483 11.7002 20.6453 11.691 20.6415C11.6797 20.6368 11.6687 20.6314 11.6576 20.6262C11.6439 20.6199 11.6303 20.6135 11.6169 20.6063C11.6078 20.6014 11.5991 20.596 11.5902 20.5908C11.5771 20.5831 11.5638 20.5756 11.551 20.5671C11.5371 20.5578 11.5241 20.5475 11.5108 20.5375C11.5031 20.5316 11.495 20.5261 11.4874 20.5199C11.4757 20.5103 11.4648 20.4999 11.4537 20.4897C11.4453 20.482 11.4361 20.4747 11.4279 20.4666L4.94922 14.0087C4.63253 13.6929 4.63173 13.18 4.94746 12.8632C5.26325 12.5464 5.77614 12.5457 6.09297 12.8614L11.19 17.9418V4.10721C11.19 3.65986 11.5527 3.29715 12.0001 3.29715Z" fill="#141518"/>
</svg>
