<svg width="24" height="24" viewBox="0 0 24 24" fill="none" xmlns="http://www.w3.org/2000/svg">
<path d="M9.99084 4.92552C10.3059 4.60822 10.8189 4.60584 11.1364 4.92064C11.4536 5.23566 11.456 5.74865 11.1412 6.06614L6.05627 11.1901H19.8912C20.3385 11.1901 20.7007 11.5525 20.7008 11.9997C20.7008 12.4471 20.3386 12.8093 19.8912 12.8093H6.05627L11.1412 17.9333C11.4562 18.2508 11.4537 18.7637 11.1364 19.0788C10.8189 19.3939 10.306 19.3923 9.99084 19.0749L3.53479 12.571C3.46458 12.5003 3.41046 12.4196 3.3717 12.3337C3.36816 12.3259 3.36426 12.3182 3.36096 12.3103C3.33823 12.2553 3.32224 12.1982 3.31213 12.1403C3.30416 12.0947 3.29944 12.0476 3.29944 11.9997C3.29945 11.9511 3.3039 11.9034 3.31213 11.8571C3.32234 11.8 3.33843 11.7435 3.36096 11.6892C3.36511 11.6792 3.37011 11.6696 3.37463 11.6599C3.38109 11.6459 3.38687 11.6315 3.39417 11.6179C3.40814 11.5918 3.42438 11.567 3.44104 11.5427C3.46833 11.5029 3.4996 11.4649 3.53479 11.4294L9.99084 4.92552Z" fill="#141518"/>
</svg>
