<svg width="24" height="24" viewBox="0 0 24 24" fill="none" xmlns="http://www.w3.org/2000/svg">
<path d="M11.9995 20.7098C12.4469 20.7098 12.8091 20.3476 12.8091 19.9003V6.05066L17.9146 11.1376C18.2315 11.453 18.7444 11.4514 19.0601 11.1346C19.3755 10.8177 19.3749 10.3048 19.0581 9.98914L12.5718 3.52625C12.5229 3.47754 12.4685 3.4378 12.4117 3.40417C12.3555 3.37087 12.2958 3.34316 12.232 3.3241C12.2027 3.31539 12.173 3.30892 12.1431 3.30359C12.0968 3.29531 12.0492 3.28995 12.0005 3.28992L11.9995 3.29089C11.9494 3.29092 11.9006 3.29583 11.8531 3.30457C11.8492 3.30528 11.8452 3.30574 11.8413 3.30652C11.8245 3.30986 11.808 3.31387 11.7915 3.31824C11.7835 3.32038 11.7751 3.3217 11.7671 3.3241C11.7008 3.34398 11.6386 3.37285 11.5806 3.40808C11.5266 3.44088 11.475 3.47968 11.4283 3.52625L4.94192 9.98914C4.62527 10.3047 4.6239 10.8177 4.93899 11.1346C5.25461 11.4514 5.76759 11.4529 6.0845 11.1376L11.19 6.05066V19.9003C11.19 20.3475 11.5524 20.7096 11.9995 20.7098Z" fill="#141518"/>
</svg>
