<svg width="24" height="24" viewBox="0 0 24 24" fill="none" xmlns="http://www.w3.org/2000/svg">
<path d="M15.5781 5.5752C16.0252 5.57385 16.3889 5.93571 16.3906 6.38282C16.3922 6.83008 16.0312 7.19459 15.584 7.19629L8.36329 7.22071L18.1514 17.0098C18.4676 17.326 18.4675 17.838 18.1514 18.1543C17.8351 18.4706 17.3232 18.4706 17.0068 18.1543L7.2168 8.36524L7.19239 15.5879C7.19036 16.0348 6.82597 16.3961 6.37891 16.3945C5.93207 16.3925 5.57088 16.028 5.57227 15.5811L5.6045 6.41504C5.60477 6.34611 5.61341 6.27872 5.62989 6.21485C5.63284 6.20339 5.63619 6.19201 5.63965 6.18067C5.65194 6.14048 5.66746 6.10172 5.68555 6.06446C5.69043 6.0544 5.69488 6.04407 5.7002 6.03418C5.71501 6.00665 5.73222 5.98059 5.75 5.95508C5.77694 5.91649 5.80735 5.87918 5.8418 5.84473C5.87545 5.8111 5.91161 5.78136 5.94922 5.75489C5.97561 5.73631 6.00268 5.7185 6.03125 5.70313C6.0436 5.6965 6.05674 5.69149 6.06934 5.68555C6.08077 5.68015 6.0918 5.67383 6.10352 5.66895C6.11246 5.66524 6.12182 5.66256 6.13086 5.65918C6.21821 5.62646 6.31248 5.60784 6.41114 5.60743L15.5781 5.5752Z" fill="#141518"/>
</svg>
