<svg width="16" height="16" viewBox="0 0 16 16" fill="none" xmlns="http://www.w3.org/2000/svg">
  <g transform="translate(1.618 1.618)">
    <path d="M10.8635 0C11.9128 6.75831e-05 12.7636 0.850732 12.7636 1.90002V7.70416C12.7635 8.75343 11.9128 9.60411 10.8635 9.60418H9.60418V10.8633C9.60416 11.9126 8.75346 12.7633 7.70416 12.7633H1.90002C0.850704 12.7633 2.08513e-05 11.9126 0 10.8633V5.05919C5.04268e-05 4.0099 0.850724 3.15917 1.90002 3.15917H3.15938V1.90002C3.15938 0.850693 4.01007 0 5.0594 0H10.8635ZM1.90002 4.33855C1.50203 4.33855 1.17943 4.66121 1.17938 5.05919V10.8633C1.1794 11.2613 1.50201 11.584 1.90002 11.584H7.70416C8.10215 11.5839 8.42478 11.2613 8.4248 10.8633V5.05919C8.42475 4.66122 8.10213 4.33857 7.70416 4.33855H1.90002ZM5.0594 1.17938C4.66138 1.17938 4.33876 1.502 4.33876 1.90002V3.15917H7.70416C8.75344 3.15919 9.60413 4.00991 9.60418 5.05919V8.4248H10.8635C11.2615 8.42473 11.5842 8.10212 11.5842 7.70416V1.90002C11.5842 1.50204 11.2615 1.17945 10.8635 1.17938H5.0594Z" fill="currentColor"/>
  </g>
</svg>
