<svg width="24" height="24" viewBox="0 0 24 24" fill="none" xmlns="http://www.w3.org/2000/svg">
<path d="M17.8049 6.81543C17.8049 6.16547 17.5467 5.54175 17.0872 5.08203C16.6276 4.62245 16.0038 4.36341 15.3538 4.36328C14.7036 4.36328 14.0792 4.62228 13.6194 5.08203L6.1311 12.5703C5.36557 13.3359 4.93486 14.3744 4.93481 15.457C4.93481 16.5397 5.36556 17.5782 6.1311 18.3438L6.27759 18.4834C7.02641 19.1615 8.00285 19.5391 9.01782 19.5391C10.1003 19.539 11.1382 19.1091 11.9036 18.3438L19.3928 10.8545C19.7091 10.5383 20.222 10.5384 20.5383 10.8545C20.8546 11.1708 20.8546 11.6837 20.5383 12L13.0491 19.4893C11.9799 20.5585 10.5299 21.1591 9.01782 21.1592C7.60021 21.1592 6.23663 20.6315 5.19067 19.6846L4.9856 19.4893C3.91621 18.4199 3.31567 16.9693 3.31567 15.457C3.31572 13.9448 3.91629 12.4942 4.9856 11.4248L12.4739 3.93652C13.2374 3.173 14.274 2.74414 15.3538 2.74414C16.4334 2.74427 17.4693 3.17306 18.2327 3.93652C18.996 4.70002 19.425 5.73579 19.425 6.81543C19.425 7.89511 18.9961 8.93088 18.2327 9.69434H18.2317L10.7346 17.1836C10.2769 17.641 9.65607 17.8975 9.00903 17.8975C8.36182 17.8974 7.74114 17.6403 7.28345 17.1826C6.82588 16.7249 6.5686 16.1044 6.5686 15.457C6.56865 14.8098 6.8258 14.1891 7.28345 13.7314L14.2024 6.82031C14.5189 6.5044 15.0318 6.50485 15.3479 6.82129C15.664 7.1378 15.6634 7.65067 15.3469 7.9668L8.42896 14.877C8.27508 15.0309 8.18877 15.2395 8.18872 15.457C8.18872 15.6746 8.27514 15.8832 8.42896 16.0371C8.58279 16.191 8.79141 16.2783 9.00903 16.2783C9.22672 16.2783 9.43523 16.191 9.58911 16.0371H9.59009L17.0872 8.54785C17.5465 8.08823 17.8049 7.4652 17.8049 6.81543Z" fill="#141518"/>
</svg>
