<svg width="24" height="24" viewBox="0 0 24 24" fill="none" xmlns="http://www.w3.org/2000/svg">
<path d="M10.7988 11.7822C12.1638 11.6113 13.5504 11.7355 14.8633 12.1465C15.2898 12.2802 15.5277 12.7355 15.3945 13.1621C15.2608 13.5888 14.8057 13.8259 14.3789 13.6924C13.2875 13.3508 12.1348 13.2475 11 13.3897C9.86508 13.5319 8.77333 13.9172 7.7998 14.5176C6.82641 15.118 5.99288 15.9209 5.35644 16.8711C4.72013 17.8213 4.29498 18.8978 4.11035 20.0264C4.03822 20.4677 3.62193 20.7671 3.18066 20.6953C2.73929 20.6231 2.43962 20.207 2.51171 19.7656C2.73372 18.408 3.24435 17.1128 4.00976 15.9697C4.7753 14.8267 5.77834 13.8609 6.94921 13.1387C8.12022 12.4165 9.43368 11.9533 10.7988 11.7822ZM18.6758 11.2744C18.9436 11.0974 19.3081 11.1265 19.5439 11.3623L21.5342 13.3525C21.8036 13.622 21.8036 14.0596 21.5342 14.3291L15.5635 20.2998C15.4341 20.429 15.258 20.502 15.0752 20.502H13.085C12.7041 20.5018 12.3947 20.1924 12.3945 19.8115V17.8213C12.3945 17.6385 12.4675 17.4624 12.5967 17.333L18.5674 11.3623L18.6758 11.2744ZM13.7754 18.1074V19.1221H14.7881L18.0791 15.8311L17.0654 14.8174L13.7754 18.1074ZM18.042 13.8408L19.0557 14.8545L20.0693 13.8408L19.0557 12.8272L18.042 13.8408ZM12.2158 2.40625C14.435 2.51869 16.2002 4.35345 16.2002 6.60059L16.1943 6.81641C16.0819 9.03555 14.247 10.8007 12 10.8008L11.7832 10.7949C9.63591 10.6857 7.91446 8.9638 7.80566 6.81641L7.7998 6.60059C7.7998 4.28106 9.68049 2.4005 12 2.40039L12.2158 2.40625ZM12 4.02051C10.5752 4.02062 9.41992 5.17576 9.41992 6.60059C9.42002 8.02532 10.5753 9.18055 12 9.18067C13.4247 9.18056 14.58 8.02533 14.5801 6.60059C14.5801 5.17576 13.4248 4.02061 12 4.02051Z" fill="#141518"/>
</svg>
