<svg width="24" height="24" viewBox="0 0 24 24" fill="none" xmlns="http://www.w3.org/2000/svg">
<path d="M7.13297 2.63779C7.44929 2.32183 7.96323 2.32166 8.27945 2.63779C8.59566 2.95401 8.59543 3.46793 8.27945 3.78429L5.16227 6.90152H15.5968C17.1902 6.9016 18.7162 7.54256 19.84 8.67986C20.9634 9.81698 21.5928 11.3572 21.5929 12.9612C21.5929 14.5652 20.9634 16.1053 19.84 17.2425C18.7162 18.3799 17.1903 19.0207 15.5968 19.0208H5.01872C4.57141 19.0208 4.20817 18.6586 4.20817 18.2112C4.2084 17.7641 4.57155 17.4017 5.01872 17.4017H15.5968C16.7543 17.4016 17.8661 16.9353 18.6876 16.1038C19.5094 15.2719 19.9738 14.1418 19.9738 12.9612C19.9736 11.7806 19.5094 10.6504 18.6876 9.81855C17.8661 8.98718 16.7542 8.52077 15.5968 8.52068H5.16227L8.27945 11.6379C8.59566 11.9541 8.59543 12.468 8.27945 12.7844C7.96313 13.1007 7.44929 13.1007 7.13297 12.7844L2.63298 8.28435C2.31675 7.96801 2.31669 7.45415 2.63298 7.13785L7.13297 2.63779Z" fill="#141518"/>
</svg>
