<svg width="24" height="24" viewBox="0 0 24 24" fill="none" xmlns="http://www.w3.org/2000/svg">
<path d="M11.1424 16.6035C11.6484 16.2158 12.3515 16.2159 12.8575 16.6035L15.9594 18.9801C16.6107 19.4791 17.5517 19.0148 17.5517 18.1943V5.82869C17.5517 5.28193 17.1082 4.83874 16.5615 4.83874H7.43843C6.89167 4.83875 6.44849 5.28192 6.44849 5.82869V18.1943C6.44849 19.0148 7.38918 19.4791 8.04048 18.9801L11.1424 16.6035ZM19.1715 18.1943C19.1715 20.3574 16.6912 21.5818 14.9742 20.2662L12 17.9875L9.02573 20.2662C7.30866 21.5817 4.82837 20.3574 4.82837 18.1943V5.82869C4.82837 4.38722 5.99696 3.21863 7.43843 3.21863H16.5615C18.0029 3.21863 19.1715 4.38722 19.1715 5.82869V18.1943Z" fill="#141518"/>
</svg>
