<svg width="24" height="24" viewBox="0 0 24 24" fill="none" xmlns="http://www.w3.org/2000/svg">
<path d="M12.1836 2.64941C12.3658 2.67238 12.5431 2.72971 12.7051 2.81836L19.9414 6.78027C20.1141 6.87479 20.2652 7.00302 20.3867 7.15625L20.498 7.31836L20.5283 7.37891C20.5347 7.38936 20.5419 7.39933 20.5479 7.41016C20.5625 7.43689 20.5746 7.46465 20.5859 7.49219L20.5869 7.49316C20.6636 7.67325 20.7036 7.86741 20.7041 8.06445V15.9316C20.7041 16.1949 20.6332 16.4532 20.499 16.6797C20.3647 16.9063 20.1725 17.0933 19.9414 17.2197L12.7051 21.1816H12.7041C12.4882 21.2997 12.2461 21.3613 12 21.3613C11.7538 21.3613 11.511 21.2998 11.2949 21.1816L4.05859 17.2197C3.82812 17.0936 3.63621 16.9075 3.50195 16.6816C3.36769 16.4557 3.29649 16.1974 3.2959 15.9346V8.06445C3.29633 7.89358 3.32867 7.72562 3.38672 7.56641C3.40268 7.51325 3.42447 7.46079 3.45215 7.41016C3.45729 7.40076 3.46329 7.39192 3.46875 7.38281C3.48004 7.36148 3.48958 7.33918 3.50195 7.31836L3.6123 7.15625C3.73387 7.00281 3.88571 6.87488 4.05859 6.78027L7.79004 4.73633C7.79719 4.7324 7.80427 4.72832 7.81152 4.72461L11.2949 2.81836L11.4619 2.74023C11.6327 2.67294 11.8153 2.63867 12 2.63867L12.1836 2.64941ZM4.91504 15.8408L11.1904 19.2764V12.5684L4.91504 9.13379V15.8408ZM16.7568 10.4072V13.9736C16.7564 14.4205 16.3942 14.783 15.9473 14.7832C15.5004 14.783 15.1371 14.4205 15.1367 13.9736V11.2939L12.8096 12.5684V19.2764L19.084 15.8418V9.13379L16.7568 10.4072ZM5.71094 7.72168L12 11.165L14.4707 9.81152L8.17969 6.36914L5.71094 7.72168ZM9.86719 5.44531L16.1572 8.88867L18.2891 7.72168L12 4.2793L9.86719 5.44531Z" fill="#141518"/>
</svg>
