<svg width="11" height="8" viewBox="16 12 11 8" fill="none" xmlns="http://www.w3.org/2000/svg">
<path d="M21.1486 17.8395C21.1486 18.424 20.9033 18.9354 20.4127 19.3738C19.9456 19.7913 19.3616 20 18.6608 20C18.0068 20 17.4345 19.7913 16.9439 19.3738C16.4534 18.9354 16.1614 18.4449 16.068 17.9022C15.8811 16.8167 16.0796 15.7521 16.6636 14.7084C17.2709 13.6438 18.1352 12.8089 19.2565 12.2035C19.7236 11.9322 20.1208 11.9322 20.4478 12.2035C20.7748 12.4749 20.7281 12.7567 20.3076 13.0489C19.9339 13.3203 19.5835 13.6647 19.2565 14.0822C18.9294 14.4788 18.7075 14.9485 18.5907 15.4912C18.544 15.6791 18.6725 15.773 18.9762 15.773C19.5134 15.773 20.004 15.9817 20.4478 16.3992C20.915 16.7958 21.1486 17.2759 21.1486 17.8395ZM27 17.8395C27 18.424 26.7547 18.9354 26.2642 19.3738C25.797 19.7913 25.213 20 24.5123 20C23.8582 20 23.2859 19.7913 22.7954 19.3738C22.3048 18.9354 22.0128 18.4449 21.9194 17.9022C21.7325 16.8167 21.9311 15.7521 22.5151 14.7084C23.1224 13.6438 23.9867 12.8089 25.1079 12.2035C25.5751 11.9322 25.9722 11.9322 26.2992 12.2035C26.6263 12.4749 26.5795 12.7567 26.1591 13.0489C25.7853 13.3203 25.4349 13.6647 25.1079 14.0822C24.7809 14.4788 24.559 14.9485 24.4422 15.4912C24.3955 15.6791 24.5123 15.773 24.7926 15.773C25.3532 15.773 25.8554 15.9817 26.2992 16.3992C26.7664 16.7958 27 17.2759 27 17.8395Z" fill="currentColor"/>
</svg>
