<svg width="24" height="24" viewBox="0 0 24 24" fill="none" xmlns="http://www.w3.org/2000/svg">
<path d="M16.5002 2.39648C16.9475 2.39662 17.3098 2.75879 17.3098 3.20605V4.2041H18.8997C19.8937 4.2041 20.7003 5.00988 20.7004 6.00391V18.9043L20.6907 19.0879C20.5984 19.9954 19.8316 20.7041 18.8997 20.7041H5.09985C4.16806 20.704 3.40212 19.9954 3.30981 19.0879L3.30005 18.9043V6.00391C3.30015 5.00995 4.1059 4.20421 5.09985 4.2041H6.69067V3.20605C6.69067 2.7587 7.05289 2.39648 7.50024 2.39648C7.94748 2.39662 8.30981 2.75879 8.30981 3.20605V4.2041H15.6907V3.20605C15.6907 2.7587 16.0529 2.39648 16.5002 2.39648ZM4.92017 18.9043C4.92053 19.0033 5.00076 19.0839 5.09985 19.084H18.8997C18.9988 19.084 19.08 19.0034 19.0803 18.9043V10.4131H4.92017V18.9043ZM5.09985 5.82422C5.0006 5.82432 4.92027 5.90465 4.92017 6.00391V8.79395H19.0803V6.00391C19.0802 5.90458 18.999 5.82422 18.8997 5.82422H5.09985Z" fill="#141518"/>
</svg>
