<svg width="24" height="24" viewBox="0 0 24 24" fill="none" xmlns="http://www.w3.org/2000/svg">
<path d="M10.0781 7.96484C10.7023 7.96484 11.3208 8.08727 11.8975 8.32617C12.474 8.56507 12.9982 8.91509 13.4395 9.35645C13.8977 9.81285 14.2566 10.3582 14.4961 10.959C14.7357 11.5603 14.85 12.2046 14.8311 12.8516C14.818 13.2987 14.4442 13.6508 13.9971 13.6377C13.5502 13.6244 13.1989 13.2516 13.2119 12.8047C13.2244 12.3789 13.1489 11.9543 12.9912 11.5586C12.8336 11.1632 12.5966 10.8043 12.2949 10.5039L12.293 10.502C12.0023 10.2112 11.6572 9.98066 11.2773 9.82324C10.8973 9.66578 10.4895 9.58398 10.0781 9.58398C9.66675 9.58399 9.25896 9.66579 8.87891 9.82324C8.49911 9.98067 8.15398 10.2112 7.86328 10.502L4.92676 13.4385C4.33997 14.0253 4.00955 14.8215 4.00879 15.6514C4.00816 16.4812 4.33713 17.2774 4.92285 17.8652L5.03418 17.9717C5.30034 18.2137 5.60658 18.4085 5.93946 18.5469C6.31976 18.7049 6.72782 18.7858 7.13965 18.7861C7.55147 18.7864 7.95932 18.7053 8.33985 18.5479C8.72036 18.3904 9.06625 18.1594 9.35742 17.8682L10.2881 16.9385C10.6044 16.6223 11.1173 16.6222 11.4336 16.9385C11.7496 17.2548 11.7497 17.7677 11.4336 18.084L10.5029 19.0137C10.0611 19.4555 9.53635 19.806 8.95899 20.0449C8.3818 20.2837 7.76332 20.4067 7.13867 20.4062C6.51383 20.4058 5.89439 20.2818 5.31738 20.042C4.74058 19.8022 4.2164 19.4512 3.77539 19.0088C2.88658 18.1168 2.3885 16.9086 2.38965 15.6494C2.3908 14.3904 2.89102 13.1833 3.78125 12.293L6.71778 9.35645C7.159 8.91518 7.68327 8.56501 8.25977 8.32617C8.83627 8.0874 9.45413 7.96485 10.0781 7.96484ZM16.8418 3.90723C17.4657 3.90729 18.0837 4.03077 18.6602 4.26953C19.2365 4.50838 19.761 4.8586 20.2022 5.2998C20.6434 5.74099 20.9936 6.26536 21.2324 6.8418C21.4712 7.4183 21.5947 8.03713 21.5947 8.66113C21.5946 9.285 21.4712 9.90312 21.2324 10.4795C21.0234 10.984 20.7293 11.4488 20.3633 11.8525L20.2022 12.0215L17.2666 14.957C16.8249 15.3988 16.2999 15.7494 15.7227 15.9883C15.1454 16.2272 14.5261 16.3501 13.9014 16.3496C13.2767 16.3491 12.6579 16.225 12.0811 15.9854C11.5043 15.7456 10.9801 15.3945 10.5391 14.9521C10.0831 14.4959 9.72459 13.9501 9.48633 13.3506C9.24793 12.7505 9.13453 12.1074 9.15332 11.4619C9.16657 11.0149 9.53928 10.6627 9.98633 10.6758C10.4334 10.689 10.7855 11.0627 10.7725 11.5098C10.7601 11.9346 10.8343 12.358 10.9912 12.7529C11.1286 13.0985 11.3265 13.417 11.5752 13.6924L11.6855 13.8076L11.6865 13.8086C11.9772 14.1001 12.323 14.3323 12.7031 14.4902C13.0833 14.6481 13.4917 14.7292 13.9033 14.7295C14.315 14.7297 14.7232 14.6486 15.1035 14.4912C15.4839 14.3337 15.83 14.1026 16.1211 13.8115L19.0566 10.876C19.3475 10.5852 19.5789 10.2393 19.7363 9.85938C19.8936 9.47965 19.9745 9.07213 19.9746 8.66113C19.9746 8.24995 19.8936 7.84181 19.7363 7.46191C19.5789 7.082 19.3474 6.7361 19.0566 6.44531C18.7659 6.15451 18.4199 5.92404 18.04 5.7666C17.6602 5.60925 17.253 5.5274 16.8418 5.52734C16.4304 5.52734 16.0226 5.60915 15.6426 5.7666C15.2627 5.924 14.9177 6.15458 14.627 6.44531L13.6963 7.37598C13.3801 7.69191 12.8671 7.69171 12.5508 7.37598C12.2345 7.05972 12.2347 6.54681 12.5508 6.23047L13.4805 5.2998C13.9217 4.85842 14.4459 4.50843 15.0225 4.26953C15.5991 4.03063 16.2176 3.90723 16.8418 3.90723Z" fill="#141518"/>
</svg>
