<svg width="24" height="24" viewBox="0 0 24 24" fill="none" xmlns="http://www.w3.org/2000/svg">
<path d="M9.11677 3.39908C11.0171 2.85392 13.1618 2.90486 15.5963 3.65591L15.6207 3.66373L15.6451 3.67252C18.347 4.70101 19.8985 6.21818 20.692 7.81509C21.477 9.39524 21.4797 10.9729 21.233 12.0739C21.1351 12.5103 20.7016 12.7849 20.2652 12.6872C19.8287 12.5893 19.5531 12.1559 19.6509 11.7194C19.8307 10.9175 19.8337 9.72917 19.2408 8.5358C18.6578 7.36255 17.4575 6.10252 15.0875 5.19595C12.9095 4.52901 11.1015 4.51565 9.56403 4.9567C8.01889 5.40002 6.67798 6.32108 5.47517 7.63052C4.49302 8.74265 3.3041 11.8248 5.43025 14.7633C5.65558 14.9467 5.77398 15.2458 5.71345 15.5504L5.0279 18.984L9.33747 17.6247L9.52204 17.5797C9.70696 17.5478 9.89396 17.5532 10.0709 17.5915C10.0746 17.5923 10.0789 17.5926 10.0826 17.5934C10.0946 17.5954 10.1067 17.5968 10.1187 17.5993C10.1196 17.5995 10.1215 17.5998 10.1236 17.6003C10.1283 17.6012 10.1362 17.6031 10.1461 17.6051C10.1579 17.6075 10.1736 17.6103 10.192 17.6139C10.2218 17.62 10.2519 17.6248 10.2818 17.6305C10.3543 17.6442 10.4465 17.6621 10.5513 17.6794C10.5977 17.687 10.6465 17.6924 10.6959 17.6999C11.0822 17.7554 11.4782 17.7875 11.8824 17.7926C12.0293 17.7927 12.1744 17.7909 12.3052 17.7868C12.439 17.7826 12.5541 17.7773 12.6353 17.7731C12.6757 17.771 12.7086 17.7685 12.7301 17.7672C12.7402 17.7666 12.7483 17.7666 12.7535 17.7663C12.7559 17.7661 12.7582 17.7654 12.7593 17.7653H12.7603C13.2066 17.7359 13.5921 18.075 13.6217 18.5211C13.649 18.9396 13.3537 19.3047 12.9488 19.3727L12.8668 19.3825H12.8551C12.8481 19.3829 12.8381 19.3837 12.8258 19.3844C12.8006 19.3859 12.7642 19.388 12.7193 19.3903C12.6293 19.3949 12.5023 19.4013 12.3551 19.4059C12.2699 19.4086 12.1764 19.4094 12.0777 19.4108C12.0523 19.4132 12.0267 19.4166 12.0006 19.4167C11.8557 19.4167 11.7112 19.4117 11.5679 19.4059C11.4853 19.4037 11.4025 19.4046 11.3218 19.4001C11.033 19.3838 10.7285 19.3423 10.4722 19.3034C10.3397 19.2843 10.2083 19.2627 10.0777 19.2389C10.0223 19.2289 9.9725 19.2214 9.93122 19.2135C9.90309 19.2082 9.87855 19.203 9.85798 19.1989C9.8312 19.1934 9.80362 19.1899 9.77693 19.1842L5.17732 20.6364C4.15477 20.9588 3.15984 20.0668 3.3697 19.0153L4.04939 15.6139C1.53938 12.0443 2.84467 8.29835 4.14118 6.69986L4.26911 6.55045L4.2779 6.5397C5.6329 5.06322 7.21918 3.94358 9.11677 3.39908ZM17.3336 12.6344C17.7478 12.6344 18.0836 12.9702 18.0836 13.3844V15.2731H19.9713C20.3854 15.2731 20.7211 15.609 20.7213 16.0231C20.7213 16.4373 20.3855 16.7731 19.9713 16.7731H18.0836V18.6628C18.0835 19.0769 17.7477 19.4128 17.3336 19.4128C16.9195 19.4126 16.5837 19.0768 16.5836 18.6628V16.7731H14.6959C14.2818 16.7729 13.9459 16.4372 13.9459 16.0231C13.946 15.6091 14.2819 15.2733 14.6959 15.2731H16.5836V13.3844C16.5836 12.9703 16.9195 12.6346 17.3336 12.6344Z" fill="#141518"/>
</svg>
