<svg width="24" height="24" viewBox="0 0 24 24" fill="none" xmlns="http://www.w3.org/2000/svg">
<path d="M16.8379 4.30664C19.4612 4.30669 21.5879 6.43332 21.5879 9.05664V13.6279C21.5876 16.251 19.461 18.3779 16.8379 18.3779H14.5127L13.4717 19.9961C12.7826 21.0659 11.2174 21.0659 10.5283 19.9961L9.48633 18.3779H7.16211C4.53895 18.3779 2.41238 16.251 2.41211 13.6279V9.05664C2.41211 6.43331 4.53878 4.30667 7.16211 4.30664H16.8379ZM7.16211 5.80664C5.36721 5.80667 3.91211 7.26173 3.91211 9.05664V13.6279C3.91238 15.4226 5.36738 16.8779 7.16211 16.8779H9.89551L9.99023 16.8838C10.2084 16.9115 10.4055 17.0341 10.5264 17.2217L11.79 19.1846C11.8885 19.3367 12.1115 19.3367 12.21 19.1846L13.4736 17.2217L13.5303 17.1455C13.6717 16.9772 13.8815 16.8779 14.1045 16.8779H16.8379C18.6326 16.8779 20.0876 15.4226 20.0879 13.6279V9.05664C20.0879 7.26175 18.6328 5.80669 16.8379 5.80664H7.16211ZM8.38281 8.0957C8.64376 8.09589 8.8775 8.25721 8.9707 8.50098L10.9785 13.751C11.1021 14.0757 10.939 14.4403 10.6143 14.5645C10.2896 14.6882 9.92511 14.5247 9.80078 14.2002L9.24707 12.752H7.51758L6.96387 14.2002C6.83953 14.5247 6.47508 14.6882 6.15039 14.5645C5.8257 14.4403 5.66252 14.0757 5.78613 13.751L7.79395 8.50098L7.83496 8.41309C7.9458 8.21881 8.1543 8.0957 8.38281 8.0957ZM17.8027 8.12012C18.1364 8.21826 18.3274 8.56866 18.2295 8.90234L16.6855 14.1523C16.6072 14.4186 16.3634 14.6022 16.0859 14.6045C15.8085 14.6067 15.5622 14.4269 15.4795 14.1621L14.5371 11.1445L13.5938 14.1621C13.511 14.427 13.2648 14.6068 12.9873 14.6045C12.7099 14.6021 12.467 14.4185 12.3887 14.1523L10.8438 8.90234C10.7459 8.56875 10.937 8.21833 11.2705 8.12012C11.6042 8.02204 11.9544 8.21333 12.0527 8.54688L13.0117 11.8047L13.9355 8.8457C14.0178 8.58287 14.2617 8.40332 14.5371 8.40332C14.7779 8.40345 14.9941 8.54086 15.0996 8.75098L15.1377 8.8457L16.0635 11.8037L17.0205 8.54688C17.1188 8.21333 17.4691 8.02207 17.8027 8.12012ZM7.99902 11.4922H8.76562L8.38184 10.4893L7.99902 11.4922Z" fill="#141518"/>
</svg>
