<svg width="24" height="24" viewBox="0 0 24 24" fill="none" xmlns="http://www.w3.org/2000/svg">
<path d="M19.8896 11.6165C19.8896 8.03566 16.4753 4.93399 12 4.9339C7.5246 4.9339 4.10938 8.03561 4.10938 11.6165C4.10944 12.9052 4.54157 14.1148 5.30273 15.1468C5.53328 15.4594 5.64193 15.8681 5.55957 16.2806L4.91504 19.5071L9.30664 18.1224L9.49023 18.0775C9.61367 18.0561 9.73783 18.0521 9.85938 18.0628L10.04 18.0901L10.5146 18.18C10.9951 18.2576 11.4917 18.2982 12 18.2982C16.4752 18.2981 19.8895 15.1973 19.8896 11.6165ZM21.5098 11.6165C21.5096 16.3107 17.1342 19.9182 12 19.9183C11.2238 19.9183 10.4682 19.8365 9.74414 19.6829L5.06445 21.1595C4.04184 21.4822 3.04705 20.5909 3.25684 19.5394L3.9541 16.0462C3.03201 14.7714 2.4903 13.2524 2.49023 11.6165C2.49023 6.92209 6.86565 3.31476 12 3.31476C17.1343 3.31485 21.5098 6.92215 21.5098 11.6165Z" fill="#141518"/>
</svg>
