<svg width="24" height="24" viewBox="0 0 24 24" fill="none" xmlns="http://www.w3.org/2000/svg">
<path d="M11.9995 2.40002C17.3013 2.40002 21.5998 6.69784 21.6 11.9995C21.6 17.3014 17.3014 21.6 11.9995 21.6C6.6978 21.5998 2.39999 17.3013 2.39999 11.9995C2.40021 6.69797 6.69794 2.40024 11.9995 2.40002ZM17.2778 9.13531C16.9886 8.83888 16.5137 8.83345 16.2172 9.12261L10.937 14.272L8.53274 11.8521C8.24075 11.5583 7.765 11.5572 7.47123 11.8491C7.17778 12.1411 7.17656 12.616 7.4683 12.9097L9.97804 15.4341C10.5 15.9592 11.3472 15.9663 11.8774 15.4497L17.2641 10.1958C17.5605 9.90663 17.5669 9.43181 17.2778 9.13531Z" fill="#141518"/>
</svg>
