<svg width="24" height="24" viewBox="0 0 24 24" fill="none" xmlns="http://www.w3.org/2000/svg">
<path d="M11.9996 2.3999C17.3013 2.39995 21.5999 6.69784 21.6002 11.9995L21.5875 12.4937C21.3304 17.566 17.1358 21.6 11.9996 21.6001L11.5064 21.5874C6.43393 21.3305 2.40001 17.1358 2.39996 11.9995C2.40017 6.69794 6.698 2.40011 11.9996 2.3999ZM11.9996 4.02002C7.59269 4.02023 4.02029 7.59263 4.02008 11.9995C4.02013 16.4065 7.5926 19.9798 11.9996 19.98C16.4067 19.9799 19.98 16.4066 19.98 11.9995C19.9798 7.59254 16.4066 4.02007 11.9996 4.02002ZM16.1754 9.07861C16.4956 8.76667 17.0086 8.77331 17.3209 9.09326C17.633 9.41345 17.6262 9.92644 17.3062 10.2388L11.9205 15.4917C11.3667 16.0318 10.4804 16.0247 9.93512 15.4761L7.42633 12.9517C7.11124 12.6344 7.11225 12.1215 7.42926 11.8062C7.74639 11.4912 8.25944 11.4924 8.57477 11.8091L10.9371 14.186L16.1754 9.07861Z" fill="#141518"/>
</svg>
