<svg width="24" height="24" viewBox="0 0 24 24" fill="none" xmlns="http://www.w3.org/2000/svg">
<path d="M9.68788 5.11063L16.122 11.5448C16.1818 11.6045 16.2293 11.6755 16.2617 11.7536C16.2941 11.8317 16.3107 11.9154 16.3107 12C16.3107 12.0845 16.2941 12.1683 16.2617 12.2464C16.2293 12.3245 16.1818 12.3955 16.122 12.4552L9.68788 18.8894C9.59789 18.9794 9.4832 19.0408 9.35832 19.0657C9.23345 19.0905 9.104 19.0778 8.98637 19.0291C8.86874 18.9803 8.76821 18.8978 8.69752 18.7919C8.62682 18.686 8.58914 18.5615 8.58924 18.4341L8.58924 5.56584C8.58914 5.43851 8.62683 5.31402 8.69752 5.20811C8.76821 5.10221 8.86874 5.01967 8.98637 4.97093C9.104 4.92219 9.23345 4.90944 9.35832 4.93431C9.4832 4.95918 9.59789 5.02054 9.68788 5.11063Z" fill="#141518"/>
</svg>
