<svg width="24" height="24" viewBox="0 0 24 24" fill="none" xmlns="http://www.w3.org/2000/svg">
<path d="M18.8894 9.68788L12.4552 16.122C12.3955 16.1818 12.3245 16.2293 12.2464 16.2617C12.1683 16.2941 12.0846 16.3107 12 16.3107C11.9155 16.3107 11.8317 16.2941 11.7536 16.2617C11.6755 16.2293 11.6045 16.1818 11.5448 16.122L5.11064 9.68788C5.02056 9.59789 4.9592 9.4832 4.93433 9.35832C4.90946 9.23345 4.9222 9.104 4.97094 8.98637C5.01968 8.86874 5.10223 8.76821 5.20813 8.69752C5.31403 8.62682 5.43853 8.58914 5.56586 8.58924H18.4342C18.5615 8.58914 18.686 8.62682 18.7919 8.69752C18.8978 8.76821 18.9803 8.86874 19.0291 8.98637C19.0778 9.104 19.0906 9.23345 19.0657 9.35832C19.0408 9.4832 18.9795 9.59789 18.8894 9.68788Z" fill="#141518"/>
</svg>
