<svg width="24" height="24" viewBox="0 0 24 24" fill="none" xmlns="http://www.w3.org/2000/svg">
<path d="M18.8894 14.3121L12.4552 7.87791C12.3955 7.81809 12.3245 7.77063 12.2464 7.73825C12.1683 7.70588 12.0846 7.68921 12 7.68921C11.9155 7.68921 11.8317 7.70588 11.7536 7.73825C11.6755 7.77063 11.6045 7.81809 11.5448 7.87791L5.11064 14.3121C5.02056 14.402 4.9592 14.5167 4.93433 14.6416C4.90946 14.7665 4.9222 14.8959 4.97094 15.0136C5.01968 15.1312 5.10223 15.2317 5.20813 15.3024C5.31403 15.3731 5.43853 15.4108 5.56586 15.4107H18.4342C18.5615 15.4108 18.686 15.3731 18.7919 15.3024C18.8978 15.2317 18.9803 15.1312 19.0291 15.0136C19.0778 14.8959 19.0906 14.7665 19.0657 14.6416C19.0408 14.5167 18.9795 14.402 18.8894 14.3121Z" fill="#141518"/>
</svg>
