<svg width="24" height="24" viewBox="0 0 24 24" fill="none" xmlns="http://www.w3.org/2000/svg">
<path d="M14.3121 5.11063L7.87797 11.5448C7.81815 11.6045 7.77069 11.6755 7.73832 11.7536C7.70594 11.8317 7.68927 11.9154 7.68927 12C7.68927 12.0845 7.70594 12.1683 7.73832 12.2464C7.77069 12.3245 7.81815 12.3955 7.87797 12.4552L14.3121 18.8894C14.4021 18.9794 14.5168 19.0408 14.6417 19.0657C14.7666 19.0905 14.896 19.0778 15.0136 19.0291C15.1313 18.9803 15.2318 18.8978 15.3025 18.7919C15.3732 18.686 15.4109 18.5615 15.4108 18.4341L15.4108 5.56584C15.4109 5.43851 15.3732 5.31402 15.3025 5.20811C15.2318 5.10221 15.1313 5.01967 15.0136 4.97093C14.896 4.92219 14.7666 4.90944 14.6417 4.93431C14.5168 4.95918 14.4021 5.02054 14.3121 5.11063Z" fill="#141518"/>
</svg>
