<svg width="24" height="24" viewBox="0 0 24 24" fill="none" xmlns="http://www.w3.org/2000/svg">
<path d="M20.175 11.9999C20.175 7.485 16.515 3.82493 12 3.82493C7.48512 3.82493 3.82505 7.485 3.82505 11.9999C3.82505 16.5149 7.48512 20.1749 12 20.1749C16.515 20.1749 20.175 16.5149 20.175 11.9999ZM21.825 11.9999C21.825 17.4261 17.4262 21.8249 12 21.8249C6.57385 21.8249 2.17505 17.4261 2.17505 11.9999C2.17505 6.57373 6.57385 2.17493 12 2.17493C17.4262 2.17493 21.825 6.57373 21.825 11.9999Z" fill="#141518"/>
<path d="M11.175 7.79993C11.175 7.34429 11.5444 6.97493 12 6.97493C12.4557 6.97493 12.825 7.34429 12.825 7.79993V11.7899L15.3689 13.0619C15.7764 13.2657 15.9417 13.7613 15.738 14.1688C15.5343 14.5763 15.0387 14.7416 14.6312 14.5379L11.6312 13.0379C11.3517 12.8982 11.175 12.6124 11.175 12.2999V7.79993Z" fill="#141518"/>
</svg>
