<svg width="24" height="24" viewBox="0 0 24 24" fill="none" xmlns="http://www.w3.org/2000/svg">
<path d="M12 2.40442C17.2995 2.40442 21.5956 6.70052 21.5956 12C21.5956 17.2995 17.2995 21.5956 12 21.5956C6.70049 21.5956 2.40439 17.2995 2.40439 12C2.40439 6.70052 6.70049 2.40442 12 2.40442ZM12 3.90442C7.52891 3.90442 3.90439 7.52895 3.90439 12C3.90439 16.4711 7.52891 20.0956 12 20.0956C16.4711 20.0956 20.0956 16.4711 20.0956 12C20.0956 7.52895 16.4711 3.90442 12 3.90442ZM12 6.08997C12.4142 6.08997 12.75 6.42579 12.75 6.83997V11.25H17.1601C17.5742 11.2501 17.91 11.5859 17.9101 12C17.91 12.4141 17.5742 12.75 17.1601 12.75H12C11.5858 12.75 11.2501 12.4142 11.25 12V6.83997C11.25 6.42579 11.5858 6.08997 12 6.08997Z" fill="#141518"/>
</svg>
