<svg width="24" height="24" viewBox="0 0 24 24" fill="none" xmlns="http://www.w3.org/2000/svg">
<path d="M18.6987 5.24736C19.1322 5.68085 19.1322 6.38416 18.6987 6.81764L13.5956 11.9207L18.7698 17.0949C19.2033 17.5283 19.2032 18.2316 18.7698 18.6651C18.3363 19.0986 17.633 19.0986 17.1995 18.6651L12.0254 13.491L6.82356 18.6927C6.39006 19.126 5.68737 19.1255 5.25398 18.6921C4.82083 18.2586 4.82015 17.5559 5.25329 17.1225L10.4551 11.9207L5.32717 6.79278C4.89384 6.35928 4.89443 5.65663 5.32786 5.22319C5.7613 4.78979 6.46396 4.78918 6.89745 5.2225L12.0254 10.3504L17.1284 5.24736C17.5618 4.81396 18.2652 4.81413 18.6987 5.24736Z" fill="#141518"/>
</svg>
