<svg width="24" height="24" viewBox="0 0 24 24" fill="none" xmlns="http://www.w3.org/2000/svg">
<path d="M18.4875 5.46526C18.8038 5.78158 18.8038 6.29384 18.4875 6.61017L13.1717 11.9259L18.5586 17.3128C18.8749 17.6291 18.8749 18.1413 18.5586 18.4577C18.2423 18.774 17.73 18.774 17.4137 18.4577L12.0268 13.0708L6.61234 18.4853C6.29599 18.8013 5.78367 18.8015 5.46744 18.4853C5.15153 18.169 5.15151 17.6566 5.46744 17.3404L10.8819 11.9259L5.54132 6.58531C5.22515 6.26897 5.22505 5.75668 5.54132 5.4404C5.8576 5.12416 6.3699 5.12424 6.68623 5.4404L12.0268 10.781L17.3425 5.46526C17.6588 5.14904 18.1711 5.14925 18.4875 5.46526Z" fill="#141518"/>
</svg>
