<svg width="24" height="24" viewBox="0 0 24 24" fill="none" xmlns="http://www.w3.org/2000/svg">
<path d="M11.9995 2.3999C17.3013 2.3999 21.5999 6.69776 21.6001 11.9995L21.5874 12.4937C21.3304 17.5661 17.1359 21.6001 11.9995 21.6001L11.5063 21.5874C6.43378 21.3305 2.3999 17.1359 2.3999 11.9995C2.40011 6.69789 6.69789 2.40011 11.9995 2.3999ZM11.9995 4.02002C7.59259 4.02023 4.02023 7.59259 4.02002 11.9995C4.02002 16.4066 7.59246 19.9798 11.9995 19.98C16.4067 19.98 19.98 16.4067 19.98 11.9995C19.9798 7.59246 16.4066 4.02002 11.9995 4.02002ZM8.48096 8.42334C8.79728 8.10705 9.31015 8.10703 9.62646 8.42334L12.0151 10.812L14.3921 8.43604C14.7084 8.11979 15.2203 8.11987 15.5366 8.43604C15.8529 8.75235 15.8529 9.26424 15.5366 9.58057L13.1597 11.9565L15.5728 14.3696C15.889 14.686 15.889 15.1988 15.5728 15.5151C15.2565 15.8314 14.7436 15.8314 14.4272 15.5151L12.0142 13.1021L9.58936 15.5288C9.27302 15.845 8.76012 15.8451 8.44385 15.5288C8.12768 15.2125 8.12855 14.6996 8.44482 14.3833L10.8696 11.9575L8.48096 9.56885C8.16464 9.25252 8.16464 8.73966 8.48096 8.42334Z" fill="#141518"/>
</svg>
