<svg width="24" height="24" viewBox="0 0 24 24" fill="none" xmlns="http://www.w3.org/2000/svg">
<path d="M12 2.40002C17.3018 2.40006 21.5996 6.69809 21.5998 11.9998C21.5998 17.3017 17.3019 21.5996 12 21.5996C6.69807 21.5996 2.40021 17.3018 2.40021 11.9998C2.40042 6.69808 6.69821 2.40002 12 2.40002ZM15.5349 8.44151C15.2186 8.12586 14.7061 8.1258 14.3899 8.44151L12.0131 10.8183L9.62457 8.42977C9.30836 8.11376 8.79527 8.1132 8.47898 8.42908C8.16272 8.74534 8.16353 9.25833 8.47967 9.57467L10.8682 11.9632L8.44238 14.3891C8.12623 14.7052 8.12589 15.2183 8.44169 15.5347C8.75801 15.851 9.27096 15.8503 9.58728 15.534L12.0131 13.1081L14.4259 15.5209C14.7422 15.837 15.2545 15.8371 15.5708 15.5209C15.8866 15.2046 15.8868 14.6922 15.5708 14.376L13.158 11.9632L15.5349 9.58641C15.8507 9.27005 15.851 8.75768 15.5349 8.44151Z" fill="#141518"/>
</svg>
