<svg width="24" height="24" viewBox="0 0 24 24" fill="none" xmlns="http://www.w3.org/2000/svg">
<path d="M12 11.1123L12.0771 11.1152C12.127 11.1203 12.1743 11.1341 12.2207 11.1484C12.2431 11.1553 12.2663 11.1599 12.2881 11.1689C12.3001 11.1739 12.3106 11.1819 12.3223 11.1875C12.3973 11.2232 12.4692 11.269 12.5312 11.3311L15.7744 14.5742C16.0672 14.867 16.067 15.3428 15.7744 15.6357C15.4816 15.9283 15.0067 15.9283 14.7139 15.6357L12.75 13.6719V19.9717C12.7496 20.3856 12.414 20.7217 12 20.7217C11.5862 20.7215 11.2504 20.3854 11.25 19.9717V13.6719L9.28711 15.6357C8.99428 15.9283 8.5194 15.9283 8.22656 15.6357C7.9338 15.3428 7.93371 14.8671 8.22656 14.5742L11.4697 11.3311C11.5275 11.2734 11.594 11.2302 11.6631 11.1953C11.6783 11.1876 11.6923 11.1776 11.708 11.1709L11.7178 11.167C11.7371 11.1591 11.7575 11.1546 11.7773 11.1484C11.8479 11.1264 11.9222 11.1123 12 11.1123ZM12.1582 4.02832C15.5078 4.02837 18.236 6.67963 18.3633 9.99805H18.3691V10.0801C20.4777 10.2837 22.1267 12.0601 22.127 14.2217C22.127 16.3834 20.4778 18.1596 18.3691 18.3633V18.3838H17.1558C16.7084 18.3838 16.3457 18.0211 16.3457 17.5737C16.3457 17.1263 16.7084 16.7637 17.1558 16.7637H18.123C18.1529 16.7591 18.1834 16.7539 18.2139 16.751C19.5008 16.6265 20.5068 15.54 20.5068 14.2217C20.5066 12.9033 19.5004 11.8168 18.2139 11.6924C17.4085 11.6145 16.7887 10.956 16.752 10.1553C16.7489 10.1239 16.7454 10.0924 16.7441 10.0605C16.653 7.68454 14.7572 5.7715 12.3887 5.6543L12.1582 5.64844C10.0906 5.6485 8.33822 7.01631 7.76465 8.90039C7.5839 9.4941 7.07986 9.93279 6.4668 10.0293C4.73936 10.3012 3.49239 11.7317 3.49219 13.373C3.49219 15.1516 4.96122 16.6869 6.91016 16.7598C6.92452 16.7603 6.93887 16.7628 6.95312 16.7637C7.31826 16.7637 7.61426 17.0597 7.61426 17.4248V17.6191C7.61426 18.0414 7.27191 18.3838 6.84961 18.3838V18.3789C4.08261 18.2754 1.87207 16.0744 1.87207 13.373C1.87227 10.882 3.7523 8.81627 6.21484 8.42871C6.99017 5.88172 9.35772 4.02838 12.1582 4.02832Z" fill="#141518"/>
</svg>
