<svg width="24" height="24" viewBox="0 0 24 24" fill="none" xmlns="http://www.w3.org/2000/svg">
<path d="M11.4267 14.4941C11.7235 14.1974 12.1936 14.1795 12.5117 14.4394L12.5732 14.4941L16.5732 18.4941C16.8895 18.8105 16.8895 19.3243 16.5732 19.6406C16.2569 19.9569 15.7431 19.9568 15.4267 19.6406L12 16.2138L8.57323 19.6406C8.25693 19.9569 7.74307 19.9568 7.42675 19.6406C7.11043 19.3243 7.11044 18.8104 7.42675 18.4941L11.4267 14.4941ZM15.4267 4.35935C15.743 4.04308 16.2569 4.04319 16.5732 4.35935C16.8896 4.67568 16.8896 5.18951 16.5732 5.50584L12.5732 9.50584C12.2765 9.80231 11.8063 9.82037 11.4883 9.56053L11.4267 9.50584L7.42675 5.50584C7.11067 5.18958 7.11073 4.67565 7.42675 4.35935C7.74302 4.04308 8.2569 4.04319 8.57323 4.35935L12 7.78611L15.4267 4.35935Z" fill="#141518"/>
</svg>
