<svg width="24" height="24" viewBox="0 0 24 24" fill="none" xmlns="http://www.w3.org/2000/svg">
<path d="M6.51093 3.3053C6.99473 3.3053 7.3869 3.69747 7.3869 4.18127V19.8188C7.38687 20.3025 6.9947 20.6948 6.51093 20.6948C6.02716 20.6947 5.63498 20.3025 5.63495 19.8188V4.18127C5.63495 3.69749 6.02714 3.30532 6.51093 3.3053ZM17.6197 3.56194C17.9618 3.21986 18.5163 3.21984 18.8584 3.56194C19.2004 3.90404 19.2005 4.45853 18.8584 4.80061L11.659 11.9997L18.8584 19.1991C19.2004 19.5412 19.2005 20.096 18.8584 20.4381C18.5163 20.7801 17.9618 20.7801 17.6197 20.4381L9.80096 12.6194C9.45888 12.2773 9.45892 11.7228 9.80096 11.3807L17.6197 3.56194Z" fill="#141518"/>
</svg>
