<svg width="24" height="24" viewBox="0 0 24 24" fill="none" xmlns="http://www.w3.org/2000/svg">
<path d="M19.5996 5.54647L16.2256 8.92049H19.6267C20.0741 8.92049 20.4367 9.28314 20.4367 9.73049C20.4367 10.1778 20.074 10.5405 19.6267 10.5405H14.27C14.0552 10.5405 13.8491 10.4552 13.6972 10.3033C13.5453 10.1514 13.46 9.94529 13.46 9.73049L13.4598 4.37353C13.4598 3.92626 13.8225 3.56362 14.2698 3.56354C14.7171 3.56354 15.08 3.92639 15.08 4.37374V7.7749L18.454 4.40088C18.7703 4.08455 19.2833 4.08455 19.5996 4.40088C19.9158 4.71721 19.9159 5.23017 19.5996 5.54647Z" fill="#141518"/>
<path d="M4.35563 18.4124L7.72965 15.0384H4.32849C3.88114 15.0384 3.51849 14.6757 3.51849 14.2284C3.51852 13.781 3.88116 13.4184 4.32849 13.4184H9.68524C9.90004 13.4184 10.1061 13.5037 10.258 13.6556C10.4099 13.8075 10.4952 14.0136 10.4952 14.2284L10.4954 19.5853C10.4954 20.0326 10.1327 20.3952 9.68544 20.3953C9.23809 20.3953 8.87524 20.0325 8.87524 19.5851V16.184L5.50122 19.558C5.1849 19.8743 4.67195 19.8743 4.35563 19.558C4.03936 19.2416 4.03932 18.7287 4.35563 18.4124Z" fill="#141518"/>
</svg>
