<svg width="24" height="24" viewBox="0 0 24 24" fill="none" xmlns="http://www.w3.org/2000/svg">
<path d="M19.0526 17.9604C19.4999 17.9605 19.8622 18.3227 19.8622 18.77C19.8622 19.2173 19.4999 19.5795 19.0526 19.5796H4.94714C4.49979 19.5796 4.13757 19.2173 4.13757 18.77C4.1376 18.3227 4.49981 17.9604 4.94714 17.9604H19.0526ZM18.4471 8.9653C18.7633 8.6489 19.2762 8.64915 19.5927 8.9653C19.9091 9.28148 19.9098 9.79435 19.5936 10.1108L17.9257 11.7798L19.5927 13.4458C19.9091 13.7619 19.9097 14.2748 19.5936 14.5913C19.2774 14.9077 18.7646 14.9075 18.4481 14.5913L16.2079 12.353C16.056 12.2012 15.9698 11.9955 15.9696 11.7807C15.9695 11.5659 16.0551 11.3594 16.2069 11.2075L18.4471 8.9653ZM12.6532 11.1899C13.1005 11.1899 13.4628 11.5531 13.4628 12.0005C13.4625 12.4476 13.1004 12.81 12.6532 12.81H4.97351C4.52636 12.81 4.16419 12.4476 4.16394 12.0005C4.16394 11.5531 4.5262 11.19 4.97351 11.1899H12.6532ZM19.0526 4.42038C19.4999 4.42044 19.8622 4.78263 19.8622 5.22995C19.8622 5.67727 19.4999 6.03946 19.0526 6.03952H4.94714C4.49979 6.03952 4.13757 5.6773 4.13757 5.22995C4.13757 4.7826 4.49979 4.42038 4.94714 4.42038H19.0526Z" fill="#141518"/>
</svg>
