<svg width="24" height="24" viewBox="0 0 24 24" fill="none" xmlns="http://www.w3.org/2000/svg">
<path d="M5.375 2.41406C6.73673 2.5521 7.7998 3.70245 7.7998 5.10059L7.78516 5.37598C7.74618 5.76031 7.62341 6.1189 7.44043 6.43848L10.04 8.98145C10.604 8.61455 11.2771 8.40047 12 8.40039C12.6682 8.40048 13.2937 8.58307 13.8301 8.90039L15.5127 7.24414C15.4372 7.02756 15.3945 6.79506 15.3945 6.55273C15.3947 5.39319 16.3346 4.45324 17.4941 4.45312C18.6538 4.45312 19.5945 5.39312 19.5947 6.55273C19.5947 7.71253 18.6539 8.65332 17.4941 8.65332C17.1276 8.65329 16.7833 8.55864 16.4834 8.39355L14.9355 9.91797C15.3534 10.5058 15.5995 11.224 15.5996 12L15.5947 12.1855C15.5591 12.8888 15.321 13.5381 14.9385 14.0781L17.6787 16.6895C18.0458 16.5027 18.4604 16.3955 18.9004 16.3955L19.1758 16.4092C20.5374 16.5473 21.6006 17.6976 21.6006 19.0957L21.5859 19.3711C21.4479 20.7327 20.2983 21.7957 18.9004 21.7959L18.624 21.7812C17.3532 21.6521 16.3427 20.642 16.2139 19.3711L16.2002 19.0957C16.2002 18.591 16.3409 18.12 16.582 17.7158L13.834 15.0967C13.503 15.2932 13.1383 15.4381 12.75 15.5205V17.5488C13.539 17.8509 14.0994 18.6136 14.0996 19.5088C14.0996 20.6686 13.1598 21.6094 12 21.6094C10.8402 21.6094 9.90039 20.6686 9.90039 19.5088C9.90055 18.6136 10.461 17.8509 11.25 17.5488V15.5205C10.7953 15.4241 10.3725 15.2425 9.99902 14.9922L7.35156 17.6104C7.63346 18.0368 7.7998 18.5463 7.7998 19.0957L7.78516 19.3711C7.64709 20.7327 6.49763 21.7958 5.09961 21.7959L4.82324 21.7812C3.55253 21.652 2.54191 20.6419 2.41309 19.3711L2.39941 19.0957C2.39941 17.6046 3.60855 16.3956 5.09961 16.3955L5.375 16.4092C5.66834 16.4389 5.9471 16.5177 6.20508 16.6338L8.95312 13.918C8.60286 13.3627 8.40041 12.705 8.40039 12C8.40047 11.2778 8.61333 10.6056 8.97949 10.042L6.36426 7.48438C5.98685 7.68512 5.5569 7.80075 5.09961 7.80078L4.82324 7.78613C3.55253 7.6569 2.54191 6.64681 2.41309 5.37598L2.39941 5.10059C2.39941 3.6095 3.60855 2.40052 5.09961 2.40039L5.375 2.41406ZM5.09961 17.8359C4.40384 17.8361 3.83984 18.3999 3.83984 19.0957C3.83995 19.7914 4.40391 20.3553 5.09961 20.3555C5.79533 20.3554 6.35927 19.7914 6.35938 19.0957C6.35938 18.3999 5.7954 17.836 5.09961 17.8359ZM18.9004 17.8359C18.2045 17.8359 17.6406 18.3998 17.6406 19.0957C17.6407 19.7915 18.2046 20.3555 18.9004 20.3555C19.596 20.3553 20.1601 19.7914 20.1602 19.0957C20.1602 18.4 19.5961 17.8361 18.9004 17.8359ZM12 10.0205C10.9068 10.0207 10.0207 10.9068 10.0205 12C10.0206 13.0933 10.9067 13.9803 12 13.9805C13.0932 13.9802 13.9794 13.0933 13.9795 12C13.9793 10.9068 13.0932 10.0208 12 10.0205ZM5.09961 3.84082C4.40384 3.84095 3.83984 4.40479 3.83984 5.10059C3.83995 5.79629 4.40391 6.36022 5.09961 6.36035C5.79533 6.36025 6.35927 5.79631 6.35938 5.10059C6.35938 4.40477 5.7954 3.84093 5.09961 3.84082Z" fill="#141518"/>
</svg>
