<svg width="24" height="24" viewBox="0 0 24 24" fill="none" xmlns="http://www.w3.org/2000/svg">
<path d="M6.60742 12.019C8.14953 12.019 9.44444 13.0774 9.80566 14.5073H18.2207C18.6681 14.5073 19.0312 14.8705 19.0312 15.3179C19.0312 15.7652 18.668 16.1274 18.2207 16.1274H9.80566C9.44465 17.5576 8.14976 18.6167 6.60742 18.6167C4.78585 18.6165 3.30965 17.1395 3.30957 15.3179C3.30957 13.4962 4.7858 12.0192 6.60742 12.019ZM19.0703 8.68115C19.0701 7.75423 18.3186 7.00244 17.3916 7.00244C16.4647 7.00246 15.7131 7.75425 15.7129 8.68115C15.7129 9.6082 16.4646 10.3598 17.3916 10.3599C18.3187 10.3599 19.0703 9.60821 19.0703 8.68115ZM4.92871 15.3179C4.9288 16.2448 5.68056 16.9964 6.60742 16.9966C7.53443 16.9966 8.28605 16.2449 8.28613 15.3179C8.28613 14.3908 7.53448 13.6392 6.60742 13.6392C5.6805 13.6393 4.92871 14.3909 4.92871 15.3179ZM20.6904 8.68115C20.6904 10.5029 19.2134 11.98 17.3916 11.98C15.8495 11.98 14.5556 10.9216 14.1943 9.4917H4.94824C4.50109 9.49147 4.13867 9.12836 4.13867 8.68115C4.13884 8.23409 4.50119 7.87181 4.94824 7.87158H14.1943C14.5554 6.44154 15.8494 5.38332 17.3916 5.3833C19.2133 5.3833 20.6903 6.85953 20.6904 8.68115Z" fill="#141518"/>
</svg>
