<svg width="24" height="24" viewBox="0 0 24 24" fill="none" xmlns="http://www.w3.org/2000/svg">
<path d="M17.8486 13.5889C18.2627 13.5891 18.5986 13.9248 18.5986 14.3389V14.9053C18.8934 15.0052 19.1609 15.1622 19.3896 15.3633L19.8809 15.0801C20.2395 14.873 20.6981 14.9959 20.9053 15.3545C21.112 15.7131 20.9894 16.1719 20.6309 16.3789L20.1406 16.6611C20.17 16.8093 20.1865 16.9623 20.1865 17.1191C20.1865 17.2756 20.1699 17.4283 20.1406 17.5762L20.6309 17.8594C20.9894 18.0665 21.1123 18.5252 20.9053 18.8838C20.6981 19.2423 20.2395 19.3652 19.8809 19.1582L19.3887 18.874C19.1601 19.0748 18.8931 19.2312 18.5986 19.3311V19.8994C18.5984 20.3133 18.2625 20.6492 17.8486 20.6494C17.4346 20.6494 17.0989 20.3134 17.0986 19.8994V19.3311C16.8034 19.2311 16.5357 19.0744 16.3066 18.873L15.8154 19.1582C15.4567 19.3653 14.9981 19.2425 14.791 18.8838C14.584 18.5251 14.7068 18.0665 15.0654 17.8594L15.5547 17.5762C15.5254 17.4284 15.5098 17.2756 15.5098 17.1191C15.5098 16.9624 15.5253 16.8093 15.5547 16.6611L15.0654 16.3789C14.7069 16.1718 14.5842 15.7131 14.791 15.3545C14.9982 14.9958 15.4567 14.873 15.8154 15.0801L16.3066 15.3633C16.5356 15.162 16.8036 15.0052 17.0986 14.9053V14.3389C17.0986 13.9247 17.4344 13.5889 17.8486 13.5889ZM18.9873 4.20996C20.4286 4.21009 21.5976 5.37804 21.5977 6.81934V12C21.5976 12.4472 21.2343 12.8094 20.7871 12.8096C20.34 12.8094 19.9776 12.4471 19.9775 12V9.75H4.02246V17.1797C4.02246 17.7264 4.46602 18.1698 5.0127 18.1699H12C12.4472 18.1701 12.8105 18.5332 12.8105 18.9805C12.8103 19.4276 12.4471 19.7899 12 19.79H5.0127C3.57132 19.7899 2.40332 18.6211 2.40332 17.1797V6.81934C2.40343 5.37803 3.57139 4.21007 5.0127 4.20996H18.9873ZM17.8486 16.2803C17.3855 16.2803 17.0098 16.656 17.0098 17.1191C17.0099 17.5821 17.3856 17.957 17.8486 17.957C18.3115 17.9568 18.6864 17.582 18.6865 17.1191C18.6865 16.6562 18.3116 16.2805 17.8486 16.2803ZM5.0127 5.8291C4.46609 5.82921 4.02257 6.27273 4.02246 6.81934V8.25H19.9775V6.81934C19.9774 6.27275 19.5339 5.82923 18.9873 5.8291H5.0127ZM5.36816 6.4375C5.65808 6.4375 5.8935 6.67201 5.89355 6.96191C5.89355 7.25186 5.65811 7.4873 5.36816 7.4873C5.07826 7.48725 4.84375 7.25183 4.84375 6.96191C4.8438 6.67204 5.07829 6.43755 5.36816 6.4375ZM7.09473 6.4375C7.38446 6.43771 7.61909 6.67214 7.61914 6.96191C7.61914 7.25173 7.3845 7.48709 7.09473 7.4873C6.80478 7.4873 6.56934 7.25186 6.56934 6.96191C6.56939 6.67201 6.80481 6.4375 7.09473 6.4375ZM8.82031 6.4375C9.11023 6.4375 9.34565 6.67201 9.3457 6.96191C9.3457 7.25186 9.11026 7.4873 8.82031 7.4873C8.53046 7.48719 8.2959 7.25179 8.2959 6.96191C8.29595 6.67208 8.5305 6.43762 8.82031 6.4375Z" fill="#141518"/>
</svg>
