<svg width="24" height="24" viewBox="0 0 24 24" fill="none" xmlns="http://www.w3.org/2000/svg">
<path d="M11.9924 3.31958C16.7906 3.31958 20.6803 7.20935 20.6804 12.0076C20.6804 16.8058 16.7906 20.6956 11.9924 20.6956C7.19415 20.6955 3.30438 16.8058 3.30438 12.0076C3.30442 7.20937 7.19418 3.31962 11.9924 3.31958ZM10.072 15.4435C10.3468 16.2535 10.6932 16.9341 11.0382 17.4861C11.3989 18.0633 11.7585 18.5001 12.0316 18.7959C12.3047 18.5001 12.6643 18.0636 13.0251 17.4864C13.3701 16.9344 13.7168 16.2536 13.9916 15.4435H10.072ZM5.81483 15.4435C6.69929 17.0304 8.17719 18.2409 9.94862 18.7751C9.85477 18.6395 9.75917 18.4963 9.66444 18.3448C9.1865 17.5801 8.71149 16.6123 8.37479 15.4435H5.81483ZM15.6888 15.4435C15.352 16.6124 14.8768 17.5803 14.3988 18.3451C14.3113 18.4851 14.2228 18.6177 14.136 18.7441C15.8632 18.195 17.3024 17.0005 18.1702 15.4435H15.6888ZM5.16034 10.192C5.00678 10.7714 4.92451 11.3799 4.9245 12.0076C4.9245 12.6354 5.00674 13.2439 5.16034 13.8234H8.02821C7.94672 13.2542 7.90019 12.6488 7.90018 12.0076C7.90019 11.3664 7.94673 10.7612 8.02821 10.192H5.16034ZM9.66737 10.192C9.57447 10.7534 9.52031 11.3585 9.5203 12.0076C9.52031 12.6568 9.57445 13.262 9.66737 13.8234H14.3962C14.4891 13.2621 14.5429 12.657 14.543 12.0079C14.543 11.3587 14.4891 10.7534 14.3962 10.192H9.66737ZM16.0353 10.192C16.1168 10.7613 16.1631 11.3666 16.1631 12.0079C16.1631 12.649 16.1168 13.2542 16.0353 13.8234H18.8247C18.9783 13.2439 19.0605 12.6354 19.0605 12.0076C19.0605 11.3799 18.9783 10.7714 18.8247 10.192H16.0353ZM9.94833 5.23999C8.17693 5.77429 6.69925 6.98507 5.81483 8.57192H8.37479C8.7115 7.40305 9.18648 6.43512 9.66444 5.67036C9.75916 5.51881 9.85449 5.37559 9.94833 5.23999ZM12.0313 5.2189C11.7583 5.51477 11.3989 5.95161 11.0382 6.52876C10.6931 7.08081 10.3468 7.76169 10.072 8.57192H13.9916C13.7168 7.76172 13.3701 7.08109 13.0251 6.52905C12.6642 5.95161 12.3045 5.51479 12.0313 5.2189ZM14.1357 5.27104C14.2227 5.3976 14.3112 5.53045 14.3988 5.67065C14.8768 6.4354 15.3521 7.40308 15.6888 8.57192H18.1699C17.302 7.01487 15.863 5.8201 14.1357 5.27104Z" fill="#141518"/>
</svg>
