<svg width="24" height="24" viewBox="0 0 24 24" fill="none" xmlns="http://www.w3.org/2000/svg">
<path d="M11.9802 3.30197C13.1109 3.30457 14.2359 3.52725 15.2907 3.96408C16.8813 4.6229 18.2414 5.73878 19.1979 7.17014C19.5876 7.75336 19.9019 8.37909 20.1393 9.03148C20.1594 9.0742 20.1757 9.11886 20.1882 9.16527C20.5024 10.0747 20.6657 11.0347 20.6657 12.0071C20.6657 12.4544 20.3025 12.8166 19.8552 12.8166C19.408 12.8165 19.0456 12.4543 19.0456 12.0071C19.0456 11.3886 18.9648 10.7762 18.8073 10.1848H15.9294C16.0113 10.7561 16.0603 11.3634 16.0603 12.0071C16.0602 12.4541 15.6976 12.8162 15.2507 12.8166C14.8034 12.8166 14.4402 12.4543 14.4401 12.0071C14.4401 11.3555 14.3841 10.7482 14.2907 10.1848H9.62862C9.53518 10.7482 9.48019 11.3555 9.48019 12.0071C9.4802 12.6587 9.53516 13.2659 9.62862 13.8293H11.9597C12.407 13.8293 12.7702 14.1916 12.7702 14.6389C12.7701 15.0862 12.4069 15.4485 11.9597 15.4485H10.0339C10.3097 16.2616 10.6564 16.9454 11.0026 17.4993C11.3819 18.106 11.7597 18.5581 12.0378 18.8547C12.1766 19.0028 12.2901 19.1126 12.3659 19.1819C12.4035 19.2162 12.4317 19.2414 12.4489 19.2561C12.4565 19.2626 12.4624 19.2672 12.4655 19.2698C12.5526 19.3395 12.6216 19.4236 12.6716 19.5159C12.7341 19.6307 12.7692 19.7625 12.7692 19.9026C12.7692 19.9187 12.7672 19.9346 12.7663 19.9505C12.7642 19.9861 12.7604 20.0216 12.7536 20.0569C12.7462 20.0954 12.736 20.1328 12.7233 20.1692C12.7184 20.1833 12.7134 20.1973 12.7077 20.2112C12.7042 20.2198 12.6999 20.2281 12.696 20.2366C12.6901 20.2495 12.685 20.2629 12.6784 20.2756C12.6613 20.3087 12.6402 20.3392 12.6189 20.3694C12.6098 20.3821 12.6024 20.3961 12.5925 20.4085C12.5783 20.4262 12.5619 20.442 12.5466 20.4583C12.5372 20.4682 12.5281 20.4782 12.5183 20.4876C12.4888 20.5158 12.4572 20.5407 12.4245 20.5637C12.2928 20.6567 12.1332 20.7132 11.9597 20.7132C10.238 20.7131 8.5543 20.2019 7.12277 19.2454C5.69143 18.2888 4.57553 16.9287 3.91672 15.3381C3.867 15.2181 3.82124 15.0966 3.77707 14.9749C3.7574 14.9318 3.74117 14.8868 3.72922 14.8401C3.22888 13.3864 3.12044 11.8229 3.4216 10.3088C3.49865 9.92147 3.60249 9.54161 3.7302 9.17113C3.74148 9.1276 3.75613 9.0855 3.77414 9.04515C4.20682 7.84975 4.89794 6.75828 5.80441 5.85178C7.02184 4.63434 8.57282 3.8049 10.2614 3.46896C10.8178 3.35829 11.3812 3.30307 11.9431 3.30197C11.9554 3.30171 11.9678 3.30167 11.9802 3.30197ZM17.611 13.7141C18.0252 13.7141 18.361 14.0499 18.361 14.4641V15.012C18.6465 15.1098 18.9059 15.2621 19.1286 15.4563L19.6052 15.1819C19.9638 14.9749 20.4224 15.0978 20.6296 15.4563C20.8366 15.8149 20.7137 16.2735 20.3552 16.4807L19.8796 16.7551C19.9076 16.899 19.9245 17.0474 19.9245 17.1995C19.9245 17.3512 19.9075 17.4992 19.8796 17.6428L20.3552 17.9172C20.7137 18.1245 20.8367 18.583 20.6296 18.9417C20.4225 19.3003 19.9638 19.423 19.6052 19.2161L19.1286 18.9407C18.9058 19.135 18.6466 19.2871 18.361 19.385V19.9339L18.3571 20.011C18.3187 20.3892 17.9993 20.6839 17.611 20.6839C17.2228 20.6837 16.9033 20.3891 16.8649 20.011L16.861 19.9339V19.385C16.5753 19.287 16.3154 19.1352 16.0925 18.9407L15.6169 19.2161C15.2583 19.423 14.7996 19.3002 14.5925 18.9417C14.3856 18.5831 14.5085 18.1244 14.8669 17.9172L15.3415 17.6428C15.3136 17.4993 15.2986 17.3512 15.2985 17.1995C15.2985 17.0474 15.3135 16.899 15.3415 16.7551L14.8669 16.4807C14.5084 16.2735 14.3855 15.8149 14.5925 15.4563C14.7996 15.0977 15.2582 14.975 15.6169 15.1819L16.0925 15.4563C16.3152 15.262 16.5755 15.111 16.861 15.0129V14.4641C16.861 14.05 17.1969 13.7142 17.611 13.7141ZM5.7673 15.4485C6.31232 16.4294 7.08376 17.271 8.02316 17.8987C8.60889 18.2901 9.24658 18.59 9.91378 18.7913C9.81934 18.6548 9.72398 18.5102 9.62862 18.3577C9.14953 17.5911 8.67494 16.6202 8.33761 15.4485H5.7673ZM17.612 16.386C17.163 16.386 16.7985 16.7504 16.7985 17.1995C16.7987 17.6484 17.1631 18.012 17.612 18.012C18.0606 18.0115 18.4243 17.6481 18.4245 17.1995C18.4245 16.7507 18.0607 16.3864 17.612 16.386ZM5.11398 10.1848C5.07525 10.3303 5.03996 10.477 5.01047 10.6252C4.79852 11.6911 4.83664 12.7871 5.11398 13.8293H7.99093C7.90903 13.2581 7.86106 12.6508 7.86105 12.0071C7.86105 11.3634 7.90905 10.756 7.99093 10.1848H5.11398ZM9.91183 5.22483C8.79702 5.56161 7.77836 6.16885 6.94992 6.99729C6.48229 7.46494 6.08621 7.99382 5.76828 8.56566H8.33663C8.67397 7.39366 9.14945 6.42319 9.62862 5.65647C9.72346 5.50473 9.81789 5.36064 9.91183 5.22483ZM11.9597 5.24436C11.6912 5.53973 11.3474 5.9632 11.0026 6.51487C10.6564 7.06886 10.3097 7.75241 10.0339 8.56566H13.8864C13.6109 7.75253 13.2648 7.06881 12.9187 6.51487C12.5737 5.96288 12.2283 5.53976 11.9597 5.24436ZM14.0075 5.22483C14.1016 5.3608 14.1977 5.50452 14.2927 5.65647C14.7718 6.42312 15.2464 7.39384 15.5837 8.56566H18.153C18.0594 8.39714 17.9589 8.23168 17.8513 8.07054C17.0728 6.90552 15.9661 5.99744 14.6716 5.46116C14.4537 5.37091 14.2319 5.29256 14.0075 5.22483Z" fill="#141518"/>
</svg>
