<svg width="24" height="24" viewBox="0 0 24 24" fill="none" xmlns="http://www.w3.org/2000/svg">
<path d="M6.02277 10.0755C6.33903 9.75925 6.85291 9.75937 7.16925 10.0755L8.62238 11.5286L10.0765 10.0755C10.3928 9.75972 10.9058 9.75955 11.222 10.0755C11.5383 10.3918 11.5383 10.9057 11.222 11.222L9.76788 12.6751L11.3245 14.2308L12.7786 12.7777C13.095 12.4619 13.608 12.4616 13.9241 12.7777C14.2404 13.0939 14.2403 13.6078 13.9241 13.9241L12.47 15.3773L13.9232 16.8304C14.2395 17.1467 14.2395 17.6596 13.9232 17.9759C13.6068 18.2922 13.094 18.2922 12.7776 17.9759L12.3372 17.5355L10.4622 19.4124C9.93032 19.9442 9.20851 20.2425 8.45636 20.2425C7.70422 20.2425 6.98241 19.9442 6.4505 19.4124L6.0921 19.053L4.30011 20.846C3.98376 21.162 3.46983 21.1622 3.15363 20.846C2.8377 20.5299 2.83812 20.0168 3.15363 19.7005L4.94757 17.9056L4.5882 17.5462C4.05764 17.0145 3.75917 16.2934 3.75909 15.5423C3.75917 14.7911 4.05655 14.0701 4.58722 13.5384L6.4632 11.6624L6.02277 11.222C5.70663 10.9057 5.7065 10.3918 6.02277 10.0755ZM5.7337 14.6839L5.73273 14.6829C5.50558 14.9109 5.37831 15.2205 5.37824 15.5423C5.37831 15.8643 5.50636 16.1737 5.7337 16.4017L6.62628 17.2952C6.64009 17.3073 6.65414 17.3192 6.6673 17.3323C6.68043 17.3455 6.69237 17.3596 6.70441 17.3734L7.59699 18.2669C7.82508 18.4949 8.13387 18.6224 8.45636 18.6224C8.77886 18.6224 9.08862 18.4949 9.31671 18.2669L11.1917 16.39L10.7581 15.9564C10.756 15.9543 10.7534 15.9526 10.7513 15.9505C10.7488 15.9481 10.7469 15.9452 10.7444 15.9427L7.6087 12.8079L5.7337 14.6839ZM19.6204 3.23371C19.9367 2.91796 20.4498 2.91777 20.7659 3.23371C21.082 3.54987 21.0817 4.06287 20.7659 4.37922L19.053 6.09211L19.4114 6.45051C19.9432 6.98241 20.2425 7.70426 20.2425 8.45637C20.2424 9.20848 19.9442 9.93037 19.4124 10.4622L17.5355 12.3372L17.9759 12.7777C18.2922 13.094 18.2922 13.6068 17.9759 13.9232C17.6596 14.2394 17.1467 14.2395 16.8304 13.9232L10.0755 7.16926C9.75944 6.85293 9.75932 6.33902 10.0755 6.02277C10.3917 5.70653 10.9056 5.7067 11.222 6.02277L11.6624 6.4632L13.5384 4.5882C14.0701 4.05746 14.791 3.75918 15.5423 3.7591C16.2935 3.75915 17.0145 4.05664 17.5462 4.58723L17.9056 4.94758L19.6204 3.23371ZM15.5423 5.37824C15.2204 5.37832 14.9109 5.50551 14.6829 5.73273L12.8079 7.60871L16.39 11.1917L18.2669 9.31672C18.4949 9.08867 18.6223 8.77883 18.6224 8.45637C18.6224 8.13391 18.4948 7.82411 18.2669 7.59601L17.3694 6.69953C17.3574 6.68887 17.3448 6.6788 17.3333 6.6673C17.3218 6.65582 17.3117 6.64315 17.3011 6.63117L16.4017 5.73371C16.1737 5.50634 15.8643 5.37829 15.5423 5.37824Z" fill="black"/>
</svg>
