<svg width="24" height="24" viewBox="0 0 24 24" fill="none" xmlns="http://www.w3.org/2000/svg">
<path d="M18.7351 2.41501C20.309 2.41511 21.5852 3.69111 21.5852 5.26504V13.9712C21.5851 15.5452 20.309 16.8212 18.7351 16.8213H16.8461V18.71C16.8461 20.2839 15.57 21.56 13.9961 21.56H5.28985C3.71587 21.56 2.43985 20.284 2.43982 18.71V10.0038C2.43989 8.42986 3.71591 7.15376 5.28985 7.15376H7.17889V5.26504C7.17889 3.69105 8.45492 2.41501 10.0289 2.41501H18.7351ZM5.28985 8.92283C4.69286 8.92283 4.20897 9.40682 4.20889 10.0038V18.71C4.20892 19.307 4.69284 19.791 5.28985 19.791H13.9961C14.593 19.7909 15.077 19.307 15.077 18.71V10.0038C15.0769 9.40684 14.593 8.92286 13.9961 8.92283H5.28985ZM10.0289 4.18408C9.43189 4.18408 8.94796 4.66801 8.94796 5.26504V7.15376H13.9961C15.57 7.15379 16.846 8.42988 16.8461 10.0038V15.0522H18.7351C19.3321 15.0521 19.8161 14.5682 19.8161 13.9712V5.26504C19.8161 4.66807 19.3321 4.18418 18.7351 4.18408H10.0289Z" fill="#141518"/>
</svg>
