<svg width="24" height="24" viewBox="0 0 24 24" fill="none" xmlns="http://www.w3.org/2000/svg">
<path d="M12.567 2.40381C13.0638 2.45251 13.5362 2.64494 13.9254 2.95752L14.1129 3.12354L14.1139 3.12451L18.6393 7.56396C18.884 7.80321 19.0787 8.08936 19.2115 8.40479C19.3444 8.72028 19.4127 9.05955 19.4127 9.40186V12.3882C19.4126 12.8353 19.0502 13.1975 18.6031 13.1978C18.1559 13.1978 17.7928 12.8354 17.7926 12.3882V10.0083H14.6051C13.8602 10.0083 13.1455 9.71181 12.6188 9.18506C12.0923 8.6584 11.7966 7.94441 11.7965 7.19971V4.01123H6.28577C6.03394 4.01123 5.79197 4.1115 5.61389 4.28955C5.43581 4.46764 5.33557 4.70957 5.33557 4.96143V19.0386C5.33569 19.2902 5.43603 19.5315 5.61389 19.7095C5.79197 19.8875 6.03395 19.9878 6.28577 19.9878H11.3541C11.8013 19.9879 12.1645 20.3502 12.1647 20.7974C12.1647 21.2447 11.8014 21.6078 11.3541 21.6079H6.28577C5.60429 21.6079 4.95027 21.3368 4.46838 20.855C3.98671 20.3732 3.71655 19.7198 3.71643 19.0386V4.96143C3.71643 4.27992 3.98649 3.62594 4.46838 3.14404C4.95027 2.66219 5.60429 2.39209 6.28577 2.39209H12.317L12.567 2.40381ZM16.8961 14.8198C17.3103 14.8198 17.6461 15.1556 17.6461 15.5698V17.4595H19.5338C19.948 17.4595 20.2838 17.7953 20.2838 18.2095C20.2836 18.6235 19.9479 18.9595 19.5338 18.9595H17.6461V20.8481C17.6461 21.2624 17.3103 21.5981 16.8961 21.5981C16.482 21.598 16.1461 21.2623 16.1461 20.8481V18.9595H14.2584C13.8446 18.9592 13.5087 18.6233 13.5084 18.2095C13.5084 17.7954 13.8444 17.4597 14.2584 17.4595H16.1461V15.5698C16.1461 15.1557 16.482 14.82 16.8961 14.8198ZM13.4156 7.19971C13.4157 7.51476 13.5416 7.8167 13.7643 8.03955C13.9872 8.26249 14.2898 8.38817 14.6051 8.38818H17.1656L13.4156 4.70947V7.19971Z" fill="#141518"/>
</svg>
