<svg width="24" height="24" viewBox="0 0 24 24" fill="none" xmlns="http://www.w3.org/2000/svg">
<path d="M18.1885 13.9238C18.6025 13.9238 18.9382 14.2598 18.9385 14.6738V16.5635H20.8262C21.2404 16.5635 21.5762 16.8993 21.5762 17.3135C21.5762 17.7277 21.2404 18.0635 20.8262 18.0635H18.9385V19.9521C18.9385 20.3664 18.6027 20.7021 18.1885 20.7021C17.7745 20.702 17.4387 20.367 17.4385 19.9531V18.0635H15.5508C15.1368 18.0632 14.8008 17.7275 14.8008 17.3135C14.8008 16.8994 15.1368 16.5637 15.5508 16.5635H17.4385V14.6748C17.4385 14.2607 17.7744 13.924 18.1885 13.9238ZM18.0898 3.30078C19.5311 3.30091 20.6991 4.46886 20.6992 5.91016V12.041C20.6992 12.4884 20.337 12.8515 19.8896 12.8516C19.4423 12.8516 19.0801 12.4884 19.0801 12.041V10.0566H15.4688V11.5752C15.4685 11.9892 15.1328 12.3242 14.7188 12.3242C14.3048 12.3241 13.969 11.9891 13.9688 11.5752V10.0566H10.0312V13.9941H12.0742C12.4884 13.9941 12.8242 14.3299 12.8242 14.7441C12.8242 15.1584 12.4884 15.4941 12.0742 15.4941H10.0312V19.0801H13.2285C13.6757 19.0802 14.0381 19.4424 14.0381 19.8896C14.0381 20.3369 13.6757 20.6991 13.2285 20.6992H5.91016C4.46886 20.6991 3.30091 19.5311 3.30078 18.0898V5.91016C3.30089 4.46885 4.46885 3.30089 5.91016 3.30078H18.0898ZM4.91992 15.4941V18.0898C4.92005 18.6364 5.36356 19.08 5.91016 19.0801H8.53125V15.4941H4.91992ZM4.91992 13.9941H8.53125V10.0566H4.91992V13.9941ZM5.91016 4.91992C5.36355 4.92003 4.92003 5.36355 4.91992 5.91016V8.55664H8.53125V4.91992H5.91016ZM10.0312 8.55664H13.9688V4.91992H10.0312V8.55664ZM15.4688 8.55664H19.0801V5.91016C19.08 5.36356 18.6364 4.92005 18.0898 4.91992H15.4688V8.55664Z" fill="#141518"/>
</svg>
