<svg width="24" height="24" viewBox="0 0 24 24" fill="none" xmlns="http://www.w3.org/2000/svg">
<path d="M12.7799 20.1533C13.2252 20.1113 13.6203 20.4384 13.6623 20.8837C13.7043 21.3291 13.3773 21.7241 12.9319 21.7661C12.7017 21.7878 12.4693 21.8016 12.235 21.8071L12 21.8101L11.765 21.8071C11.5307 21.8016 11.2983 21.7878 11.0681 21.7661C10.6227 21.7241 10.2957 21.3291 10.3377 20.8837C10.3797 20.4384 10.7748 20.1113 11.2201 20.1533C11.4766 20.1775 11.7367 20.1899 12 20.1899C12.2633 20.1899 12.5234 20.1775 12.7799 20.1533ZM6.11982 18.8613C6.37963 18.4972 6.88536 18.4126 7.24951 18.6724C7.67097 18.973 8.12199 19.2346 8.59717 19.452C9.00398 19.638 9.18287 20.1189 8.99678 20.5257C8.81066 20.9324 8.33011 21.1113 7.92334 20.9253C7.35362 20.6647 6.81333 20.3512 6.30879 19.9913C5.94461 19.7315 5.86003 19.2255 6.11982 18.8613ZM16.7505 18.6724C17.1146 18.4126 17.6204 18.4972 17.8802 18.8613C18.14 19.2255 18.0554 19.7315 17.6912 19.9913C17.1867 20.3512 16.6464 20.6647 16.0767 20.9253C15.6699 21.1113 15.1893 20.9324 15.0032 20.5257C14.8171 20.1189 14.996 19.638 15.4028 19.452C15.878 19.2346 16.329 18.973 16.7505 18.6724ZM3.47432 15.0032C3.88113 14.8171 4.36196 14.996 4.54805 15.4028C4.76542 15.878 5.02698 16.329 5.32764 16.7505C5.58738 17.1146 5.50276 17.6204 5.13867 17.8802C4.77449 18.14 4.26849 18.0554 4.00869 17.6912C3.64878 17.1867 3.33532 16.6464 3.07471 16.0767C2.88866 15.6699 3.0676 15.1893 3.47432 15.0032ZM19.452 15.4028C19.638 14.996 20.1189 14.8171 20.5257 15.0032C20.9324 15.1893 21.1113 15.6699 20.9253 16.0767C20.6647 16.6464 20.3512 17.1867 19.9913 17.6912C19.7315 18.0554 19.2255 18.14 18.8613 17.8802C18.4972 17.6204 18.4126 17.1146 18.6724 16.7505C18.973 16.329 19.2346 15.878 19.452 15.4028ZM2.18994 12C2.18994 11.6859 2.20493 11.375 2.23389 11.0681C2.2759 10.6227 2.67094 10.2957 3.11631 10.3377C3.56164 10.3797 3.88868 10.7748 3.84668 11.2201C3.82853 11.4125 3.81702 11.6069 3.8124 11.8031L3.81006 12L3.8124 12.1969C3.81702 12.3931 3.82853 12.5875 3.84668 12.7799C3.88868 13.2252 3.56164 13.6203 3.11631 13.6623C2.67094 13.7043 2.2759 13.3773 2.23389 12.9319C2.20493 12.625 2.18994 12.3141 2.18994 12ZM20.1899 12C20.1899 11.7367 20.1775 11.4766 20.1533 11.2201C20.1113 10.7748 20.4384 10.3797 20.8837 10.3377C21.3291 10.2957 21.7241 10.6227 21.7661 11.0681C21.7878 11.2983 21.8016 11.5307 21.8071 11.765L21.8101 12L21.8071 12.235C21.8016 12.4693 21.7878 12.7017 21.7661 12.9319C21.7241 13.3773 21.3291 13.7043 20.8837 13.6623C20.4384 13.6203 20.1113 13.2252 20.1533 12.7799C20.1775 12.5234 20.1899 12.2633 20.1899 12ZM4.00869 6.30879C4.26849 5.94461 4.77449 5.86003 5.13867 6.11982C5.50276 6.37963 5.58738 6.88536 5.32764 7.24951C5.02698 7.67097 4.76542 8.12199 4.54805 8.59717C4.36196 9.00398 3.88113 9.18287 3.47432 8.99678C3.0676 8.81066 2.88866 8.33011 3.07471 7.92334C3.33532 7.35362 3.64878 6.81333 4.00869 6.30879ZM18.8613 6.11982C19.2255 5.86003 19.7315 5.94461 19.9913 6.30879C20.3512 6.81333 20.6647 7.35362 20.9253 7.92334C21.1113 8.33011 20.9324 8.81066 20.5257 8.99678C20.1189 9.18287 19.638 9.00398 19.452 8.59717C19.2346 8.12199 18.973 7.67097 18.6724 7.24951C18.4126 6.88536 18.4972 6.37963 18.8613 6.11982ZM7.92334 3.07471C8.33011 2.88866 8.81066 3.0676 8.99678 3.47432C9.18287 3.88113 9.00398 4.36196 8.59717 4.54805C8.12199 4.76542 7.67097 5.02698 7.24951 5.32764C6.88536 5.58738 6.37963 5.50276 6.11982 5.13867C5.86003 4.77449 5.94461 4.26849 6.30879 4.00869C6.81333 3.64878 7.35362 3.33532 7.92334 3.07471ZM15.0032 3.47432C15.1893 3.0676 15.6699 2.88866 16.0767 3.07471C16.6464 3.33532 17.1867 3.64878 17.6912 4.00869C18.0554 4.26849 18.14 4.77449 17.8802 5.13867C17.6204 5.50276 17.1146 5.58738 16.7505 5.32764C16.329 5.02698 15.878 4.76542 15.4028 4.54805C14.996 4.36196 14.8171 3.88113 15.0032 3.47432ZM12.235 2.19287C12.4693 2.19839 12.7017 2.21217 12.9319 2.23389C13.3773 2.2759 13.7043 2.67094 13.6623 3.11631C13.6203 3.56164 13.2252 3.88868 12.7799 3.84668C12.5234 3.82248 12.2633 3.81006 12 3.81006C11.7367 3.81006 11.4766 3.82248 11.2201 3.84668C10.7748 3.88868 10.3797 3.56164 10.3377 3.11631C10.2957 2.67094 10.6227 2.2759 11.0681 2.23389C11.375 2.20493 11.6859 2.18994 12 2.18994L12.235 2.19287Z" fill="#141518"/>
</svg>
