<svg width="24" height="24" viewBox="0 0 24 24" fill="none" xmlns="http://www.w3.org/2000/svg">
<path d="M12 2.58429C14.2943 2.58429 16.4085 3.08988 17.976 3.94484C19.5151 4.78433 20.6935 6.0675 20.6936 7.667V16.3327C20.6936 17.9324 19.5151 19.2157 17.976 20.0552C16.4085 20.9102 14.2942 21.4157 12 21.4157C9.70579 21.4157 7.59154 20.9102 6.02404 20.0552C4.48488 19.2157 3.30646 17.9324 3.30646 16.3327V7.667C3.30656 6.0675 4.48496 4.78433 6.02404 3.94484C7.59153 3.08988 9.70577 2.58429 12 2.58429ZM19.1936 14.8913C18.8303 15.2028 18.4182 15.481 17.976 15.7222C16.4085 16.5771 14.2942 17.0827 12 17.0827C9.70579 17.0827 7.59154 16.5771 6.02404 15.7222C5.58182 15.481 5.16972 15.2028 4.80646 14.8913V16.3327C4.80646 17.1261 5.40629 18.0097 6.7421 18.7383C8.04961 19.4515 9.90727 19.9157 12 19.9157C14.0928 19.9157 15.9504 19.4515 17.2579 18.7383C18.5937 18.0097 19.1936 17.1261 19.1936 16.3327V14.8913ZM19.1936 10.5586C18.8303 10.8701 18.4182 11.1483 17.976 11.3895C16.4085 12.2444 14.2943 12.75 12 12.75C9.70576 12.75 7.59153 12.2444 6.02404 11.3895C5.58183 11.1483 5.16972 10.8701 4.80646 10.5586V11.9997C4.80646 12.7931 5.40632 13.6767 6.7421 14.4053C8.04961 15.1185 9.90727 15.5827 12 15.5827C14.0928 15.5827 15.9504 15.1185 17.2579 14.4053C18.5937 13.6767 19.1936 12.7931 19.1936 11.9997V10.5586ZM12 4.08429C9.90724 4.08429 8.04959 4.54856 6.7421 5.26173C5.40641 5.99031 4.80656 6.87371 4.80646 7.667C4.80646 8.46035 5.40631 9.34393 6.7421 10.0726C8.0496 10.7857 9.90722 11.25 12 11.25C14.0928 11.25 15.9504 10.7857 17.2579 10.0726C18.5937 9.34393 19.1936 8.46035 19.1936 7.667C19.1935 6.87371 18.5936 5.99031 17.2579 5.26173C15.9504 4.54856 14.0928 4.08429 12 4.08429Z" fill="#141518"/>
</svg>
