<svg width="24" height="24" viewBox="0 0 24 24" fill="none" xmlns="http://www.w3.org/2000/svg">
<path d="M19.9297 7.41989C20.3769 7.42006 20.7402 7.78221 20.7402 8.22946V19.9013C20.7401 20.3484 20.3768 20.7117 19.9297 20.7119H14.6436C14.6381 20.7119 14.6324 20.711 14.627 20.7109H4.07031C3.62296 20.7109 3.26074 20.3477 3.26074 19.9004V13.6963C3.26083 13.249 3.62302 12.8867 4.07031 12.8867H8.54688V10.8554C8.54696 10.4083 8.90929 10.046 9.35645 10.0459H13.834V8.22946C13.834 7.78211 14.1962 7.41989 14.6436 7.41989H19.9297ZM15.4531 19.0918H19.1201V9.03903H15.4531V19.0918ZM4.87988 19.0908H8.54688V14.5058H4.87988V19.0908ZM10.166 13.6748C10.1662 13.6819 10.167 13.6891 10.167 13.6963V19.0908H13.833V11.665H10.166V13.6748ZM16.4707 2.07809C17.2797 1.90025 18.0799 2.41164 18.2578 3.22067C18.4357 4.02963 17.9241 4.82969 17.1152 5.00778C16.7157 5.09564 16.3184 5.01469 15.9971 4.81345C15.9786 4.82462 15.9601 4.83595 15.9404 4.84567L12.2871 6.64645C12.1808 7.22163 11.7419 7.70616 11.1348 7.83981C10.7811 7.91758 10.4289 7.8629 10.1299 7.70993L7.18359 9.16306C7.14288 9.8142 6.67869 10.3871 6.00977 10.5342C5.20074 10.7119 4.40055 10.1996 4.22266 9.3906C4.04498 8.58172 4.55643 7.78151 5.36523 7.60349C5.77861 7.51259 6.18969 7.6025 6.5166 7.81931L9.31445 6.43942C9.28258 5.72428 9.76719 5.06814 10.4902 4.90915C10.9625 4.8054 11.4303 4.93846 11.7744 5.22653L15.2764 3.49997C15.2825 3.49693 15.2887 3.49403 15.2949 3.49118C15.3175 2.82254 15.7872 2.22838 16.4707 2.07809Z" fill="#141518"/>
</svg>
