<svg width="24" height="24" viewBox="0 0 24 24" fill="none" xmlns="http://www.w3.org/2000/svg">
<path d="M15.4399 2.44421C16.9559 2.44421 18.1855 3.67287 18.1856 5.18892C18.1854 6.70487 16.9559 7.93468 15.4399 7.93468C15.316 7.93466 15.1945 7.92294 15.075 7.90702C15.0591 7.97872 15.0367 8.05012 14.9994 8.11766C14.2209 9.52742 13.1083 10.7207 11.7632 11.5943H16.5846C16.922 10.4607 17.9711 9.63392 19.2144 9.63363C20.7304 9.63363 21.96 10.8623 21.9601 12.3783C21.9601 13.8945 20.7305 15.1241 19.2144 15.1241C17.971 15.1238 16.9219 14.2963 16.5846 13.1624H11.7537C12.9835 13.9174 14.0309 14.9363 14.8218 16.1454C15.0205 16.0996 15.2272 16.0741 15.4399 16.0741C16.9559 16.0741 18.1855 17.3028 18.1856 18.8188C18.1856 20.3349 16.956 21.5646 15.4399 21.5646C13.924 21.5644 12.6952 20.3347 12.6952 18.8188C12.6952 18.0839 12.9856 17.4178 13.4558 16.9252C12.6942 15.7897 11.6609 14.8585 10.4452 14.222C9.69627 13.8299 8.8951 13.5576 8.07067 13.4113C7.64475 14.6175 6.49812 15.4835 5.14618 15.4837C3.43149 15.4837 2.04083 14.093 2.04083 12.3783C2.04092 10.6637 3.43155 9.27405 5.14618 9.27405C6.53034 9.27425 7.70216 10.1802 8.10258 11.4315C8.91823 11.2625 9.70786 10.9714 10.442 10.5613C11.7815 9.81287 12.8842 8.70338 13.626 7.36021C13.6399 7.33501 13.6577 7.31197 13.6739 7.28893C13.076 6.78528 12.6953 6.03178 12.6952 5.18892C12.6953 3.67301 13.924 2.44444 15.4399 2.44421ZM15.4399 17.6422C14.7904 17.6424 14.2634 18.1693 14.2633 18.8188C14.2633 19.4684 14.7903 19.9952 15.4399 19.9954C16.0896 19.9954 16.6164 19.4685 16.6165 18.8188C16.6164 18.1691 16.0896 17.6422 15.4399 17.6422ZM19.2144 11.2017C18.565 11.2021 18.0379 11.7289 18.0378 12.3783C18.0378 13.0279 18.5649 13.5546 19.2144 13.5549C19.8641 13.5549 20.391 13.0281 20.391 12.3783C20.3909 11.7287 19.8641 11.2017 19.2144 11.2017ZM15.4399 4.01231C14.7904 4.01253 14.2634 4.53938 14.2633 5.18892C14.2635 5.83837 14.7904 6.3653 15.4399 6.36552C16.0895 6.36552 16.6163 5.83851 16.6165 5.18892C16.6164 4.53924 16.0896 4.01231 15.4399 4.01231Z" fill="#141518"/>
</svg>
