<svg width="24" height="24" viewBox="0 0 24 24" fill="none" xmlns="http://www.w3.org/2000/svg">
<path d="M14.1319 1.88234C14.6428 1.9074 15.13 2.10616 15.5127 2.44542L15.5933 2.52042L15.5942 2.5213L19.2911 6.14796C19.5052 6.35725 19.6756 6.60737 19.7918 6.88331C19.908 7.15927 19.9678 7.45577 19.9679 7.75519V11.3918C19.9678 11.8391 19.6051 12.2015 19.1578 12.2016C18.7105 12.2015 18.3478 11.8391 18.3478 11.3918V7.75519C18.3477 7.6717 18.3312 7.58899 18.2988 7.51202C18.2664 7.43502 18.2188 7.36507 18.1591 7.30665L18.1579 7.30548L14.4595 3.67765V3.67736C14.3571 3.57775 14.224 3.51658 14.083 3.50275L14.0218 3.49982H9.09464C8.92821 3.49982 8.76849 3.56583 8.65079 3.68351C8.5331 3.80121 8.4671 3.96091 8.4671 4.12736V4.5797H10.9532L11.0681 4.58263C11.6025 4.60882 12.1121 4.81657 12.5124 5.1715L12.5965 5.24972L12.5974 5.2506L16.5612 9.13888H16.561C16.7845 9.35763 16.9622 9.61875 17.0836 9.90704C17.2051 10.1957 17.2678 10.5056 17.2679 10.8188V11.7111C17.2679 12.1585 16.9052 12.5212 16.4578 12.5212C16.0105 12.5212 15.6478 12.1585 15.6478 11.7111V11.4507H12.9571C12.2782 11.4507 11.627 11.181 11.1469 10.701C10.6667 10.2208 10.3969 9.56948 10.3969 8.89044V6.19982H5.67189C5.4781 6.19985 5.29212 6.27665 5.15509 6.41368C5.01806 6.55072 4.94125 6.73669 4.94122 6.93048V19.2571C4.94122 19.4509 5.0181 19.6369 5.15509 19.7739C5.29212 19.911 5.4781 19.9881 5.67189 19.9881H13.2059C13.6532 19.9882 14.0156 20.3509 14.0156 20.7982C14.0156 21.2454 13.6531 21.6081 13.2059 21.6082H5.67189C5.04845 21.6082 4.45042 21.3603 4.00958 20.9194C3.56878 20.4786 3.32111 19.8806 3.32111 19.2571V6.93048C3.32113 6.30704 3.56874 5.70902 4.00958 5.26818C4.45042 4.82734 5.04845 4.57973 5.67189 4.5797H6.84699V4.12736C6.84699 3.53126 7.08378 2.95951 7.50529 2.538C7.92679 2.11652 8.49856 1.8797 9.09464 1.8797H14.0221L14.1319 1.88234ZM18.1887 13.9242C18.6029 13.9242 18.9387 14.26 18.9387 14.6742V16.5633H20.8263C21.2405 16.5633 21.5763 16.8991 21.5763 17.3133C21.5763 17.7275 21.2405 18.0633 20.8263 18.0633H18.9387V19.9527C18.9386 20.3668 18.6029 20.7027 18.1887 20.7027C17.7745 20.7026 17.4387 20.3668 17.4387 19.9527V18.0633H15.5511C15.1369 18.0632 14.8011 17.7275 14.8011 17.3133C14.8011 16.8991 15.1369 16.5634 15.5511 16.5633H17.4387V14.6742C17.4387 14.26 17.7745 13.9243 18.1887 13.9242ZM11.1059 16.1359C11.5531 16.1359 11.9156 16.4986 11.9156 16.9459C11.9156 17.3932 11.5532 17.7559 11.1059 17.756H7.98312C7.53582 17.7559 7.17335 17.3932 7.17335 16.9459C7.1734 16.4986 7.53585 16.1359 7.98312 16.1359H11.1059ZM12.6059 13.0544C13.0532 13.0545 13.4156 13.4172 13.4156 13.8645C13.4156 14.3117 13.0531 14.6742 12.6059 14.6742H7.98312C7.53587 14.6742 7.17342 14.3117 7.17335 13.8645C7.17335 13.4172 7.53582 13.0545 7.98312 13.0544H12.6059ZM12.017 8.89044C12.017 9.13983 12.1161 9.37914 12.2924 9.55548C12.4687 9.7317 12.7079 9.83084 12.9571 9.83087H14.9531L12.017 6.9504V8.89044Z" fill="#141518"/>
</svg>
