<svg width="24" height="24" viewBox="0 0 24 24" fill="none" xmlns="http://www.w3.org/2000/svg">
<path d="M13.0026 2.40411C13.4995 2.4528 13.9717 2.64522 14.361 2.95782L14.5485 3.12384L14.5495 3.12482L19.0749 7.56427C19.3196 7.80352 19.5143 8.08963 19.6471 8.40509C19.7799 8.72059 19.8483 9.05984 19.8483 9.40216V19.0389C19.8482 19.7202 19.5772 20.3735 19.0954 20.8553C18.6135 21.337 17.9603 21.6082 17.279 21.6082H6.72134C6.03984 21.6082 5.38586 21.3372 4.90396 20.8553C4.42229 20.3735 4.15213 19.7201 4.15201 19.0389V4.96173C4.15201 4.28023 4.42207 3.62624 4.90396 3.14435C5.38586 2.66245 6.03984 2.3924 6.72134 2.3924H12.7526L13.0026 2.40411ZM6.72134 4.01154C6.46949 4.01154 6.22755 4.11177 6.04947 4.28986C5.87138 4.46794 5.77115 4.70988 5.77115 4.96173V19.0389C5.77127 19.2905 5.8716 19.5318 6.04947 19.7098C6.22756 19.8879 6.46949 19.9881 6.72134 19.9881H17.279C17.5307 19.9881 17.7718 19.8877 17.9499 19.7098C18.1278 19.5318 18.2281 19.2906 18.2282 19.0389V10.0086H15.0407C14.2958 10.0085 13.5811 9.71208 13.0544 9.18536C12.5279 8.65873 12.2322 7.94468 12.2321 7.20001V4.01154H6.72134ZM14.6393 15.5887C15.0867 15.5887 15.4499 15.9519 15.4499 16.3992C15.4497 16.8465 15.0866 17.2088 14.6393 17.2088H9.36099C8.91372 17.2088 8.55057 16.8465 8.55045 16.3992C8.55045 15.9519 8.91364 15.5887 9.36099 15.5887H14.6393ZM14.6393 12.0701C15.0866 12.0701 15.4498 12.4324 15.4499 12.8797C15.4499 13.3271 15.0867 13.6902 14.6393 13.6902H9.36099C8.91364 13.6902 8.55045 13.3271 8.55045 12.8797C8.5505 12.4324 8.91367 12.0701 9.36099 12.0701H14.6393ZM13.8512 7.20001C13.8513 7.51502 13.9772 7.81703 14.1999 8.03986C14.4228 8.26276 14.7255 8.38843 15.0407 8.38849H17.6012L13.8512 4.70978V7.20001Z" fill="#141518"/>
</svg>
