<svg width="24" height="24" viewBox="0 0 24 24" fill="none" xmlns="http://www.w3.org/2000/svg">
<path d="M14.1319 1.88234C14.6428 1.9074 15.13 2.10616 15.5127 2.44542L15.5933 2.52042L15.5942 2.5213L19.2911 6.14796C19.5052 6.35724 19.6756 6.60738 19.7918 6.88331C19.908 7.15925 19.9678 7.45579 19.9679 7.75519V15.6281C19.9679 16.2242 19.7311 16.796 19.3096 17.2175C18.8881 17.639 18.3163 17.8758 17.7202 17.8758H17.2679V19.2571C17.2679 19.8805 17.0202 20.4786 16.5794 20.9194C16.1386 21.3603 15.5405 21.6082 14.9171 21.6082H5.67189C5.04846 21.6082 4.45042 21.3603 4.00958 20.9194C3.5688 20.4786 3.32113 19.8805 3.32111 19.2571V6.93048C3.32113 6.30706 3.56876 5.70901 4.00958 5.26818C4.45042 4.82734 5.04845 4.57973 5.67189 4.5797H6.84699V4.12736C6.84699 3.53126 7.08378 2.95951 7.50529 2.538C7.92679 2.11649 8.49854 1.8797 9.09464 1.8797H14.0221L14.1319 1.88234ZM5.67189 6.19982C5.4781 6.19985 5.29212 6.27665 5.15509 6.41368C5.01808 6.55071 4.94125 6.73671 4.94122 6.93048V19.2571C4.94124 19.4509 5.01812 19.6369 5.15509 19.7739C5.29212 19.9109 5.47812 19.9881 5.67189 19.9881H14.9171C15.1109 19.9881 15.2969 19.9109 15.4339 19.7739C15.5709 19.6369 15.6477 19.4509 15.6478 19.2571V11.4507H12.9571C12.2782 11.4507 11.627 11.181 11.1469 10.701C10.6668 10.2209 10.3969 9.56945 10.3969 8.89044V6.19982H5.67189ZM12.6059 16.1359C13.0531 16.1359 13.4156 16.4986 13.4156 16.9459C13.4156 17.3932 13.0531 17.7559 12.6059 17.756H7.98312C7.53585 17.7559 7.17339 17.3932 7.17335 16.9459C7.1734 16.4986 7.53585 16.1359 7.98312 16.1359H12.6059ZM9.09464 3.49982C8.92819 3.49982 8.76849 3.56581 8.65079 3.68351C8.5331 3.80121 8.4671 3.96091 8.4671 4.12736V4.5797H10.9532L11.0681 4.58263C11.6025 4.60882 12.1121 4.81657 12.5124 5.1715L12.5965 5.24972L12.5974 5.2506L16.5612 9.13888H16.561C16.7845 9.35762 16.9622 9.61876 17.0836 9.90704C17.2051 10.1956 17.2678 10.5056 17.2679 10.8188V16.2557H17.7202C17.8867 16.2557 18.0464 16.1897 18.1641 16.072C18.2818 15.9543 18.3477 15.7946 18.3478 15.6281V7.75519C18.3477 7.67172 18.3312 7.58897 18.2988 7.51202C18.2664 7.43503 18.2188 7.36506 18.1591 7.30665L18.1579 7.30548L14.4595 3.67765V3.67736C14.3571 3.57775 14.224 3.51658 14.083 3.50275L14.0218 3.49982H9.09464ZM12.6059 13.0544C13.0532 13.0545 13.4156 13.4172 13.4156 13.8645C13.4155 14.3117 13.0531 14.6742 12.6059 14.6742H7.98312C7.53589 14.6742 7.17346 14.3117 7.17335 13.8645C7.17335 13.4172 7.53582 13.0545 7.98312 13.0544H12.6059ZM12.017 8.89044C12.017 9.1398 12.1161 9.37916 12.2924 9.55548C12.4687 9.73168 12.7079 9.83084 12.9571 9.83087H14.9531L12.017 6.9504V8.89044Z" fill="#141518"/>
</svg>
