<svg width="24" height="24" viewBox="0 0 24 24" fill="none" xmlns="http://www.w3.org/2000/svg">
<path d="M13.0029 2.4043C13.4997 2.45304 13.9722 2.64548 14.3613 2.95801L14.5488 3.12402L14.5498 3.125L19.0752 7.56445C19.3199 7.80367 19.5147 8.0899 19.6475 8.40527C19.7802 8.72074 19.8486 9.06007 19.8486 9.40234V19.0391C19.8485 19.7203 19.5774 20.3737 19.0957 20.8555C18.6139 21.3371 17.9605 21.6083 17.2793 21.6084H6.72168C6.04026 21.6084 5.38617 21.3372 4.9043 20.8555C4.42262 20.3737 4.15247 19.7203 4.15234 19.0391V4.96191C4.15234 4.28041 4.4224 3.62643 4.9043 3.14453C5.38617 2.66275 6.04026 2.39258 6.72168 2.39258H12.7529L13.0029 2.4043ZM6.72168 4.01172C6.46991 4.01172 6.22787 4.11207 6.0498 4.29004C5.87172 4.46812 5.77148 4.71006 5.77148 4.96191V19.0391C5.77161 19.2907 5.87194 19.532 6.0498 19.71C6.22787 19.8879 6.46992 19.9883 6.72168 19.9883H17.2793C17.5309 19.9881 17.7722 19.8878 17.9502 19.71C18.1281 19.532 18.2284 19.2907 18.2285 19.0391V10.0088H15.041C14.2962 10.0088 13.5814 9.71212 13.0547 9.18555C12.5283 8.659 12.2326 7.94474 12.2324 7.2002V4.01172H6.72168ZM11.6025 10.3682C11.8784 10.1853 12.2529 10.2125 12.5 10.4512L14.2637 12.1543C14.5496 12.4306 14.5575 12.8869 14.2812 13.1729C14.005 13.4585 13.5486 13.4665 13.2627 13.1904L12.7197 12.665V15.7754C12.7195 15.9659 12.6444 16.1494 12.5098 16.2842L10.2881 18.5088C10.0072 18.7899 9.55087 18.7905 9.26953 18.5098C8.98828 18.2289 8.98788 17.7726 9.26855 17.4912L11.2803 15.4766V12.7061L10.8047 13.1816C10.5235 13.4624 10.0672 13.4625 9.78613 13.1816C9.50518 12.9005 9.50533 12.4442 9.78613 12.1631L11.4912 10.46L11.6025 10.3682ZM12.8584 16.5439C13.1396 16.2628 13.5958 16.2628 13.877 16.5439L14.8242 17.4912C15.1053 17.7724 15.1054 18.2286 14.8242 18.5098C14.5431 18.7902 14.0877 18.7903 13.8066 18.5098L12.8584 17.5615C12.5777 17.2805 12.5779 16.8251 12.8584 16.5439ZM13.8516 7.2002C13.8518 7.51509 13.9776 7.8173 14.2002 8.04004C14.4231 8.2628 14.7259 8.38867 15.041 8.38867H17.6016L13.8516 4.70996V7.2002Z" fill="#141518"/>
</svg>
