<svg width="24" height="24" viewBox="0 0 24 24" fill="none" xmlns="http://www.w3.org/2000/svg">
<path d="M12.9966 2.46378C13.4818 2.51131 13.9426 2.69961 14.3228 3.00479L14.5064 3.1669L14.5073 3.16788L19.0327 7.60733C19.2718 7.841 19.4616 8.12053 19.5913 8.42862C19.721 8.73676 19.7885 9.06792 19.7886 9.40225V19.039C19.7885 19.7044 19.5238 20.3429 19.0532 20.8134C18.5826 21.2839 17.9443 21.5477 17.2788 21.5478H6.72121C6.05576 21.5478 5.4174 21.2838 4.94679 20.8134C4.47626 20.3429 4.21156 19.7044 4.21144 19.039V4.96182C4.21144 4.29623 4.47615 3.65805 4.94679 3.18741C5.41744 2.71677 6.05562 2.45206 6.72121 2.45206H12.7525L12.9966 2.46378ZM6.72121 3.95206C6.45344 3.95206 6.19668 4.05862 6.00734 4.24796C5.818 4.43729 5.71144 4.69406 5.71144 4.96182V19.039C5.71156 19.3066 5.81811 19.5636 6.00734 19.7528C6.19665 19.942 6.45359 20.0478 6.72121 20.0478H17.2788C17.5465 20.0477 17.8034 19.942 17.9927 19.7528C18.1819 19.5636 18.2885 19.3066 18.2886 19.039V9.94815H15.0405C14.3116 9.9481 13.6117 9.65893 13.0962 9.14346C12.581 8.62807 12.2916 7.92886 12.2915 7.2001V3.95206H6.72121ZM13.7915 7.2001C13.7916 7.53115 13.9237 7.8488 14.1577 8.08292C14.3919 8.31691 14.7095 8.4481 15.0405 8.44815H17.7476L13.7915 4.56729V7.2001Z" fill="#141518"/>
</svg>
