<svg width="24" height="24" viewBox="0 0 24 24" fill="none" xmlns="http://www.w3.org/2000/svg">
<path d="M5.27008 5.26996C5.58641 4.95363 6.10024 4.95363 6.41656 5.26996L12.5728 11.4272C12.8891 11.7435 12.8891 12.2564 12.5728 12.5727L6.41656 18.7299C6.10026 19.0462 5.58641 19.0462 5.27008 18.7299C4.95402 18.4137 4.95415 17.9007 5.27008 17.5844L10.8541 11.9995L5.27008 6.41644C4.95376 6.10012 4.95376 5.58628 5.27008 5.26996ZM11.4273 5.26996C11.7437 4.95388 12.2575 4.95372 12.5738 5.26996L18.73 11.4272C19.0462 11.7434 19.0461 12.2564 18.73 12.5727L12.5738 18.7299C12.2575 19.0462 11.7436 19.0462 11.4273 18.7299C11.1112 18.4137 11.1114 17.9007 11.4273 17.5844L17.0113 11.9995L11.4273 6.41644C11.111 6.10012 11.111 5.58628 11.4273 5.26996Z" fill="#141518"/>
</svg>
