<svg width="24" height="24" viewBox="0 0 24 24" fill="none" xmlns="http://www.w3.org/2000/svg">
<path d="M11.427 12.5729C11.7433 12.8892 12.2565 12.8891 12.5728 12.5729L18.7296 6.41584C19.0459 6.09952 19.0459 5.58666 18.7296 5.27034C18.4132 4.95403 17.9004 4.95402 17.5841 5.27034L11.9998 10.854L6.41579 5.27034C6.09946 4.95403 5.5866 4.95402 5.27028 5.27034C4.95403 5.58666 4.954 6.09954 5.27028 6.41584L11.427 12.5729ZM11.427 18.7296C11.7433 19.0459 12.2565 19.0459 12.5728 18.7296L18.7296 12.5726C19.0459 12.2563 19.0459 11.7434 18.7296 11.4271C18.4132 11.1108 17.9003 11.1108 17.5841 11.4271L11.9998 17.0108L6.41579 11.4271C6.09946 11.1108 5.58658 11.1108 5.27028 11.4271C4.95399 11.7434 4.95405 12.2563 5.27028 12.5726L11.427 18.7296Z" fill="#141518"/>
</svg>
