<svg width="24" height="24" viewBox="0 0 24 24" fill="none" xmlns="http://www.w3.org/2000/svg">
<path d="M11.427 11.4271C11.7433 11.1108 12.2565 11.1108 12.5728 11.4271L18.7296 17.5841C19.0459 17.9004 19.0459 18.4133 18.7296 18.7296C18.4132 19.0459 17.9004 19.0459 17.584 18.7296L11.9998 13.1459L6.41579 18.7296C6.09946 19.0459 5.5866 19.0459 5.27028 18.7296C4.95403 18.4133 4.954 17.9004 5.27028 17.5841L11.427 11.4271ZM11.427 5.27032C11.7433 4.954 12.2565 4.954 12.5728 5.27032L18.7296 11.4274C19.0459 11.7437 19.0459 12.2565 18.7296 12.5729C18.4132 12.8891 17.9003 12.8892 17.584 12.5729L11.9998 6.98917L6.41579 12.5729C6.09946 12.8891 5.58658 12.8892 5.27028 12.5729C4.95399 12.2566 4.95405 11.7437 5.27028 11.4274L11.427 5.27032Z" fill="#141518"/>
</svg>
