<svg width="24" height="24" viewBox="0 0 24 24" fill="none" xmlns="http://www.w3.org/2000/svg">
<path d="M18.7299 5.26996C18.4136 4.95363 17.8998 4.95363 17.5834 5.26996L11.4272 11.4272C11.1109 11.7435 11.1109 12.2564 11.4272 12.5727L17.5834 18.7299C17.8998 19.0462 18.4136 19.0462 18.7299 18.7299C19.046 18.4137 19.0459 17.9007 18.7299 17.5844L13.1459 11.9995L18.7299 6.41644C19.0462 6.10012 19.0462 5.58628 18.7299 5.26996Z" fill="#141518"/>
<path d="M12.5729 5.27006C12.2566 4.95373 11.7428 4.95373 11.4265 5.27006L5.2702 11.4273C4.95388 11.7436 4.95388 12.2565 5.2702 12.5728L11.4265 18.73C11.7428 19.0463 12.2566 19.0463 12.5729 18.73C12.889 18.4138 12.8889 17.9008 12.5729 17.5845L6.98895 11.9995L12.5729 6.41654C12.8893 6.10022 12.8893 5.58638 12.5729 5.27006Z" fill="#141518"/>
</svg>
