<svg width="24" height="24" viewBox="0 0 24 24" fill="none" xmlns="http://www.w3.org/2000/svg">
<path d="M19.8865 13.4126C20.3339 13.4126 20.6966 13.7754 20.6966 14.2227V16.8954C20.6966 18.9996 18.9907 20.7055 16.8865 20.7055H7.1134C5.00921 20.7055 3.30336 18.9996 3.30334 16.8954V14.2227C3.30338 13.7754 3.66608 13.4126 4.1134 13.4126C4.56073 13.4126 4.92342 13.7754 4.92346 14.2227V16.8954C4.92348 18.1049 5.90391 19.0854 7.1134 19.0854H16.8865C18.096 19.0854 19.0765 18.1049 19.0765 16.8954V14.2227C19.0765 13.7754 19.4392 13.4126 19.8865 13.4126ZM11.9998 3.23987C12.4472 3.23987 12.8098 3.60261 12.8099 4.04993V12.2126L15.0408 9.98167C15.3571 9.66542 15.87 9.66544 16.1864 9.98167C16.5026 10.298 16.5026 10.8108 16.1864 11.1272L12.5729 14.7409C12.4976 14.8163 12.4109 14.8732 12.3186 14.9126C12.3091 14.9167 12.2993 14.92 12.2896 14.9238C12.2757 14.929 12.262 14.9345 12.248 14.939C12.2355 14.943 12.2229 14.9461 12.2102 14.9495C12.1985 14.9527 12.1868 14.956 12.175 14.9586C12.1626 14.9614 12.1501 14.9635 12.1375 14.9656C12.1239 14.968 12.1102 14.9702 12.0965 14.9718C12.0855 14.9731 12.0745 14.9742 12.0634 14.975C12.0482 14.9762 12.033 14.977 12.0177 14.9774C12.0118 14.9775 12.0058 14.9782 11.9998 14.9782C11.9939 14.9782 11.9881 14.9775 11.9823 14.9774C11.9692 14.9771 11.9563 14.9762 11.9433 14.9753C11.9299 14.9744 11.9166 14.9734 11.9034 14.9718C11.8912 14.9703 11.879 14.9683 11.8668 14.9662C11.8533 14.964 11.8397 14.9621 11.8264 14.9592C11.817 14.9572 11.8079 14.9543 11.7986 14.9519C11.7827 14.9478 11.7669 14.944 11.7514 14.939C11.7475 14.9377 11.7436 14.9362 11.7397 14.9349C11.7145 14.9264 11.6901 14.9165 11.6661 14.9056C11.626 14.8874 11.5866 14.8665 11.5492 14.8414C11.5041 14.8111 11.4623 14.7763 11.4241 14.7377L7.8136 11.1272C7.49734 10.8108 7.4973 10.298 7.8136 9.98167C8.12991 9.66543 8.6428 9.66543 8.95911 9.98167L11.1898 12.2123V4.04993C11.1898 3.60264 11.5525 3.23991 11.9998 3.23987Z" fill="#141518"/>
</svg>
