<svg width="24" height="24" viewBox="0 0 24 24" fill="none" xmlns="http://www.w3.org/2000/svg">
<path d="M9 16.2001C9.99411 16.2001 10.7998 17.0058 10.7998 17.9999C10.7998 18.9941 9.99411 19.7997 9 19.7997C8.00589 19.7997 7.2002 18.9941 7.2002 17.9999C7.2002 17.0058 8.00589 16.2001 9 16.2001ZM15 16.2001C15.9941 16.2001 16.7998 17.0058 16.7998 17.9999C16.7998 18.9941 15.9941 19.7997 15 19.7997C14.0059 19.7997 13.2002 18.9941 13.2002 17.9999C13.2002 17.0058 14.0059 16.2001 15 16.2001ZM9 10.2001C9.99411 10.2001 10.7998 11.0058 10.7998 11.9999C10.7998 12.9941 9.99411 13.7997 9 13.7997C8.00589 13.7997 7.2002 12.9941 7.2002 11.9999C7.2002 11.0058 8.00589 10.2001 9 10.2001ZM15 10.2001C15.9941 10.2001 16.7998 11.0058 16.7998 11.9999C16.7998 12.9941 15.9941 13.7997 15 13.7997C14.0059 13.7997 13.2002 12.9941 13.2002 11.9999C13.2002 11.0058 14.0059 10.2001 15 10.2001ZM9 4.20013C9.99411 4.20014 10.7998 5.00583 10.7998 5.99994C10.7998 6.99405 9.99411 7.79974 9 7.79974C8.00589 7.79974 7.2002 6.99405 7.2002 5.99994C7.2002 5.00583 8.00589 4.20013 9 4.20013ZM15 4.20013C15.9941 4.20014 16.7998 5.00583 16.7998 5.99994C16.7998 6.99405 15.9941 7.79974 15 7.79974C14.0059 7.79974 13.2002 6.99405 13.2002 5.99994C13.2002 5.00583 14.0059 4.20013 15 4.20013Z" fill="#141518"/>
</svg>
