<svg width="24" height="24" viewBox="0 0 24 24" fill="none" xmlns="http://www.w3.org/2000/svg">
<path d="M16.6523 4.18945C17.7766 4.18961 18.7745 4.90958 19.1289 5.97656L21.5986 13.4111H21.5996V18.9004L21.5898 19.084C21.5039 19.9312 20.8306 20.6044 19.9834 20.6904L19.7998 20.7002H4.2002C3.26826 20.7001 2.50225 19.9917 2.41016 19.084L2.40039 18.9004V13.4111L4.84473 5.9834C5.19703 4.91281 6.19716 4.18951 7.32422 4.18945H16.6523ZM4.02051 18.9004C4.02061 18.9997 4.10094 19.08 4.2002 19.0801H19.7998C19.899 19.0799 19.9794 18.9996 19.9795 18.9004V15.0312H4.02051V18.9004ZM5.67969 16.3057C6.09373 16.3059 6.42969 16.6416 6.42969 17.0557C6.42969 17.4698 6.09373 17.8055 5.67969 17.8057C5.26547 17.8057 4.92969 17.4699 4.92969 17.0557C4.92969 16.6415 5.26547 16.3057 5.67969 16.3057ZM8.97949 16.3057C9.39365 16.3057 9.72949 16.6415 9.72949 17.0557C9.72949 17.4698 9.39365 17.8056 8.97949 17.8057C8.56528 17.8057 8.22949 17.4699 8.22949 17.0557C8.22949 16.6415 8.56528 16.3057 8.97949 16.3057ZM7.32422 5.80957C6.89674 5.80962 6.51741 6.08416 6.38379 6.49023L4.10645 13.4111H19.8916L17.5918 6.4873C17.4574 6.08268 17.0787 5.80973 16.6523 5.80957H7.32422Z" fill="#141518"/>
</svg>
