<svg width="24" height="24" viewBox="0 0 24 24" fill="none" xmlns="http://www.w3.org/2000/svg">
<path d="M17.2789 2.39178C17.9604 2.3918 18.614 2.66254 19.0959 3.14442C19.5777 3.62631 19.8485 4.27992 19.8485 4.96141V9.38173C19.8485 9.82906 19.4858 10.1918 19.0384 10.1918C18.5911 10.1918 18.2284 9.82907 18.2284 9.38173V4.96141C18.2284 4.70958 18.1284 4.46801 17.9503 4.28993C17.7723 4.11185 17.5307 4.01191 17.2789 4.0119H6.72115C6.46931 4.01191 6.22774 4.11185 6.04966 4.28993C5.87159 4.46801 5.77165 4.70958 5.77164 4.96141V19.0383C5.77164 19.2901 5.8716 19.5317 6.04966 19.7098C6.22774 19.8878 6.46931 19.9878 6.72115 19.9878H9.64996C10.0973 19.9878 10.46 20.3505 10.46 20.7978C10.46 21.2452 10.0973 21.6079 9.64996 21.6079H6.72115C6.03966 21.6079 5.38604 21.3371 4.90416 20.8553C4.42228 20.3734 4.15152 19.7198 4.15152 19.0383V4.96141C4.15153 4.27992 4.42227 3.62631 4.90416 3.14442C5.38604 2.66254 6.03966 2.39179 6.72115 2.39178H17.2789Z" fill="#141518"/>
<path fill-rule="evenodd" clip-rule="evenodd" d="M18.4868 12.4104C18.7578 12.1895 19.1576 12.2053 19.4102 12.4579L21.4003 14.448C21.6697 14.7175 21.6697 15.1545 21.4003 15.4239L15.4296 21.3946C15.3003 21.524 15.1245 21.5967 14.9416 21.5968H12.9514C12.5704 21.5968 12.2615 21.2878 12.2615 20.9068V18.9164C12.2615 18.7334 12.3342 18.558 12.4636 18.4286L18.4343 12.4579L18.4868 12.4104ZM13.6414 19.2023V20.2166H14.6559L17.946 16.926L16.9317 15.9114L13.6414 19.2023ZM17.9073 14.9358L18.9218 15.9501L19.9364 14.9358L18.9221 13.9213L17.9073 14.9358Z" fill="#141518"/>
<path d="M14.735 8.41962C15.0555 8.10762 15.5684 8.11442 15.8805 8.43485C16.1925 8.75531 16.1857 9.26827 15.8653 9.58036L11.9714 13.3725C11.424 13.9057 10.5513 13.9057 10.0039 13.3725L7.83502 11.2602C7.51455 10.9481 7.50767 10.4352 7.81978 10.1147C8.13191 9.79434 8.64484 9.7877 8.96529 10.0998L10.9874 12.0694L14.735 8.41962Z" fill="#141518"/>
</svg>
