<svg width="48" height="48" viewBox="0 0 48 48" fill="none" xmlns="http://www.w3.org/2000/svg">
<path d="M16.7044 39.6405C11.5082 39.6405 7.28088 35.3758 7.28088 30.1335C7.28088 26.5588 9.24668 23.4388 12.1446 21.8155V16.6398C12.1446 15.0986 13.1747 13.7953 14.5765 13.3939V11.733C14.5765 9.87257 16.0762 8.35956 17.9203 8.35956H34.9434C36.7875 8.35956 38.2872 9.87257 38.2872 11.733V17.0741C39.689 17.4754 40.7191 18.7787 40.7191 20.3199V30.1335C40.7191 31.9939 39.2194 33.5069 37.3753 33.5069H25.5152C24.1633 37.0888 20.7238 39.6405 16.7044 39.6405ZM16.7044 22.4666C12.5139 22.4666 9.10479 25.9059 9.10479 30.1335C9.10479 34.3611 12.5139 37.8004 16.7044 37.8004C20.8948 37.8004 24.304 34.3611 24.304 30.1335C24.304 25.9059 20.8948 22.4666 16.7044 22.4666ZM26.0056 31.6669H37.3753C38.2136 31.6669 38.8952 30.9793 38.8952 30.1335V20.3199C38.8952 19.4741 38.2136 18.7865 37.3753 18.7865H26.0305C25.2907 18.7865 24.5943 18.5517 24.0178 18.1067L20.4501 15.4137C20.1865 15.2106 19.8736 15.1064 19.5376 15.1064H15.4884C14.6501 15.1064 13.9685 15.794 13.9685 16.6398V21.0351C14.8348 20.7691 15.7532 20.6266 16.7044 20.6266C21.9006 20.6266 26.1279 24.8913 26.1279 30.1335C26.1279 30.6552 26.0857 31.1679 26.0056 31.6669ZM16.4004 13.2664H19.5376C20.2774 13.2664 20.9738 13.5012 21.5503 13.9462L25.118 16.6392C25.3816 16.8422 25.6945 16.9465 26.0305 16.9465H36.4633V11.733C36.4633 10.8872 35.7817 10.1996 34.9434 10.1996H17.9203C17.082 10.1996 16.4004 10.8872 16.4004 11.733L16.4004 13.2664ZM16.7044 34.7337C16.2009 34.7337 15.7924 34.3216 15.7924 33.8136V28.6744L15.5253 28.944C15.169 29.3033 14.5919 29.3033 14.2357 28.944C13.8795 28.5846 13.8795 28.0024 14.2357 27.643L16.0596 25.8029C16.4158 25.4435 16.9929 25.4435 17.3492 25.8029L19.1731 27.643C19.5293 28.0024 19.5293 28.5846 19.1731 28.944C18.8168 29.3033 18.2397 29.3033 17.8835 28.944L17.6163 28.6744V33.8136C17.6163 34.3216 17.2078 34.7337 16.7044 34.7337ZM34.9434 28.4151H31.2956C30.7921 28.4151 30.3836 28.003 30.3836 27.495C30.3836 26.9871 30.7921 26.575 31.2956 26.575H34.9434C35.4469 26.575 35.8553 26.9871 35.8553 27.495C35.8553 28.003 35.4469 28.4151 34.9434 28.4151Z" fill="#B3B4BC"/>
</svg>
