<svg width="48" height="48" viewBox="0 0 48 48" fill="none" xmlns="http://www.w3.org/2000/svg">
<path d="M11 19.6667L37 19.6667M19.6667 11L19.6667 37M17.9333 11H30.0667C32.4936 11 33.707 11 34.634 11.4723C35.4493 11.8878 36.1122 12.5507 36.5277 13.366C37 14.293 37 15.5064 37 17.9333V30.0667C37 32.4936 37 33.707 36.5277 34.634C36.1122 35.4493 35.4493 36.1122 34.634 36.5277C33.707 37 32.4936 37 30.0667 37H17.9333C15.5064 37 14.293 37 13.366 36.5277C12.5507 36.1122 11.8878 35.4493 11.4723 34.634C11 33.707 11 32.4936 11 30.0667V17.9333C11 15.5064 11 14.293 11.4723 13.366C11.8878 12.5507 12.5507 11.8878 13.366 11.4723C14.293 11 15.5064 11 17.9333 11Z" stroke="#B3B4BC" stroke-width="2" stroke-linecap="round" stroke-linejoin="round"/>
</svg>
