<svg width="48" height="48" viewBox="0 0 48 48" fill="none" xmlns="http://www.w3.org/2000/svg">
<path d="M30 40.5H10.8C8.98008 40.5 7.5 39.0199 7.5 37.2V10.8C7.5 8.98008 8.98008 7.5 10.8 7.5H24.2039C25.0869 7.5 25.9178 7.84453 26.5441 8.47148L32.3285 14.2559C32.9549 14.8816 33.3 15.7137 33.3 16.5961V20.7H37.2C39.0199 20.7 40.5 22.1801 40.5 24V33.6C40.5 35.4199 39.0199 36.9 37.2 36.9H33.3V37.2C33.3 39.0199 31.8199 40.5 30 40.5ZM10.8 9.3C9.97266 9.3 9.3 9.97266 9.3 10.8V37.2C9.3 38.0273 9.97266 38.7 10.8 38.7H30C30.8273 38.7 31.5 38.0273 31.5 37.2V36.9H26.4C24.5801 36.9 23.1 35.4199 23.1 33.6V24C23.1 22.1801 24.5801 20.7 26.4 20.7H31.5V17.7H26.4C24.5801 17.7 23.1 16.2199 23.1 14.4V9.3H10.8ZM24.9 31.8492V33.6C24.9 34.4273 25.5727 35.1 26.4 35.1H35.2553L28.6676 28.5129C28.5908 28.4367 28.5 28.425 28.4525 28.425C28.4051 28.425 28.3131 28.4367 28.2369 28.5129L24.9 31.8492ZM33.9006 31.2L37.7109 35.0098C38.2875 34.8012 38.7 34.248 38.7 33.6V32.7609L35.7357 29.7961C35.6186 29.6789 35.4217 29.6789 35.3045 29.7961L33.9006 31.2ZM35.5201 27.9082C36.0586 27.9082 36.5977 28.1133 37.0078 28.5234L38.7 30.2156V24C38.7 23.1727 38.0273 22.5 37.2 22.5H26.4C25.5727 22.5 24.9 23.1727 24.9 24V29.3039L26.9637 27.2402C27.3598 26.8441 27.8883 26.625 28.452 26.625C29.0156 26.625 29.5453 26.8441 29.9408 27.2414L32.6279 29.9273L34.0318 28.5234C34.442 28.1133 34.9811 27.9082 35.5201 27.9082ZM24.9 9.46992V14.4C24.9 15.2273 25.5727 15.9 26.4 15.9H31.3295C31.2586 15.7652 31.1672 15.6398 31.0559 15.5285L25.2715 9.74414C25.1602 9.63281 25.0348 9.54141 24.9 9.46992ZM19.2 32.1H13.2C12.7031 32.1 12.3 31.6969 12.3 31.2C12.3 30.7031 12.7031 30.3 13.2 30.3H19.2C19.6969 30.3 20.1 30.7031 20.1 31.2C20.1 31.6969 19.6969 32.1 19.2 32.1ZM19.2 27.3H13.2C12.7031 27.3 12.3 26.8969 12.3 26.4C12.3 25.9031 12.7031 25.5 13.2 25.5H19.2C19.6969 25.5 20.1 25.9031 20.1 26.4C20.1 26.8969 19.6969 27.3 19.2 27.3ZM19.2 22.5H13.2C12.7031 22.5 12.3 22.0969 12.3 21.6C12.3 21.1031 12.7031 20.7 13.2 20.7H19.2C19.6969 20.7 20.1 21.1031 20.1 21.6C20.1 22.0969 19.6969 22.5 19.2 22.5ZM19.2 17.7H13.2C12.7031 17.7 12.3 17.2969 12.3 16.8C12.3 16.3031 12.7031 15.9 13.2 15.9H19.2C19.6969 15.9 20.1 16.3031 20.1 16.8C20.1 17.2969 19.6969 17.7 19.2 17.7Z" fill="#B3B4BC"/>
</svg>
