<svg width="48" height="48" viewBox="0 0 48 48" fill="none" xmlns="http://www.w3.org/2000/svg">
<path d="M15.2728 12.7862C13.9198 12.7862 12.8182 13.8872 12.8182 15.2407C12.8182 16.5943 13.9198 17.6953 15.2728 17.6953C16.6258 17.6953 17.7273 16.5943 17.7273 15.2407C17.7273 13.8872 16.6258 12.7862 15.2728 12.7862ZM15.2728 16.0589C14.8221 16.0589 14.4546 15.6919 14.4546 15.2407C14.4546 14.7896 14.8221 14.4226 15.2728 14.4226C15.7234 14.4226 16.091 14.7896 16.091 15.2407C16.091 15.6919 15.7234 16.0589 15.2728 16.0589Z" fill="#B3B4BC"/>
<path d="M16.091 30.032V21.3047C16.091 20.853 15.7245 20.4865 15.2728 20.4865C14.8211 20.4865 14.4546 20.853 14.4546 21.3047V30.032C14.4546 30.4837 14.8211 30.8501 15.2728 30.8501C15.7245 30.8501 16.091 30.4837 16.091 30.032Z" fill="#B3B4BC"/>
<path d="M16.3636 33H14.1818C13.7301 33 13.3636 33.3665 13.3636 33.8182C13.3636 34.2699 13.7301 34.6364 14.1818 34.6364H16.3636C16.8154 34.6364 17.1818 34.2699 17.1818 33.8182C17.1818 33.3665 16.8154 33 16.3636 33Z" fill="#B3B4BC"/>
<path d="M24 12.7862C22.647 12.7862 21.5454 13.8872 21.5454 15.2407C21.5454 16.5943 22.647 17.6953 24 17.6953C25.3529 17.6953 26.4545 16.5943 26.4545 15.2407C26.4545 13.8872 25.3529 12.7862 24 12.7862ZM24 16.0589C23.5493 16.0589 23.1818 15.6919 23.1818 15.2407C23.1818 14.7896 23.5493 14.4226 24 14.4226C24.4506 14.4226 24.8181 14.7896 24.8181 15.2407C24.8181 15.6919 24.4506 16.0589 24 16.0589Z" fill="#B3B4BC"/>
<path d="M24.8181 30.032V21.3047C24.8181 20.853 24.4516 20.4865 23.9999 20.4865C23.5482 20.4865 23.1818 20.853 23.1818 21.3047V30.032C23.1818 30.4837 23.5482 30.8501 23.9999 30.8501C24.4516 30.8501 24.8181 30.4837 24.8181 30.032Z" fill="#B3B4BC"/>
<path d="M25.0909 33H22.9091C22.4574 33 22.0909 33.3665 22.0909 33.8182C22.0909 34.2699 22.4574 34.6364 22.9091 34.6364H25.0909C25.5426 34.6364 25.9091 34.2699 25.9091 33.8182C25.9091 33.3665 25.5426 33 25.0909 33Z" fill="#B3B4BC"/>
<path d="M34.9091 9H30.5455C29.6836 9 28.9113 9.37021 28.3637 9.95395C27.816 9.37021 27.0437 9 26.1819 9H21.8182C20.9564 9 20.184 9.37021 19.6364 9.95395C19.0887 9.37021 18.3164 9 17.4546 9H13.0909C11.4365 9 10.0909 10.3455 10.0909 12V36C10.0909 37.6545 11.4365 39 13.0909 39H17.4546C18.3164 39 19.0887 38.6298 19.6364 38.0461C20.184 38.6298 20.9564 39 21.8182 39H26.1819C27.0437 39 27.816 38.6298 28.3637 38.0461C28.9113 38.6298 29.6836 39 30.5455 39H34.9091C36.5636 39 37.9091 37.6545 37.9091 36V12C37.9091 10.3455 36.5636 9 34.9091 9ZM17.4546 37.3636H13.0909C12.3388 37.3636 11.7273 36.7521 11.7273 36V12C11.7273 11.2479 12.3388 10.6364 13.0909 10.6364H17.4546C18.2067 10.6364 18.8182 11.2479 18.8182 12V36C18.8182 36.7521 18.2067 37.3636 17.4546 37.3636ZM26.1819 37.3636H21.8182C21.0661 37.3636 20.4546 36.7521 20.4546 36V12C20.4546 11.2479 21.0661 10.6364 21.8182 10.6364H26.1819C26.934 10.6364 27.5455 11.2479 27.5455 12V36C27.5455 36.7521 26.934 37.3636 26.1819 37.3636ZM36.2728 36C36.2728 36.7521 35.6613 37.3636 34.9091 37.3636H30.5455C29.7934 37.3636 29.1819 36.7521 29.1819 36V12C29.1819 11.2479 29.7934 10.6364 30.5455 10.6364H34.9091C35.6613 10.6364 36.2728 11.2479 36.2728 12V36Z" fill="#B3B4BC"/>
<path d="M32.7273 12.7862C31.3743 12.7862 30.2727 13.8872 30.2727 15.2407C30.2727 16.5943 31.3743 17.6953 32.7273 17.6953C34.0802 17.6953 35.1818 16.5943 35.1818 15.2407C35.1818 13.8872 34.0802 12.7862 32.7273 12.7862ZM32.7273 16.0589C32.2766 16.0589 31.9091 15.6919 31.9091 15.2407C31.9091 14.7896 32.2766 14.4226 32.7273 14.4226C33.1779 14.4226 33.5454 14.7896 33.5454 15.2407C33.5454 15.6919 33.1779 16.0589 32.7273 16.0589Z" fill="#B3B4BC"/>
<path d="M33.5454 30.032V21.3047C33.5454 20.853 33.1789 20.4865 32.7272 20.4865C32.2755 20.4865 31.9091 20.853 31.9091 21.3047V30.032C31.9091 30.4837 32.2755 30.8501 32.7272 30.8501C33.1789 30.8501 33.5454 30.4837 33.5454 30.032Z" fill="#B3B4BC"/>
<path d="M33.8182 33H31.6364C31.1847 33 30.8182 33.3665 30.8182 33.8182C30.8182 34.2699 31.1847 34.6364 31.6364 34.6364H33.8182C34.2699 34.6364 34.6364 34.2699 34.6364 33.8182C34.6364 33.3665 34.2699 33 33.8182 33Z" fill="#B3B4BC"/>
</svg>
