<svg width="24" height="24" viewBox="0 0 24 24" fill="none" xmlns="http://www.w3.org/2000/svg">
<path d="M7.60938 3.46387C8.00716 3.25941 8.49562 3.41573 8.7002 3.81348C8.90463 4.21118 8.74818 4.69965 8.35059 4.9043C6.75934 5.72275 5.48891 7.05264 4.74415 8.67969C3.99959 10.3067 3.82364 12.1368 4.24415 13.876C4.66473 15.6152 5.65767 17.1625 7.06349 18.2695C8.46933 19.3766 10.2067 19.9794 11.9961 19.9805C13.7854 19.9814 15.5237 19.3808 16.9307 18.2754C18.3375 17.1699 19.3324 15.6234 19.7549 13.8848C20.1774 12.146 20.0035 10.3154 19.2607 8.6875C18.5179 7.05958 17.2485 5.72853 15.6582 4.9082C15.261 4.7031 15.1049 4.21477 15.3096 3.81738C15.5147 3.41991 16.0038 3.2637 16.4014 3.46875C18.3143 4.45557 19.8407 6.05642 20.7344 8.01465C21.628 9.97307 21.8374 12.1758 21.3291 14.2676C20.8207 16.3593 19.6234 18.2199 17.9307 19.5498C16.2381 20.8794 14.1475 21.6017 11.9951 21.6006C9.84244 21.5993 7.7518 20.8748 6.06056 19.543C4.36938 18.2111 3.17491 16.3492 2.66896 14.2568C2.16303 12.1644 2.37556 9.9623 3.2715 8.00488C4.16742 6.04766 5.69524 4.44846 7.60938 3.46387ZM12 2.41016C12.4474 2.41016 12.8096 2.77238 12.8096 3.21973V10.0947C12.8093 10.5419 12.4472 10.9043 12 10.9043C11.5529 10.9042 11.1907 10.5418 11.1904 10.0947V3.21973C11.1904 2.77244 11.5527 2.41026 12 2.41016Z" fill="#141518"/>
</svg>
