<svg width="24" height="24" viewBox="0 0 24 24" fill="none" xmlns="http://www.w3.org/2000/svg">
<path d="M5.91211 2.21478C4.80202 2.21478 3.90234 3.11446 3.90234 4.22455V11.4658C3.90256 12.5757 4.80215 13.4755 5.91211 13.4755H11.4854V17.9257H7.37012C7.24434 17.5431 7.03228 17.1905 6.74219 16.9003C6.25559 16.4139 5.59529 16.1406 4.90723 16.1406C4.21918 16.1407 3.55882 16.4138 3.07227 16.9003C2.58574 17.387 2.31152 18.0471 2.31152 18.7353C2.31153 19.4235 2.58574 20.0836 3.07227 20.5703C3.55882 21.0567 4.21919 21.3299 4.90723 21.33C5.59529 21.3299 6.25559 21.0567 6.74219 20.5703C7.03228 20.2801 7.24433 19.9275 7.37012 19.5449H18.9336L18.0752 20.4023C17.7592 20.7184 17.7586 21.2314 18.0742 21.5478C18.3902 21.8641 18.9032 21.8644 19.2197 21.5488L21.46 19.3105C21.5663 19.2042 21.6391 19.0706 21.6738 18.9267C21.6887 18.8653 21.6982 18.8013 21.6982 18.7353C21.6982 18.558 21.6395 18.395 21.543 18.2617C21.524 18.2355 21.5036 18.2104 21.4814 18.1865C21.4711 18.1753 21.4611 18.1638 21.4502 18.1533L19.2207 15.9228C18.9046 15.6066 18.3916 15.6059 18.0752 15.9218C17.7592 16.2379 17.7585 16.751 18.0742 17.0673L18.9316 17.9257H13.1055V13.4755H18.6045C19.7142 13.4753 20.614 12.5755 20.6143 11.4658V4.22455C20.6143 3.1146 19.7144 2.21502 18.6045 2.21478H5.91211ZM4.90723 17.7597C5.16564 17.7598 5.41389 17.8632 5.59668 18.0458C5.77947 18.2287 5.88184 18.4767 5.88184 18.7353C5.88183 18.9939 5.77948 19.2419 5.59668 19.4247C5.41389 19.6074 5.16564 19.7108 4.90723 19.7109C4.64884 19.7107 4.40052 19.6074 4.21777 19.4247C4.03505 19.2419 3.93164 18.9938 3.93164 18.7353C3.93164 18.4768 4.03505 18.2287 4.21777 18.0458C4.40052 17.8632 4.64884 17.7598 4.90723 17.7597ZM18.6045 3.83392C18.8197 3.83416 18.9941 4.0093 18.9941 4.22455V11.4658C18.9939 11.6808 18.8195 11.8552 18.6045 11.8554H5.91211C5.69685 11.8554 5.5217 11.681 5.52148 11.4658V4.22455C5.52148 4.00916 5.69672 3.83392 5.91211 3.83392H18.6045ZM14.6719 5.53705C14.3909 5.25601 13.9356 5.2554 13.6543 5.53607C13.3734 5.81709 13.3726 6.27341 13.6533 6.55463L14.957 7.85834L13.6543 9.1601C13.3734 9.44107 13.3727 9.89645 13.6533 10.1777C13.9343 10.4588 14.3906 10.4593 14.6719 10.1786L16.4834 8.3681C16.6184 8.23323 16.6942 8.05012 16.6943 7.85931C16.6944 7.66837 16.6193 7.48462 16.4844 7.34955L14.6719 5.53705ZM10.5605 5.53607C10.2793 5.2554 9.82393 5.25601 9.54297 5.53705L7.73047 7.34955C7.59559 7.48461 7.52043 7.66843 7.52051 7.85931C7.52069 8.05012 7.59646 8.23323 7.73145 8.3681L9.54297 10.1786C9.82423 10.4594 10.2805 10.4587 10.5615 10.1777C10.8422 9.89641 10.8416 9.44106 10.5605 9.1601L9.25781 7.85834L10.5615 6.55463C10.8423 6.27337 10.8416 5.81708 10.5605 5.53607Z" fill="#141518"/>
</svg>
