<svg width="24" height="24" viewBox="0 0 24 24" fill="none" xmlns="http://www.w3.org/2000/svg">
<path d="M4.11914 15.4756C4.56639 15.4756 4.92855 15.8379 4.92871 16.2852V19.0684H7.71191C8.15926 19.0684 8.52246 19.4306 8.52246 19.8779C8.52244 20.3253 8.15925 20.6875 7.71191 20.6875H4.41895C3.80608 20.6874 3.3097 20.191 3.30957 19.5781V16.2852C3.30974 15.8379 3.67189 15.4756 4.11914 15.4756ZM19.8877 15.4756C20.3349 15.4756 20.6971 15.8379 20.6973 16.2852V19.5781C20.6971 20.191 20.2008 20.6874 19.5879 20.6875H16.2949C15.8476 20.6875 15.4844 20.3253 15.4844 19.8779C15.4844 19.4306 15.8476 19.0684 16.2949 19.0684H19.0781V16.2852C19.0783 15.8379 19.4404 15.4756 19.8877 15.4756ZM12 8.40039C13.9881 8.40044 15.5994 10.012 15.5996 12C15.5996 13.9882 13.9882 15.6005 12 15.6006C10.0118 15.6006 8.40039 13.9882 8.40039 12C8.4006 10.012 10.0119 8.40039 12 8.40039ZM7.71191 3.31445C8.15925 3.31445 8.52244 3.67669 8.52246 4.12402C8.52246 4.57137 8.15926 4.93359 7.71191 4.93359H4.92871V7.7168C4.92855 8.16401 4.56639 8.52637 4.11914 8.52637C3.67189 8.52637 3.30974 8.16401 3.30957 7.7168V4.42383C3.3097 3.81097 3.80608 3.31456 4.41895 3.31445H7.71191ZM19.5879 3.31445C20.2008 3.31456 20.6971 3.81097 20.6973 4.42383V7.7168C20.6971 8.16401 20.3349 8.52637 19.8877 8.52637C19.4404 8.52637 19.0783 8.16401 19.0781 7.7168V4.93359H16.2949C15.8476 4.93359 15.4844 4.57137 15.4844 4.12402C15.4844 3.67669 15.8476 3.31445 16.2949 3.31445H19.5879Z" fill="#141518"/>
</svg>
