<svg width="24" height="24" viewBox="0 0 24 24" fill="none" xmlns="http://www.w3.org/2000/svg">
<path d="M19.0528 17.9604C19.5001 17.9605 19.8624 18.3227 19.8624 18.77C19.8624 19.2173 19.5001 19.5795 19.0528 19.5796H4.94735C4.50002 19.5796 4.13778 19.2174 4.13778 18.77C4.13781 18.3227 4.50003 17.9605 4.94735 17.9604H19.0528ZM4.37509 8.96533C4.69153 8.64921 5.20442 8.64894 5.52059 8.96533L7.76083 11.2075C7.91265 11.3595 7.99724 11.566 7.99716 11.7808C7.99701 11.9955 7.91176 12.2012 7.75985 12.353L5.51962 14.5913C5.20317 14.9075 4.69031 14.9078 4.37411 14.5913C4.05801 14.2749 4.05867 13.762 4.37509 13.4458L6.0411 11.7798L4.37411 10.1108C4.05798 9.79439 4.05866 9.28151 4.37509 8.96533ZM19.0528 11.1899C19.5001 11.19 19.8624 11.5532 19.8624 12.0005C19.8621 12.4476 19.5 12.81 19.0528 12.8101H11.3731C10.9259 12.8101 10.5638 12.4476 10.5636 12.0005C10.5636 11.5531 10.9258 11.1899 11.3731 11.1899H19.0528ZM19.0528 4.42041C19.5001 4.42045 19.8624 4.78265 19.8624 5.22998C19.8624 5.67731 19.5001 6.03951 19.0528 6.03955H4.94735C4.50002 6.03953 4.13778 5.67732 4.13778 5.22998C4.13778 4.78264 4.50002 4.42043 4.94735 4.42041H19.0528Z" fill="#141518"/>
</svg>
