<svg width="24" height="24" viewBox="0 0 24 24" fill="none" xmlns="http://www.w3.org/2000/svg">
<path d="M13.6971 9.15758L17.0711 5.78357H13.67C13.2226 5.78357 12.86 5.42092 12.86 4.97357C12.86 4.52624 13.2226 4.16357 13.67 4.16357L19.0267 4.16357C19.2415 4.16357 19.4476 4.2489 19.5995 4.40077C19.7514 4.55266 19.8367 4.75876 19.8367 4.97357L19.8369 10.3305C19.8369 10.7778 19.4742 11.1404 19.0269 11.1405C18.5796 11.1405 18.2167 10.7777 18.2167 10.3303V6.92916L14.8427 10.3032C14.5264 10.6195 14.0134 10.6195 13.6971 10.3032C13.3808 9.98685 13.3808 9.47389 13.6971 9.15758Z" fill="#141518"/>
<path d="M10.2581 14.8014L6.88408 18.1754H10.2852C10.7326 18.1754 11.0952 18.538 11.0952 18.9854C11.0952 19.4327 10.7326 19.7954 10.2852 19.7954H4.92849C4.71369 19.7954 4.50759 19.71 4.35569 19.5582C4.2038 19.4063 4.11851 19.2002 4.11849 18.9854L4.11829 13.6284C4.11831 13.1811 4.48102 12.8185 4.92828 12.8184C5.37563 12.8184 5.73849 13.1813 5.73849 13.6286V17.0298L9.1125 13.6558C9.42883 13.3394 9.94177 13.3394 10.2581 13.6558C10.5744 13.9721 10.5744 14.485 10.2581 14.8014Z" fill="#141518"/>
</svg>
