<svg width="24" height="24" viewBox="0 0 24 24" fill="none" xmlns="http://www.w3.org/2000/svg">
<path d="M5.89158 3.56194C6.23368 3.21988 6.78817 3.21987 7.13026 3.56194L14.949 11.3807C15.291 11.7228 15.2911 12.2773 14.949 12.6194L7.13026 20.4381C6.78817 20.7801 6.23367 20.7801 5.89158 20.4381C5.54948 20.096 5.54948 19.5412 5.89158 19.1991L13.091 11.9997L5.89158 4.80061C5.54951 4.45852 5.54951 3.90403 5.89158 3.56194ZM18.239 3.3053C18.7228 3.30535 19.115 3.69751 19.115 4.18127V19.8188C19.115 20.3025 18.7228 20.6947 18.239 20.6948C17.7553 20.6948 17.3631 20.3025 17.3631 19.8188V4.18127C17.3631 3.69747 17.7552 3.3053 18.239 3.3053Z" fill="#141518"/>
</svg>
