<svg width="24" height="24" viewBox="0 0 24 24" fill="none" xmlns="http://www.w3.org/2000/svg">
<path d="M15.4268 15.4267C15.7431 15.1105 16.2569 15.1104 16.5732 15.4267C16.8894 15.743 16.8894 16.2569 16.5732 16.5732L12.5732 20.5732L12.5117 20.6279C12.1936 20.8878 11.7235 20.8698 11.4268 20.5732L7.42676 16.5732C7.11043 16.2569 7.11043 15.743 7.42676 15.4267C7.74309 15.1105 8.25695 15.1104 8.57324 15.4267L12 18.8535L15.4268 15.4267ZM11.4883 3.37203C11.8063 3.1122 12.2765 3.13028 12.5732 3.42672L16.5732 7.42672C16.8896 7.74304 16.8896 8.25688 16.5732 8.5732C16.2569 8.88951 15.7431 8.88952 15.4268 8.5732L12 5.14644L8.57324 8.5732C8.25692 8.88951 7.74308 8.88952 7.42676 8.5732C7.11072 8.25686 7.11054 7.74295 7.42676 7.42672L11.4268 3.42672L11.4883 3.37203Z" fill="#141518"/>
</svg>
