<svg width="24" height="24" viewBox="0 0 24 24" fill="none" xmlns="http://www.w3.org/2000/svg">
<path d="M19.2309 3.30688L19.3384 3.31084C19.5526 3.32684 19.76 3.39052 19.9462 3.49624L20.0376 3.5526L20.1242 3.61528C20.3206 3.76862 20.4744 3.96946 20.5727 4.19783C20.685 4.45865 20.7208 4.74613 20.6768 5.02609C20.6338 5.29855 20.516 5.55457 20.3357 5.76507L20.3362 5.7656L14.9629 12.2455V17.1524L14.9603 17.2425C14.9478 17.4525 14.8915 17.6584 14.7939 17.8461C14.6823 18.0606 14.5198 18.2457 14.319 18.3834L14.3188 18.3836L11.3739 20.4015L11.3736 20.4012C11.153 20.5524 10.8949 20.6407 10.6265 20.6543C10.3579 20.6678 10.0916 20.6062 9.85668 20.4773C9.62191 20.3485 9.42803 20.1582 9.29389 19.9287C9.15982 19.6994 9.08974 19.4386 9.08926 19.174V12.2463L3.69753 5.76665L3.69805 5.76612C3.51749 5.55569 3.39932 5.29968 3.35621 5.02714C3.31199 4.74749 3.34762 4.46009 3.45945 4.19941C3.57134 3.93861 3.75585 3.71375 3.99328 3.55418C4.23096 3.39445 4.51062 3.30765 4.79836 3.30688H19.2309ZM4.79784 4.77353C4.79471 4.78082 4.79318 4.79016 4.79468 4.7996C4.79615 4.80893 4.79994 4.81526 4.80284 4.81856C4.80764 4.824 4.81242 4.82958 4.81706 4.83515L10.3771 11.5171C10.4859 11.6479 10.5454 11.8128 10.5454 11.983V19.1713C10.5454 19.1805 10.548 19.1883 10.5512 19.1937C10.5521 19.1954 10.5535 19.1964 10.5543 19.1974L13.4958 17.1822C13.4969 17.1813 13.4994 17.1789 13.5018 17.1743C13.5046 17.1689 13.5068 17.1615 13.5068 17.1532V11.983C13.5068 11.8132 13.566 11.6488 13.6743 11.5181L19.2151 4.83621L19.2301 4.81856C19.233 4.81526 19.2368 4.80892 19.2383 4.7996C19.2398 4.79014 19.2383 4.78081 19.2351 4.77353C19.2324 4.76721 19.2291 4.76432 19.2278 4.76326H4.80521C4.80384 4.76432 4.80057 4.76721 4.79784 4.77353Z" fill="#141518"/>
</svg>
