<svg width="24" height="24" viewBox="0 0 24 24" fill="none" xmlns="http://www.w3.org/2000/svg">
<path d="M4.14932 19.9503V4.66125C4.14953 3.88284 4.78009 3.25229 5.5585 3.25208H18.4491C19.7315 3.25225 20.348 4.82518 19.4071 5.69641L16.3446 8.5304L19.4071 11.3644C20.348 12.2356 19.7315 13.8085 18.4491 13.8087H5.76846V19.9503C5.76846 20.3977 5.40624 20.7609 4.95889 20.7609C4.51154 20.7609 4.14932 20.3977 4.14932 19.9503ZM5.76846 12.1896H17.914L14.6024 9.12512C14.4368 8.97182 14.3417 8.75609 14.3417 8.5304C14.3417 8.3047 14.4368 8.08897 14.6024 7.93567L17.914 4.87122H5.76846V12.1896Z" fill="#141518"/>
</svg>
