<svg width="24" height="24" viewBox="0 0 24 24" fill="none" xmlns="http://www.w3.org/2000/svg">
<path d="M18.3 18.6C19.1284 18.6 19.8 19.2716 19.8 20.1C19.8 20.9284 19.1284 21.6 18.3 21.6C17.7103 21.6 17.2003 21.2594 16.9553 20.7644H13.3553C13.1102 21.2594 12.6003 21.6 12.0106 21.6C11.4208 21.6 10.9109 21.2594 10.6658 20.7644H7.04474C6.79968 21.2594 6.28976 21.6 5.70001 21.6C4.8716 21.6 4.20003 20.9284 4.20001 20.1C4.20001 19.2715 4.87159 18.6 5.70001 18.6C6.28133 18.6 6.78491 18.9309 7.0339 19.4144H10.6767C10.9257 18.9309 11.4292 18.6 12.0106 18.6C12.5919 18.6 13.0954 18.9309 13.3444 19.4144H16.9658C17.2148 18.9309 17.7187 18.6 18.3 18.6ZM12 2.35632C16.2112 2.3564 19.6253 5.77056 19.6254 9.98171C19.6253 14.1929 16.2112 17.607 12 17.6071C7.78886 17.607 4.37499 14.1929 4.37491 9.98171C4.37498 5.77055 7.78885 2.35639 12 2.35632ZM12 3.97673C8.68355 3.9768 5.9951 6.66525 5.99503 9.98171C5.99511 13.2982 8.68356 15.9869 12 15.987C15.3165 15.9869 18.0052 13.2982 18.0053 9.98171C18.0052 6.66526 15.3165 3.97681 12 3.97673ZM12 6.23347C12.3728 6.23347 12.675 6.53568 12.675 6.90847V9.8988L14.5737 10.8483C14.907 11.0151 15.0422 11.4205 14.8755 11.7539C14.7088 12.0872 14.3033 12.2223 13.9699 12.0556L11.6983 10.9198C11.4696 10.8055 11.325 10.5716 11.325 10.316V6.90847C11.325 6.53568 11.6272 6.23347 12 6.23347Z" fill="#141518"/>
</svg>
