<svg width="24" height="24" viewBox="0 0 24 24" fill="none" xmlns="http://www.w3.org/2000/svg">
<path d="M13.3368 2.41229C13.5618 2.41229 13.7839 2.45384 13.9933 2.53387L14.0891 2.57343C15.0629 3.00575 15.4816 4.14997 15.1795 5.12636C15.1757 5.13866 15.1716 5.15087 15.1672 5.16298L14.1005 8.1038H15.6392C15.999 8.1038 16.3466 8.20996 16.6459 8.40292C17.5638 8.99508 17.824 10.2285 17.3387 11.1674L17.339 11.1677C17.3383 11.169 17.3374 11.1704 17.3367 11.1718C17.336 11.173 17.3356 11.1743 17.3349 11.1756L17.3346 11.1753C16.8909 12.0407 12.8021 18.912 11.5001 21.097C10.935 22.0457 9.57494 21.5207 9.63335 20.5201L10.0248 13.8433L8.36275 13.8474C8.35692 13.8475 8.35099 13.8476 8.34517 13.8474C8.32254 13.847 8.29126 13.8463 8.25904 13.8445C8.22689 13.8427 8.196 13.8399 8.17349 13.8378C8.16855 13.8373 8.16348 13.8369 8.15855 13.8363C7.02548 13.7103 6.33455 12.635 6.42915 11.5837L7.0271 4.28729L7.02769 4.28085C7.11666 3.29248 7.89138 2.41231 8.95923 2.41229H13.3368ZM8.95923 4.03241C8.86562 4.03243 8.66769 4.1303 8.64107 4.42616L8.04312 11.7225C8.04294 11.7247 8.04272 11.7269 8.04253 11.729C8.02917 11.8777 8.0725 12.0073 8.13804 12.0964C8.20196 12.1832 8.27464 12.2181 8.33491 12.2256C8.34218 12.2262 8.34663 12.2267 8.35015 12.227H8.34868C8.35361 12.2272 8.36038 12.2271 8.37417 12.2273L10.882 12.2212C11.1053 12.2206 11.3191 12.3123 11.4726 12.4746C11.6261 12.6369 11.7057 12.8557 11.6926 13.0787L11.3979 18.0999C13.1302 15.1851 15.5951 11.0231 15.895 10.4335L15.8991 10.4256C16.0265 10.1816 15.9394 9.90408 15.7968 9.78573L15.7678 9.76434C15.7222 9.73491 15.678 9.72391 15.6392 9.72391H12.9454C12.6813 9.72391 12.4337 9.59501 12.2821 9.3788C12.1305 9.16254 12.0936 8.88586 12.1836 8.63759L13.6341 4.63798C13.7219 4.33812 13.5527 4.09994 13.4153 4.04735L13.415 4.04706C13.3881 4.03679 13.3618 4.03241 13.3368 4.03241H8.95923Z" fill="#141518"/>
</svg>
