<svg width="24" height="24" viewBox="0 0 24 24" fill="none" xmlns="http://www.w3.org/2000/svg">
<path fill-rule="evenodd" clip-rule="evenodd" d="M10.7104 3.30027C11.4855 3.30042 12.2214 3.64484 12.7172 4.2407L14.4399 6.31101H18.9802C20.5376 6.31101 21.7486 7.66581 21.5739 9.21336L20.7595 18.3825C20.6101 19.7018 19.4944 20.6986 18.1667 20.6989H5.84292C4.51509 20.6988 3.39848 19.7019 3.24917 18.3825L2.43569 9.21336C2.35712 8.5174 2.56016 7.86139 2.94741 7.3491C2.91066 7.27125 2.88554 7.18645 2.87515 7.09617L2.77358 6.2075C2.59586 4.65835 3.80704 3.30027 5.36636 3.30027H10.7104ZM5.02847 7.93016C4.43792 7.93044 3.97878 8.44485 4.04507 9.03172L4.85952 18.1999C4.91609 18.7003 5.33927 19.0787 5.84292 19.0788H18.1667C18.6702 19.0785 19.0935 18.7002 19.1501 18.1999L19.9636 9.03172C20.0299 8.44466 19.571 7.93016 18.9802 7.93016H5.02847ZM5.36636 4.91941C4.77489 4.91941 4.31555 5.43532 4.38296 6.02293L4.42397 6.38328C4.61772 6.33738 4.81975 6.31105 5.02847 6.31101H12.3325L11.4721 5.27684C11.2841 5.05089 11.0043 4.91956 10.7104 4.91941H5.36636Z" fill="#141518"/>
</svg>
