<svg width="24" height="24" viewBox="0 0 24 24" fill="none" xmlns="http://www.w3.org/2000/svg">
<path d="M11.5976 3.70471C12.3729 3.70471 13.108 4.04952 13.6039 4.64543L15.3262 6.71555H18.9781C20.5356 6.71565 21.7464 8.07121 21.5715 9.61887L20.7573 18.7843C20.6081 20.1039 19.4919 21.1014 18.1639 21.1014H5.83472C4.50678 21.1014 3.3906 20.1039 3.24137 18.7843L2.42721 9.61887C2.3485 8.92262 2.5508 8.26553 2.93844 7.75295C2.9019 7.67527 2.8764 7.59071 2.86607 7.50071L2.76412 6.61213C2.58649 5.0631 3.79801 3.70482 5.35719 3.70471H11.5976ZM5.35719 5.32483C4.76583 5.32494 4.30632 5.84004 4.37369 6.42756L4.41471 6.78645C4.60885 6.74038 4.8117 6.71555 5.02086 6.71555H13.2189L12.3588 5.68166C12.1707 5.45564 11.8917 5.32483 11.5976 5.32483H5.35719Z" fill="#141518"/>
</svg>
