<svg width="24" height="24" viewBox="0 0 24 24" fill="none" xmlns="http://www.w3.org/2000/svg">
<path d="M10.6067 3.30191C11.4017 3.30195 12.1535 3.69951 12.6487 4.32144L14.2925 6.38628H18.9836C20.5411 6.38636 21.7519 7.74195 21.577 9.2896L21.3189 11.8442C21.2687 12.2887 20.8678 12.6083 20.4233 12.5582C19.9788 12.5079 19.6591 12.1068 19.7093 11.6623L19.9671 9.10767C20.0334 8.52066 19.5743 8.00648 18.9836 8.0064H5.0199C4.4291 8.0064 3.96976 8.52061 4.03611 9.10767L4.84294 18.2075C4.89958 18.708 5.3228 19.0861 5.82644 19.0862H12.5418C12.9891 19.0862 13.3518 19.4489 13.3518 19.8962C13.3518 20.3435 12.9891 20.7062 12.5418 20.7063H5.82644C4.49849 20.7062 3.38229 19.709 3.23308 18.3895L2.42624 9.2896C2.34822 8.59933 2.54609 7.94749 2.92722 7.43686C2.91286 7.39051 2.90213 7.34234 2.89616 7.29243L2.77224 6.25649C2.58685 4.70345 3.79977 3.30196 5.36384 3.30191H10.6067ZM5.36384 4.95718C4.77059 4.95723 4.31059 5.47552 4.38093 6.0646L4.42722 6.45395C4.61726 6.40993 4.81559 6.38628 5.0199 6.38628H12.2218L11.3813 5.33042C11.1935 5.09456 10.9082 4.95722 10.6067 4.95718H5.36384Z" fill="#141518"/>
<path fill-rule="evenodd" clip-rule="evenodd" d="M18.439 13.6238C18.8532 13.6239 19.189 13.9596 19.189 14.3738V14.9387C19.484 15.0386 19.7524 15.1957 19.9814 15.3969L20.4716 15.1142C20.8302 14.9071 21.2889 15.0301 21.4961 15.3887C21.7031 15.7474 21.5802 16.2061 21.2216 16.4132L20.7323 16.6956C20.7617 16.8437 20.7774 16.9971 20.7774 17.1538C20.7774 17.3104 20.7617 17.4635 20.7323 17.6114L21.2216 17.8942C21.5802 18.1013 21.7032 18.5603 21.4961 18.919C21.2889 19.2775 20.8302 19.4003 20.4716 19.1932L19.9817 18.9102C19.7527 19.1115 19.4841 19.2687 19.189 19.3687V19.9338C19.1888 20.3479 18.8531 20.6838 18.439 20.6838C18.0249 20.6838 17.6891 20.3479 17.689 19.9338V19.3687C17.3937 19.2687 17.125 19.1116 16.8959 18.9102L16.4063 19.1932C16.0477 19.4002 15.589 19.2775 15.3818 18.919C15.1747 18.5603 15.2977 18.1013 15.6563 17.8942L16.1453 17.6114C16.1159 17.4635 16.1002 17.3104 16.1002 17.1538C16.1002 16.9971 16.1159 16.8437 16.1453 16.6956L15.6563 16.4132C15.2977 16.2061 15.1749 15.7474 15.3818 15.3887C15.589 15.0301 16.0477 14.9071 16.4063 15.1142L16.8959 15.3969C17.125 15.1956 17.3938 15.0386 17.689 14.9387V14.3738C17.689 13.9597 18.0248 13.6239 18.439 13.6238ZM18.4387 16.3154C17.9757 16.3155 17.6002 16.6908 17.6002 17.1538C17.6004 17.6157 17.9742 17.9906 18.4357 17.9923C18.8975 17.9908 19.2773 17.6159 19.2774 17.1538C19.2774 16.6907 18.9018 16.3154 18.4387 16.3154Z" fill="#141518"/>
</svg>
