<svg width="24" height="24" viewBox="0 0 24 24" fill="none" xmlns="http://www.w3.org/2000/svg">
<path fill-rule="evenodd" clip-rule="evenodd" d="M17.0742 2.41846C18.6546 2.41846 19.9359 3.69955 19.936 5.27988C19.936 6.54313 19.117 7.61421 17.9813 7.99365C18.036 10.1214 17.4549 11.4778 16.2894 12.2358C15.6965 12.6214 15.0172 12.8046 14.3508 12.8997C13.6866 12.9945 12.9803 13.0085 12.3214 13.0195C10.9276 13.0428 9.78713 13.0686 8.96252 13.5252C8.36329 13.8571 7.82256 14.4927 7.67551 15.9583C8.89209 16.2879 9.78718 17.3993 9.78723 18.7201C9.78723 20.3005 8.5059 21.5818 6.92551 21.5818C5.34518 21.5818 4.06409 20.3005 4.06409 18.7201C4.06414 17.4035 4.95349 16.2953 6.16409 15.9618V8.03818C4.95349 7.70464 4.06409 6.59649 4.06409 5.27988C4.06415 3.69958 5.34521 2.41852 6.92551 2.41846C8.50586 2.41846 9.78717 3.69955 9.78723 5.27988C9.78723 6.61499 8.87266 7.73623 7.63596 8.05225V12.6627C7.82401 12.5015 8.02863 12.3599 8.24944 12.2376C9.46355 11.5653 11.0276 11.5689 12.2968 11.5477C12.9695 11.5364 13.5845 11.5225 14.1428 11.4428C14.6987 11.3634 15.1433 11.2253 15.4869 11.0019C16.0457 10.6384 16.5503 9.89847 16.5117 8.08594C15.2008 7.82449 14.2128 6.66766 14.2128 5.27988C14.2129 3.6996 15.494 2.41854 17.0742 2.41846ZM6.92551 17.3306C6.15812 17.3306 5.53602 17.9527 5.53596 18.7201C5.53596 19.4876 6.15808 20.1099 6.92551 20.11C7.693 20.11 8.31536 19.4876 8.31536 18.7201C8.3153 17.9527 7.69296 17.3306 6.92551 17.3306ZM6.92551 3.89033C6.15812 3.89039 5.53602 4.51249 5.53596 5.27988C5.53596 6.04733 6.15808 6.66967 6.92551 6.66973C7.693 6.66973 8.31536 6.04737 8.31536 5.27988C8.3153 4.51245 7.69296 3.89033 6.92551 3.89033ZM17.0742 3.89033C16.3069 3.89041 15.6848 4.51251 15.6847 5.27988C15.6847 6.04732 16.3068 6.66965 17.0742 6.66973C17.8417 6.66973 18.4641 6.04737 18.4641 5.27988C18.464 4.51246 17.8417 3.89033 17.0742 3.89033Z" fill="#141518"/>
</svg>
