<svg width="24" height="24" viewBox="0 0 24 24" fill="none" xmlns="http://www.w3.org/2000/svg">
<path d="M4.97333 12.5588C5.42067 12.5588 5.78387 12.923 5.78387 13.3703V18.216H10.6306C11.0777 18.2162 11.441 18.5794 11.4411 19.0266C11.4411 19.4738 11.0777 19.8369 10.6306 19.8371H4.97333L4.8913 19.8322C4.48254 19.791 4.16278 19.4462 4.16278 19.0266V13.3703C4.16278 12.9229 4.52598 12.5588 4.97333 12.5588ZM19.1091 4.16815C19.5178 4.20939 19.8376 4.55425 19.8376 4.97382V10.6301C19.8376 11.0773 19.4743 11.4415 19.027 11.4416C18.5797 11.4416 18.2165 11.0774 18.2165 10.6301V5.78436H13.3698C12.9226 5.78429 12.5594 5.42104 12.5593 4.97382C12.5593 4.52651 12.9225 4.16334 13.3698 4.16327H19.027L19.1091 4.16815Z" fill="#141518"/>
</svg>
