<svg width="24" height="24" viewBox="0 0 24 24" fill="none" xmlns="http://www.w3.org/2000/svg">
<path d="M16.8096 10.9297C17.4211 11.1292 17.9772 11.4501 18.4512 11.8633L20.2539 11.3838L21.2363 13.085L19.9561 14.3682C20.0353 14.7118 20.0791 15.0698 20.0791 15.4375C20.0791 15.8431 20.0275 16.2366 19.9316 16.6123L21.1133 17.9238L20.0449 19.5732L18.4082 19.0469C17.9311 19.4531 17.3738 19.7674 16.7617 19.96L16.3203 21.5996H14.3555L13.9131 19.96C13.2217 19.7424 12.5994 19.3703 12.085 18.8848L10.4219 19.3291L9.43945 17.627L10.6895 16.373C10.6289 16.0706 10.5967 15.7578 10.5967 15.4375C10.5967 14.9869 10.6599 14.5506 10.7773 14.1377L9.5625 12.7881L10.6299 11.1387L12.4072 11.71C12.839 11.37 13.3313 11.104 13.8652 10.9297L14.3555 9.1123H16.3203L16.8096 10.9297ZM15.3379 12.6162C13.7798 12.6162 12.5166 13.8794 12.5166 15.4375C12.5169 16.9954 13.7799 18.2588 15.3379 18.2588C16.8958 18.2587 18.1589 16.9954 18.1592 15.4375C18.1592 13.8794 16.896 12.6163 15.3379 12.6162ZM9.17188 15.2021C9.17694 15.204 9.18147 15.2056 9.18555 15.209L9.20605 15.2041L9.21582 15.2207L9.2002 15.2363C9.20072 15.2392 9.2041 15.2421 9.2041 15.2451C9.20405 15.2483 9.20084 15.2509 9.2002 15.2539L9.21387 15.2695L9.2041 15.2861L9.18457 15.2793C9.1809 15.2822 9.17633 15.2815 9.17188 15.2832L9.16602 15.3066H9.14648L9.14062 15.2852C9.13481 15.2829 9.12849 15.2825 9.12402 15.2783L9.10742 15.2832L9.09766 15.2666L9.11133 15.252C9.11093 15.2496 9.10941 15.2475 9.10938 15.2451C9.10938 15.2414 9.11244 15.2379 9.11328 15.2344L9.09863 15.2178L9.10938 15.2012L9.12891 15.207C9.13228 15.2045 9.13666 15.2047 9.14062 15.2031L9.14648 15.1807H9.16602L9.17188 15.2021ZM9.15723 15.2168C9.14165 15.2168 9.12891 15.2295 9.12891 15.2451C9.12932 15.2603 9.1419 15.2734 9.15723 15.2734C9.17228 15.2731 9.18515 15.2602 9.18555 15.2451C9.18555 15.2298 9.17251 15.2171 9.15723 15.2168ZM8.0166 3.77344C8.47866 3.92427 8.89866 4.16734 9.25684 4.47949L10.6201 4.11719L11.3623 5.40332L10.3945 6.37305C10.4545 6.63289 10.4883 6.90359 10.4883 7.18164C10.4882 7.48846 10.4486 7.78607 10.376 8.07031L11.2695 9.06152L10.4619 10.3086L9.22559 9.91016C8.86467 10.2176 8.44263 10.4549 7.97949 10.6006L7.64648 11.8408H6.16113L5.82617 10.6006C5.30365 10.4361 4.83315 10.1551 4.44434 9.78809L3.18652 10.124L2.44434 8.83691L3.38867 7.88867C3.34292 7.6601 3.31937 7.42365 3.31934 7.18164C3.31936 6.84075 3.36715 6.51061 3.45605 6.19824L2.53711 5.17871L3.34473 3.93164L4.68848 4.36426C5.01477 4.10738 5.38653 3.90617 5.79004 3.77441L6.16113 2.39941H7.64648L8.0166 3.77344ZM6.90332 5.04883C5.72555 5.04895 4.77063 6.00387 4.77051 7.18164C4.77077 8.35929 5.72564 9.31434 6.90332 9.31445C8.08099 9.31432 9.03587 8.35928 9.03613 7.18164C9.03602 6.00388 8.08108 5.04896 6.90332 5.04883Z" fill="#141518"/>
</svg>
