<svg width="24" height="24" viewBox="0 0 24 24" fill="none" xmlns="http://www.w3.org/2000/svg">
<path d="M12.7494 2.35156C13.8163 2.35156 14.681 3.21628 14.681 4.2832C14.6812 4.39014 14.7521 4.53622 14.9183 4.62988L14.9955 4.66699L14.9974 4.66797C15.0796 4.70076 15.1615 4.73497 15.2426 4.77051C15.4621 4.86583 15.6498 4.80856 15.7377 4.7207C16.1 4.35925 16.5921 4.15625 17.1039 4.15625C17.6155 4.15637 18.106 4.35936 18.4681 4.7207L19.3832 5.63477C19.7446 5.99705 19.9476 6.48921 19.9476 7.00098C19.9475 7.51259 19.7445 8.00305 19.3832 8.36523C19.2956 8.45315 19.2385 8.64116 19.3324 8.85938C19.3682 8.94172 19.4029 9.02488 19.4359 9.1084C19.5238 9.33081 19.6979 9.42285 19.8207 9.42285C20.8875 9.42302 21.7523 10.2877 21.7523 11.3545V12.6455C21.7523 13.7123 20.8875 14.577 19.8207 14.5771C19.6977 14.5771 19.5248 14.6695 19.4379 14.8906L19.4359 14.8936C19.403 14.9762 19.368 15.0577 19.3324 15.1387L19.3334 15.1396C19.2499 15.3319 19.2833 15.4991 19.3519 15.5967L19.3832 15.6338C19.7446 15.9961 19.9476 16.4882 19.9476 17C19.9475 17.5116 19.7445 18.0021 19.3832 18.3643L18.4691 19.2793C18.1068 19.6412 17.615 19.8447 17.1029 19.8447C16.5909 19.8447 16.1 19.6411 15.7377 19.2793C15.6502 19.1919 15.4624 19.1347 15.2455 19.2295L15.2426 19.2305C15.1609 19.2657 15.0778 19.2985 14.9945 19.3311L14.9955 19.332C14.7731 19.4199 14.681 19.594 14.681 19.7168C14.6809 20.7836 13.8162 21.6484 12.7494 21.6484H11.4574C10.3906 21.6484 9.52593 20.7836 9.52576 19.7168C9.52576 19.5939 9.4341 19.421 9.21326 19.334L9.20935 19.332C9.12642 19.299 9.04451 19.2642 8.96326 19.2285C8.74372 19.1332 8.55697 19.1914 8.46912 19.2793C8.10691 19.6407 7.61553 19.8437 7.10388 19.8438C6.59212 19.8438 6.10093 19.6408 5.73865 19.2793L4.82361 18.3643C4.46227 18.0021 4.25928 17.5116 4.25916 17C4.25916 16.4882 4.46215 15.997 4.82361 15.6348C4.91136 15.5467 4.96823 15.3588 4.87341 15.1406L4.87048 15.1338C4.83763 15.0563 4.80498 14.9776 4.77283 14.8984L4.76892 14.8906C4.68197 14.6702 4.50988 14.5774 4.38708 14.5771C3.32016 14.5771 2.45544 13.7124 2.45544 12.6455V11.3535C2.45544 10.2866 3.32016 9.42188 4.38708 9.42188C4.50997 9.42164 4.68301 9.33013 4.7699 9.10938V9.10742C4.8029 9.02389 4.83757 8.94075 4.87341 8.8584L4.90271 8.77734C4.95427 8.59425 4.90123 8.44208 4.82458 8.36523L4.82361 8.36426C4.46228 8.00206 4.25924 7.51161 4.25916 7C4.25916 6.48824 4.46215 5.99705 4.82361 5.63477L5.73865 4.71973C6.10093 4.35827 6.59212 4.15527 7.10388 4.15527C7.61549 4.15536 8.10594 4.3584 8.46814 4.71973C8.55622 4.80759 8.74527 4.86437 8.96423 4.76953L9.20447 4.66895L9.21326 4.66504C9.43377 4.57811 9.52552 4.40603 9.52576 4.2832C9.52576 3.21586 10.391 2.35156 11.4584 2.35156H12.7494ZM11.4584 3.9707C11.2848 3.9707 11.1459 4.11139 11.1459 4.2832C11.1457 5.1787 10.541 5.87938 9.81287 6.16895L9.81384 6.16992C9.74396 6.19832 9.67483 6.22745 9.60681 6.25684L9.60583 6.25586C8.88636 6.56688 7.96084 6.50089 7.32458 5.86621C7.26608 5.80784 7.18652 5.77547 7.10388 5.77539C7.04177 5.77539 6.98099 5.79321 6.93005 5.82715L6.88318 5.86621L5.97009 6.7793C5.9118 6.83785 5.87927 6.91736 5.87927 7C5.87936 7.08221 5.91131 7.16131 5.96912 7.21973C6.60607 7.85668 6.67343 8.78431 6.35876 9.50586C6.33035 9.57117 6.3029 9.63689 6.27673 9.70312C5.98874 10.4342 5.28521 11.0418 4.38708 11.042C4.21486 11.042 4.07458 11.1813 4.07458 11.3535V12.6455C4.07458 12.8177 4.21486 12.957 4.38708 12.957C5.28231 12.9572 5.98407 13.5612 6.2738 14.2891L6.35876 14.4951C6.67174 15.2153 6.60493 16.1418 5.97009 16.7783C5.91185 16.8369 5.87927 16.9174 5.87927 17C5.8794 17.0822 5.9113 17.1613 5.96912 17.2197L6.8822 18.1328C6.94078 18.1913 7.02113 18.2236 7.10388 18.2236C7.18652 18.2235 7.26608 18.1912 7.32458 18.1328C7.92171 17.5364 8.77318 17.4412 9.47107 17.6895L9.60876 17.7432L9.61169 17.7451C9.67644 17.7736 9.74242 17.8006 9.80896 17.8271C10.5396 18.1155 11.1459 18.8189 11.1459 19.7168C11.146 19.8889 11.2853 20.0283 11.4574 20.0283H12.7494C12.9215 20.0283 13.0607 19.8889 13.0609 19.7168C13.0609 18.8179 13.6694 18.1138 14.3998 17.8252L14.4027 17.8242L14.6 17.7432C15.3209 17.4296 16.2466 17.4991 16.8812 18.1328C16.9398 18.1913 17.0201 18.2246 17.1029 18.2246C17.1857 18.2246 17.265 18.1913 17.3236 18.1328L18.2377 17.2197C18.2956 17.1613 18.3274 17.0822 18.3275 17C18.3275 16.9174 18.295 16.8379 18.2367 16.7793C17.6008 16.1425 17.5344 15.2156 17.847 14.4951L17.849 14.4912C17.8775 14.4264 17.9045 14.3605 17.931 14.2939C18.2196 13.5637 18.9232 12.957 19.8207 12.957C19.9928 12.9569 20.1322 12.8176 20.1322 12.6455V11.3545C20.1322 11.1824 19.9928 11.0431 19.8207 11.043C18.9217 11.043 18.2177 10.4345 17.9291 9.7041C17.9028 9.63767 17.8756 9.57135 17.847 9.50586C17.5353 8.78624 17.6017 7.85835 18.2367 7.22168L18.2758 7.17383C18.3096 7.12302 18.3274 7.0629 18.3275 7.00098C18.3275 6.91832 18.295 6.83884 18.2367 6.78027L17.3246 5.86719L17.2767 5.82812C17.2259 5.79431 17.1658 5.77646 17.1039 5.77637C17.0213 5.77637 16.9417 5.80891 16.8832 5.86719L16.8822 5.86621C16.2454 6.50266 15.3197 6.56963 14.599 6.25684L14.5951 6.25586C14.5304 6.22746 14.4654 6.20003 14.3998 6.17383L14.264 6.11426C13.5955 5.79562 13.0611 5.1244 13.0609 4.2832C13.0609 4.11098 12.9216 3.9707 12.7494 3.9707H11.4584ZM12.1039 8.19824C13.1121 8.19834 14.0795 8.59862 14.7924 9.31152C15.5051 10.0245 15.9056 10.9919 15.9056 12C15.9055 13.0082 15.5052 13.9756 14.7924 14.6885C14.0795 15.4014 13.1121 15.8017 12.1039 15.8018C11.0958 15.8018 10.1284 15.4012 9.41541 14.6885C8.70252 13.9756 8.30224 13.0082 8.30212 12C8.30212 10.9917 8.70244 10.0245 9.41541 9.31152C10.1284 8.59853 11.0956 8.19824 12.1039 8.19824ZM12.1039 9.81738C11.5252 9.81738 10.9701 10.0479 10.5609 10.457C10.1518 10.8662 9.92126 11.4213 9.92126 12C9.92138 12.5785 10.1518 13.1339 10.5609 13.543C10.9701 13.9519 11.5254 14.1816 12.1039 14.1816C12.6824 14.1815 13.2378 13.952 13.6469 13.543C14.0559 13.1339 14.2854 12.5785 14.2855 12C14.2855 11.4215 14.0558 10.8662 13.6469 10.457C13.2378 10.0479 12.6824 9.81748 12.1039 9.81738Z" fill="#141518"/>
</svg>
