<svg width="24" height="24" viewBox="0 0 24 24" fill="none" xmlns="http://www.w3.org/2000/svg">
<path d="M8.75036 10.1505C9.76963 11.1698 9.76963 12.8224 8.75036 13.8417L7.76801 14.8241C6.74874 15.8433 5.09608 15.8433 4.07683 14.8241L3.09448 13.8417C2.07522 12.8224 2.07525 11.1698 3.09448 10.1505L4.07683 9.16816C5.0961 8.1489 6.74874 8.1489 7.76801 9.16817L8.75036 10.1505ZM14.8272 16.2274C15.8464 17.2466 15.8464 18.8993 14.8272 19.9185L13.8448 20.9009C12.8256 21.9201 11.1729 21.9201 10.1537 20.9009L9.17131 19.9185C8.15206 18.8993 8.15208 17.2466 9.17131 16.2274L10.1537 15.245C11.1729 14.2257 12.8256 14.2257 13.8448 15.245L14.8272 16.2274ZM6.62241 10.3138C6.23579 9.92714 5.60904 9.92714 5.22243 10.3138L4.24007 11.2961C3.85349 11.6827 3.85347 12.3095 4.24007 12.6961L5.22243 13.6785C5.60903 14.0651 6.23579 14.065 6.62241 13.6785L7.60477 12.6961C7.99139 12.3095 7.99139 11.6827 7.60477 11.2961L6.62241 10.3138ZM12.6993 16.3906C12.3126 16.004 11.6859 16.004 11.2993 16.3906L10.3169 17.373C9.93032 17.7596 9.9303 18.3863 10.3169 18.7729L11.2993 19.7553C11.6859 20.1418 12.3127 20.1419 12.6993 19.7553L13.6816 18.7729C14.0682 18.3864 14.0681 17.7596 13.6816 17.373L12.6993 16.3906ZM14.8278 4.07306C15.8471 5.09233 15.8471 6.74497 14.8278 7.76424L13.8455 8.74659C12.8262 9.76586 11.1736 9.76586 10.1543 8.74659L9.17193 7.76424C8.15267 6.74497 8.15267 5.09233 9.17193 4.07306L10.1543 3.09071C11.1736 2.07144 12.8262 2.07144 13.8455 3.09071L14.8278 4.07306ZM20.9045 10.1497C21.9237 11.169 21.9237 12.8216 20.9045 13.8409L19.9221 14.8232C18.9028 15.8425 17.2502 15.8425 16.2309 14.8232L15.2486 13.8409C14.2294 12.8216 14.2293 11.1689 15.2486 10.1497L16.2309 9.16734C17.2502 8.1481 18.9028 8.14816 19.9221 9.16734L20.9045 10.1497ZM12.6999 4.2363C12.3133 3.84968 11.6865 3.84968 11.2999 4.2363L10.3175 5.21866C9.93091 5.60528 9.93091 6.23203 10.3175 6.61865L11.2999 7.601C11.6865 7.98762 12.3133 7.98762 12.6999 7.601L13.6822 6.61865C14.0688 6.23203 14.0688 5.60528 13.6822 5.21866L12.6999 4.2363ZM18.7765 10.3129C18.3899 9.92641 17.7631 9.92635 17.3765 10.3129L16.3942 11.2953C16.0076 11.6819 16.0076 12.3086 16.3942 12.6953L17.3765 13.6776C17.7631 14.0642 18.3899 14.0642 18.7765 13.6776L19.7589 12.6953C20.1455 12.3087 20.1455 11.6819 19.7589 11.2953L18.7765 10.3129Z" fill="#141518"/>
</svg>
