<svg width="24" height="24" viewBox="0 0 24 24" fill="none" xmlns="http://www.w3.org/2000/svg">
<path fill-rule="evenodd" clip-rule="evenodd" d="M10.7028 8.0874C10.7028 9.5288 9.53476 10.6976 8.09338 10.6978H5.8551C4.41381 10.6976 3.24475 9.52874 3.24475 8.0874L3.24475 5.84912C3.24486 4.40787 4.41387 3.23994 5.8551 3.23975L8.09338 3.23975C9.53469 3.23985 10.7027 4.40781 10.7028 5.84912V8.0874ZM9.08362 5.84912C9.08351 5.30251 8.63999 4.85899 8.09338 4.85889L5.8551 4.85889C5.30857 4.85908 4.86497 5.30257 4.86487 5.84912L4.86487 8.0874C4.86487 8.63404 5.30851 9.07744 5.8551 9.07764H8.09338C8.64006 9.07753 9.08362 8.6341 9.08362 8.0874V5.84912Z" fill="#141518"/>
<path fill-rule="evenodd" clip-rule="evenodd" d="M10.7028 18.1431C10.7028 19.5845 9.53476 20.7533 8.09338 20.7534H5.8551C4.41381 20.7532 3.24475 19.5844 3.24475 18.1431L3.24475 15.9048C3.24505 14.4637 4.41399 13.2956 5.8551 13.2954H8.09338C9.53457 13.2955 10.7025 14.4636 10.7028 15.9048V18.1431ZM9.08362 15.9048C9.08331 15.3583 8.63987 14.9147 8.09338 14.9146H5.8551C5.3087 14.9147 4.86517 15.3584 4.86487 15.9048L4.86487 18.1431C4.86487 18.6897 5.30851 19.1331 5.8551 19.1333H8.09338C8.64006 19.1332 9.08362 18.6898 9.08362 18.1431V15.9048Z" fill="#141518"/>
<path fill-rule="evenodd" clip-rule="evenodd" d="M20.7604 8.0874C20.7604 9.5288 19.5924 10.6976 18.151 10.6978H15.9127C14.4713 10.6978 13.3024 9.52887 13.3024 8.0874L13.3024 5.84912C13.3025 4.40775 14.4713 3.23975 15.9127 3.23975L18.151 3.23975C19.5923 3.23985 20.7603 4.40781 20.7604 5.84912V8.0874ZM19.1412 5.84912C19.1411 5.30251 18.6976 4.85899 18.151 4.85889L15.9127 4.85889C15.366 4.85889 14.9226 5.30245 14.9225 5.84912L14.9225 8.0874C14.9225 8.63416 15.366 9.07764 15.9127 9.07764H18.151C18.6977 9.07753 19.1412 8.6341 19.1412 8.0874L19.1412 5.84912Z" fill="#141518"/>
<path fill-rule="evenodd" clip-rule="evenodd" d="M20.7604 18.1431C20.7604 19.5845 19.5924 20.7533 18.151 20.7534H15.9127C14.4713 20.7534 13.3024 19.5845 13.3024 18.1431V15.9048C13.3027 14.4636 14.4714 13.2954 15.9127 13.2954L18.151 13.2954C19.5922 13.2955 20.7601 14.4636 20.7604 15.9048V18.1431ZM19.1412 15.9048C19.1409 15.3583 18.6975 14.9147 18.151 14.9146L15.9127 14.9146C15.3661 14.9146 14.9228 15.3583 14.9225 15.9048V18.1431C14.9225 18.6898 15.366 19.1333 15.9127 19.1333L18.151 19.1333C18.6977 19.1332 19.1412 18.6898 19.1412 18.1431V15.9048Z" fill="#141518"/>
</svg>
