<svg width="24" height="24" viewBox="0 0 24 24" fill="none" xmlns="http://www.w3.org/2000/svg">
<path d="M5.12903 4.44196C5.45998 4.14119 5.97265 4.16586 6.27356 4.49665L14.7169 13.7847C14.7203 13.7883 14.7243 13.7918 14.7277 13.7954C14.731 13.7991 14.7333 13.8035 14.7365 13.8072L16.8449 16.1265C16.856 16.1378 16.8665 16.1497 16.8771 16.1616L18.9249 18.4136C19.2256 18.7446 19.2011 19.2563 18.8703 19.5571C18.5392 19.858 18.0266 19.8344 17.7257 19.5034L16.0695 17.6821C14.7861 18.2321 13.4008 18.5125 12.0001 18.5025V18.5034L11.9972 18.5025C11.996 18.5026 11.9945 18.5034 11.9933 18.5034V18.5025C8.56469 18.5004 6.15778 16.9501 4.62708 15.4195C3.8636 14.656 3.31279 13.8934 2.95227 13.3208C2.77176 13.0341 2.63734 12.7931 2.547 12.6206C2.50182 12.5344 2.4673 12.465 2.44348 12.4156C2.4316 12.3909 2.42284 12.3705 2.41614 12.356C2.41286 12.3489 2.4094 12.3429 2.40735 12.3384C2.4064 12.3363 2.40605 12.3341 2.4054 12.3326L2.40442 12.3306L2.40345 12.3296L3.14368 12.0005L2.40345 11.6705H2.40442V11.6685C2.40486 11.6675 2.40576 11.6659 2.40638 11.6646C2.4076 11.6619 2.40942 11.6579 2.41126 11.6538C2.41513 11.6454 2.42035 11.6336 2.42688 11.6197C2.44025 11.5913 2.45988 11.5517 2.4845 11.5025C2.53396 11.4037 2.6067 11.2649 2.70325 11.0953C2.89643 10.7559 3.18747 10.2899 3.58509 9.77104C4.23251 8.92629 5.17538 7.92488 6.45325 7.10308L5.07435 5.58649C4.77373 5.25549 4.79819 4.7428 5.12903 4.44196ZM7.56068 8.32085C6.36371 9.03885 5.47842 9.96416 4.87122 10.7564C4.52554 11.2075 4.27343 11.6098 4.11048 11.896C4.08993 11.9321 4.07155 11.9674 4.05384 11.9996C4.12254 12.1244 4.21145 12.2808 4.32337 12.4585C4.63496 12.9534 5.11297 13.6143 5.77259 14.274C7.08745 15.5888 9.10688 16.8832 12.0001 16.8833H12.006L12.2599 16.8814C13.1623 16.8616 14.0533 16.6955 14.9015 16.397L14.0158 15.4224C13.3545 15.8119 12.5897 16.0062 11.8117 15.9693C10.7594 15.9192 9.76948 15.4527 9.06068 14.6734C8.3519 13.8937 7.98136 12.8635 8.03138 11.8111C8.06848 11.0326 8.33259 10.288 8.78333 9.66655L7.56068 8.32085ZM11.9992 5.49762C15.4311 5.49762 17.8405 7.04905 19.3722 8.58062C20.1357 9.34412 20.6865 10.1067 21.047 10.6792C21.2275 10.9659 21.3619 11.2069 21.4523 11.3794C21.4975 11.4657 21.532 11.536 21.5558 11.5855C21.5675 11.6099 21.5765 11.6297 21.5831 11.6441C21.5865 11.6512 21.5899 11.6571 21.5919 11.6617C21.5928 11.6638 21.5932 11.666 21.5939 11.6675L21.5949 11.6695L21.5958 11.6705C21.5907 11.6732 21.5308 11.7005 20.8556 12.0005L21.5958 11.6714C21.6772 11.8547 21.6872 12.0607 21.6261 12.2495L21.5958 12.3296L21.5949 12.3306L21.5939 12.3335C21.5931 12.3353 21.592 12.338 21.591 12.3404C21.5886 12.3456 21.585 12.3527 21.5812 12.3609C21.5733 12.3778 21.562 12.4014 21.548 12.4302C21.5197 12.4884 21.4787 12.5704 21.4249 12.6714C21.3169 12.8742 21.1558 13.1577 20.9386 13.4898C20.5051 14.1528 19.8407 15.0244 18.9142 15.854C18.5809 16.152 18.0679 16.1236 17.7697 15.7906C17.4717 15.4575 17.5005 14.9454 17.8331 14.647C18.6298 13.9336 19.2066 13.179 19.5831 12.6031C19.7386 12.3652 19.8577 12.1581 19.9445 12.0005C19.8758 11.8758 19.7876 11.7199 19.6759 11.5425C19.3643 11.0476 18.8865 10.3859 18.2267 9.72612C16.9118 8.41136 14.8924 7.11676 11.9992 7.11676H11.9982C11.4952 7.11611 10.9925 7.15696 10.4962 7.23883C10.0551 7.31132 9.63851 7.01286 9.56556 6.57184C9.49278 6.13063 9.79146 5.71423 10.2326 5.64118C10.8163 5.54487 11.4075 5.4979 11.9992 5.4986V5.49762ZM9.91614 10.9126C9.7597 11.2123 9.66594 11.5441 9.64954 11.8882C9.61995 12.5115 9.83916 13.1218 10.2589 13.5835C10.6787 14.0451 11.2656 14.3214 11.8888 14.3511C12.2326 14.3674 12.571 14.3044 12.8839 14.1773L9.91614 10.9126ZM11.7999 8.74077C11.8842 8.30161 12.3089 8.01315 12.7482 8.09722C13.5925 8.25901 14.3622 8.69062 14.9406 9.32671C15.5189 9.96298 15.8754 10.7704 15.9562 11.6265C15.9982 12.0717 15.6708 12.4671 15.2257 12.5093C14.7805 12.5512 14.386 12.224 14.3439 11.7788C14.296 11.2719 14.0848 10.7933 13.7423 10.4165C13.3998 10.0398 12.9435 9.78488 12.4435 9.68901C12.0041 9.60488 11.7158 9.18011 11.7999 8.74077ZM3.14368 12.0005L2.40345 12.3287C2.31061 12.1195 2.31064 11.8806 2.40345 11.6714L3.14368 12.0005Z" fill="#141518"/>
</svg>
