<svg width="24" height="24" viewBox="0 0 24 24" fill="none" xmlns="http://www.w3.org/2000/svg">
<path d="M10.6743 3.75494C12.2948 3.42653 13.9761 3.583 15.5083 4.20465C17.0404 4.82632 18.3555 5.88564 19.289 7.25035C20.2225 8.61508 20.7331 10.2248 20.7571 11.8781C20.781 13.5313 20.3173 15.1551 19.4238 16.5463C18.5302 17.9375 17.2464 19.0345 15.733 19.7004C14.2195 20.3662 12.5433 20.5714 10.9139 20.2901C9.2846 20.0088 7.7744 19.2534 6.57183 18.1186C6.24649 17.8116 6.23147 17.2991 6.53843 16.9737C6.84545 16.6484 7.35828 16.6333 7.68364 16.9403C8.65465 17.8565 9.87402 18.4666 11.1896 18.6937C12.5052 18.9208 13.8585 18.7552 15.0805 18.2176C16.3025 17.68 17.3391 16.7942 18.0606 15.6709C18.7821 14.5475 19.1566 13.2364 19.1373 11.9015C19.1179 10.5666 18.7056 9.26692 17.9519 8.165C17.1982 7.06308 16.1363 6.20778 14.8992 5.70582C13.6621 5.20387 12.3044 5.07765 10.9959 5.34283C9.68924 5.60769 8.48911 6.25095 7.54565 7.19293L7.54595 7.19322C6.92365 7.82346 6.36824 8.43212 5.78081 9.11715H7.50786C7.95515 9.11722 8.31763 9.4799 8.31763 9.92721C8.31751 10.3744 7.95508 10.7369 7.50786 10.737H4.052C4.04661 10.737 4.04125 10.7362 4.03589 10.7361C4.01428 10.7357 3.9927 10.7347 3.97114 10.7326C3.96445 10.7319 3.95787 10.7305 3.95122 10.7297C3.93253 10.7273 3.91382 10.7251 3.89526 10.7214C3.88449 10.7193 3.87395 10.7164 3.86333 10.7138C3.84698 10.7099 3.83056 10.7062 3.8144 10.7012C3.80529 10.6984 3.79643 10.695 3.78745 10.6919C3.77311 10.6869 3.7588 10.6818 3.74468 10.676C3.73182 10.6708 3.7194 10.6647 3.70688 10.6588C3.69448 10.6529 3.68186 10.6474 3.66968 10.6409C3.65905 10.6352 3.64896 10.6286 3.63862 10.6224C3.62681 10.6154 3.61472 10.6087 3.60317 10.601C3.55789 10.5708 3.51572 10.5364 3.47749 10.4979C3.44741 10.4677 3.42074 10.4352 3.39634 10.4015C3.39051 10.3935 3.38429 10.3857 3.37876 10.3775C3.36887 10.3627 3.36005 10.3474 3.35122 10.3321C3.34712 10.325 3.34252 10.3182 3.33862 10.311C3.33317 10.3009 3.32868 10.2903 3.32368 10.2799C3.27442 10.1785 3.24558 10.0656 3.24282 9.94596C3.24271 9.94117 3.24197 9.93639 3.24194 9.9316V6.47135C3.24194 6.024 3.60465 5.66129 4.052 5.66129C4.49935 5.66129 4.86206 6.024 4.86206 6.47135V7.70416C5.3598 7.13561 5.85144 6.60362 6.39312 6.05504L6.39663 6.05123C7.56582 4.88208 9.05376 4.08338 10.6743 3.75494ZM12.3457 7.04352C12.793 7.04352 13.1557 7.40623 13.1557 7.85358V11.5418L16.2181 13.3793C16.6017 13.6094 16.726 14.1069 16.4959 14.4905C16.2657 14.874 15.7682 14.9986 15.3846 14.7685L11.9291 12.6949C11.6852 12.5485 11.5357 12.285 11.5356 12.0005V7.85358C11.5356 7.40626 11.8984 7.04358 12.3457 7.04352Z" fill="#141518"/>
</svg>
