<svg width="24" height="24" viewBox="0 0 24 24" fill="none" xmlns="http://www.w3.org/2000/svg">
<path d="M10.7766 3.7879C11.4466 3.10551 12.5461 3.10526 13.2165 3.78731L15.8617 6.47911V5.13468C15.8617 4.68733 16.2244 4.32462 16.6717 4.32462C17.119 4.32469 17.4818 4.68737 17.4818 5.13468V8.12765L20.5328 11.2325C20.8463 11.5516 20.8419 12.0645 20.5228 12.378C20.2037 12.6916 19.6908 12.6869 19.3773 12.3678L19.3029 12.2919V18.1196C19.3027 19.5609 18.1341 20.7293 16.6928 20.7294H7.33276C5.89134 20.7294 4.72276 19.5608 4.72271 18.1193V12.2658L4.6228 12.3678C4.30939 12.687 3.79649 12.6914 3.4773 12.378C3.15825 12.0646 3.15346 11.552 3.46675 11.2328L10.7766 3.7879ZM12.061 4.92286C12.0257 4.88703 11.9679 4.88697 11.9327 4.92286L6.34282 10.6158V18.1193C6.34288 18.6661 6.78604 19.1096 7.33276 19.1096H16.6928C17.2394 19.1095 17.6826 18.6662 17.6828 18.1196V10.6434L12.061 4.92286Z" fill="#141518"/>
</svg>
