<svg width="24" height="24" viewBox="0 0 24 24" fill="none" xmlns="http://www.w3.org/2000/svg">
<path d="M19.6795 4.2085C20.5124 4.20851 21.1877 4.88379 21.1877 5.7167V18.283C21.1877 19.1159 20.5124 19.7912 19.6795 19.7912H4.32061C3.48769 19.7912 2.81241 19.1159 2.81241 18.283V5.7167C2.81241 4.88378 3.48769 4.2085 4.32061 4.2085H19.6795ZM14.8309 15.1415L17.8605 18.1711H19.5676V16.7036L16.4202 13.5542L14.8309 15.1415ZM4.43253 15.8859V18.1711H15.5694L13.1161 15.7178C13.1148 15.7165 13.1133 15.7153 13.112 15.714C13.1107 15.7126 13.1096 15.7109 13.1082 15.7096L8.8584 11.4595L4.43253 15.8859ZM4.43253 13.5949L7.79171 10.2352C7.93171 10.0951 8.09801 9.98405 8.28096 9.9082L8.3501 9.88125C8.51302 9.82293 8.68499 9.79307 8.8584 9.79307L8.93253 9.79482C9.10538 9.80333 9.27563 9.8418 9.43585 9.9082C9.61877 9.98404 9.78511 10.0951 9.9251 10.2352L13.6857 13.9957L15.3544 12.329C15.6372 12.0464 16.0207 11.8878 16.4205 11.8878L16.4952 11.8898C16.843 11.9071 17.1743 12.0441 17.4324 12.2777L17.4866 12.3293L19.5676 14.4117V5.82861H4.43253V13.5949ZM14.4436 8.50928C15.0219 8.50932 15.4906 8.97805 15.4906 9.55635C15.4906 10.1347 15.0219 10.6037 14.4436 10.6037C13.8652 10.6037 13.3962 10.1347 13.3962 9.55635C13.3962 8.97802 13.8652 8.50928 14.4436 8.50928Z" fill="#141518"/>
</svg>
