<svg width="24" height="24" viewBox="0 0 24 24" fill="none" xmlns="http://www.w3.org/2000/svg">
<path d="M11.9999 2.39996C17.3019 2.39996 21.5999 6.69803 21.5999 12C21.5999 17.3019 17.3019 21.6 11.9999 21.6C6.698 21.6 2.39993 17.3019 2.39993 12C2.39993 6.69803 6.698 2.39996 11.9999 2.39996ZM11.9999 4.02008C7.5927 4.02008 4.02005 7.59273 4.02005 12C4.02005 16.4072 7.5927 19.9798 11.9999 19.9798C16.4072 19.9798 19.9798 16.4072 19.9798 12C19.9798 7.59273 16.4072 4.02008 11.9999 4.02008ZM12.1332 11.1899C12.5806 11.1899 12.9433 11.5526 12.9433 12V15.7333C12.9433 16.1806 12.5806 16.5433 12.1332 16.5433C11.6859 16.5433 11.3232 16.1806 11.3232 15.7333V12C11.3232 11.5526 11.6859 11.1899 12.1332 11.1899ZM12.1332 8.06657C12.6487 8.06657 13.0666 8.4845 13.0666 8.99996C13.0666 9.51543 12.6487 9.93336 12.1332 9.93336C11.6178 9.93335 11.1998 9.51542 11.1998 8.99996C11.1998 8.48451 11.6178 8.06658 12.1332 8.06657Z" fill="#141518"/>
</svg>
