<svg width="24" height="24" viewBox="0 0 24 24" fill="none" xmlns="http://www.w3.org/2000/svg">
<path d="M11.9996 2.40009C17.3014 2.40009 21.5999 6.69786 21.6001 11.9996C21.6001 17.3015 17.3015 21.6001 11.9996 21.6001C6.69788 21.5999 2.40009 17.3014 2.40009 11.9996C2.40025 6.69797 6.69798 2.40027 11.9996 2.40009ZM12.193 11.2496C11.7459 11.2498 11.3836 11.5856 11.3834 11.9996V15.733C11.3834 16.1471 11.7458 16.4828 12.193 16.483C12.6403 16.483 13.0035 16.1472 13.0035 15.733V11.9996C13.0033 11.5855 12.6402 11.2496 12.193 11.2496ZM12.1334 8.06702C11.618 8.06702 11.2 8.48431 11.1998 8.99963C11.1998 9.51509 11.6179 9.93321 12.1334 9.93321C12.6488 9.93316 13.067 9.51506 13.067 8.99963C13.0668 8.48434 12.6487 8.06707 12.1334 8.06702Z" fill="#141518"/>
</svg>
