<svg width="24" height="24" viewBox="0 0 24 24" fill="none" xmlns="http://www.w3.org/2000/svg">
<path d="M12.2861 3C15.1232 3.00019 17.5148 4.9025 18.2578 7.50098C20.5163 7.81885 22.2539 9.7593 22.2539 12.1055C22.2537 14.0722 21.032 15.7522 19.3066 16.4316V14.6113C20.0367 14.1141 20.5389 13.3063 20.6221 12.3789L20.6338 12.1055C20.6338 10.5779 19.502 9.31245 18.0322 9.10547C17.3984 9.01631 16.8763 8.56167 16.7002 7.94629C16.1677 6.08413 14.4897 4.70834 12.4814 4.62402L12.2861 4.62012C10.3052 4.62012 8.61376 5.87513 7.9707 7.63867C7.76495 8.20301 7.26307 8.60787 6.66797 8.68945C4.90339 8.93095 3.62012 10.3796 3.62012 12.0449L3.62402 12.2109C3.67393 13.1762 4.15587 14.0556 4.90625 14.6514V16.5439C3.18559 15.7297 2.00019 14.0227 2 12.0449C2 9.51808 3.93369 7.42812 6.44824 7.08398C7.31691 4.70118 9.60283 3 12.2861 3Z" fill="#141518"/>
<path d="M16.3754 12.3051C16.3754 11.9741 16.1179 11.4954 15.307 11.0531C14.5268 10.6277 13.3938 10.3393 12.098 10.3393C10.802 10.3393 9.66836 10.6276 8.88809 11.0531C8.07718 11.4954 7.81973 11.9741 7.81973 12.3051C7.81988 12.636 8.07744 13.1139 8.88809 13.5561C9.66836 13.9817 10.8019 14.2699 12.098 14.2699C13.3938 14.2699 14.5268 13.9815 15.307 13.5561C16.1177 13.1139 16.3752 12.636 16.3754 12.3051ZM17.9955 12.3051C17.9954 13.5065 17.1137 14.4159 16.0834 14.9779C15.0224 15.5567 13.6117 15.89 12.098 15.89C10.5844 15.89 9.17378 15.5567 8.1127 14.9779C7.08232 14.4159 6.20073 13.5066 6.20059 12.3051C6.20059 11.1034 7.08223 10.1933 8.1127 9.63125C9.17376 9.05256 10.5844 8.72012 12.098 8.72012C13.6117 8.72015 15.0224 9.0525 16.0834 9.63125C17.1138 10.1933 17.9955 11.1034 17.9955 12.3051Z" fill="#141518"/>
<path d="M6.20059 15.0801V12.3051C6.20059 11.8577 6.56281 11.4951 7.01016 11.4951C7.45751 11.4951 7.81973 11.8577 7.81973 12.3051V15.0801C7.81988 15.411 8.07744 15.8889 8.88809 16.3311C9.66837 16.7567 10.802 17.0449 12.098 17.0449C13.3938 17.0449 14.5268 16.7565 15.307 16.3311C16.1177 15.8889 16.3752 15.411 16.3754 15.0801V12.3051C16.3754 11.8577 16.7386 11.4951 17.1859 11.4951C17.6331 11.4954 17.9955 11.8579 17.9955 12.3051V15.0801C17.9954 16.2815 17.1137 17.1909 16.0834 17.7529C15.0224 18.3317 13.6117 18.665 12.098 18.665C10.5844 18.665 9.17378 18.3317 8.1127 17.7529C7.08231 17.1909 6.20073 16.2816 6.20059 15.0801Z" fill="#141518"/>
<path d="M6.20059 17.8551V15.0801C6.20059 14.6327 6.56281 14.2701 7.01016 14.2701C7.45751 14.2701 7.81973 14.6327 7.81973 15.0801V17.8551C7.81988 18.186 8.07744 18.6639 8.88809 19.1061C9.66837 19.5317 10.802 19.8199 12.098 19.8199C13.3938 19.8199 14.5268 19.5315 15.307 19.1061C16.1177 18.6639 16.3752 18.186 16.3754 17.8551V15.0801C16.3754 14.6327 16.7386 14.2701 17.1859 14.2701C17.6331 14.2704 17.9955 14.6329 17.9955 15.0801V17.8551C17.9954 19.0565 17.1137 19.9659 16.0834 20.5279C15.0224 21.1067 13.6117 21.44 12.098 21.44C10.5844 21.44 9.17378 21.1067 8.1127 20.5279C7.08231 19.9659 6.20073 19.0566 6.20059 17.8551Z" fill="#141518"/>
</svg>
