<svg width="24" height="24" viewBox="0 0 24 24" fill="none" xmlns="http://www.w3.org/2000/svg">
<path d="M10.0039 12.9286C10.6085 12.9904 11.081 13.5019 11.0811 14.1229V19.5028L11.0742 19.6249C11.017 20.1894 10.5683 20.6384 10.0039 20.6961L9.88086 20.702H4.50098L4.37793 20.6961C3.81315 20.6387 3.36388 20.1897 3.30664 19.6249L3.2998 19.5028V14.1229C3.29987 13.5017 3.77292 12.9901 4.37793 12.9286L4.50098 12.9227H9.88086L10.0039 12.9286ZM19.6055 12.9286C20.2103 12.9902 20.6826 13.5018 20.6826 14.1229V19.5028L20.6758 19.6249C20.6185 20.1896 20.1701 20.6386 19.6055 20.6961L19.4824 20.702H14.1025L13.9795 20.6961C13.4147 20.6387 12.9654 20.1897 12.9082 19.6249L12.9023 19.5028V14.1229C12.9024 13.5017 13.3745 12.9901 13.9795 12.9286L14.1025 12.9227H19.4824L19.6055 12.9286ZM4.9209 19.0829H9.46094V14.5428H4.9209V19.0829ZM14.5225 19.0829H19.0625V14.5428H14.5225V19.0829ZM15.7314 2.76743C16.1707 2.3282 16.8666 2.30031 17.3379 2.68442L17.4297 2.76743L21.2334 6.57212L21.3164 6.66294C21.7005 7.13426 21.6726 7.83018 21.2334 8.26938L17.4297 12.0731L17.3379 12.1551C16.8982 12.5136 16.2641 12.5135 15.8242 12.1551L15.7324 12.0721L11.9287 8.26841L11.8457 8.17759C11.487 7.73762 11.4868 7.10183 11.8457 6.66196L11.9277 6.57212L15.7314 2.76743ZM10.0039 3.2313C10.6085 3.29316 11.081 3.80468 11.0811 4.42563V9.80552L11.0742 9.92759C11.017 10.4921 10.5683 10.9411 10.0039 10.9989L9.88086 11.0047H4.50098L4.37793 10.9989C3.81315 10.9414 3.36388 10.4924 3.30664 9.92759L3.2998 9.80552V4.42563C3.29987 3.80441 3.77292 3.2928 4.37793 3.2313L4.50098 3.22544H9.88086L10.0039 3.2313ZM13.3701 7.42075L16.5811 10.6307L19.791 7.42075L16.5811 4.20981L13.3701 7.42075ZM4.9209 9.38559H9.46094V4.84556H4.9209V9.38559Z" fill="black"/>
</svg>
