<svg width="24" height="24" viewBox="0 0 24 24" fill="none" xmlns="http://www.w3.org/2000/svg">
<path d="M18.1455 3.23145C19.5868 3.23158 20.7558 4.4005 20.7559 5.8418V18.1592C20.7555 19.6002 19.5866 20.7684 18.1455 20.7686H5.85449C4.41335 20.7684 3.24549 19.6003 3.24512 18.1592V5.8418C3.24522 4.40049 4.41318 3.23155 5.85449 3.23145H18.1455ZM5.85449 4.85156C5.30789 4.85167 4.86436 5.29519 4.86426 5.8418V18.1592C4.86463 18.7056 5.30805 19.1493 5.85449 19.1494H18.1455C18.6919 19.1493 19.1354 18.7055 19.1357 18.1592V5.8418C19.1356 5.29521 18.6921 4.85169 18.1455 4.85156H5.85449ZM8.95215 9.1875C9.26823 8.87117 9.78118 8.87069 10.0977 9.18652C10.414 9.50264 10.4146 10.0156 10.0986 10.332L8.43066 12.001L10.0977 13.667C10.414 13.9831 10.4146 14.496 10.0986 14.8125C9.78248 15.1286 9.2695 15.1294 8.95312 14.8135L6.71289 12.5752C6.56103 12.4234 6.47572 12.2167 6.47559 12.002C6.47554 11.7875 6.5605 11.5816 6.71191 11.4297L8.95215 9.1875ZM13.9023 9.18652C14.2188 8.87069 14.7318 8.87117 15.0479 9.1875L17.2881 11.4297C17.4395 11.5816 17.5245 11.7875 17.5244 12.002C17.5243 12.2167 17.439 12.4234 17.2871 12.5752L15.0469 14.8135C14.7305 15.1294 14.2175 15.1286 13.9014 14.8125C13.5854 14.496 13.586 13.9831 13.9023 13.667L15.5693 12.001L13.9014 10.332C13.5854 10.0156 13.586 9.50264 13.9023 9.18652Z" fill="#141518"/>
</svg>
