<svg width="24" height="24" viewBox="0 0 24 24" fill="none" xmlns="http://www.w3.org/2000/svg">
<path d="M6.72167 2.39185C6.0402 2.39186 5.38656 2.66263 4.90468 3.14448C4.42279 3.62637 4.15205 4.27999 4.15204 4.96147V19.0383C4.15204 19.7198 4.4228 20.3734 4.90468 20.8553C5.38656 21.3372 6.0402 21.608 6.72167 21.608H17.2794C17.9608 21.6079 18.6145 21.3372 19.0964 20.8553C19.5782 20.3734 19.849 19.7198 19.849 19.0383V18.0299H20.7004C21.1311 18.0299 21.4802 17.6808 21.4803 17.25C21.4802 16.8193 21.1311 16.4699 20.7004 16.4699C18.1004 16.4699 15.5004 16.4699 12.9004 16.4699C12.4696 16.4699 12.1205 16.8193 12.1205 17.25C12.1206 17.6808 12.4697 18.0299 12.9004 18.0299H18.2289V19.0383C18.2289 19.2901 18.1289 19.5317 17.9509 19.7098C17.7728 19.8879 17.5312 19.9878 17.2794 19.9878H6.72167C6.46986 19.9878 6.22826 19.8879 6.05018 19.7098C5.87212 19.5317 5.77216 19.2902 5.77216 19.0383V4.96147C5.77217 4.70964 5.87211 4.46807 6.05018 4.28999C6.22825 4.11195 6.46985 4.01197 6.72167 4.01196H17.2794C17.5312 4.012 17.7728 4.11194 17.9509 4.28999C18.1289 4.46806 18.2289 4.70967 18.2289 4.96147V7.95005C18.229 8.39733 18.5917 8.75981 19.039 8.75981C19.4862 8.75975 19.8489 8.39729 19.849 7.95005V4.96147C19.849 4.28001 19.5782 3.62636 19.0964 3.14448C18.6145 2.66263 17.9608 2.39189 17.2794 2.39185H6.72167Z" fill="#141518"/>
<path d="M9.30038 13.5997C8.86967 13.5997 8.52061 13.9489 8.5205 14.3795C8.5205 14.8103 8.8696 15.1597 9.30038 15.1597H17.7004C18.1312 15.1597 18.4803 14.8103 18.4803 14.3795C18.4801 13.9489 18.1311 13.5997 17.7004 13.5997H9.30038Z" fill="#141518"/>
<path d="M15.3004 10.6152C14.8696 10.6152 14.5205 10.9643 14.5205 11.3951C14.5205 11.8258 14.8696 12.1749 15.3004 12.175H20.7004C21.1312 12.175 21.4803 11.8259 21.4803 11.3951C21.4802 10.9643 21.1311 10.6152 20.7004 10.6152H15.3004Z" fill="#141518"/>
</svg>
