<svg width="24" height="24" viewBox="0 0 24 24" fill="none" xmlns="http://www.w3.org/2000/svg">
<path d="M17.2402 2.39258C17.9214 2.3927 18.5749 2.66296 19.0566 3.14453C19.5384 3.6264 19.8096 4.28055 19.8096 4.96191V6.66406C19.8096 6.67388 19.808 6.68362 19.8076 6.69336H20.873C21.3038 6.69336 21.6533 7.04285 21.6533 7.47363C21.6532 7.9043 21.3037 8.25391 20.873 8.25391H15.4727C15.0422 8.25358 14.6935 7.9041 14.6934 7.47363C14.6934 7.04305 15.0422 6.69369 15.4727 6.69336H18.1904C18.1901 6.68363 18.1895 6.67388 18.1895 6.66406V4.96191C18.1895 4.7102 18.089 4.4681 17.9111 4.29004C17.7332 4.11228 17.4918 4.01184 17.2402 4.01172H6.68262C6.43079 4.01172 6.18882 4.11198 6.01074 4.29004C5.83266 4.46812 5.73242 4.71006 5.73242 4.96191V19.0391C5.73261 19.2906 5.83293 19.5321 6.01074 19.71C6.1888 19.8879 6.4309 19.9883 6.68262 19.9883H9.72168C10.1685 19.9887 10.5311 20.3509 10.5312 20.7979C10.5311 21.2448 10.1686 21.608 9.72168 21.6084H6.68262C6.00125 21.6084 5.3471 21.3372 4.86523 20.8555C4.38362 20.3738 4.11347 19.7202 4.11328 19.0391V4.96191C4.11328 4.28041 4.38334 3.62643 4.86523 3.14453C5.34712 2.66267 6.00114 2.39258 6.68262 2.39258H17.2402ZM18.5029 12.3691C18.7706 12.1923 19.1353 12.2215 19.3711 12.457L21.3613 14.4473C21.6307 14.7167 21.6306 15.1544 21.3613 15.4238L15.3906 21.3945C15.2612 21.5239 15.0853 21.5967 14.9023 21.5967H12.9121C12.5311 21.5966 12.2217 21.2873 12.2217 20.9062V18.916C12.2218 18.7332 12.2945 18.557 12.4238 18.4277L18.3945 12.457L18.5029 12.3691ZM13.6025 19.2021V20.2168H14.6152L17.9062 16.9258L16.8926 15.9121L13.6025 19.2021ZM17.8691 14.9355L18.8828 15.9492L19.8965 14.9355L18.8828 13.9219L17.8691 14.9355ZM13.3545 13.0498C13.7852 13.0498 14.1347 13.3994 14.1348 13.8301C14.1346 14.2607 13.7852 14.6104 13.3545 14.6104H8.10352C7.67307 14.6101 7.32435 14.2606 7.32422 13.8301C7.32429 13.3995 7.67303 13.0501 8.10352 13.0498H13.3545ZM16.7041 9.67871C17.1346 9.6789 17.4833 10.0274 17.4834 10.458C17.4833 10.8886 17.1346 11.2381 16.7041 11.2383H10.6182C10.1876 11.2381 9.83802 10.8886 9.83789 10.458C9.83801 10.0274 10.1876 9.67887 10.6182 9.67871H16.7041Z" fill="#141518"/>
</svg>
