<svg width="24" height="24" viewBox="0 0 24 24" fill="none" xmlns="http://www.w3.org/2000/svg">
<path d="M17.2998 2.39258C17.9811 2.39262 18.6344 2.66288 19.1162 3.14453C19.5981 3.62642 19.8691 4.28041 19.8691 4.96191V5.40039C19.869 5.84756 19.5067 6.2098 19.0596 6.20996C18.6123 6.20996 18.2491 5.84766 18.249 5.40039V4.96191C18.249 4.71007 18.1488 4.46813 17.9707 4.29004C17.7927 4.1122 17.5514 4.01176 17.2998 4.01172H6.74219C6.49034 4.01172 6.2484 4.11195 6.07031 4.29004C5.89223 4.46812 5.79199 4.71006 5.79199 4.96191V19.0391C5.79211 19.2907 5.89245 19.532 6.07031 19.71C6.2484 19.888 6.49034 19.9883 6.74219 19.9883H17.2998C17.5515 19.9882 17.7927 19.8879 17.9707 19.71C18.1487 19.532 18.2489 19.2907 18.249 19.0391V17.3799H13.1035C12.7227 17.3798 12.4134 17.0702 12.4131 16.6895C12.4131 16.3085 12.7225 16.0001 13.1035 16H20.9033C21.2844 16 21.5937 16.3084 21.5938 16.6895C21.5935 17.0703 21.2842 17.3799 20.9033 17.3799H19.8691V19.0391C19.869 19.7204 19.598 20.3737 19.1162 20.8555C18.6344 21.3372 17.9812 21.6084 17.2998 21.6084H6.74219C6.06068 21.6084 5.4067 21.3374 4.9248 20.8555C4.44313 20.3737 4.17297 19.7203 4.17285 19.0391V4.96191C4.17285 4.28041 4.44291 3.62643 4.9248 3.14453C5.4067 2.66264 6.06069 2.39258 6.74219 2.39258H17.2998ZM16.8203 12.8613C17.2014 12.8613 17.5107 13.1707 17.5107 13.5518C17.5105 13.9326 17.2012 14.2422 16.8203 14.2422H8.4209C8.04007 14.2421 7.73073 13.9325 7.73047 13.5518C7.73047 13.1707 8.03991 12.8614 8.4209 12.8613H16.8203ZM12.6865 7.14258C12.9481 7.14262 13.1937 7.19178 13.4219 7.29102C13.6516 7.38645 13.8547 7.52228 14.0283 7.69922L14.1514 7.83496C14.2664 7.97582 14.3585 8.13367 14.4297 8.30664H14.4307C14.5304 8.53831 14.58 8.78699 14.5801 9.0498C14.5801 9.31208 14.5296 9.56099 14.4307 9.79492L14.4316 9.7959C14.3365 10.0248 14.2014 10.226 14.0283 10.3994C13.8581 10.5732 13.6582 10.7091 13.4297 10.8076L13.4307 10.8086C13.2019 10.9087 12.9562 10.9579 12.6963 10.958H12.6953C12.4326 10.9579 12.1847 10.9083 11.9531 10.8086C11.7247 10.7102 11.5228 10.5745 11.3496 10.4014L11.3486 10.4004C11.1762 10.2244 11.0406 10.0211 10.9424 9.79297L10.9404 9.79004C10.8449 9.55639 10.7979 9.30778 10.7979 9.0459C10.7979 8.78381 10.8454 8.53589 10.9414 8.30469V8.30176L11.1074 8.37305L10.9424 8.30176C11.0404 8.07441 11.1742 7.87324 11.3438 7.7002C11.5168 7.52372 11.7171 7.38765 11.9434 7.29199V7.29102C12.175 7.19129 12.4237 7.14258 12.6865 7.14258ZM16.7939 7.14258C17.0851 7.14259 17.3466 7.19066 17.5732 7.29297C17.7037 7.35189 17.8261 7.42329 17.9395 7.50781C18.1563 7.6696 18.137 7.96653 17.9717 8.13184C17.7891 8.31414 17.5202 8.28279 17.3496 8.17578C17.3091 8.15036 17.265 8.12738 17.2178 8.10742L17.2168 8.10645C17.1031 8.05742 16.9635 8.03028 16.7939 8.03027C16.6488 8.03029 16.5204 8.05515 16.4072 8.10254C16.3217 8.13838 16.2448 8.18646 16.1758 8.24609L16.1094 8.30957C16.028 8.39624 15.9627 8.50158 15.916 8.62793C15.87 8.7526 15.8457 8.89268 15.8457 9.0498C15.8457 9.20717 15.8699 9.34786 15.916 9.47266C15.9626 9.59863 16.0276 9.7057 16.1094 9.7959C16.194 9.88259 16.2928 9.95013 16.4072 9.99805C16.5203 10.0454 16.6487 10.0703 16.7939 10.0703C16.9819 10.0703 17.1292 10.0415 17.2412 9.99316C17.2881 9.9722 17.3318 9.94873 17.3721 9.92285C17.5438 9.81261 17.8142 9.78202 17.9971 9.96484C18.1611 10.129 18.1833 10.4257 17.9658 10.5879C17.8479 10.6758 17.7188 10.7488 17.5801 10.8086C17.3458 10.9095 17.0826 10.958 16.7939 10.958C16.529 10.958 16.2793 10.9106 16.0479 10.8145L16.0449 10.8135C15.8197 10.7149 15.6211 10.5787 15.4512 10.4053L15.4492 10.4033C15.2797 10.2266 15.1492 10.0229 15.0576 9.79395L15.0566 9.79297C14.9647 9.55962 14.9199 9.31099 14.9199 9.0498C14.92 8.78903 14.9656 8.54286 15.0576 8.3125H15.0566C15.1483 8.07983 15.2801 7.87483 15.4512 7.7002C15.6211 7.52672 15.8196 7.39059 16.0449 7.29199L16.0459 7.29102C16.2779 7.19109 16.5282 7.14259 16.7939 7.14258ZM19.9639 7.20215C20.3618 7.20217 20.7105 7.29505 21.0039 7.48535C21.319 7.68769 21.4716 8.00956 21.4717 8.4248C21.4717 8.60044 21.4391 8.76225 21.3721 8.90723L21.2939 9.0459C21.2045 9.17999 21.0933 9.28976 20.9629 9.37695C21.0794 9.58419 21.197 9.79221 21.3135 10.002L21.4189 10.1846C21.6018 10.5023 21.3718 10.8982 21.0059 10.8984C20.8343 10.8984 20.6748 10.8061 20.5908 10.6553C20.5102 10.5103 20.4305 10.3632 20.3516 10.2148C20.2519 10.0276 20.1514 9.84294 20.0518 9.66113C20.0414 9.66142 20.0309 9.66306 20.0205 9.66309H19.6221V10.4072C19.622 10.6783 19.4019 10.8983 19.1309 10.8984C18.8597 10.8984 18.6397 10.6783 18.6396 10.4072V7.63672C18.6396 7.39693 18.8344 7.20215 19.0742 7.20215H19.9639ZM13.2021 10.7021C13.0424 10.7527 12.8731 10.7773 12.6953 10.7773L12.6963 10.7783C12.8739 10.7783 13.0425 10.7527 13.2021 10.7021ZM12.3643 10.7461C12.4149 10.7557 12.4662 10.7645 12.5186 10.7695C12.4662 10.7645 12.415 10.7557 12.3643 10.7461ZM19.2168 10.7666C19.2336 10.7626 19.2498 10.7572 19.2656 10.751C19.2498 10.7572 19.2336 10.7626 19.2168 10.7666ZM18.9326 10.7197C18.9472 10.729 18.9626 10.7369 18.9785 10.7441C18.9626 10.7369 18.9473 10.729 18.9326 10.7197ZM12.2021 10.707C12.2419 10.7189 12.2824 10.7284 12.3232 10.7373C12.2824 10.7285 12.242 10.7189 12.2021 10.707ZM16.3086 10.7129C16.3392 10.7213 16.3701 10.7286 16.4014 10.7354C16.3701 10.7286 16.3392 10.7214 16.3086 10.7129ZM19.3008 10.7354C19.3089 10.7311 19.3165 10.7264 19.3242 10.7217C19.3165 10.7264 19.3089 10.7312 19.3008 10.7354ZM20.7725 10.6885C20.7833 10.6981 20.7947 10.7067 20.8066 10.7148C20.7947 10.7067 20.7834 10.698 20.7725 10.6885ZM18.8828 10.6816C18.8926 10.6905 18.9024 10.6993 18.9131 10.707C18.9024 10.6993 18.8926 10.6905 18.8828 10.6816ZM19.3516 10.7021C19.3603 10.6956 19.3688 10.689 19.377 10.6816C19.3688 10.689 19.3603 10.6956 19.3516 10.7021ZM16.1172 10.6484C16.1631 10.6675 16.2102 10.6834 16.2578 10.6982C16.2102 10.6834 16.1631 10.6675 16.1172 10.6484ZM12.042 10.6504C12.0843 10.668 12.1273 10.6833 12.1709 10.6973C12.1273 10.6833 12.0843 10.668 12.042 10.6504ZM20.7119 10.6182C20.7215 10.6328 20.7307 10.6473 20.7422 10.6602C20.7307 10.6473 20.7216 10.6328 20.7119 10.6182ZM19.4023 10.6572C19.4108 10.648 19.4182 10.638 19.4258 10.6279C19.4182 10.638 19.4109 10.648 19.4023 10.6572ZM18.8252 10.6172C18.8345 10.6308 18.8454 10.6431 18.8564 10.6553C18.8454 10.6431 18.8346 10.6308 18.8252 10.6172ZM19.4414 10.6084C19.449 10.5967 19.4547 10.5839 19.4609 10.5713C19.4547 10.5839 19.449 10.5967 19.4414 10.6084ZM18.7949 10.5625C18.801 10.5757 18.8079 10.5883 18.8154 10.6006C18.8079 10.5883 18.801 10.5757 18.7949 10.5625ZM18.7676 10.4814C18.7719 10.5027 18.7783 10.5232 18.7861 10.543C18.7783 10.5232 18.7719 10.5027 18.7676 10.4814ZM15.5791 10.2793C15.6175 10.3185 15.6576 10.3557 15.6992 10.3906C15.6578 10.3558 15.6183 10.3183 15.5801 10.2793C15.5416 10.2392 15.5047 10.1974 15.4707 10.1543C15.5047 10.1974 15.5407 10.2392 15.5791 10.2793ZM12.333 10.2012H12.334H12.333ZM12.6865 8.03027C12.4911 8.03027 12.3246 8.07507 12.1826 8.15918H12.1816C12.0413 8.24135 11.9298 8.35682 11.8457 8.50879C11.7666 8.65735 11.7236 8.83488 11.7236 9.0459C11.7237 9.20283 11.7484 9.34491 11.7949 9.47363C11.8444 9.59862 11.9098 9.70299 11.9902 9.78906L12.0566 9.85156C12.1268 9.91072 12.2069 9.95918 12.2969 9.99805C12.4132 10.0451 12.5426 10.0703 12.6865 10.0703C12.8857 10.0703 13.051 10.0254 13.1885 9.94238L13.1895 9.94141C13.3336 9.85596 13.4457 9.73942 13.5264 9.58887V9.58789C13.6092 9.43554 13.6532 9.25657 13.6533 9.0459L13.6484 8.93164C13.639 8.82175 13.6161 8.72185 13.5801 8.63184L13.5781 8.62793C13.5319 8.50274 13.4665 8.39792 13.3828 8.31152L13.3809 8.30957C13.2965 8.21998 13.1964 8.15155 13.0791 8.10352L13.0771 8.10254C12.9645 8.05543 12.8351 8.03031 12.6865 8.03027ZM11.7275 9.74023C11.7345 9.7514 11.7427 9.76162 11.75 9.77246C11.7223 9.73094 11.6958 9.68783 11.6729 9.6416L11.7275 9.74023ZM11.0566 9.5791C11.0688 9.61835 11.0827 9.65699 11.0977 9.69531C11.0827 9.65698 11.0688 9.61838 11.0566 9.5791ZM11.0166 9.42383C11.0241 9.45941 11.0333 9.49444 11.043 9.5293C11.0333 9.49442 11.0241 9.45943 11.0166 9.42383ZM11.002 9.35156C11.0033 9.35944 11.0054 9.36716 11.0068 9.375C10.9978 9.32489 10.9901 9.27418 10.9854 9.22266L11.002 9.35156ZM11.5645 9.2998C11.5668 9.31365 11.5705 9.32716 11.5732 9.34082C11.5624 9.28682 11.5534 9.23165 11.5488 9.1748L11.5645 9.2998ZM15.6865 9.30371C15.6882 9.31389 15.6905 9.32392 15.6924 9.33398C15.6828 9.28391 15.6751 9.23256 15.6709 9.17969L15.6865 9.30371ZM20.8047 9.33398C20.8409 9.31461 20.875 9.29246 20.9082 9.26953C20.875 9.29242 20.8409 9.31462 20.8047 9.33398ZM20.9287 9.25488C20.9543 9.23632 20.9782 9.21604 21.002 9.19531C20.9782 9.21601 20.9543 9.23635 20.9287 9.25488ZM14.3994 9.0459C14.3993 8.9967 14.3964 8.94824 14.3926 8.90039C14.3965 8.94825 14.3993 8.99669 14.3994 9.0459ZM15.6865 8.79688C15.684 8.81169 15.6827 8.82674 15.6807 8.8418C15.6883 8.78582 15.698 8.73136 15.7119 8.67871L15.6865 8.79688ZM14.3857 8.83301C14.3809 8.79213 14.3749 8.75178 14.3672 8.71191C14.3749 8.75178 14.3808 8.79213 14.3857 8.83301ZM19.6221 8.82324H19.9492C20.1103 8.82318 20.2314 8.78691 20.3213 8.72363C20.4035 8.66485 20.4492 8.57871 20.4492 8.44531C20.4492 8.29188 20.4026 8.20361 20.3311 8.15137C20.2468 8.09009 20.1199 8.05178 19.9385 8.05176H19.6221V8.82324ZM11.0039 8.73633C10.9991 8.76474 10.9947 8.79334 10.9912 8.82227C10.9947 8.79334 10.9991 8.76475 11.0039 8.73633ZM14.3623 8.68652C14.3517 8.63594 14.3394 8.58605 14.3242 8.53711C14.3394 8.58604 14.3517 8.63595 14.3623 8.68652ZM11.0508 8.53223C11.0366 8.57958 11.0247 8.62782 11.0146 8.67676C11.0247 8.62782 11.0366 8.57962 11.0508 8.53223ZM21.3516 8.4248C21.3516 8.37765 21.3489 8.3321 21.3447 8.28809C21.3489 8.33211 21.3516 8.37765 21.3516 8.4248ZM11.1611 8.25879C11.1421 8.296 11.1242 8.33408 11.1074 8.37305C11.1297 8.32127 11.1544 8.27127 11.1807 8.22266L11.1611 8.25879ZM15.2871 8.2373C15.2672 8.27712 15.2495 8.31836 15.2324 8.36035C15.2495 8.31836 15.2672 8.27713 15.2871 8.2373ZM21.3428 8.27246C21.3391 8.23828 21.3343 8.20511 21.3281 8.17285C21.3343 8.20511 21.3391 8.23828 21.3428 8.27246ZM15.3633 8.10254C15.3428 8.13546 15.3239 8.16948 15.3057 8.2041C15.3239 8.16947 15.3428 8.13547 15.3633 8.10254ZM16.0869 8.08594C16.0487 8.11661 16.0118 8.15013 15.9775 8.18652C16.0119 8.15007 16.0486 8.11672 16.0869 8.08594ZM21.3115 8.10254C21.3081 8.08936 21.3047 8.0763 21.3008 8.06348C21.3047 8.0763 21.3081 8.08936 21.3115 8.10254ZM17.6143 8.0791C17.6218 8.07979 17.6292 8.08086 17.6367 8.08105C17.6292 8.08084 17.6218 8.07981 17.6143 8.0791ZM11.2881 8.0459C11.2816 8.05514 11.2758 8.06484 11.2695 8.07422C11.2987 8.03083 11.3295 7.98871 11.3623 7.94824L11.2881 8.0459ZM17.7129 8.07422C17.7212 8.07239 17.7292 8.06993 17.7373 8.06738C17.7292 8.06992 17.7212 8.07241 17.7129 8.07422ZM15.6846 7.72754C15.6482 7.75877 15.6129 7.79164 15.5791 7.82617L15.4707 7.94922C15.4399 7.98785 15.411 8.02791 15.3838 8.06934C15.441 7.98207 15.5068 7.90101 15.5801 7.82617C15.6138 7.79178 15.6484 7.75869 15.6846 7.72754ZM17.5176 8.05664C17.5257 8.05968 17.5337 8.06296 17.542 8.06543C17.5337 8.06294 17.5257 8.05969 17.5176 8.05664ZM16.1445 8.04199C16.1354 8.04833 16.1271 8.05586 16.1182 8.0625C16.1565 8.03398 16.1962 8.00736 16.2383 7.98438L16.1445 8.04199ZM13.1465 7.93652C13.1815 7.95085 13.2154 7.96684 13.248 7.98438C13.2155 7.96694 13.1814 7.95081 13.1465 7.93652C13.1002 7.91716 13.0519 7.90153 13.002 7.88867C13.0519 7.90156 13.1002 7.91717 13.1465 7.93652ZM21.2812 8.00684C21.2746 7.98919 21.2674 7.972 21.2598 7.95508C21.2674 7.972 21.2746 7.98918 21.2812 8.00684ZM17.8926 7.93652C17.8945 7.93271 17.8958 7.92868 17.8975 7.9248C17.8958 7.92868 17.8945 7.93271 17.8926 7.93652ZM21.2383 7.91113C21.2267 7.88896 21.2145 7.86751 21.2012 7.84668C21.2145 7.86751 21.2267 7.88896 21.2383 7.91113ZM17.9072 7.89844C17.9098 7.88998 17.9124 7.88164 17.9141 7.87305C17.9124 7.88165 17.9098 7.88998 17.9072 7.89844ZM12.5234 7.86035C12.4704 7.86678 12.4189 7.87579 12.3691 7.88867C12.4189 7.87586 12.4704 7.86674 12.5234 7.86035ZM17.916 7.8584C17.9171 7.85023 17.9177 7.84216 17.918 7.83398C17.9177 7.84216 17.9171 7.85023 17.916 7.8584ZM21.1816 7.81641C21.1632 7.79022 21.1435 7.76513 21.1221 7.74121C21.1435 7.76513 21.1632 7.79022 21.1816 7.81641ZM17.918 7.81348C17.9174 7.80358 17.916 7.79388 17.9141 7.78418C17.9159 7.79389 17.9174 7.80357 17.918 7.81348ZM17.9111 7.77051C17.908 7.75842 17.9037 7.74679 17.8984 7.73535C17.9037 7.74679 17.908 7.75841 17.9111 7.77051ZM20.9395 7.58691C21.0057 7.62943 21.064 7.67786 21.1143 7.73242C21.09 7.70606 21.0641 7.68078 21.0361 7.65723L20.9404 7.58691C20.9195 7.57334 20.8975 7.56136 20.876 7.54883C20.8973 7.56126 20.9187 7.57346 20.9395 7.58691ZM17.8945 7.72656C17.8898 7.71737 17.8841 7.70875 17.8779 7.7002C17.8841 7.70876 17.8898 7.71736 17.8945 7.72656ZM11.707 7.62695C11.6781 7.64721 11.6497 7.66825 11.6221 7.69043C11.6497 7.66824 11.6781 7.64723 11.707 7.62695ZM15.7979 7.63965C15.7765 7.65499 15.7559 7.67118 15.7354 7.6875C15.7559 7.67114 15.7766 7.65503 15.7979 7.63965ZM11.7588 7.59082C11.7499 7.59654 11.7412 7.6025 11.7324 7.6084C11.7753 7.57955 11.8197 7.55307 11.8652 7.52832L11.7588 7.59082ZM18.8115 7.46484C18.8038 7.47652 18.7961 7.48828 18.79 7.50098C18.7961 7.48826 18.8039 7.47654 18.8115 7.46484ZM13.3535 7.45703L13.2363 7.41113C13.2299 7.40892 13.2233 7.4074 13.2168 7.40527C13.2631 7.42053 13.3089 7.43752 13.3535 7.45703ZM18.8428 7.42383C18.834 7.43335 18.8259 7.44355 18.8184 7.4541C18.8259 7.44352 18.834 7.43337 18.8428 7.42383ZM17.4766 7.44824C17.4405 7.43278 17.4037 7.41787 17.3652 7.40527C17.4037 7.41786 17.4405 7.43278 17.4766 7.44824ZM13.1582 7.3877C13.1311 7.37992 13.1038 7.37257 13.0762 7.36621C13.1038 7.37258 13.1311 7.37991 13.1582 7.3877ZM17.3008 7.38672C17.2748 7.37952 17.2486 7.37218 17.2217 7.36621C17.2486 7.37217 17.2748 7.37953 17.3008 7.38672Z" fill="#141518"/>
</svg>
