<svg width="24" height="24" viewBox="0 0 24 24" fill="none" xmlns="http://www.w3.org/2000/svg">
<path d="M17.0618 12.4309C18.3708 12.5641 19.3919 13.6698 19.3919 15.0139L19.3792 15.2795C19.2979 16.0788 18.8526 16.7681 18.2132 17.1858C18.7707 17.3552 19.2975 17.6233 19.7659 17.9827C20.6186 18.637 21.2317 19.5549 21.51 20.593C21.6258 21.0251 21.3689 21.4694 20.9368 21.5852C20.5049 21.7007 20.0615 21.4447 19.9456 21.0129C19.7596 20.3191 19.3494 19.7051 18.7796 19.2678C18.2098 18.8307 17.5114 18.5941 16.7932 18.594C16.0749 18.594 15.3758 18.8305 14.8059 19.2678C14.2361 19.7051 13.8269 20.3191 13.6409 21.0129C13.525 21.4449 13.0808 21.701 12.6487 21.5852C12.2167 21.4694 11.9597 21.0251 12.0755 20.593C12.3538 19.5549 12.9669 18.637 13.8196 17.9827C14.2889 17.6226 14.8165 17.3532 15.3753 17.1838C14.7383 16.7657 14.2943 16.077 14.2132 15.2795L14.1995 15.0139C14.1995 13.5801 15.3625 12.4175 16.7962 12.4172L17.0618 12.4309ZM17.3557 2.38794C18.0369 2.38807 18.6904 2.65832 19.1721 3.13989C19.6539 3.62176 19.9251 4.27591 19.9251 4.95728V9.9856C19.9249 10.4326 19.5625 10.7958 19.1155 10.7961C18.6682 10.7961 18.3051 10.4328 18.305 9.9856V4.95728C18.305 4.70556 18.2045 4.46346 18.0266 4.2854C17.8487 4.10764 17.6073 4.00721 17.3557 4.00708H6.79813C6.5463 4.00708 6.30433 4.10734 6.12625 4.2854C5.94817 4.46349 5.84793 4.70542 5.84793 4.95728V19.0344C5.84812 19.2859 5.94844 19.5274 6.12625 19.7053C6.30431 19.8832 6.54641 19.9836 6.79813 19.9836H9.83719C10.284 19.9841 10.6466 20.3463 10.6468 20.7932C10.6466 21.2402 10.2841 21.6033 9.83719 21.6038H6.79813C6.11676 21.6038 5.46261 21.3325 4.98074 20.8508C4.49913 20.3691 4.22898 19.7156 4.22879 19.0344V4.95728C4.22879 4.27577 4.49885 3.62179 4.98074 3.13989C5.46263 2.65803 6.11665 2.38794 6.79813 2.38794H17.3557ZM16.7962 13.8577C16.1578 13.8579 15.6399 14.3754 15.6399 15.0139C15.6401 15.6523 16.1579 16.1699 16.7962 16.1702C17.4346 16.17 17.9522 15.6523 17.9524 15.0139C17.9524 14.3754 17.4347 13.8578 16.7962 13.8577ZM12.0315 11.2151C12.4621 11.2153 12.8108 11.5647 12.8108 11.9954C12.8108 12.4259 12.4621 12.7754 12.0315 12.7756H8.98367C8.55336 12.7751 8.20443 12.4258 8.20438 11.9954C8.20438 11.5649 8.55333 11.2156 8.98367 11.2151H12.0315ZM14.1995 7.84302C14.6303 7.84302 14.9798 8.19251 14.9798 8.62329C14.9798 9.05407 14.6303 9.40356 14.1995 9.40356H8.98367C8.55333 9.40305 8.20438 9.05376 8.20438 8.62329C8.20438 8.19283 8.55333 7.84353 8.98367 7.84302H14.1995Z" fill="#141518"/>
</svg>
