<svg width="24" height="24" viewBox="0 0 24 24" fill="none" xmlns="http://www.w3.org/2000/svg">
<path d="M6.72124 2.39197C6.03977 2.39198 5.38613 2.66274 4.90425 3.1446C4.42236 3.62649 4.15162 4.28011 4.15161 4.9616V19.0385C4.15161 19.7199 4.42237 20.3736 4.90425 20.8554C5.38613 21.3373 6.03977 21.6081 6.72124 21.6081H17.279C17.9604 21.6081 18.6141 21.3373 19.0959 20.8554C19.5778 20.3736 19.8486 19.7199 19.8486 19.0385V17.2502C19.8486 16.8028 19.4858 16.4402 19.0385 16.4401C18.9696 16.4401 18.9029 16.4497 18.839 16.4659C18.8038 16.4603 18.7677 16.4568 18.7309 16.4568H10.0166C9.73494 16.4568 9.50657 16.2284 9.50649 15.9468V12.137C9.50649 11.8553 9.73489 11.6269 10.0166 11.6269H20.8661C21.2471 11.6269 21.5559 11.318 21.556 10.937C21.556 10.5559 21.2471 10.2471 20.8661 10.247H10.0166C8.97274 10.247 8.12661 11.0932 8.12661 12.137V15.9468C8.12669 16.9905 8.97278 17.837 10.0166 17.837H18.2285V19.0385C18.2285 19.2903 18.1285 19.5319 17.9504 19.7099C17.7724 19.888 17.5308 19.9879 17.279 19.988H6.72124C6.46942 19.988 6.22783 19.888 6.04976 19.7099C5.87169 19.5319 5.77173 19.2903 5.77173 19.0385V4.9616C5.77174 4.70976 5.87168 4.46819 6.04976 4.29011C6.22783 4.11206 6.46942 4.01209 6.72124 4.01209H17.279C17.5308 4.01212 17.7724 4.11205 17.9504 4.29011C18.1285 4.46819 18.2285 4.70978 18.2285 4.9616V7.95017C18.2285 8.39745 18.5912 8.75994 19.0385 8.75994C19.4858 8.75989 19.8485 8.39743 19.8486 7.95017V4.9616C19.8486 4.28012 19.5778 3.62649 19.0959 3.1446C18.6141 2.66274 17.9604 2.392 17.279 2.39197H6.72124Z" fill="#141518"/>
<path d="M11.1442 13.3634C10.7632 13.3634 10.4542 13.6722 10.4542 14.0533C10.4543 14.4343 10.7632 14.7432 11.1442 14.7432H17.2599C17.6409 14.7432 17.9498 14.4343 17.9499 14.0533C17.9499 13.6723 17.6409 13.3634 17.2599 13.3634H11.1442Z" fill="#141518"/>
</svg>
