<svg width="24" height="24" viewBox="0 0 24 24" fill="none" xmlns="http://www.w3.org/2000/svg">
<path d="M17.292 2.39258C17.9733 2.39262 18.6266 2.66288 19.1084 3.14453C19.5903 3.62642 19.8613 4.28041 19.8613 4.96191V5.40039C19.8612 5.84756 19.4989 6.2098 19.0518 6.20996C18.6045 6.20996 18.2413 5.84766 18.2412 5.40039V4.96191C18.2412 4.71007 18.141 4.46813 17.9629 4.29004C17.7849 4.1122 17.5436 4.01176 17.292 4.01172H6.73438C6.48252 4.01172 6.24059 4.11195 6.0625 4.29004C5.88441 4.46812 5.78418 4.71006 5.78418 4.96191V19.0391C5.7843 19.2907 5.88463 19.532 6.0625 19.71C6.24059 19.888 6.48253 19.9883 6.73438 19.9883H17.292C17.5437 19.9882 17.7849 19.8879 17.9629 19.71C18.1409 19.532 18.2411 19.2907 18.2412 19.0391V16.9277H10.2939C9.23372 16.9277 8.37429 16.068 8.37402 15.0078V9.99805C8.37406 9.60048 8.69619 9.2784 9.09375 9.27832C9.49137 9.27832 9.81344 9.60043 9.81348 9.99805V15.0078C9.81374 15.2727 10.029 15.4883 10.2939 15.4883H20.8818C21.2795 15.4883 21.6016 15.8104 21.6016 16.208C21.6013 16.6054 21.2793 16.9277 20.8818 16.9277H19.8613V19.0391C19.8612 19.7204 19.5902 20.3737 19.1084 20.8555C18.6266 21.3372 17.9734 21.6084 17.292 21.6084H6.73438C6.05287 21.6084 5.39889 21.3374 4.91699 20.8555C4.43532 20.3737 4.16516 19.7203 4.16504 19.0391V4.96191C4.16504 4.28041 4.4351 3.62643 4.91699 3.14453C5.39889 2.66264 6.05287 2.39258 6.73438 2.39258H17.292ZM19.0967 12.4004C19.4777 12.4004 19.787 12.7099 19.7871 13.0908C19.7871 13.4719 19.4778 13.7812 19.0967 13.7812H11.4209C11.0402 13.7809 10.7314 13.4717 10.7314 13.0908C10.7316 12.7101 11.0402 12.4008 11.4209 12.4004H19.0967ZM12.6787 7.14258C12.9403 7.14262 13.1859 7.19178 13.4141 7.29102C13.6438 7.38645 13.8469 7.52228 14.0205 7.69922L14.1436 7.83496C14.2586 7.97582 14.3507 8.13367 14.4219 8.30664H14.4229C14.5226 8.53831 14.5722 8.78699 14.5723 9.0498C14.5723 9.31208 14.5218 9.56099 14.4229 9.79492L14.4238 9.7959C14.3287 10.0248 14.1936 10.226 14.0205 10.3994C13.8503 10.5732 13.6503 10.7091 13.4219 10.8076L13.4229 10.8086C13.1941 10.9087 12.9484 10.9579 12.6885 10.958H12.6875C12.4248 10.9579 12.1769 10.9083 11.9453 10.8086C11.7169 10.7102 11.515 10.5745 11.3418 10.4014L11.3408 10.4004C11.1683 10.2244 11.0328 10.0211 10.9346 9.79297L10.9326 9.79004C10.8371 9.55639 10.7901 9.30778 10.79 9.0459C10.79 8.78381 10.8376 8.53589 10.9336 8.30469V8.30176L11.0996 8.37305L10.9346 8.30176C11.0326 8.07441 11.1664 7.87324 11.3359 7.7002C11.5089 7.52372 11.7092 7.38765 11.9355 7.29199V7.29102C12.1672 7.19129 12.4159 7.14258 12.6787 7.14258ZM16.7861 7.14258C17.0773 7.14259 17.3388 7.19066 17.5654 7.29297C17.6959 7.35189 17.8183 7.42329 17.9316 7.50781C18.1485 7.6696 18.1292 7.96653 17.9639 8.13184C17.7813 8.31415 17.5124 8.28279 17.3418 8.17578C17.3013 8.15036 17.2572 8.12738 17.21 8.10742L17.209 8.10645C17.0953 8.05742 16.9557 8.03028 16.7861 8.03027C16.641 8.03029 16.5126 8.05515 16.3994 8.10254C16.3138 8.13838 16.237 8.18646 16.168 8.24609L16.1016 8.30957C16.0202 8.39624 15.9549 8.50158 15.9082 8.62793C15.8622 8.7526 15.8379 8.89268 15.8379 9.0498C15.8379 9.20717 15.8621 9.34786 15.9082 9.47266C15.9548 9.59863 16.0198 9.7057 16.1016 9.7959C16.1862 9.88259 16.285 9.95013 16.3994 9.99805C16.5125 10.0454 16.6409 10.0703 16.7861 10.0703C16.974 10.0703 17.1214 10.0415 17.2334 9.99316C17.2803 9.9722 17.3239 9.94873 17.3643 9.92285C17.536 9.81261 17.8064 9.78201 17.9893 9.96484C18.1533 10.129 18.1755 10.4257 17.958 10.5879C17.8401 10.6758 17.711 10.7488 17.5723 10.8086C17.338 10.9095 17.0748 10.958 16.7861 10.958C16.5212 10.958 16.2715 10.9106 16.04 10.8145L16.0371 10.8135C15.8118 10.7149 15.6133 10.5787 15.4434 10.4053L15.4414 10.4033C15.2718 10.2266 15.1414 10.0229 15.0498 9.79395L15.0488 9.79297C14.9569 9.55962 14.9121 9.31099 14.9121 9.0498C14.9122 8.78903 14.9578 8.54286 15.0498 8.3125H15.0488C15.1405 8.07982 15.2723 7.87483 15.4434 7.7002C15.6133 7.52672 15.8118 7.39059 16.0371 7.29199L16.0381 7.29102C16.2701 7.19109 16.5204 7.14259 16.7861 7.14258ZM19.9561 7.20215C20.354 7.20217 20.7027 7.29505 20.9961 7.48535C21.3112 7.68769 21.4638 8.00956 21.4639 8.4248C21.4639 8.60044 21.4313 8.76225 21.3643 8.90723L21.2861 9.0459C21.1967 9.17999 21.0855 9.28976 20.9551 9.37695C21.0716 9.58419 21.1891 9.79221 21.3057 10.002L21.4111 10.1846C21.594 10.5023 21.364 10.8982 20.998 10.8984C20.8265 10.8984 20.667 10.8061 20.583 10.6553C20.5023 10.5103 20.4227 10.3632 20.3438 10.2148C20.2441 10.0276 20.1436 9.84294 20.0439 9.66113C20.0336 9.66142 20.0231 9.66306 20.0127 9.66309H19.6143V10.4072C19.6142 10.6783 19.3941 10.8983 19.123 10.8984C18.8519 10.8984 18.6319 10.6783 18.6318 10.4072V7.63672C18.6318 7.39693 18.8266 7.20215 19.0664 7.20215H19.9561ZM13.1943 10.7021C13.0345 10.7527 12.8653 10.7773 12.6875 10.7773L12.6885 10.7783C12.866 10.7783 13.0347 10.7527 13.1943 10.7021ZM12.3564 10.7461C12.4071 10.7557 12.4584 10.7645 12.5107 10.7695C12.4584 10.7645 12.4072 10.7557 12.3564 10.7461ZM19.209 10.7666C19.2258 10.7626 19.2419 10.7572 19.2578 10.751C19.2419 10.7572 19.2258 10.7626 19.209 10.7666ZM18.9248 10.7197C18.9394 10.729 18.9548 10.7369 18.9707 10.7441C18.9548 10.7369 18.9394 10.729 18.9248 10.7197ZM12.1943 10.707C12.2341 10.7189 12.2746 10.7284 12.3154 10.7373C12.2745 10.7285 12.2341 10.7189 12.1943 10.707ZM16.3008 10.7129C16.3314 10.7213 16.3623 10.7286 16.3936 10.7354C16.3623 10.7286 16.3314 10.7214 16.3008 10.7129ZM19.293 10.7354C19.301 10.7311 19.3087 10.7264 19.3164 10.7217C19.3087 10.7264 19.301 10.7312 19.293 10.7354ZM20.7646 10.6885C20.7755 10.6981 20.7869 10.7067 20.7988 10.7148C20.7869 10.7067 20.7756 10.698 20.7646 10.6885ZM18.875 10.6816C18.8848 10.6905 18.8946 10.6993 18.9053 10.707C18.8946 10.6993 18.8848 10.6905 18.875 10.6816ZM19.3438 10.7021C19.3525 10.6956 19.361 10.689 19.3691 10.6816C19.361 10.689 19.3525 10.6956 19.3438 10.7021ZM16.1094 10.6484C16.1552 10.6675 16.2024 10.6834 16.25 10.6982C16.2024 10.6834 16.1553 10.6675 16.1094 10.6484ZM12.0342 10.6504C12.0765 10.668 12.1195 10.6833 12.1631 10.6973C12.1195 10.6833 12.0765 10.668 12.0342 10.6504ZM20.7041 10.6182C20.7137 10.6328 20.7229 10.6473 20.7344 10.6602C20.7228 10.6473 20.7137 10.6328 20.7041 10.6182ZM19.3945 10.6572C19.403 10.648 19.4104 10.638 19.418 10.6279C19.4104 10.638 19.403 10.648 19.3945 10.6572ZM18.8174 10.6172C18.8267 10.6308 18.8376 10.6431 18.8486 10.6553C18.8376 10.6431 18.8267 10.6308 18.8174 10.6172ZM19.4336 10.6084C19.4412 10.5967 19.4469 10.5839 19.4531 10.5713C19.4468 10.5839 19.4412 10.5967 19.4336 10.6084ZM18.7871 10.5625C18.7932 10.5757 18.8001 10.5883 18.8076 10.6006C18.8001 10.5883 18.7932 10.5757 18.7871 10.5625ZM18.7598 10.4814C18.7641 10.5027 18.7705 10.5232 18.7783 10.543C18.7705 10.5232 18.7641 10.5027 18.7598 10.4814ZM15.5713 10.2793C15.6097 10.3185 15.6498 10.3557 15.6914 10.3906C15.65 10.3558 15.6105 10.3183 15.5723 10.2793C15.5338 10.2392 15.4969 10.1974 15.4629 10.1543C15.4969 10.1974 15.5328 10.2392 15.5713 10.2793ZM12.3252 10.2012H12.3262H12.3252ZM17.8945 10.1328V10.1318V10.1328ZM12.6787 8.03027C12.4833 8.03027 12.3168 8.07507 12.1748 8.15918H12.1738C12.0335 8.24135 11.922 8.35682 11.8379 8.50879C11.7588 8.65735 11.7158 8.83488 11.7158 9.0459C11.7159 9.20283 11.7406 9.34491 11.7871 9.47363C11.8366 9.59862 11.902 9.70299 11.9824 9.78906L12.0488 9.85156C12.119 9.91072 12.1991 9.95918 12.2891 9.99805C12.4054 10.0451 12.5348 10.0703 12.6787 10.0703C12.8779 10.0703 13.0432 10.0254 13.1807 9.94238L13.1816 9.94141C13.3258 9.85596 13.4379 9.73942 13.5186 9.58887V9.58789C13.6014 9.43554 13.6454 9.25657 13.6455 9.0459L13.6406 8.93164C13.6312 8.82175 13.6083 8.72185 13.5723 8.63184L13.5703 8.62793C13.524 8.50274 13.4587 8.39792 13.375 8.31152L13.373 8.30957C13.2887 8.21998 13.1886 8.15155 13.0713 8.10352L13.0693 8.10254C12.9566 8.05543 12.8273 8.03031 12.6787 8.03027ZM11.7197 9.74023C11.7267 9.7514 11.7349 9.76162 11.7422 9.77246C11.7145 9.73094 11.688 9.68783 11.665 9.6416L11.7197 9.74023ZM11.0488 9.5791C11.061 9.61835 11.0749 9.65699 11.0898 9.69531C11.0749 9.65698 11.061 9.61838 11.0488 9.5791ZM11.0088 9.42383C11.0163 9.45941 11.0255 9.49444 11.0352 9.5293C11.0255 9.49442 11.0162 9.45943 11.0088 9.42383ZM10.9941 9.35156C10.9955 9.35944 10.9976 9.36716 10.999 9.375C10.99 9.32489 10.9823 9.27418 10.9775 9.22266L10.9941 9.35156ZM11.5566 9.2998C11.559 9.31365 11.5627 9.32716 11.5654 9.34082C11.5546 9.28682 11.5456 9.23165 11.541 9.1748L11.5566 9.2998ZM15.6787 9.30371C15.6804 9.31389 15.6826 9.32392 15.6846 9.33398C15.675 9.28391 15.6673 9.23256 15.6631 9.17969L15.6787 9.30371ZM20.7969 9.33398C20.8331 9.31461 20.8672 9.29246 20.9004 9.26953C20.8671 9.29242 20.8331 9.31462 20.7969 9.33398ZM20.9209 9.25488C20.9465 9.23632 20.9704 9.21604 20.9941 9.19531C20.9704 9.21601 20.9465 9.23635 20.9209 9.25488ZM14.3916 9.0459C14.3915 8.9967 14.3886 8.94824 14.3848 8.90039C14.3886 8.94825 14.3915 8.99669 14.3916 9.0459ZM15.6787 8.79688C15.6762 8.81169 15.6749 8.82674 15.6729 8.8418C15.6804 8.78581 15.6902 8.73136 15.7041 8.67871L15.6787 8.79688ZM14.3779 8.83301C14.3731 8.79213 14.3671 8.75178 14.3594 8.71191C14.3671 8.75178 14.373 8.79213 14.3779 8.83301ZM19.6143 8.82324H19.9414C20.1025 8.82318 20.2236 8.78691 20.3135 8.72363C20.3957 8.66485 20.4414 8.57871 20.4414 8.44531C20.4414 8.29188 20.3948 8.20361 20.3232 8.15137C20.239 8.09009 20.1121 8.05178 19.9307 8.05176H19.6143V8.82324ZM10.9961 8.73633C10.9913 8.76474 10.9869 8.79334 10.9834 8.82227C10.9868 8.79334 10.9913 8.76475 10.9961 8.73633ZM14.3545 8.68652C14.3439 8.63594 14.3316 8.58605 14.3164 8.53711C14.3316 8.58604 14.3439 8.63595 14.3545 8.68652ZM11.043 8.53223C11.0288 8.57958 11.0169 8.62782 11.0068 8.67676C11.0169 8.62782 11.0287 8.57962 11.043 8.53223ZM21.3438 8.4248C21.3437 8.37765 21.3411 8.3321 21.3369 8.28809C21.3411 8.33211 21.3437 8.37765 21.3438 8.4248ZM11.1533 8.25879C11.1343 8.296 11.1164 8.33408 11.0996 8.37305C11.1219 8.32127 11.1466 8.27127 11.1729 8.22266L11.1533 8.25879ZM15.2793 8.2373C15.2594 8.27712 15.2417 8.31836 15.2246 8.36035C15.2417 8.31836 15.2594 8.27713 15.2793 8.2373ZM21.335 8.27246C21.3313 8.23828 21.3265 8.20511 21.3203 8.17285C21.3265 8.20511 21.3313 8.23828 21.335 8.27246ZM15.3555 8.10254C15.335 8.13546 15.3161 8.16948 15.2979 8.2041C15.3161 8.16947 15.335 8.13547 15.3555 8.10254ZM16.0791 8.08594C16.0409 8.11661 16.004 8.15012 15.9697 8.18652C16.004 8.15007 16.0408 8.11673 16.0791 8.08594ZM21.3037 8.10254C21.3002 8.08936 21.2969 8.0763 21.293 8.06348C21.2969 8.0763 21.3002 8.08936 21.3037 8.10254ZM17.6064 8.0791C17.614 8.07979 17.6214 8.08086 17.6289 8.08105C17.6214 8.08084 17.614 8.07981 17.6064 8.0791ZM11.2803 8.0459C11.2738 8.05514 11.268 8.06484 11.2617 8.07422C11.2909 8.03083 11.3217 7.98871 11.3545 7.94824L11.2803 8.0459ZM17.7051 8.07422C17.7134 8.07239 17.7214 8.06993 17.7295 8.06738C17.7214 8.06992 17.7134 8.07241 17.7051 8.07422ZM15.6768 7.72754C15.6404 7.75877 15.6051 7.79164 15.5713 7.82617L15.4629 7.94922C15.4321 7.98785 15.4032 8.02791 15.376 8.06934C15.4332 7.98207 15.499 7.90101 15.5723 7.82617C15.606 7.79178 15.6406 7.75869 15.6768 7.72754ZM17.5098 8.05664C17.5179 8.05968 17.5259 8.06296 17.5342 8.06543C17.5259 8.06294 17.5179 8.05969 17.5098 8.05664ZM16.1367 8.04199C16.1276 8.04833 16.1193 8.05586 16.1104 8.0625C16.1487 8.03398 16.1884 8.00736 16.2305 7.98438L16.1367 8.04199ZM13.1387 7.93652C13.1737 7.95085 13.2075 7.96684 13.2402 7.98438C13.2077 7.96694 13.1736 7.95081 13.1387 7.93652C13.0923 7.91716 13.0441 7.90153 12.9941 7.88867C13.0441 7.90156 13.0924 7.91717 13.1387 7.93652ZM21.2734 8.00684C21.2668 7.98919 21.2596 7.972 21.252 7.95508C21.2596 7.972 21.2668 7.98918 21.2734 8.00684ZM17.8848 7.93652C17.8867 7.93271 17.888 7.92868 17.8896 7.9248C17.888 7.92868 17.8867 7.93271 17.8848 7.93652ZM21.2305 7.91113C21.2189 7.88896 21.2067 7.86751 21.1934 7.84668C21.2067 7.86751 21.2189 7.88896 21.2305 7.91113ZM17.8994 7.89844C17.902 7.88998 17.9046 7.88164 17.9062 7.87305C17.9046 7.88165 17.902 7.88998 17.8994 7.89844ZM12.5156 7.86035C12.4626 7.86678 12.4111 7.87579 12.3613 7.88867C12.4111 7.87586 12.4626 7.86674 12.5156 7.86035ZM17.9082 7.8584C17.9093 7.85023 17.9099 7.84216 17.9102 7.83398C17.9099 7.84216 17.9093 7.85023 17.9082 7.8584ZM21.1738 7.81641C21.1554 7.79022 21.1357 7.76513 21.1143 7.74121C21.1357 7.76513 21.1554 7.79022 21.1738 7.81641ZM17.9102 7.81348C17.9096 7.80519 17.9077 7.79722 17.9062 7.78906C17.9077 7.79722 17.9096 7.80519 17.9102 7.81348ZM20.9316 7.58691C20.9979 7.62943 21.0562 7.67786 21.1064 7.73242C21.0822 7.70606 21.0563 7.68078 21.0283 7.65723L20.9326 7.58691C20.9117 7.57334 20.8897 7.56136 20.8682 7.54883C20.8895 7.56126 20.9109 7.57346 20.9316 7.58691ZM17.8867 7.72656C17.882 7.71737 17.8763 7.70875 17.8701 7.7002C17.8763 7.70876 17.882 7.71736 17.8867 7.72656ZM11.6992 7.62695C11.6703 7.64721 11.6419 7.66825 11.6143 7.69043C11.6419 7.66824 11.6703 7.64723 11.6992 7.62695ZM15.79 7.63965C15.7687 7.65499 15.7481 7.67118 15.7275 7.6875C15.7481 7.67114 15.7687 7.65503 15.79 7.63965ZM11.751 7.59082C11.7421 7.59654 11.7334 7.6025 11.7246 7.6084C11.7675 7.57955 11.8119 7.55307 11.8574 7.52832L11.751 7.59082ZM18.8037 7.46484C18.796 7.47652 18.7883 7.48828 18.7822 7.50098C18.7883 7.48826 18.796 7.47654 18.8037 7.46484ZM13.3457 7.45703L13.2285 7.41113C13.2221 7.40892 13.2154 7.4074 13.209 7.40527C13.2552 7.42053 13.3011 7.43752 13.3457 7.45703ZM18.835 7.42383C18.8262 7.43335 18.8181 7.44355 18.8105 7.4541C18.8181 7.44352 18.8262 7.43337 18.835 7.42383ZM17.4688 7.44824C17.4327 7.43278 17.3958 7.41787 17.3574 7.40527C17.3959 7.41786 17.4327 7.43278 17.4688 7.44824ZM13.1504 7.3877C13.1233 7.37992 13.096 7.37257 13.0684 7.36621C13.096 7.37258 13.1233 7.37991 13.1504 7.3877ZM17.293 7.38672C17.267 7.37952 17.2408 7.37218 17.2139 7.36621C17.2408 7.37217 17.267 7.37953 17.293 7.38672Z" fill="#141518"/>
</svg>
