<svg width="24" height="24" viewBox="0 0 24 24" fill="none" xmlns="http://www.w3.org/2000/svg">
<path d="M17.2852 2.39258C17.9665 2.39262 18.6198 2.66288 19.1016 3.14453C19.5835 3.62642 19.8545 4.28041 19.8545 4.96191V9.38184C19.8545 9.82909 19.4922 10.1922 19.045 10.1924C18.5976 10.1924 18.2344 9.82919 18.2344 9.38184V4.96191C18.2344 4.71007 18.1342 4.46813 17.9561 4.29004C17.7781 4.1122 17.5368 4.01176 17.2852 4.01172H6.72757C6.47572 4.01172 6.23378 4.11195 6.05569 4.29004C5.87761 4.46812 5.77737 4.71006 5.77737 4.96191V19.0391C5.7775 19.2907 5.87783 19.532 6.05569 19.71C6.23378 19.888 6.47572 19.9883 6.72757 19.9883H9.65628C10.1035 19.9883 10.4657 20.3507 10.4659 20.7979C10.4659 21.2452 10.1036 21.6084 9.65628 21.6084H6.72757C6.04607 21.6084 5.39208 21.3374 4.91019 20.8555C4.42851 20.3737 4.15836 19.7203 4.15823 19.0391V4.96191C4.15823 4.28041 4.42829 3.62643 4.91019 3.14453C5.39208 2.66264 6.04607 2.39258 6.72757 2.39258H17.2852ZM18.5479 12.3701C18.8157 12.1931 19.1802 12.2223 19.416 12.458L21.4063 14.4482C21.6757 14.7177 21.6757 15.1553 21.4063 15.4248L19.4209 17.4092C19.4193 17.4108 19.4187 17.4134 19.417 17.415C19.4154 17.4166 19.4128 17.4174 19.4112 17.4189L15.4356 21.3955C15.3062 21.5247 15.1301 21.5977 14.9473 21.5977H12.9571C12.5763 21.5974 12.2668 21.288 12.2666 20.9072V18.917C12.2666 18.7342 12.3396 18.5581 12.4688 18.4287L18.4395 12.458L18.5479 12.3701ZM13.6475 19.2031V20.2178H14.6602L17.9512 16.9258L16.9375 15.9121L13.6475 19.2031ZM15.7901 8.68164C16.1876 8.68173 16.5098 9.00378 16.5098 9.40137C16.5095 9.79873 16.1875 10.121 15.7901 10.1211H9.42288C9.15779 10.1211 8.94241 10.3365 8.94241 10.6016V11.9756H13.7012C14.082 11.9758 14.3915 12.2852 14.3916 12.666C14.3916 13.047 14.0821 13.3562 13.7012 13.3564H8.94241V14.7314C8.94268 14.9963 9.15795 15.2119 9.42288 15.2119H10.8926C11.2899 15.2122 11.6122 15.5343 11.6123 15.9316C11.6121 16.3289 11.2898 16.6511 10.8926 16.6514H9.42288C8.36266 16.6514 7.50322 15.7916 7.50296 14.7314V10.6016C7.50296 9.54118 8.36249 8.68164 9.42288 8.68164H15.7901ZM17.9141 14.9355L18.9278 15.9492L19.9414 14.9365L18.9278 13.9229L17.9141 14.9355Z" fill="#141518"/>
</svg>
