<svg width="24" height="24" viewBox="0 0 24 24" fill="none" xmlns="http://www.w3.org/2000/svg">
<path d="M14.664 4.17654C15.0744 3.92021 15.6148 4.04511 15.8713 4.45544L20.5667 11.9721C20.7441 12.2562 20.7441 12.6165 20.5667 12.9006L15.8713 20.4173C15.6149 20.8276 15.0744 20.9525 14.664 20.6962C14.2536 20.4398 14.1288 19.8993 14.3851 19.4888L18.7904 12.4365L14.3851 5.38386C14.1288 4.97342 14.2536 4.43293 14.664 4.17654ZM7.60487 4.44841C8.45654 3.08518 10.4418 3.08511 11.2934 4.44841L15.2909 10.848C15.7311 11.5529 15.7311 12.4471 15.2909 13.1519L11.2934 19.5515C10.4418 20.9149 8.45653 20.9148 7.60487 19.5515L3.60702 13.1522C3.16672 12.4473 3.16672 11.5526 3.60702 10.8477L7.60487 4.44841ZM9.80683 5.37683C9.64156 5.11239 9.25633 5.11263 9.0911 5.37712L5.09354 11.7764C5.00815 11.9132 5.00815 12.0868 5.09354 12.2235L9.0911 18.6228C9.25633 18.8873 9.64156 18.8876 9.80683 18.6231L13.8041 12.2235C13.8895 12.0867 13.8895 11.9132 13.8041 11.7764L9.80683 5.37683Z" fill="#141518"/>
</svg>
