<svg width="24" height="24" viewBox="0 0 24 24" fill="none" xmlns="http://www.w3.org/2000/svg">
<path d="M6.66014 9.96391C6.97616 9.64748 7.48908 9.647 7.80564 9.96293C8.12199 10.2789 8.12249 10.7919 7.80662 11.1084L5.05662 13.8623C4.39152 14.5384 4.02053 15.4511 4.02439 16.3995C4.02839 17.3477 4.40757 18.2563 5.07811 18.9268C5.74873 19.5973 6.65713 19.9757 7.60545 19.9795C8.55384 19.9834 9.4655 19.6124 10.1416 18.9473L12.8906 16.1934C13.2066 15.877 13.7196 15.8765 14.0361 16.1924C14.3526 16.5084 14.353 17.0214 14.0371 17.3379L11.2773 20.1026C10.2966 21.0672 8.97418 21.6053 7.59861 21.5997C6.22302 21.594 4.90536 21.0449 3.9326 20.0723C2.95979 19.0995 2.4109 17.7811 2.40525 16.4053C2.39976 15.0297 2.93759 13.7072 3.90232 12.7266L6.66014 9.96391ZM14.3594 8.49418C14.6756 8.17824 15.1886 8.17837 15.5049 8.49418C15.8212 8.81049 15.8211 9.32434 15.5049 9.64067L9.63182 15.5137C9.31549 15.83 8.80166 15.83 8.48533 15.5137C8.1695 15.1974 8.16933 14.6844 8.48533 14.3682L14.3594 8.49418ZM16.3965 2.4141C17.7722 2.41978 19.0907 2.96867 20.0635 3.94145C21.0361 4.9142 21.5851 6.2319 21.5908 7.60746C21.5964 8.983 21.0583 10.3055 20.0937 11.2862L17.3291 14.0459C17.0125 14.3618 16.4996 14.3614 16.1836 14.045C15.8677 13.7284 15.8682 13.2155 16.1846 12.8995L18.9433 10.1455C19.6054 9.46997 19.9745 8.56038 19.9707 7.6143C19.9668 6.66601 19.5884 5.75757 18.9179 5.08696C18.2474 4.41645 17.3388 4.03727 16.3906 4.03324C15.4422 4.02938 14.5306 4.40138 13.8545 5.06645L13.8535 5.06547L11.0996 7.81547C10.7831 8.13132 10.2701 8.13078 9.95408 7.81449C9.63815 7.49793 9.63863 6.98501 9.95506 6.66899L12.7178 3.91117C13.6984 2.94648 15.0209 2.40861 16.3965 2.4141Z" fill="#141518"/>
</svg>
