<svg width="24" height="24" viewBox="0 0 24 24" fill="none" xmlns="http://www.w3.org/2000/svg">
<path d="M5.27872 17.6915C5.87442 17.6915 6.35737 18.1742 6.35743 18.7699C6.35743 19.3656 5.87446 19.8486 5.27872 19.8486C4.68298 19.8486 4.20001 19.3657 4.20001 18.7699C4.20008 18.1742 4.68302 17.6915 5.27872 17.6915ZM18.9958 17.9601C19.4431 17.9602 19.8059 18.3229 19.8059 18.7702C19.8058 19.2175 19.4431 19.5802 18.9958 19.5803H8.38888C7.94161 19.5802 7.5789 19.2175 7.57882 18.7702C7.57882 18.3229 7.94156 17.9602 8.38888 17.9601H18.9958ZM5.27872 10.9213C5.87446 10.9213 6.35743 11.4043 6.35743 12C6.35742 12.5957 5.87445 13.0787 5.27872 13.0787C4.68299 13.0787 4.20002 12.5957 4.20001 12C4.20001 11.4042 4.68298 10.9213 5.27872 10.9213ZM18.9958 11.1899C19.4431 11.19 19.8059 11.5527 19.8059 12C19.8059 12.4473 19.4431 12.81 18.9958 12.81H8.38888C7.94156 12.81 7.57882 12.4473 7.57882 12C7.57882 11.5527 7.94156 11.19 8.38888 11.1899H18.9958ZM5.27872 4.15106C5.87442 4.15107 6.35737 4.63409 6.35743 5.22977C6.35743 5.82551 5.87446 6.30847 5.27872 6.30848C4.68298 6.30848 4.20001 5.82552 4.20001 5.22977C4.20008 4.63409 4.68302 4.15106 5.27872 4.15106ZM18.9958 4.42001C19.4431 4.42005 19.8059 4.78274 19.8059 5.23007C19.8058 5.67732 19.4431 6.04008 18.9958 6.04012H8.38888C7.94161 6.04008 7.5789 5.67732 7.57882 5.23007C7.57882 4.78274 7.94156 4.42005 8.38888 4.42001H18.9958Z" fill="#141518"/>
</svg>
