<svg width="24" height="24" viewBox="0 0 24 24" fill="none" xmlns="http://www.w3.org/2000/svg">
<path d="M12 16.9004C12.4971 16.9004 12.9004 17.3037 12.9004 17.8008V20.7012C12.8999 21.1978 12.4968 21.6006 12 21.6006C11.5032 21.6006 11.1001 21.1978 11.0996 20.7012V17.8008C11.0996 17.3037 11.5029 16.9004 12 16.9004ZM7.2627 15.4639C7.61417 15.1128 8.18478 15.1126 8.53613 15.4639C8.88748 15.8152 8.88724 16.3858 8.53613 16.7373L6.48535 18.7881C6.13388 19.1396 5.56339 19.1396 5.21191 18.7881C4.86051 18.4366 4.86047 17.8661 5.21191 17.5146L7.2627 15.4639ZM15.4639 15.4639C15.8152 15.1126 16.3858 15.1127 16.7373 15.4639L18.7881 17.5146C19.1395 17.8661 19.1394 18.4366 18.7881 18.7881C18.4366 19.1396 17.8661 19.1396 17.5146 18.7881L15.4639 16.7373C15.1127 16.3858 15.1125 15.8152 15.4639 15.4639ZM6.2002 11.0996C6.69707 11.0998 7.09961 11.5031 7.09961 12C7.09961 12.4969 6.69707 12.9002 6.2002 12.9004H3.2998C2.80286 12.9003 2.39941 12.497 2.39941 12C2.39941 11.503 2.80286 11.0997 3.2998 11.0996H6.2002ZM20.7002 11.0996C21.1971 11.0998 21.5996 11.5031 21.5996 12C21.5996 12.4969 21.1971 12.9002 20.7002 12.9004H17.7998C17.3029 12.9003 16.8994 12.497 16.8994 12C16.8994 11.503 17.3029 11.0997 17.7998 11.0996H20.7002ZM5.21094 5.21191C5.56235 4.8605 6.13289 4.86062 6.48438 5.21191L8.53516 7.2627C8.88663 7.61417 8.88663 8.18466 8.53516 8.53613C8.18366 8.88736 7.61311 8.88752 7.26172 8.53613L5.21094 6.48535C4.85972 6.13395 4.85977 5.56335 5.21094 5.21191ZM17.5146 5.21191C17.8661 4.86047 18.4366 4.86051 18.7881 5.21191C19.1396 5.56339 19.1396 6.13388 18.7881 6.48535L16.7373 8.53613C16.3858 8.88748 15.8153 8.88756 15.4639 8.53613C15.1125 8.1847 15.1125 7.61415 15.4639 7.2627L17.5146 5.21191ZM12 2.39941C12.4971 2.39941 12.9004 2.80372 12.9004 3.30078V6.20117C12.8999 6.69782 12.4968 7.10059 12 7.10059C11.5032 7.10059 11.1001 6.69782 11.0996 6.20117V3.30078C11.0996 2.80372 11.5029 2.39941 12 2.39941Z" fill="#141518"/>
</svg>
