<svg width="24" height="24" viewBox="0 0 24 24" fill="none" xmlns="http://www.w3.org/2000/svg">
<path d="M11.9997 2.41211C12.447 2.41211 12.8102 2.77433 12.8102 3.22168C12.8102 3.66903 12.447 4.03125 11.9997 4.03125C10.6307 4.03129 9.28453 4.38423 8.0915 5.05566C6.89849 5.72713 5.89855 6.69498 5.18818 7.86523C4.47779 9.03561 4.08088 10.3699 4.03583 11.7383C3.99085 13.1064 4.29863 14.4633 4.93036 15.6777C5.56221 16.8922 6.49698 17.9234 7.64325 18.6719C8.78948 19.4203 10.1093 19.861 11.4753 19.9512C12.8414 20.0412 14.2084 19.7781 15.4431 19.1865C16.6777 18.595 17.7393 17.6952 18.5251 16.5742C18.7818 16.2079 19.2867 16.1193 19.653 16.376C20.0192 16.6328 20.108 17.1376 19.8513 17.5039C18.9057 18.8528 17.6288 19.9357 16.1433 20.6475C14.6575 21.3593 13.0127 21.6757 11.3688 21.5674C9.72511 21.459 8.13682 20.9289 6.75751 20.0283C5.37829 19.1277 4.25414 17.8871 3.49384 16.4258C2.73351 14.9643 2.36248 13.3311 2.41669 11.6846C2.47091 10.038 2.94861 8.43272 3.80341 7.02441C4.65812 5.61646 5.86127 4.45247 7.29657 3.64453C8.7322 2.83654 10.3523 2.41215 11.9997 2.41211ZM20.4753 12.6748C21.0965 12.675 21.6003 13.1786 21.6003 13.7998C21.6003 14.421 21.0965 14.9246 20.4753 14.9248C19.854 14.9248 19.3503 14.4211 19.3503 13.7998C19.3503 13.1785 19.854 12.6748 20.4753 12.6748ZM11.9997 7.0498C12.4139 7.0498 12.7497 7.38559 12.7497 7.7998V11.8359L15.3347 13.1289C15.705 13.3141 15.8555 13.7644 15.6706 14.1348C15.4854 14.505 15.0351 14.6556 14.6647 14.4707L11.6647 12.9707C11.4108 12.8436 11.2497 12.5838 11.2497 12.2998V7.7998C11.2497 7.38574 11.5857 7.05004 11.9997 7.0498ZM20.4753 8.78906C21.0965 8.78923 21.6003 9.29284 21.6003 9.91406C21.6003 10.5353 21.0965 11.0389 20.4753 11.0391C19.854 11.0391 19.3503 10.5354 19.3503 9.91406C19.3503 9.29274 19.854 8.78906 20.4753 8.78906ZM18.6755 5.19141C19.2966 5.19163 19.8005 5.69523 19.8005 6.31641C19.8005 6.93759 19.2966 7.44118 18.6755 7.44141C18.0542 7.44141 17.5505 6.93773 17.5505 6.31641C17.5505 5.69509 18.0542 5.19141 18.6755 5.19141ZM15.4997 2.77246C16.1209 2.77256 16.6247 3.2762 16.6247 3.89746C16.6247 4.51872 16.1209 5.02236 15.4997 5.02246C14.8784 5.02246 14.3747 4.51878 14.3747 3.89746C14.3747 3.27614 14.8784 2.77246 15.4997 2.77246Z" fill="#141518"/>
</svg>
