<svg width="24" height="24" viewBox="0 0 24 24" fill="none" xmlns="http://www.w3.org/2000/svg">
<path d="M12.4346 5.00684C14.3814 5.10542 16.1547 5.8626 17.5361 7.05957L18.29 6.30664C18.6066 5.99096 19.1196 5.99129 19.4355 6.30762C19.7515 6.62404 19.7507 7.137 19.4346 7.45312L18.6533 8.23145C19.7843 9.67006 20.459 11.4842 20.459 13.4561L20.4482 13.8906C20.2219 18.3605 16.5261 21.9149 12 21.915L11.5645 21.9043C7.2388 21.6849 3.76984 18.2164 3.55078 13.8906L3.54004 13.4561C3.54004 8.78406 7.32805 4.99629 12 4.99609L12.4346 5.00684ZM12 6.61621C8.22275 6.61641 5.16016 9.67876 5.16016 13.4561C5.16034 17.2332 8.22287 20.2947 12 20.2949C15.7771 20.2947 18.8387 17.2332 18.8389 13.4561C18.8389 9.67875 15.7773 6.6164 12 6.61621ZM12 8.86621C12.1276 8.86624 12.2541 8.88999 12.3721 8.93652L12.4863 8.99023L15.7129 10.7568L15.8271 10.8301C15.9358 10.9101 16.0282 11.0111 16.0977 11.1279C16.1052 11.1407 16.1102 11.1549 16.1172 11.168C16.1195 11.1721 16.1237 11.1755 16.126 11.1797C16.13 11.1871 16.132 11.1956 16.1357 11.2031C16.1509 11.2344 16.1639 11.2663 16.1758 11.2988C16.1783 11.3064 16.1813 11.3137 16.1836 11.3213C16.2188 11.425 16.24 11.5332 16.2402 11.6436V15.1533C16.2398 15.3347 16.1903 15.513 16.0977 15.6689C16.005 15.8247 15.8719 15.953 15.7129 16.04L12.4863 17.8066C12.3374 17.8881 12.1698 17.9306 12 17.9307C11.8302 17.9306 11.6627 17.8881 11.5137 17.8066L8.28711 16.04C8.12808 15.953 7.99499 15.8248 7.90234 15.6689C7.80967 15.513 7.76116 15.3347 7.76074 15.1533V11.6436C7.76099 11.5333 7.78055 11.4249 7.81543 11.3213C7.81768 11.3137 7.82073 11.3064 7.82324 11.2988C7.83505 11.2663 7.84813 11.2344 7.86328 11.2031C7.86712 11.1955 7.86989 11.1873 7.87402 11.1797C7.87636 11.1754 7.87943 11.1712 7.88184 11.167C7.88876 11.1541 7.89484 11.1406 7.90234 11.1279L7.97949 11.0166C8.06336 10.9107 8.16785 10.8221 8.28711 10.7568L11.5137 8.99023L11.6289 8.93652C11.7467 8.89016 11.8727 8.86624 12 8.86621ZM9.2002 14.8975L11.2803 16.0361V13.8643L9.2002 12.7256V14.8975ZM12.7197 13.8643V16.0361L14.7998 14.8975V12.7256L12.7197 13.8643ZM9.94238 11.4902L12 12.6172L14.0566 11.4902L12 10.3652L9.94238 11.4902ZM14.6172 2.34863C15.0645 2.34863 15.4277 2.71085 15.4277 3.1582C15.4277 3.60555 15.0645 3.96777 14.6172 3.96777H9.55371C9.10647 3.96764 8.74414 3.60547 8.74414 3.1582C8.74414 2.71093 9.10647 2.34876 9.55371 2.34863H14.6172Z" fill="#141518"/>
</svg>
