<svg width="24" height="24" viewBox="0 0 24 24" fill="none" xmlns="http://www.w3.org/2000/svg">
<path d="M11.9998 2.11108C12.6128 2.11108 13.1102 2.6084 13.1102 3.22144C13.1102 3.83447 12.6128 4.33179 11.9998 4.33179C10.5829 4.33181 9.1935 4.72394 7.98614 5.46558C6.77876 6.20723 5.80058 7.26907 5.15997 8.53296C4.51936 9.79684 4.24158 11.2135 4.35723 12.6257C4.4729 14.038 4.97749 15.3911 5.81524 16.5339C6.65296 17.6766 7.79144 18.5651 9.10332 19.1003C10.4152 19.6355 11.8499 19.7967 13.2479 19.5662C14.6459 19.3356 15.9527 18.7219 17.0232 17.7937C18.0939 16.8655 18.8869 15.6587 19.3133 14.3074C19.4979 13.723 20.1214 13.3983 20.7059 13.5828C21.2903 13.7673 21.6138 14.3909 21.4295 14.9753C20.8796 16.7179 19.8579 18.2745 18.4773 19.4714C17.0969 20.6682 15.4118 21.4593 13.6092 21.7566C11.8064 22.0539 9.95618 21.8462 8.26446 21.156C6.57283 20.4658 5.10544 19.3199 4.0252 17.8464C2.94499 16.3728 2.29354 14.6284 2.14434 12.8074C1.99518 10.9863 2.35341 9.15887 3.1795 7.52905C4.00555 5.89934 5.26719 4.53032 6.82403 3.57397C8.38093 2.61763 10.1726 2.11111 11.9998 2.11108Z" fill="#141518"/>
</svg>
