<svg width="24" height="24" viewBox="0 0 24 24" fill="none" xmlns="http://www.w3.org/2000/svg">
<path fill-rule="evenodd" clip-rule="evenodd" d="M12 2.18994C14.4356 2.18994 16.4101 4.16442 16.4101 6.6V8.1H18.3L18.4236 8.10322C19.6917 8.16757 20.7 9.21598 20.7 10.5V18.9L20.6968 19.0236C20.6324 20.2917 19.584 21.3 18.3 21.3H5.70002C4.416 21.3 3.36759 20.2917 3.30324 19.0236L3.30002 18.9V10.5C3.30002 9.21598 4.30836 8.16757 5.57639 8.10322L5.70002 8.1H7.58996V6.6C7.58996 4.16442 9.56444 2.18994 12 2.18994ZM12 3.81006C10.4591 3.81006 9.21008 5.05913 9.21008 6.6V8.1H14.79V6.6C14.79 5.05913 13.5409 3.81006 12 3.81006Z" fill="#141518"/>
</svg>
