<svg width="24" height="24" viewBox="0 0 24 24" fill="none" xmlns="http://www.w3.org/2000/svg">
<path d="M17.0827 2.40491C18.5241 2.40497 19.6931 3.57384 19.6931 5.01526V5.85217C19.693 6.29929 19.3305 6.66239 18.8835 6.66272C18.4362 6.66272 18.073 6.29949 18.0729 5.85217V5.01526C18.0729 4.46854 17.6294 4.02509 17.0827 4.02502H6.91083C6.36407 4.02502 5.92059 4.4685 5.92059 5.01526V18.985C5.92065 19.5317 6.3641 19.9752 6.91083 19.9752H17.0827C17.6294 19.9752 18.0729 19.5317 18.0729 18.985V18.151C18.073 17.7037 18.4362 17.3405 18.8835 17.3405C19.3305 17.3408 19.693 17.7039 19.6931 18.151V18.985C19.693 20.4264 18.5241 21.5953 17.0827 21.5953H6.91083C5.4694 21.5953 4.30053 20.4264 4.30048 18.985V5.01526C4.30048 3.5738 5.46936 2.40491 6.91083 2.40491H17.0827Z" fill="#141518"/>
<path d="M15.363 8.46545C15.6793 8.14927 16.1922 8.1492 16.5085 8.46545L19.4616 11.4186C19.4803 11.4373 19.4985 11.4577 19.5153 11.4781C19.5261 11.4913 19.5357 11.5055 19.5456 11.5192C19.5508 11.5263 19.5563 11.5333 19.5612 11.5406C19.5697 11.5533 19.5779 11.5667 19.5856 11.5797C19.5918 11.5901 19.5985 11.6003 19.6042 11.611C19.61 11.6218 19.6146 11.6331 19.6198 11.6442C19.6257 11.6564 19.6321 11.6687 19.6374 11.6813C19.6421 11.6926 19.6459 11.7049 19.6501 11.7164C19.655 11.73 19.6605 11.7435 19.6647 11.7574L19.6833 11.8317C19.6992 11.9109 19.703 11.9927 19.695 12.0729C19.6942 12.0805 19.6921 12.0878 19.6911 12.0953C19.6887 12.1137 19.6869 12.1328 19.6833 12.151C19.6804 12.1655 19.6762 12.1797 19.6725 12.194C19.6698 12.2046 19.6679 12.2157 19.6647 12.2262C19.6605 12.2401 19.655 12.2536 19.6501 12.2672C19.6459 12.2787 19.6421 12.291 19.6374 12.3024C19.6322 12.3149 19.6256 12.3272 19.6198 12.3395C19.6146 12.3505 19.61 12.3619 19.6042 12.3727C19.5985 12.3834 19.5918 12.3936 19.5856 12.4039C19.5779 12.417 19.5697 12.4303 19.5612 12.443C19.553 12.4551 19.5437 12.4665 19.5349 12.4781C19.5286 12.4865 19.523 12.4954 19.5163 12.5035C19.4991 12.5246 19.4808 12.5449 19.4616 12.5641L16.5085 15.5182C16.1922 15.8344 15.6793 15.8344 15.363 15.5182C15.0467 15.2019 15.0467 14.689 15.363 14.3727L16.9333 12.8014H11.9968C11.5495 12.8013 11.1872 12.4391 11.1872 11.9918C11.1872 11.5726 11.5055 11.2278 11.9138 11.1862L11.9968 11.1823H16.9343L15.363 9.61096C15.0467 9.29464 15.0467 8.78177 15.363 8.46545Z" fill="#141518"/>
</svg>
