<svg width="24" height="24" viewBox="0 0 24 24" fill="none" xmlns="http://www.w3.org/2000/svg">
<path d="M17.54 2.3584C18.8157 2.35844 19.8495 3.39233 19.8496 4.66797V19.332C19.8494 20.6076 18.8157 21.6416 17.54 21.6416H7.45996C5.67284 21.6416 4.21761 20.2255 4.15332 18.4541H4.15039C4.15039 18.4414 4.15117 18.4287 4.15137 18.416C4.15067 18.3882 4.15039 18.36 4.15039 18.332V5.66797C4.15052 3.84003 5.632 2.35841 7.45996 2.3584H17.54ZM6.59668 17.627C6.16187 17.6271 5.80551 17.9632 5.77246 18.3896C5.80296 19.2962 6.54597 20.0215 7.45996 20.0215H17.54C17.921 20.0214 18.2293 19.7129 18.2295 19.332V17.627H6.59668ZM7.45996 3.97754C6.52669 3.97756 5.76966 4.73473 5.76953 5.66797V16.1543C6.02815 16.0613 6.30599 16.0078 6.59668 16.0078H18.2295V4.66797C18.2294 4.28703 17.921 3.97758 17.54 3.97754H7.45996ZM15.5205 6.37305C15.9676 6.37332 16.3301 6.73544 16.3301 7.18262C16.3301 7.6298 15.9676 7.99191 15.5205 7.99219H8.48047C8.03312 7.99219 7.6709 7.62997 7.6709 7.18262C7.6709 6.73527 8.03312 6.37305 8.48047 6.37305H15.5205Z" fill="#141518"/>
</svg>
