<svg width="24" height="24" viewBox="0 0 24 24" fill="none" xmlns="http://www.w3.org/2000/svg">
<path d="M15.8848 11.1758C17.9139 11.176 19.5586 12.8214 19.5586 14.8506C19.5584 15.5935 19.3373 16.2843 18.958 16.8623L20.5967 18.501C20.8894 18.7938 20.8894 19.2687 20.5967 19.5615C20.3038 19.8544 19.829 19.8542 19.5361 19.5615L17.8975 17.9229C17.3193 18.3022 16.628 18.5243 15.8848 18.5244C13.8559 18.5242 12.2104 16.8794 12.21 14.8506C12.21 12.8214 13.8556 11.176 15.8848 11.1758ZM10.3105 17.96C10.7578 17.96 11.1201 18.3232 11.1201 18.7705C11.1199 19.2176 10.7577 19.58 10.3105 19.5801H4.94727C4.50003 19.5801 4.13788 19.2177 4.1377 18.7705C4.1377 18.3232 4.49991 17.96 4.94727 17.96H10.3105ZM15.8848 12.6758C14.684 12.676 13.71 13.6498 13.71 14.8506C13.7104 16.051 14.6843 17.0242 15.8848 17.0244C17.0852 17.0242 18.0581 16.051 18.0586 14.8506C18.0586 13.6498 17.0855 12.676 15.8848 12.6758ZM10.3105 11.1904C10.7578 11.1905 11.1201 11.5528 11.1201 12C11.1201 12.4473 10.7578 12.8105 10.3105 12.8105H4.97363C4.52633 12.8105 4.16406 12.4473 4.16406 12C4.16413 11.5527 4.52637 11.1905 4.97363 11.1904H10.3105ZM19.0527 5.02051C19.5 5.02056 19.8623 5.38276 19.8623 5.83008C19.8623 6.27739 19.5 6.63959 19.0527 6.63965H4.94727C4.49991 6.63965 4.1377 6.27743 4.1377 5.83008C4.1377 5.38273 4.49991 5.02051 4.94727 5.02051H19.0527Z" fill="#141518"/>
</svg>
