<svg width="24" height="24" viewBox="0 0 24 24" fill="none" xmlns="http://www.w3.org/2000/svg">
<g clip-path="url(#clip0_17351_250)">
<mask id="path-1-outside-1_17351_250" maskUnits="userSpaceOnUse" x="2" y="1" width="20" height="22" fill="black">
<rect fill="white" x="2" y="1" width="20" height="22"/>
<path fill-rule="evenodd" clip-rule="evenodd" d="M13.2368 3.62791C13.2368 3.44287 13.3098 3.26542 13.4396 3.13458C13.5694 3.00374 13.7455 2.93023 13.9291 2.93023H14.771C15.1722 2.93023 15.5454 2.93116 15.8906 2.93302C15.9816 2.93382 16.0714 2.95265 16.1551 2.98844C16.2388 3.02424 16.3147 3.0763 16.3784 3.14164C16.4421 3.20699 16.4925 3.28435 16.5265 3.3693C16.5606 3.45425 16.5777 3.54512 16.5769 3.63674C16.5761 3.72836 16.5575 3.81893 16.5219 3.90327C16.4864 3.98761 16.4348 4.06408 16.3699 4.1283C16.3051 4.19253 16.2283 4.24325 16.144 4.27758C16.0597 4.31191 15.9696 4.32917 15.8786 4.32837C15.5402 4.32651 15.1703 4.32558 14.7691 4.32558H13.9291C13.7455 4.32558 13.5694 4.25208 13.4396 4.12124C13.3098 3.9904 13.2368 3.81294 13.2368 3.62791ZM17.8808 3.67907C17.9077 3.59152 17.9515 3.51019 18.0097 3.43971C18.0678 3.36923 18.1392 3.31099 18.2197 3.26831C18.3002 3.22563 18.3882 3.19936 18.4788 3.19099C18.5694 3.18262 18.6607 3.19232 18.7475 3.21953C19.2229 3.36837 19.6355 3.59907 19.9863 3.95163C20.3371 4.30419 20.565 4.72093 20.7127 5.2C20.7423 5.28816 20.7541 5.38139 20.7473 5.47421C20.7406 5.56702 20.7155 5.65753 20.6735 5.74042C20.6315 5.82331 20.5735 5.8969 20.5029 5.95686C20.4323 6.01682 20.3505 6.06193 20.2623 6.08955C20.1741 6.11716 20.0813 6.12672 19.9894 6.11766C19.8975 6.1086 19.8084 6.0811 19.7272 6.03678C19.646 5.99247 19.5744 5.93223 19.5166 5.85961C19.4589 5.787 19.4161 5.70347 19.3909 5.61395C19.2986 5.31535 19.174 5.10698 19.0069 4.9386C18.8398 4.77023 18.6331 4.64465 18.3368 4.55163C18.1615 4.49678 18.0151 4.37407 17.9296 4.21045C17.8441 4.04684 17.8265 3.85572 17.8808 3.67907ZM20.2992 7.38698C20.3901 7.38624 20.4803 7.40356 20.5646 7.43794C20.6488 7.47233 20.7256 7.5231 20.7904 7.58737C20.8552 7.65163 20.9068 7.72814 20.9422 7.8125C20.9777 7.89687 20.9963 7.98745 20.997 8.07907C20.9995 8.42698 21.0004 8.8031 20.9998 9.20744V10.4781C20.9998 10.6632 20.9269 10.8406 20.797 10.9715C20.6672 11.1023 20.4911 11.1758 20.3075 11.1758C20.1239 11.1758 19.9478 11.1023 19.818 10.9715C19.6882 10.8406 19.6152 10.6632 19.6152 10.4781V9.2093C19.6152 8.80434 19.6143 8.43163 19.6124 8.09116C19.6116 7.99954 19.6287 7.90865 19.6627 7.82367C19.6967 7.7387 19.747 7.66131 19.8106 7.59592C19.8743 7.53053 19.9502 7.47842 20.0338 7.44257C20.1175 7.40672 20.2083 7.38783 20.2992 7.38698ZM20.3075 12.8242C20.4911 12.8242 20.6672 12.8977 20.797 13.0285C20.9269 13.1594 20.9998 13.3368 20.9998 13.5219V14.7926C20.9998 15.1963 20.9989 15.5724 20.997 15.9209C20.9955 16.106 20.921 16.2828 20.79 16.4125C20.6591 16.5422 20.4824 16.6142 20.2987 16.6126C20.1151 16.611 19.9397 16.5359 19.811 16.4039C19.6823 16.272 19.6109 16.0939 19.6124 15.9088C19.6149 15.5678 19.6158 15.195 19.6152 14.7907V13.5219C19.6152 13.3368 19.6882 13.1594 19.818 13.0285C19.9478 12.8977 20.1239 12.8242 20.3075 12.8242ZM20.2567 17.9265C20.3436 17.9537 20.4243 17.9978 20.4943 18.0564C20.5642 18.115 20.622 18.1869 20.6643 18.268C20.7067 18.3492 20.7328 18.4379 20.7411 18.5292C20.7494 18.6204 20.7397 18.7125 20.7127 18.8C20.565 19.2791 20.3361 19.6949 19.9863 20.0484C19.6364 20.4019 19.2229 20.6316 18.7475 20.7805C18.66 20.8102 18.5675 20.8221 18.4754 20.8153C18.3833 20.8085 18.2935 20.7832 18.2113 20.7409C18.129 20.6986 18.056 20.6402 17.9965 20.569C17.937 20.4978 17.8922 20.4154 17.8648 20.3265C17.8374 20.2377 17.8279 20.1442 17.8369 20.0516C17.8459 19.9589 17.8732 19.8691 17.9172 19.7872C17.9612 19.7054 18.0209 19.6333 18.093 19.5751C18.1651 19.5169 18.2479 19.4738 18.3368 19.4484C18.6331 19.3553 18.8398 19.2298 19.0069 19.0614C19.174 18.893 19.2986 18.6847 19.3909 18.386C19.4453 18.2095 19.5671 18.0619 19.7295 17.9757C19.8918 17.8895 20.0815 17.8718 20.2567 17.9265ZM16.5774 20.3637C16.5781 20.4553 16.5609 20.5462 16.5268 20.6311C16.4927 20.7161 16.4423 20.7934 16.3786 20.8587C16.3148 20.924 16.2389 20.976 16.1552 21.0117C16.0714 21.0475 15.9816 21.0662 15.8906 21.067C15.5448 21.0695 15.1716 21.0704 14.771 21.0698H13.93C13.7464 21.0698 13.5703 20.9963 13.4405 20.8654C13.3107 20.7346 13.2377 20.5571 13.2377 20.3721C13.2377 20.1871 13.3107 20.0096 13.4405 19.8788C13.5703 19.7479 13.7464 19.6744 13.93 19.6744H14.7691C15.171 19.6744 15.5408 19.6735 15.8786 19.6716C15.9696 19.6708 16.0597 19.688 16.1441 19.7222C16.2284 19.7565 16.3052 19.8072 16.3701 19.8714C16.435 19.9355 16.4867 20.012 16.5222 20.0963C16.5578 20.1806 16.5766 20.2721 16.5774 20.3637ZM11.9999 2C12.1835 2 12.3596 2.0735 12.4894 2.20434C12.6193 2.33518 12.6922 2.51264 12.6922 2.69767V21.3023C12.6922 21.4874 12.6193 21.6648 12.4894 21.7957C12.3596 21.9265 12.1835 22 11.9999 22C11.8163 22 11.6402 21.9265 11.5104 21.7957C11.3805 21.6648 11.3076 21.4874 11.3076 21.3023V21.0698H11.0251C9.32855 21.0698 7.98456 21.0698 6.93319 20.9274C5.85136 20.7805 4.97536 20.4716 4.28399 19.7758C3.59353 19.0791 3.28707 18.1963 3.14123 17.106C3 16.0456 3 14.6921 3 12.9823V11.0177C3 9.30791 3 7.95349 3.14123 6.89395C3.28707 5.80372 3.59353 4.92093 4.28399 4.22419C4.97536 3.52837 5.85136 3.21953 6.93319 3.07256C7.98549 2.93023 9.32855 2.93023 11.0251 2.93023H11.3076V2.69767C11.3076 2.51264 11.3805 2.33518 11.5104 2.20434C11.6402 2.0735 11.8163 2 11.9999 2ZM11.3076 4.32558H11.0768C9.31655 4.32558 8.06672 4.32744 7.11688 4.45581C6.1892 4.5814 5.65382 4.81767 5.26336 5.21116C4.8729 5.60465 4.63844 6.14419 4.51383 7.07907C4.38645 8.03628 4.3846 9.29581 4.3846 11.0698V12.9302C4.3846 14.7042 4.38645 15.9647 4.51383 16.9209C4.63844 17.8558 4.8729 18.3953 5.26336 18.7888C5.65382 19.1823 6.1892 19.4186 7.1178 19.5442C8.06672 19.6726 9.31655 19.6744 11.0768 19.6744H11.3076V4.32558Z"/>
</mask>
<path fill-rule="evenodd" clip-rule="evenodd" d="M13.2368 3.62791C13.2368 3.44287 13.3098 3.26542 13.4396 3.13458C13.5694 3.00374 13.7455 2.93023 13.9291 2.93023H14.771C15.1722 2.93023 15.5454 2.93116 15.8906 2.93302C15.9816 2.93382 16.0714 2.95265 16.1551 2.98844C16.2388 3.02424 16.3147 3.0763 16.3784 3.14164C16.4421 3.20699 16.4925 3.28435 16.5265 3.3693C16.5606 3.45425 16.5777 3.54512 16.5769 3.63674C16.5761 3.72836 16.5575 3.81893 16.5219 3.90327C16.4864 3.98761 16.4348 4.06408 16.3699 4.1283C16.3051 4.19253 16.2283 4.24325 16.144 4.27758C16.0597 4.31191 15.9696 4.32917 15.8786 4.32837C15.5402 4.32651 15.1703 4.32558 14.7691 4.32558H13.9291C13.7455 4.32558 13.5694 4.25208 13.4396 4.12124C13.3098 3.9904 13.2368 3.81294 13.2368 3.62791ZM17.8808 3.67907C17.9077 3.59152 17.9515 3.51019 18.0097 3.43971C18.0678 3.36923 18.1392 3.31099 18.2197 3.26831C18.3002 3.22563 18.3882 3.19936 18.4788 3.19099C18.5694 3.18262 18.6607 3.19232 18.7475 3.21953C19.2229 3.36837 19.6355 3.59907 19.9863 3.95163C20.3371 4.30419 20.565 4.72093 20.7127 5.2C20.7423 5.28816 20.7541 5.38139 20.7473 5.47421C20.7406 5.56702 20.7155 5.65753 20.6735 5.74042C20.6315 5.82331 20.5735 5.8969 20.5029 5.95686C20.4323 6.01682 20.3505 6.06193 20.2623 6.08955C20.1741 6.11716 20.0813 6.12672 19.9894 6.11766C19.8975 6.1086 19.8084 6.0811 19.7272 6.03678C19.646 5.99247 19.5744 5.93223 19.5166 5.85961C19.4589 5.787 19.4161 5.70347 19.3909 5.61395C19.2986 5.31535 19.174 5.10698 19.0069 4.9386C18.8398 4.77023 18.6331 4.64465 18.3368 4.55163C18.1615 4.49678 18.0151 4.37407 17.9296 4.21045C17.8441 4.04684 17.8265 3.85572 17.8808 3.67907ZM20.2992 7.38698C20.3901 7.38624 20.4803 7.40356 20.5646 7.43794C20.6488 7.47233 20.7256 7.5231 20.7904 7.58737C20.8552 7.65163 20.9068 7.72814 20.9422 7.8125C20.9777 7.89687 20.9963 7.98745 20.997 8.07907C20.9995 8.42698 21.0004 8.8031 20.9998 9.20744V10.4781C20.9998 10.6632 20.9269 10.8406 20.797 10.9715C20.6672 11.1023 20.4911 11.1758 20.3075 11.1758C20.1239 11.1758 19.9478 11.1023 19.818 10.9715C19.6882 10.8406 19.6152 10.6632 19.6152 10.4781V9.2093C19.6152 8.80434 19.6143 8.43163 19.6124 8.09116C19.6116 7.99954 19.6287 7.90865 19.6627 7.82367C19.6967 7.7387 19.747 7.66131 19.8106 7.59592C19.8743 7.53053 19.9502 7.47842 20.0338 7.44257C20.1175 7.40672 20.2083 7.38783 20.2992 7.38698ZM20.3075 12.8242C20.4911 12.8242 20.6672 12.8977 20.797 13.0285C20.9269 13.1594 20.9998 13.3368 20.9998 13.5219V14.7926C20.9998 15.1963 20.9989 15.5724 20.997 15.9209C20.9955 16.106 20.921 16.2828 20.79 16.4125C20.6591 16.5422 20.4824 16.6142 20.2987 16.6126C20.1151 16.611 19.9397 16.5359 19.811 16.4039C19.6823 16.272 19.6109 16.0939 19.6124 15.9088C19.6149 15.5678 19.6158 15.195 19.6152 14.7907V13.5219C19.6152 13.3368 19.6882 13.1594 19.818 13.0285C19.9478 12.8977 20.1239 12.8242 20.3075 12.8242ZM20.2567 17.9265C20.3436 17.9537 20.4243 17.9978 20.4943 18.0564C20.5642 18.115 20.622 18.1869 20.6643 18.268C20.7067 18.3492 20.7328 18.4379 20.7411 18.5292C20.7494 18.6204 20.7397 18.7125 20.7127 18.8C20.565 19.2791 20.3361 19.6949 19.9863 20.0484C19.6364 20.4019 19.2229 20.6316 18.7475 20.7805C18.66 20.8102 18.5675 20.8221 18.4754 20.8153C18.3833 20.8085 18.2935 20.7832 18.2113 20.7409C18.129 20.6986 18.056 20.6402 17.9965 20.569C17.937 20.4978 17.8922 20.4154 17.8648 20.3265C17.8374 20.2377 17.8279 20.1442 17.8369 20.0516C17.8459 19.9589 17.8732 19.8691 17.9172 19.7872C17.9612 19.7054 18.0209 19.6333 18.093 19.5751C18.1651 19.5169 18.2479 19.4738 18.3368 19.4484C18.6331 19.3553 18.8398 19.2298 19.0069 19.0614C19.174 18.893 19.2986 18.6847 19.3909 18.386C19.4453 18.2095 19.5671 18.0619 19.7295 17.9757C19.8918 17.8895 20.0815 17.8718 20.2567 17.9265ZM16.5774 20.3637C16.5781 20.4553 16.5609 20.5462 16.5268 20.6311C16.4927 20.7161 16.4423 20.7934 16.3786 20.8587C16.3148 20.924 16.2389 20.976 16.1552 21.0117C16.0714 21.0475 15.9816 21.0662 15.8906 21.067C15.5448 21.0695 15.1716 21.0704 14.771 21.0698H13.93C13.7464 21.0698 13.5703 20.9963 13.4405 20.8654C13.3107 20.7346 13.2377 20.5571 13.2377 20.3721C13.2377 20.1871 13.3107 20.0096 13.4405 19.8788C13.5703 19.7479 13.7464 19.6744 13.93 19.6744H14.7691C15.171 19.6744 15.5408 19.6735 15.8786 19.6716C15.9696 19.6708 16.0597 19.688 16.1441 19.7222C16.2284 19.7565 16.3052 19.8072 16.3701 19.8714C16.435 19.9355 16.4867 20.012 16.5222 20.0963C16.5578 20.1806 16.5766 20.2721 16.5774 20.3637ZM11.9999 2C12.1835 2 12.3596 2.0735 12.4894 2.20434C12.6193 2.33518 12.6922 2.51264 12.6922 2.69767V21.3023C12.6922 21.4874 12.6193 21.6648 12.4894 21.7957C12.3596 21.9265 12.1835 22 11.9999 22C11.8163 22 11.6402 21.9265 11.5104 21.7957C11.3805 21.6648 11.3076 21.4874 11.3076 21.3023V21.0698H11.0251C9.32855 21.0698 7.98456 21.0698 6.93319 20.9274C5.85136 20.7805 4.97536 20.4716 4.28399 19.7758C3.59353 19.0791 3.28707 18.1963 3.14123 17.106C3 16.0456 3 14.6921 3 12.9823V11.0177C3 9.30791 3 7.95349 3.14123 6.89395C3.28707 5.80372 3.59353 4.92093 4.28399 4.22419C4.97536 3.52837 5.85136 3.21953 6.93319 3.07256C7.98549 2.93023 9.32855 2.93023 11.0251 2.93023H11.3076V2.69767C11.3076 2.51264 11.3805 2.33518 11.5104 2.20434C11.6402 2.0735 11.8163 2 11.9999 2ZM11.3076 4.32558H11.0768C9.31655 4.32558 8.06672 4.32744 7.11688 4.45581C6.1892 4.5814 5.65382 4.81767 5.26336 5.21116C4.8729 5.60465 4.63844 6.14419 4.51383 7.07907C4.38645 8.03628 4.3846 9.29581 4.3846 11.0698V12.9302C4.3846 14.7042 4.38645 15.9647 4.51383 16.9209C4.63844 17.8558 4.8729 18.3953 5.26336 18.7888C5.65382 19.1823 6.1892 19.4186 7.1178 19.5442C8.06672 19.6726 9.31655 19.6744 11.0768 19.6744H11.3076V4.32558Z" fill="black"/>
<path fill-rule="evenodd" clip-rule="evenodd" d="M13.2368 3.62791C13.2368 3.44287 13.3098 3.26542 13.4396 3.13458C13.5694 3.00374 13.7455 2.93023 13.9291 2.93023H14.771C15.1722 2.93023 15.5454 2.93116 15.8906 2.93302C15.9816 2.93382 16.0714 2.95265 16.1551 2.98844C16.2388 3.02424 16.3147 3.0763 16.3784 3.14164C16.4421 3.20699 16.4925 3.28435 16.5265 3.3693C16.5606 3.45425 16.5777 3.54512 16.5769 3.63674C16.5761 3.72836 16.5575 3.81893 16.5219 3.90327C16.4864 3.98761 16.4348 4.06408 16.3699 4.1283C16.3051 4.19253 16.2283 4.24325 16.144 4.27758C16.0597 4.31191 15.9696 4.32917 15.8786 4.32837C15.5402 4.32651 15.1703 4.32558 14.7691 4.32558H13.9291C13.7455 4.32558 13.5694 4.25208 13.4396 4.12124C13.3098 3.9904 13.2368 3.81294 13.2368 3.62791ZM17.8808 3.67907C17.9077 3.59152 17.9515 3.51019 18.0097 3.43971C18.0678 3.36923 18.1392 3.31099 18.2197 3.26831C18.3002 3.22563 18.3882 3.19936 18.4788 3.19099C18.5694 3.18262 18.6607 3.19232 18.7475 3.21953C19.2229 3.36837 19.6355 3.59907 19.9863 3.95163C20.3371 4.30419 20.565 4.72093 20.7127 5.2C20.7423 5.28816 20.7541 5.38139 20.7473 5.47421C20.7406 5.56702 20.7155 5.65753 20.6735 5.74042C20.6315 5.82331 20.5735 5.8969 20.5029 5.95686C20.4323 6.01682 20.3505 6.06193 20.2623 6.08955C20.1741 6.11716 20.0813 6.12672 19.9894 6.11766C19.8975 6.1086 19.8084 6.0811 19.7272 6.03678C19.646 5.99247 19.5744 5.93223 19.5166 5.85961C19.4589 5.787 19.4161 5.70347 19.3909 5.61395C19.2986 5.31535 19.174 5.10698 19.0069 4.9386C18.8398 4.77023 18.6331 4.64465 18.3368 4.55163C18.1615 4.49678 18.0151 4.37407 17.9296 4.21045C17.8441 4.04684 17.8265 3.85572 17.8808 3.67907ZM20.2992 7.38698C20.3901 7.38624 20.4803 7.40356 20.5646 7.43794C20.6488 7.47233 20.7256 7.5231 20.7904 7.58737C20.8552 7.65163 20.9068 7.72814 20.9422 7.8125C20.9777 7.89687 20.9963 7.98745 20.997 8.07907C20.9995 8.42698 21.0004 8.8031 20.9998 9.20744V10.4781C20.9998 10.6632 20.9269 10.8406 20.797 10.9715C20.6672 11.1023 20.4911 11.1758 20.3075 11.1758C20.1239 11.1758 19.9478 11.1023 19.818 10.9715C19.6882 10.8406 19.6152 10.6632 19.6152 10.4781V9.2093C19.6152 8.80434 19.6143 8.43163 19.6124 8.09116C19.6116 7.99954 19.6287 7.90865 19.6627 7.82367C19.6967 7.7387 19.747 7.66131 19.8106 7.59592C19.8743 7.53053 19.9502 7.47842 20.0338 7.44257C20.1175 7.40672 20.2083 7.38783 20.2992 7.38698ZM20.3075 12.8242C20.4911 12.8242 20.6672 12.8977 20.797 13.0285C20.9269 13.1594 20.9998 13.3368 20.9998 13.5219V14.7926C20.9998 15.1963 20.9989 15.5724 20.997 15.9209C20.9955 16.106 20.921 16.2828 20.79 16.4125C20.6591 16.5422 20.4824 16.6142 20.2987 16.6126C20.1151 16.611 19.9397 16.5359 19.811 16.4039C19.6823 16.272 19.6109 16.0939 19.6124 15.9088C19.6149 15.5678 19.6158 15.195 19.6152 14.7907V13.5219C19.6152 13.3368 19.6882 13.1594 19.818 13.0285C19.9478 12.8977 20.1239 12.8242 20.3075 12.8242ZM20.2567 17.9265C20.3436 17.9537 20.4243 17.9978 20.4943 18.0564C20.5642 18.115 20.622 18.1869 20.6643 18.268C20.7067 18.3492 20.7328 18.4379 20.7411 18.5292C20.7494 18.6204 20.7397 18.7125 20.7127 18.8C20.565 19.2791 20.3361 19.6949 19.9863 20.0484C19.6364 20.4019 19.2229 20.6316 18.7475 20.7805C18.66 20.8102 18.5675 20.8221 18.4754 20.8153C18.3833 20.8085 18.2935 20.7832 18.2113 20.7409C18.129 20.6986 18.056 20.6402 17.9965 20.569C17.937 20.4978 17.8922 20.4154 17.8648 20.3265C17.8374 20.2377 17.8279 20.1442 17.8369 20.0516C17.8459 19.9589 17.8732 19.8691 17.9172 19.7872C17.9612 19.7054 18.0209 19.6333 18.093 19.5751C18.1651 19.5169 18.2479 19.4738 18.3368 19.4484C18.6331 19.3553 18.8398 19.2298 19.0069 19.0614C19.174 18.893 19.2986 18.6847 19.3909 18.386C19.4453 18.2095 19.5671 18.0619 19.7295 17.9757C19.8918 17.8895 20.0815 17.8718 20.2567 17.9265ZM16.5774 20.3637C16.5781 20.4553 16.5609 20.5462 16.5268 20.6311C16.4927 20.7161 16.4423 20.7934 16.3786 20.8587C16.3148 20.924 16.2389 20.976 16.1552 21.0117C16.0714 21.0475 15.9816 21.0662 15.8906 21.067C15.5448 21.0695 15.1716 21.0704 14.771 21.0698H13.93C13.7464 21.0698 13.5703 20.9963 13.4405 20.8654C13.3107 20.7346 13.2377 20.5571 13.2377 20.3721C13.2377 20.1871 13.3107 20.0096 13.4405 19.8788C13.5703 19.7479 13.7464 19.6744 13.93 19.6744H14.7691C15.171 19.6744 15.5408 19.6735 15.8786 19.6716C15.9696 19.6708 16.0597 19.688 16.1441 19.7222C16.2284 19.7565 16.3052 19.8072 16.3701 19.8714C16.435 19.9355 16.4867 20.012 16.5222 20.0963C16.5578 20.1806 16.5766 20.2721 16.5774 20.3637ZM11.9999 2C12.1835 2 12.3596 2.0735 12.4894 2.20434C12.6193 2.33518 12.6922 2.51264 12.6922 2.69767V21.3023C12.6922 21.4874 12.6193 21.6648 12.4894 21.7957C12.3596 21.9265 12.1835 22 11.9999 22C11.8163 22 11.6402 21.9265 11.5104 21.7957C11.3805 21.6648 11.3076 21.4874 11.3076 21.3023V21.0698H11.0251C9.32855 21.0698 7.98456 21.0698 6.93319 20.9274C5.85136 20.7805 4.97536 20.4716 4.28399 19.7758C3.59353 19.0791 3.28707 18.1963 3.14123 17.106C3 16.0456 3 14.6921 3 12.9823V11.0177C3 9.30791 3 7.95349 3.14123 6.89395C3.28707 5.80372 3.59353 4.92093 4.28399 4.22419C4.97536 3.52837 5.85136 3.21953 6.93319 3.07256C7.98549 2.93023 9.32855 2.93023 11.0251 2.93023H11.3076V2.69767C11.3076 2.51264 11.3805 2.33518 11.5104 2.20434C11.6402 2.0735 11.8163 2 11.9999 2ZM11.3076 4.32558H11.0768C9.31655 4.32558 8.06672 4.32744 7.11688 4.45581C6.1892 4.5814 5.65382 4.81767 5.26336 5.21116C4.8729 5.60465 4.63844 6.14419 4.51383 7.07907C4.38645 8.03628 4.3846 9.29581 4.3846 11.0698V12.9302C4.3846 14.7042 4.38645 15.9647 4.51383 16.9209C4.63844 17.8558 4.8729 18.3953 5.26336 18.7888C5.65382 19.1823 6.1892 19.4186 7.1178 19.5442C8.06672 19.6726 9.31655 19.6744 11.0768 19.6744H11.3076V4.32558Z" stroke="black" stroke-width="0.2" mask="url(#path-1-outside-1_17351_250)"/>
</g>
<defs>
<clipPath id="clip0_17351_250">
<rect width="24" height="24" fill="white"/>
</clipPath>
</defs>
</svg>
