<svg width="24" height="24" viewBox="0 0 24 24" fill="none" xmlns="http://www.w3.org/2000/svg">
<path d="M12.0703 2.82406C12.2336 2.83435 12.393 2.88031 12.537 2.95912H12.5373L16.5944 5.18041C16.7481 5.26454 16.88 5.38352 16.979 5.52728L17.0195 5.59056L17.0555 5.65619C17.0639 5.67285 17.0716 5.68985 17.0792 5.70687C17.0823 5.71369 17.0852 5.72051 17.088 5.72738C17.1456 5.86375 17.1761 6.01049 17.1765 6.15951V10.3425L21.0208 12.4475C21.1745 12.5316 21.3065 12.6506 21.4055 12.7944L21.4459 12.8577L21.482 12.9233C21.4921 12.9433 21.5018 12.9636 21.5107 12.9842C21.5117 12.9865 21.5123 12.9889 21.5133 12.9912C21.5717 13.1285 21.6026 13.2765 21.603 13.4266V17.8399C21.6025 18.0401 21.5482 18.2367 21.4459 18.4088C21.3436 18.581 21.1968 18.7228 21.0211 18.819L21.0208 18.8187L16.9638 21.0403H16.9635C16.8093 21.1246 16.6375 21.1706 16.4622 21.1762C16.4504 21.1768 16.4385 21.1783 16.4265 21.1783C16.4144 21.1783 16.4024 21.1768 16.3905 21.1762C16.2152 21.1706 16.0436 21.1246 15.8895 21.0403H15.8892L11.954 18.8855L8.11086 20.9902H8.11057C7.95871 21.0733 7.7898 21.1194 7.61721 21.1261C7.60275 21.1269 7.58823 21.1285 7.57356 21.1285C7.5588 21.1285 7.54416 21.127 7.52961 21.1261C7.35712 21.1193 7.18833 21.0732 7.03655 20.9902H7.03625L2.97922 18.7686L2.97893 18.7689C2.80319 18.6727 2.65647 18.5309 2.55413 18.3587C2.45182 18.1865 2.39755 17.9901 2.39709 17.7898V13.3765L2.39973 13.3015C2.4081 13.1811 2.43637 13.0632 2.48235 12.952C2.48569 12.9436 2.48894 12.9351 2.4926 12.9268C2.51065 12.886 2.53119 12.8462 2.55413 12.8076L2.59456 12.7443C2.69359 12.6005 2.82518 12.4815 2.97893 12.3974H2.97922L6.82356 10.2924V6.15951L6.8262 6.08451C6.83461 5.96347 6.86299 5.84495 6.9094 5.73324C6.91229 5.72602 6.91506 5.71873 6.91819 5.71156C6.93643 5.67012 6.95732 5.62973 6.98059 5.59056L7.02102 5.52728C7.12006 5.38354 7.25165 5.26453 7.4054 5.18041H7.40569L11.4627 2.95912H11.463C11.6277 2.86904 11.8123 2.82172 12 2.82172L12.0703 2.82406ZM12.75 17.6114L15.6765 19.2133V16.1272L12.75 14.5255V17.6114ZM17.1765 16.1272V19.2133L20.103 17.6114V14.5255L17.1765 16.1272ZM3.89709 17.5613L6.82356 19.1632V16.0774L3.89709 14.4757V17.5613ZM8.32356 16.0774V19.1632L11.25 17.5613V14.4757L8.32356 16.0774ZM13.5179 13.2359L16.4262 14.8279L19.336 13.235L16.4277 11.6427L13.5179 13.2359ZM4.66321 13.1852L7.57327 14.7781L10.4362 13.211L7.52639 11.6175L4.66321 13.1852ZM12.75 8.8601V11.9448L15.6765 10.3425V7.25843L12.75 8.8601ZM8.32356 10.2924L11.25 11.8947V8.8601L8.32356 7.25843V10.2924ZM9.08997 5.96791L11.9997 7.56078L14.9095 5.96791L12 4.37504L9.08997 5.96791Z" fill="black"/>
</svg>
