<svg width="24" height="24" viewBox="0 0 24 24" fill="none" xmlns="http://www.w3.org/2000/svg">
<path d="M19.3183 3.00732C20.5661 3.00734 21.5921 4.01054 21.5921 5.26582V8.25C21.592 8.69728 21.2293 9.06006 20.782 9.06006C20.3347 9.06002 19.972 8.69726 19.9719 8.25V5.26582C19.9719 4.92108 19.6873 4.62716 19.3183 4.62715H4.68132C4.31237 4.62719 4.02771 4.9211 4.02771 5.26582V15.1058C4.02786 15.4504 4.31246 15.7441 4.68132 15.7441H16.1997C16.647 15.7441 17.0097 16.1068 17.0097 16.5542C17.0097 17.0015 16.647 17.3643 16.1997 17.3643H12.81V19.2899H15.6C16.0473 19.29 16.41 19.6527 16.41 20.1C16.41 20.5473 16.0473 20.91 15.6 20.9101H8.39998C7.95263 20.9101 7.58992 20.5474 7.58992 20.1C7.58992 19.6527 7.95263 19.2899 8.39998 19.2899H11.1899V17.3643H4.68132C3.43368 17.3642 2.40774 16.3609 2.40759 15.1058V5.26582C2.40759 4.01056 3.43359 3.00736 4.68132 3.00732H19.3183Z" fill="#141518"/>
<path fill-rule="evenodd" clip-rule="evenodd" d="M16.6043 7.95C18.4844 7.95 20.0088 9.47414 20.0089 11.3543C20.0089 12.0228 19.8153 12.6458 19.4824 13.1719L20.9303 14.6197C21.2231 14.9126 21.2231 15.3874 20.9303 15.6803C20.6374 15.9731 20.1626 15.9731 19.8697 15.6803L18.4219 14.2324C17.8958 14.5653 17.2728 14.7589 16.6043 14.7589C14.7241 14.7588 13.2 13.2345 13.2 11.3543C13.2001 9.47419 14.7242 7.95008 16.6043 7.95ZM16.6043 9.45C15.5526 9.45008 14.7001 10.3026 14.7 11.3543C14.7 12.406 15.5525 13.2588 16.6043 13.2589C17.6561 13.2589 18.5089 12.4061 18.5089 11.3543C18.5088 10.3026 17.656 9.45 16.6043 9.45Z" fill="#141518"/>
<path d="M9.89998 10.3667C10.3142 10.3667 10.65 10.7025 10.65 11.1167C10.65 11.5309 10.3142 11.8667 9.89998 11.8667H6.59998C6.18576 11.8667 5.84998 11.5309 5.84998 11.1167C5.84998 10.7025 6.18576 10.3667 6.59998 10.3667H9.89998Z" fill="#141518"/>
<path d="M12 7.0667C12.4142 7.06674 12.75 7.40251 12.75 7.8167C12.75 8.23089 12.4142 8.56666 12 8.5667H6.59998C6.18576 8.5667 5.84998 8.23091 5.84998 7.8167C5.84998 7.40249 6.18576 7.0667 6.59998 7.0667H12Z" fill="#141518"/>
</svg>
