<svg width="24" height="24" viewBox="0 0 24 24" fill="none" xmlns="http://www.w3.org/2000/svg">
<path d="M5.04443 10.2565C6.00721 10.2567 6.78747 11.0378 6.7876 12.0006C6.78738 12.9634 6.00716 13.7436 5.04443 13.7438C4.08164 13.7437 3.30051 12.9634 3.30029 12.0006C3.30042 11.0378 4.08159 10.2566 5.04443 10.2565ZM12.0005 10.2565C12.9633 10.2566 13.7435 11.0378 13.7437 12.0006C13.7434 12.9634 12.9633 13.7437 12.0005 13.7438C11.0377 13.7437 10.2566 12.9634 10.2563 12.0006C10.2565 11.0378 11.0376 10.2566 12.0005 10.2565ZM18.9565 10.2565C19.9194 10.2566 20.6996 11.0378 20.6997 12.0006C20.6995 12.9635 19.9194 13.7437 18.9565 13.7438C17.9937 13.7437 17.2126 12.9634 17.2124 12.0006C17.2125 11.0378 17.9937 10.2566 18.9565 10.2565Z" fill="#141518"/>
</svg>
