<svg width="24" height="24" viewBox="0 0 24 24" fill="none" xmlns="http://www.w3.org/2000/svg">
<path d="M13.7437 5.04459C13.7434 6.00736 12.9623 6.78762 11.9995 6.78775C11.0368 6.78753 10.2566 6.00731 10.2563 5.04459C10.2565 4.08179 11.0367 3.30066 11.9995 3.30045C12.9624 3.30058 13.7435 4.08174 13.7437 5.04459ZM13.7437 12.0006C13.7435 12.9635 12.9624 13.7437 11.9995 13.7438C11.0367 13.7436 10.2565 12.9634 10.2563 12.0006C10.2565 11.0378 11.0367 10.2567 11.9995 10.2565C12.9624 10.2566 13.7435 11.0378 13.7437 12.0006ZM13.7437 18.9567C13.7436 19.9196 12.9624 20.6997 11.9995 20.6999C11.0367 20.6996 10.2564 19.9195 10.2563 18.9567C10.2565 17.9939 11.0367 17.2128 11.9995 17.2126C12.9624 17.2127 13.7435 17.9938 13.7437 18.9567Z" fill="#141518"/>
</svg>
