<svg width="24" height="24" viewBox="0 0 24 24" fill="none" xmlns="http://www.w3.org/2000/svg">
<path fill-rule="evenodd" clip-rule="evenodd" d="M13.1344 3.23669C14.5758 3.23669 15.7447 4.40558 15.7447 5.84705V6.17615C15.7445 7.6174 14.5757 8.78552 13.1344 8.78552H12.8111V10.6996H15.2926C16.7339 10.6998 17.9019 11.8686 17.9019 13.3099V13.5599C17.9019 14.0072 17.5397 14.3694 17.0924 14.3695C16.645 14.3695 16.2828 14.0073 16.2828 13.5599V13.3099C16.2828 12.7633 15.8392 12.3199 15.2926 12.3197H8.76425C8.21751 12.3197 7.77405 12.7632 7.77402 13.3099V15.1996H8.14218C9.58346 15.1997 10.7515 16.3686 10.7516 17.8099V18.139C10.7515 19.5803 9.58346 20.7483 8.14218 20.7484H5.8746C4.43332 20.7483 3.2653 19.5803 3.26523 18.139V17.8099C3.26531 16.3686 4.43333 15.1997 5.8746 15.1996H6.1539V13.3099C6.15393 11.8685 7.32281 10.6996 8.76425 10.6996H11.191V8.78552H10.8678C9.42646 8.78552 8.25767 7.6174 8.25742 6.17615V5.84705C8.25742 4.40558 9.4263 3.23669 10.8678 3.23669H13.1344ZM5.8746 16.8197C5.32803 16.8199 4.88543 17.2633 4.88535 17.8099V18.139C4.88542 18.6856 5.32802 19.1291 5.8746 19.1293H8.14218C8.68876 19.1291 9.13136 18.6856 9.13144 18.139V17.8099C9.13136 17.2633 8.68876 16.8199 8.14218 16.8197H5.8746ZM10.8678 4.85681C10.321 4.85681 9.87753 5.30028 9.87753 5.84705V6.17615C9.87778 6.7227 10.3212 7.16541 10.8678 7.16541H13.1344C13.681 7.16541 14.1244 6.7227 14.1246 6.17615V5.84705C14.1246 5.30028 13.6811 4.85681 13.1344 4.85681H10.8678Z" fill="#141518"/>
<path d="M19.8228 18.5394H19.858L20.4029 16.3187H21.5631L20.3912 19.7758C20.2154 20.3029 19.846 20.6957 19.026 20.6957C18.8152 20.6957 18.6274 20.6898 18.481 20.6781V19.8519C18.6332 19.8636 18.7741 19.8636 18.8971 19.8636C19.0551 19.8636 19.1666 19.8456 19.231 19.6937L19.2545 19.6351L18.1353 16.3187H19.2896L19.8228 18.5394Z" fill="#141518"/>
<path d="M16.9049 16.2777C17.5084 16.2777 17.9303 16.6996 17.9303 17.3558V19.5004H16.8228V17.6312C16.8228 17.3383 16.6588 17.1683 16.4185 17.1683C16.1668 17.1685 16.0201 17.3501 16.0201 17.6312V19.5004H14.9596V17.6254C14.9596 17.3441 14.7955 17.1683 14.5553 17.1683C14.3094 17.1685 14.1568 17.3501 14.1568 17.6371V19.5004H13.0494V16.3187H14.0982V16.9164H14.1334C14.2623 16.5239 14.6023 16.2779 15.0416 16.2777C15.4869 16.2777 15.8385 16.5297 15.9088 16.9164H15.9439C16.0552 16.5298 16.4305 16.2778 16.9049 16.2777Z" fill="#141518"/>
</svg>
