<svg width="24" height="24" viewBox="0 0 24 24" fill="none" xmlns="http://www.w3.org/2000/svg">
<path d="M17.6123 3.95407C17.9285 3.63837 18.4416 3.63835 18.7578 3.95407L21.9238 7.12008C22.2396 7.43629 22.2395 7.94937 21.9238 8.26559L18.7578 11.4306C18.4415 11.7465 17.9285 11.7468 17.6123 11.4306C17.2963 11.1144 17.2965 10.6014 17.6123 10.2851L19.4697 8.42672H14.5967C14.3813 8.42676 14.2061 8.60198 14.2061 8.81735V16.0175C14.2057 17.1273 13.3062 18.0273 12.1963 18.0273H8.48242C8.12321 19.4075 6.86851 20.4265 5.37598 20.4267C3.60327 20.4267 2.16623 18.9894 2.16602 17.2168C2.16615 15.444 3.60322 14.0068 5.37598 14.0068C6.8688 14.0071 8.12348 15.0266 8.48242 16.4072H12.1963C12.4115 16.4072 12.5866 16.2326 12.5869 16.0175V8.81735C12.5869 7.70728 13.4866 6.80762 14.5967 6.80758H19.3135L19.2568 6.74508L17.6123 5.10055C17.2961 4.78432 17.2963 4.2704 17.6123 3.95407ZM5.37598 15.6259C4.49792 15.6259 3.78529 16.3387 3.78516 17.2168C3.78537 18.0947 4.49797 18.8066 5.37598 18.8066C6.25372 18.8063 6.96561 18.0945 6.96582 17.2168C6.96569 16.3389 6.25377 15.6263 5.37598 15.6259Z" fill="#141518"/>
</svg>
