<svg width="24" height="24" viewBox="0 0 24 24" fill="none" xmlns="http://www.w3.org/2000/svg">
<path d="M11.6237 4.02306C12.0709 4.02316 12.4332 4.38534 12.4332 4.83263C12.4331 5.27982 12.0708 5.64211 11.6237 5.6422H5.88147C5.33486 5.64231 4.89134 6.08583 4.89124 6.63244V18.1158C4.89137 18.6624 5.33488 19.106 5.88147 19.1061H17.3649C17.9115 19.1061 18.355 18.6625 18.3551 18.1158V12.3746C18.3551 11.9273 18.7183 11.5641 19.1656 11.5641C19.6128 11.5643 19.9752 11.9274 19.9752 12.3746V18.1158C19.9751 19.5572 18.8062 20.7262 17.3649 20.7262H5.88147C4.44018 20.7261 3.27223 19.5571 3.27209 18.1158V6.63244C3.2722 5.19113 4.44016 4.02317 5.88147 4.02306H11.6237ZM16.6422 3.45666C16.9601 3.19709 17.4295 3.21539 17.7262 3.51134L20.4908 6.27599C20.8069 6.59228 20.8069 7.10524 20.4908 7.4215L17.736 10.1754C17.7328 10.1787 17.7304 10.1829 17.7272 10.1861C17.7239 10.1894 17.7197 10.1917 17.7164 10.1949L12.1989 15.7135C12.047 15.8654 11.8404 15.9508 11.6256 15.9508H8.86194C8.41467 15.9507 8.05237 15.5875 8.05237 15.1403V12.3766C8.05248 12.1619 8.13692 11.9551 8.2887 11.8033L16.5807 3.51134L16.6422 3.45666ZM9.67151 12.7125V14.3307H11.2906L16.0074 9.61193L14.3883 7.99377L9.67151 12.7125ZM15.5348 6.84728L17.153 8.46642L18.7721 6.84826L17.153 5.23009L15.5348 6.84728Z" fill="#141518"/>
</svg>
