<svg width="24" height="24" viewBox="0 0 24 24" fill="none" xmlns="http://www.w3.org/2000/svg">
<path d="M12.0003 2.32812C15.8244 2.32825 18.9249 5.42783 18.9251 9.25195V12.7578L20.3645 14.5625C21.3096 15.7479 20.4656 17.5007 18.9495 17.501H16.9134C16.5263 19.8662 14.4739 21.6719 11.9993 21.6719C9.52502 21.6715 7.47406 19.8659 7.08718 17.501H5.05105C3.53471 17.5008 2.6907 15.7479 3.63601 14.5625L5.07546 12.7578V9.25195C5.07566 5.42776 8.17602 2.32812 12.0003 2.32812ZM8.73855 17.501C9.10114 18.9652 10.4232 20.0514 11.9993 20.0518C13.5757 20.0518 14.8984 18.9654 15.261 17.501H8.73855ZM12.0003 3.94727C9.07072 3.94727 6.69578 6.32246 6.69558 9.25195V13.042C6.69558 13.2254 6.63315 13.4034 6.51882 13.5469L4.90261 15.5723C4.80334 15.6967 4.89194 15.8807 5.05105 15.8809H18.9495C19.1084 15.8806 19.197 15.6966 19.0979 15.5723L17.4817 13.5469C17.3673 13.4034 17.305 13.2255 17.305 13.042V9.25195C17.3047 6.32253 14.9297 3.94739 12.0003 3.94727Z" fill="#141518"/>
</svg>
