<svg width="24" height="24" viewBox="0 0 24 24" fill="none" xmlns="http://www.w3.org/2000/svg">
<path d="M4.62598 3.40329C4.90204 3.44004 5.16265 3.55436 5.37598 3.73337L5.76074 4.04684C7.68394 5.56332 9.61126 6.38184 11.0859 6.82321C11.8721 7.05848 12.528 7.18581 12.9814 7.25388C13.2079 7.28787 13.384 7.30777 13.5 7.31833C13.5577 7.32358 13.6011 7.32637 13.6279 7.32809C13.633 7.32842 13.6377 7.32884 13.6416 7.32907H16.9102C17.9956 7.32916 19.0371 7.76077 19.8047 8.52829C20.5722 9.29584 21.0038 10.3374 21.0039 11.4228C21.0039 12.5083 20.5721 13.5497 19.8047 14.3174C19.1884 14.9336 18.3953 15.3321 17.5449 15.4658L16.6055 19.0117L16.6045 19.0107C16.5468 19.2345 16.4381 19.4418 16.2852 19.6152C16.1297 19.7914 15.934 19.9278 15.7148 20.0127C15.4956 20.0974 15.259 20.1282 15.0254 20.1025C14.7918 20.0768 14.5676 19.9955 14.3721 19.8652L13.4688 19.2636C13.2682 19.1298 13.1031 18.9479 12.9893 18.7353C12.8757 18.5228 12.8166 18.2849 12.8164 18.0439V15.6181C12.3751 15.691 11.782 15.8134 11.0869 16.0215C9.51392 16.4923 7.42487 17.3935 5.37598 19.1123C5.1625 19.2915 4.90232 19.4066 4.62598 19.4433C4.3492 19.48 4.06761 19.4371 3.81445 19.3193C3.56124 19.2015 3.34648 19.0138 3.19629 18.7783C3.04626 18.543 2.96695 18.2693 2.9668 17.9902V4.85446C2.96734 4.57561 3.04713 4.30235 3.19727 4.06735C3.34758 3.83233 3.56242 3.6439 3.81543 3.52634L4.00977 3.45212C4.20843 3.39231 4.41874 3.37578 4.62598 3.40329ZM14.4355 15.5166V17.9609L15.0918 18.3984L15.8555 15.5166H14.4355ZM4.58594 17.667C6.75733 15.9107 8.94931 14.9704 10.6221 14.4697C11.4907 14.2097 12.2223 14.0671 12.7412 13.9892C12.7668 13.9854 12.7919 13.982 12.8164 13.9785V8.86618C12.7919 8.86265 12.7667 8.86024 12.7412 8.85642C12.2222 8.77851 11.4908 8.6359 10.6221 8.37595C8.94902 7.87527 6.75772 6.93417 4.58594 5.1777V17.667ZM14.4355 13.8965H16.9102C17.566 13.8964 18.1954 13.6356 18.6592 13.1718C19.1228 12.708 19.3838 12.0786 19.3838 11.4228C19.3837 10.767 19.1229 10.1375 18.6592 9.6738C18.1954 9.21009 17.566 8.94928 16.9102 8.94919H14.4355V13.8965Z" fill="#141518"/>
</svg>
