<svg width="24" height="24" viewBox="0 0 24 24" fill="none" xmlns="http://www.w3.org/2000/svg">
<path d="M11.6254 2.48688C11.8825 2.34803 12.1965 2.35789 12.4454 2.51647L21.8509 8.51032C22.0843 8.65906 22.2256 8.91678 22.2256 9.19352C22.2256 9.47026 22.0843 9.728 21.8509 9.87673L18.5254 11.9958L21.8509 14.1151C22.0843 14.2638 22.2256 14.5216 22.2256 14.7983C22.2256 15.075 22.0843 15.3328 21.8509 15.4815L12.4454 21.4754C12.18 21.6445 11.8405 21.6445 11.575 21.4754L2.16957 15.4815C1.93619 15.3328 1.79487 15.075 1.79486 14.7983C1.79486 14.5216 1.93619 14.2638 2.16957 14.1151L5.49476 11.9958L2.16957 9.87673C1.93619 9.728 1.79487 9.47026 1.79486 9.19352C1.79486 8.91678 1.93619 8.65906 2.16957 8.51032L11.575 2.51647L11.6254 2.48688ZM12.4454 15.8706C12.18 16.0397 11.8405 16.0397 11.575 15.8706L7.00209 12.9564L4.11224 14.7983L12.0101 19.8315L19.9079 14.7983L17.0181 12.9564L12.4454 15.8706ZM8.50941 11.9958L12.0101 14.2267L15.5105 11.9958L12.0101 9.76481L8.50941 11.9958ZM4.11224 9.19352L7.00209 11.0351L11.575 8.12126L11.6254 8.09167C11.8825 7.95282 12.1965 7.96267 12.4454 8.12126L17.0178 11.0351L19.9079 9.19352L12.0101 4.16003L4.11224 9.19352Z" fill="#141518"/>
</svg>
