<svg width="24" height="24" viewBox="0 0 24 24" fill="none" xmlns="http://www.w3.org/2000/svg">
<path d="M5.74023 17.1025C6.20595 17.1026 6.65307 17.2879 6.98242 17.6172C7.31177 17.9466 7.49609 18.3936 7.49609 18.8594C7.49608 19.3252 7.31175 19.7722 6.98242 20.1016C6.65308 20.4308 6.20592 20.6162 5.74023 20.6162H5.28027V21.0762C5.28018 21.366 5.04478 21.6006 4.75488 21.6006C4.46516 21.6004 4.22958 21.3659 4.22949 21.0762V17.6279C4.22949 17.3381 4.4651 17.1027 4.75488 17.1025H5.74023ZM9.56641 17.1025C10.1627 17.1026 10.7346 17.3401 11.1562 17.7617C11.5779 18.1834 11.8153 18.7553 11.8154 19.3516C11.8154 19.948 11.578 20.5206 11.1562 20.9424C10.7346 21.364 10.1627 21.6005 9.56641 21.6006H8.58105C8.29116 21.6006 8.05576 21.366 8.05566 21.0762V17.6279C8.05566 17.338 8.29111 17.1025 8.58105 17.1025H9.56641ZM14.8691 17.1025C15.1589 17.1027 15.3936 17.3381 15.3936 17.6279C15.3935 17.9177 15.1589 18.1531 14.8691 18.1533H13.4238V19.0732H14.376C14.6659 19.0732 14.9014 19.3087 14.9014 19.5986C14.9012 19.8884 14.6658 20.124 14.376 20.124H13.4238V21.0762C13.4237 21.366 13.1883 21.6006 12.8984 21.6006C12.6088 21.6003 12.3731 21.3659 12.373 21.0762V17.6279C12.373 17.3381 12.6087 17.1028 12.8984 17.1025H14.8691ZM15.0488 2.34375C15.7382 2.34395 16.3998 2.61649 16.8887 3.10254L19.0498 5.25098C19.5423 5.74083 19.8203 6.40791 19.8203 7.10254V18.79C19.8201 20.2312 18.6511 21.4001 17.21 21.4004H17.001C16.554 21.4002 16.1918 21.0377 16.1914 20.5908C16.1914 20.1436 16.5538 19.7805 17.001 19.7803H17.21C17.7564 19.78 18.2 19.3365 18.2002 18.79V7.17676H16.3018C15.8049 7.17667 15.4026 6.77416 15.4023 6.27734V4.02832C15.2905 3.98535 15.1709 3.96298 15.0488 3.96289H9.31934C8.77273 3.963 8.32921 4.40652 8.3291 4.95312V14.6455C8.3289 15.0925 7.96656 15.4558 7.51953 15.4561C7.0723 15.4561 6.71016 15.0927 6.70996 14.6455V4.95312C6.71007 3.51182 7.87803 2.34386 9.31934 2.34375H15.0488ZM9.10645 20.5508H9.56641C9.8842 20.5507 10.1893 20.4249 10.4141 20.2002C10.6389 19.9753 10.7656 19.6695 10.7656 19.3516C10.7655 19.0338 10.6388 18.7287 10.4141 18.5039C10.1893 18.2792 9.88423 18.1534 9.56641 18.1533H9.10645V20.5508ZM5.28027 19.5654H5.74023C5.92726 19.5654 6.10687 19.4914 6.23926 19.3594C6.37173 19.2269 6.44627 19.0467 6.44629 18.8594C6.44628 18.672 6.37174 18.4919 6.23926 18.3594C6.10686 18.2273 5.92727 18.1534 5.74023 18.1533H5.28027V19.5654Z" fill="#141518"/>
</svg>
