<svg width="24" height="24" viewBox="0 0 24 24" fill="none" xmlns="http://www.w3.org/2000/svg">
<path d="M19.0851 7.16711C19.0851 6.89096 19.0306 6.61757 18.9249 6.36243C18.8192 6.10724 18.6641 5.87515 18.4689 5.67981C18.2735 5.48441 18.0416 5.32853 17.7863 5.22278C17.531 5.11705 17.2569 5.06262 16.9806 5.06262C16.7045 5.06266 16.431 5.11717 16.1759 5.22278C15.9206 5.32853 15.6887 5.48441 15.4933 5.67981L15.0353 6.13684L18.0109 9.11243L18.4689 8.6554C18.6642 8.46005 18.8192 8.22799 18.9249 7.97278C19.0307 7.71748 19.0851 7.44345 19.0851 7.16711ZM4.91125 16.2618V19.2365H7.88782L16.8654 10.2579L13.8898 7.28235L4.91125 16.2618ZM20.7052 7.16711C20.7052 7.65618 20.6092 8.14105 20.422 8.5929C20.2348 9.04465 19.9601 9.45513 19.6144 9.8009L8.79602 20.6193C8.64412 20.7712 8.4376 20.8566 8.22278 20.8566H4.10168C3.65433 20.8566 3.29211 20.4934 3.29211 20.046V15.9249C3.29217 15.7104 3.37683 15.5045 3.52844 15.3527L14.3478 4.5343C14.6936 4.18847 15.1039 3.91384 15.5558 3.72668C16.0075 3.53957 16.4916 3.44352 16.9806 3.44348C17.4697 3.44348 17.9545 3.53952 18.4064 3.72668C18.8581 3.91384 19.2686 4.18855 19.6144 4.5343C19.9601 4.88007 20.2349 5.29057 20.422 5.74231C20.609 6.19401 20.7052 6.67822 20.7052 7.16711Z" fill="#141518"/>
</svg>
