<svg width="24" height="24" viewBox="0 0 24 24" fill="none" xmlns="http://www.w3.org/2000/svg">
<path d="M11.1177 2.4978C11.6699 2.23003 12.3148 2.22944 12.8677 2.49585L19.2798 5.58569C19.9751 5.92082 20.4175 6.6244 20.4175 7.39624V11.0847C20.4174 14.4512 18.8681 16.9117 17.1479 18.5935C15.4384 20.2649 13.5332 21.199 12.7075 21.5554C12.2479 21.7538 11.7372 21.7525 11.2778 21.5535C10.4533 21.1961 8.55138 20.2614 6.84521 18.5896C5.12837 16.9073 3.58258 14.4473 3.58252 11.0847V7.41187C3.58252 6.64181 4.02248 5.93933 4.71533 5.60327L11.1177 2.4978ZM12.1636 3.95483C12.0564 3.90333 11.9317 3.90395 11.8247 3.95581L5.42236 7.06128C5.28793 7.12649 5.20166 7.26245 5.20166 7.41187V11.0847C5.20172 13.8983 6.48132 15.9648 7.979 17.4324C9.48723 18.9102 11.1898 19.7497 11.9224 20.0671C11.9713 20.0882 12.0159 20.0883 12.0649 20.0671C12.7987 19.7505 14.5041 18.9126 16.0151 17.4353C17.5156 15.9684 18.7973 13.9017 18.7974 11.0847V7.39624C18.7974 7.24656 18.7114 7.10975 18.5767 7.04468L12.1636 3.95483ZM11.9917 8.11792C12.5605 8.11796 13.0476 8.31973 13.4526 8.72437C13.8577 9.12928 14.0601 9.61665 14.0601 10.1853C14.06 10.6004 13.9459 10.9792 13.7183 11.322C13.4906 11.6649 13.1908 11.9169 12.8179 12.0769L13.3813 15.1834C13.4209 15.3443 13.3823 15.4925 13.2642 15.6267C13.1461 15.7608 13.0062 15.8278 12.8452 15.8279H11.1401C10.9792 15.8277 10.8393 15.7608 10.7212 15.6267C10.6031 15.4925 10.5644 15.3443 10.604 15.1834L11.1675 12.0769C10.7946 11.9169 10.4947 11.6649 10.2671 11.322C10.0395 10.9792 9.92535 10.6004 9.92529 10.1853C9.92529 9.61665 10.1274 9.12928 10.5317 8.72437C10.936 8.31973 11.4229 8.11792 11.9917 8.11792Z" fill="#1C1B1F"/>
</svg>
