<svg width="24" height="24" viewBox="0 0 24 24" fill="none" xmlns="http://www.w3.org/2000/svg">
<path d="M20.9108 9.75783C21.5709 10.418 21.4188 11.5259 20.6052 11.9838L14.4399 15.4531L12.8228 20.1734C12.4848 21.1602 11.2296 21.451 10.4921 20.7135L7.46196 17.6834L4.05894 21.0864C3.74262 21.4027 3.22967 21.4027 2.91334 21.0864C2.59702 20.7701 2.59702 20.2571 2.91334 19.9408L6.31636 16.5378L3.28665 13.5081C2.54935 12.7707 2.83995 11.5157 3.8263 11.1773L8.54541 9.55813L12.0162 3.39429C12.4741 2.58099 13.5821 2.42919 14.2421 3.08914L20.9108 9.75783ZM9.80577 10.6221C9.70831 10.7951 9.5507 10.9264 9.36286 10.9908L4.67027 12.6005L11.3997 19.3299L13.0076 14.636C13.0721 14.448 13.2036 14.2902 13.3768 14.1927L19.5694 10.7077L13.2921 4.43029L9.80577 10.6221Z" fill="#141518"/>
</svg>
