<svg width="24" height="24" viewBox="0 0 24 24" fill="none" xmlns="http://www.w3.org/2000/svg">
<path d="M19.8037 3.72656C20.6256 3.72684 21.292 4.39292 21.292 5.21484V9.28613C21.2918 10.1079 20.6255 10.7741 19.8037 10.7744H15.7324C14.9104 10.7744 14.2443 10.1081 14.2441 9.28613V8.05957H13.0186C12.8736 8.05957 12.7344 8.11826 12.6318 8.2207C12.5292 8.3233 12.4707 8.46233 12.4707 8.60742V15.3926C12.4708 15.5376 12.5293 15.6767 12.6318 15.7793C12.7344 15.8816 12.8737 15.9395 13.0186 15.9395H14.2441V14.7139C14.2441 13.8918 14.9103 13.2256 15.7324 13.2256H19.8037C20.6256 13.2259 21.292 13.8919 21.292 14.7139V18.7852C21.2918 19.607 20.6255 20.2732 19.8037 20.2734H15.7324C14.9104 20.2734 14.2443 19.6071 14.2441 18.7852V17.5596H13.0186C12.4441 17.5596 11.8927 17.3309 11.4863 16.9248C11.08 16.5184 10.8516 15.9673 10.8516 15.3926V12.8096H8.39941V16.0566C8.39925 16.8785 7.73301 17.5448 6.91113 17.5449H4.19727C3.37527 17.5449 2.70915 16.8786 2.70898 16.0566V7.94238C2.70898 7.12029 3.37517 6.4541 4.19727 6.4541H6.91113C7.73312 6.45423 8.39941 7.12037 8.39941 7.94238V11.1904H10.8516V8.60742C10.8516 8.03268 11.0799 7.4816 11.4863 7.0752C11.8927 6.66894 12.4439 6.44043 13.0186 6.44043H14.2441V5.21484C14.2441 4.39275 14.9103 3.72656 15.7324 3.72656H19.8037ZM15.8633 16.7324C15.8634 16.7379 15.8643 16.7435 15.8643 16.749C15.8643 16.7546 15.8634 16.7601 15.8633 16.7656V18.6533H19.6719V14.8447H15.8633V16.7324ZM4.32812 15.9248H6.7793V8.07324H4.32812V15.9248ZM15.8633 7.2334C15.8634 7.23892 15.8643 7.24445 15.8643 7.25C15.8643 7.25555 15.8634 7.26108 15.8633 7.2666V9.1543H19.6719V5.3457H15.8633V7.2334Z" fill="#141518"/>
</svg>
