<svg width="24" height="24" viewBox="0 0 24 24" fill="none" xmlns="http://www.w3.org/2000/svg">
<path d="M12 2.33105C17.34 2.3312 21.6689 6.65999 21.6689 12C21.6688 17.3399 17.3399 21.6688 12 21.6689C6.65999 21.6689 2.3312 17.34 2.33105 12C2.33105 6.6599 6.6599 2.33105 12 2.33105ZM12 3.9502C7.5546 3.9502 3.9502 7.5546 3.9502 12C3.95034 16.4453 7.5547 20.0488 12 20.0488C16.4452 20.0487 20.0487 16.4452 20.0488 12C20.0488 7.5547 16.4453 3.95034 12 3.9502ZM9 8.6748C9.00005 7.72365 10.0939 7.16756 10.8867 7.71582L15.6934 11.041C16.3686 11.5085 16.3686 12.4905 15.6934 12.958L10.8867 16.2832C10.0939 16.8315 9.00005 16.2754 9 15.3242V8.6748Z" fill="black"/>
</svg>
