<svg width="24" height="24" viewBox="0 0 24 24" fill="none" xmlns="http://www.w3.org/2000/svg">
<path d="M3.24463 17.959V6.04102C3.24463 4.49665 4.49665 3.24463 6.04102 3.24463H10.2123C10.6597 3.24463 11.0224 3.60734 11.0224 4.05469C11.0224 4.50204 10.6597 4.86475 10.2123 4.86475H6.04102C5.39135 4.86475 4.86475 5.39135 4.86475 6.04102V17.959C4.86475 18.6087 5.39135 19.1353 6.04102 19.1353H17.959C18.6087 19.1353 19.1353 18.6087 19.1353 17.959V13.7877C19.1353 13.3403 19.498 12.9776 19.9453 12.9776C20.3927 12.9776 20.7554 13.3403 20.7554 13.7877V17.959C20.7554 19.5034 19.5034 20.7554 17.959 20.7554H6.04102C4.49665 20.7554 3.24463 19.5034 3.24463 17.959ZM20.7554 9.02051C20.7554 9.46786 20.3927 9.83057 19.9453 9.83057C19.498 9.83057 19.1353 9.46786 19.1353 9.02051V6.01025L12.5728 12.5728C12.2564 12.8891 11.7436 12.8891 11.4272 12.5728C11.1109 12.2564 11.1109 11.7436 11.4272 11.4272L17.9897 4.86475H14.9795C14.5321 4.86475 14.1694 4.50204 14.1694 4.05469C14.1694 3.60734 14.5321 3.24463 14.9795 3.24463H19.9453C20.3927 3.24463 20.7554 3.60734 20.7554 4.05469V9.02051Z" fill="#141518"/>
</svg>
