<svg width="24" height="24" viewBox="0 0 24 24" fill="none" xmlns="http://www.w3.org/2000/svg">
<path d="M6.5035 12.4545C6.96735 12.4545 7.40265 12.6806 7.66951 13.06L8.61775 14.4077C8.67267 14.4858 8.70808 14.5717 8.72615 14.6596H10.5924C11.5677 14.6598 12.3223 15.5153 12.1998 16.4829L11.731 20.1782C11.6284 20.9874 10.9402 21.5938 10.1246 21.5942H4.50741C3.67909 21.5942 2.98378 20.9696 2.89609 20.146L2.50351 16.4506C2.4602 16.0431 2.57138 15.6581 2.78769 15.3501L2.65781 14.018C2.57587 13.1803 3.23402 12.4546 4.07577 12.4545H6.5035ZM10.6744 3.75434C12.2948 3.426 13.9763 3.58293 15.5084 4.20453C17.0404 4.82618 18.3561 5.88581 19.2896 7.25044C20.2228 8.61489 20.7333 10.2245 20.7574 11.8774C20.7813 13.5303 20.3175 15.1544 19.4244 16.5454C18.5309 17.9365 17.2463 19.0338 15.733 19.6997C15.718 19.7063 15.7024 19.7126 15.6871 19.7182C15.3212 19.8529 14.6272 20.1419 13.7847 20.2163C13.3392 20.2555 12.9462 19.9265 12.9068 19.4809C12.8677 19.0356 13.1968 18.6425 13.6421 18.603C14.2097 18.5529 14.6737 18.3658 15.0933 18.2104C16.3096 17.6722 17.3422 16.7896 18.0611 15.6704C18.7823 14.5472 19.1566 13.2356 19.1372 11.9008C19.1178 10.5662 18.7053 9.26625 17.9517 8.1645C17.1981 7.06293 16.1367 6.20744 14.9 5.70551C13.6631 5.20364 12.3049 5.07721 10.9966 5.34223C9.68836 5.60739 8.48654 6.25291 7.54256 7.19673C6.92257 7.8248 6.37116 8.43416 5.78573 9.11665H7.50838C7.95547 9.11696 8.31795 9.48004 8.31795 9.9272C8.31775 10.3742 7.95535 10.7365 7.50838 10.7368H4.05233C4.03068 10.7368 4.0091 10.7345 3.98788 10.7329C3.98303 10.7325 3.97808 10.7333 3.97323 10.7329C3.96602 10.7322 3.95891 10.7308 3.95175 10.7299C3.90734 10.7244 3.86325 10.7155 3.81991 10.7026C3.79969 10.6965 3.77987 10.6896 3.76034 10.6821C3.75572 10.6803 3.75127 10.6781 3.74667 10.6762C3.7311 10.6699 3.71585 10.663 3.70077 10.6557C3.6907 10.6509 3.68042 10.6464 3.6705 10.6411C3.66355 10.6373 3.65682 10.6333 3.64999 10.6293C3.61215 10.6076 3.57555 10.5826 3.54062 10.5542C3.47723 10.5025 3.42293 10.4439 3.37949 10.3793C3.36477 10.3575 3.35202 10.3343 3.33945 10.311C3.33342 10.2998 3.32831 10.2882 3.32284 10.2768C3.27198 10.1709 3.24282 10.0526 3.24277 9.9272V6.47114C3.24277 6.02379 3.60499 5.66157 4.05233 5.66157C4.49957 5.6617 4.8619 6.02387 4.8619 6.47114V7.70356C5.35958 7.13502 5.85151 6.60269 6.39315 6.05415L6.39705 6.05122C7.56615 4.88228 9.05409 4.08276 10.6744 3.75434ZM4.11483 16.0991C4.00794 16.0991 3.92392 16.192 3.93515 16.2983L4.3287 19.9936C4.33853 20.085 4.41544 20.1548 4.50741 20.1548H10.1246C10.2148 20.1544 10.2907 20.087 10.3023 19.9975L10.7711 16.3022C10.7847 16.1948 10.7006 16.0993 10.5924 16.0991H4.11483ZM12.3463 7.04341C12.7933 7.04363 13.1556 7.40598 13.1558 7.85298V11.5405L16.2183 13.3784C16.6016 13.6084 16.7261 14.1062 16.4966 14.4897C16.2665 14.8732 15.7689 14.998 15.3853 14.768L11.9293 12.6948C11.6853 12.5484 11.5367 12.284 11.5367 11.9995V7.85298C11.5369 7.40584 11.8991 7.04341 12.3463 7.04341ZM4.07577 13.8042C4.03171 13.8043 3.99657 13.8424 4.00058 13.8862L4.07675 14.6616C4.08932 14.6613 4.10219 14.6596 4.11483 14.6596H7.14412L6.56502 13.8364C6.55097 13.8164 6.52789 13.8042 6.5035 13.8042H4.07577Z" fill="#141518"/>
</svg>
