<svg width="24" height="24" viewBox="0 0 24 24" fill="none" xmlns="http://www.w3.org/2000/svg">
<path d="M18.9873 4.20996C20.4284 4.21032 21.5966 5.37818 21.5967 6.81934V17.1816C21.5966 18.6228 20.4284 19.7916 18.9873 19.792H5.0127C3.57136 19.7919 2.40338 18.623 2.40332 17.1816V6.81934C2.40343 5.37803 3.57139 4.21007 5.0127 4.20996H18.9873ZM4.02246 9.75V17.1816C4.02252 17.7283 4.46606 18.1718 5.0127 18.1719H18.9873C19.5337 18.1715 19.9765 17.7281 19.9766 17.1816V9.75H4.02246ZM16.1357 15.376C16.5497 15.3762 16.8848 15.7119 16.8848 16.126C16.8848 16.5402 16.549 16.876 16.1348 16.876H12.4619C12.0479 16.8757 11.7119 16.54 11.7119 16.126C11.7119 15.7118 12.0487 15.376 12.4629 15.376H16.1357ZM7.33496 10.8027C7.62838 10.5105 8.10321 10.5114 8.39551 10.8047L10.6602 13.0791C10.9513 13.3717 10.9513 13.8441 10.6602 14.1367L8.39551 16.4131C8.10328 16.706 7.62835 16.707 7.33496 16.415C7.04177 16.1229 7.04119 15.648 7.33301 15.3545L9.07031 13.6074L7.33301 11.8633C7.04098 11.5699 7.04187 11.095 7.33496 10.8027ZM5.0127 5.8291C4.46609 5.82921 4.02257 6.27273 4.02246 6.81934V8.25H19.9766V6.81934C19.9765 6.27289 19.5337 5.82946 18.9873 5.8291H5.0127Z" fill="#141518"/>
</svg>
