<svg width="24" height="24" viewBox="0 0 24 24" fill="none" xmlns="http://www.w3.org/2000/svg">
<path d="M14.2314 2.49023C14.843 2.49027 15.428 2.73505 15.8584 3.16895C16.2886 3.60264 16.5293 4.1893 16.5293 4.7998V5.49023H20.0469C20.917 5.49042 21.5879 6.20748 21.5879 7.0498V19.0498C21.5879 19.8921 20.917 20.6092 20.0469 20.6094H3.95215C3.08193 20.6093 2.41113 19.8922 2.41113 19.0498V7.0498C2.41113 6.20741 3.08193 5.4903 3.95215 5.49023H7.46973V4.7998C7.46973 4.18926 7.71042 3.60265 8.14062 3.16895C8.57105 2.73503 9.15601 2.49023 9.76758 2.49023H14.2314ZM18.3145 18.9902H19.9678V7.10938H18.3145V18.9902ZM7.30371 18.9902H16.6943V7.10938H7.30371V18.9902ZM4.03027 18.9902H5.68457V7.10938H4.03027V18.9902ZM9.76758 4.10938C9.58991 4.10938 9.41769 4.18089 9.29004 4.30957C9.16231 4.43846 9.08984 4.61481 9.08984 4.7998V5.49023H14.9092V4.7998C14.9092 4.6147 14.8359 4.43848 14.708 4.30957C14.5804 4.18103 14.409 4.10941 14.2314 4.10938H9.76758Z" fill="black"/>
</svg>
