<svg width="24" height="24" viewBox="0 0 24 24" fill="none" xmlns="http://www.w3.org/2000/svg">
<path d="M11.9995 2.40002C17.3013 2.40002 21.5998 6.69784 21.6 11.9995C21.6 17.3014 17.3014 21.6 11.9995 21.6C6.69784 21.5998 2.40002 17.3013 2.40002 11.9995C2.40024 6.69797 6.69797 2.40024 11.9995 2.40002ZM11.9448 15.1782C11.8677 15.1822 11.7926 15.1938 11.7202 15.2124C11.6841 15.2217 11.6484 15.2329 11.6138 15.2456C11.579 15.2583 11.5444 15.2726 11.5113 15.2886C11.4948 15.2965 11.4784 15.3043 11.4624 15.313C11.3821 15.3566 11.3079 15.4102 11.2408 15.4712C11.1602 15.5444 11.0896 15.6296 11.0327 15.7231C11.0234 15.7386 11.0141 15.7541 11.0054 15.77C10.9181 15.9307 10.8687 16.1153 10.8687 16.311C10.8687 16.3306 10.8697 16.3503 10.8706 16.3696C10.8716 16.3889 10.8726 16.4082 10.8745 16.4272C10.8775 16.4561 10.8812 16.485 10.8863 16.5132C10.8875 16.5199 10.8888 16.5269 10.8902 16.5337C10.892 16.5428 10.894 16.5519 10.896 16.561C10.8981 16.5704 10.9005 16.58 10.9029 16.5893C10.9047 16.5965 10.9068 16.6037 10.9087 16.6108C10.9113 16.6203 10.9147 16.6298 10.9175 16.6391C10.9199 16.6472 10.9218 16.6556 10.9244 16.6636C10.9274 16.6728 10.9309 16.6827 10.9341 16.6919C10.9372 16.7004 10.9406 16.7088 10.9439 16.7173C10.9465 16.724 10.949 16.7311 10.9517 16.7378C10.9558 16.7479 10.96 16.7581 10.9644 16.768C10.9675 16.7751 10.9709 16.7825 10.9742 16.7895C10.9779 16.7975 10.982 16.8061 10.9859 16.8139C10.9898 16.8218 10.9935 16.8296 10.9976 16.8374C11.0017 16.8452 11.006 16.8531 11.0103 16.8608C11.0148 16.869 11.0202 16.8772 11.0249 16.8852C11.0287 16.8916 11.0318 16.8984 11.0357 16.9048C11.0403 16.9124 11.0455 16.9197 11.0503 16.9272C11.0651 16.95 11.0809 16.972 11.0972 16.9936C11.104 17.0027 11.1106 17.0121 11.1177 17.021C11.1216 17.0258 11.1255 17.0308 11.1294 17.0356C11.1338 17.0409 11.1386 17.046 11.1431 17.0512C11.1615 17.0726 11.1808 17.0938 11.2007 17.1137C11.2254 17.1385 11.2519 17.1617 11.2788 17.1841C11.2838 17.1882 11.2885 17.1927 11.2935 17.1967C11.3027 17.2042 11.3124 17.2111 11.3218 17.2182C11.3253 17.2209 11.329 17.2234 11.3326 17.226C11.3438 17.2343 11.3552 17.2426 11.3667 17.2505C11.3698 17.2526 11.3734 17.2552 11.3765 17.2573C11.3867 17.2641 11.3973 17.2704 11.4077 17.2768C11.4154 17.2816 11.4234 17.2859 11.4312 17.2905C11.4387 17.2949 11.446 17.2999 11.4536 17.3042C11.4597 17.3075 11.4661 17.3107 11.4722 17.3139C11.4821 17.3192 11.4924 17.3246 11.5025 17.3296C11.5098 17.3331 11.5176 17.3369 11.5249 17.3403C11.5323 17.3438 11.5399 17.3468 11.5474 17.3501C11.5561 17.3539 11.5649 17.3582 11.5738 17.3618C11.5827 17.3655 11.592 17.3691 11.6011 17.3725C11.6078 17.3751 11.6148 17.3779 11.6216 17.3803C11.6312 17.3838 11.6412 17.3869 11.6509 17.3901C11.659 17.3927 11.6672 17.3955 11.6753 17.3979C11.6857 17.401 11.6961 17.4039 11.7066 17.4067C11.712 17.4082 11.7177 17.4092 11.7232 17.4106C11.7356 17.4138 11.7487 17.4167 11.7613 17.4194C11.7677 17.4208 11.7743 17.423 11.7808 17.4243C11.794 17.4269 11.8074 17.4289 11.8208 17.4311C11.8243 17.4317 11.8281 17.4325 11.8316 17.4331C11.8445 17.435 11.8576 17.4364 11.8706 17.438C11.877 17.4387 11.8838 17.4393 11.8902 17.4399C11.9083 17.4417 11.9275 17.4439 11.9458 17.4448C11.9649 17.4458 11.9841 17.4458 12.0034 17.4458C12.0388 17.4458 12.0744 17.4441 12.1089 17.4409L12.1402 17.437C12.1518 17.4356 12.1638 17.4348 12.1753 17.4331C12.1778 17.4327 12.1807 17.4315 12.1831 17.4311C12.1988 17.4286 12.2146 17.4264 12.23 17.4233C12.2394 17.4214 12.249 17.4186 12.2583 17.4165C12.2658 17.4148 12.2734 17.4135 12.2808 17.4116C12.2951 17.408 12.3096 17.404 12.3238 17.3999C12.327 17.3989 12.3303 17.3979 12.3335 17.3969C12.3439 17.3938 12.3545 17.3906 12.3648 17.3872C12.3725 17.3846 12.3805 17.3821 12.3882 17.3794C12.397 17.3762 12.4059 17.373 12.4146 17.3696C12.4223 17.3666 12.4303 17.363 12.438 17.3598C12.4462 17.3564 12.4543 17.3527 12.4624 17.3491C12.4715 17.345 12.4808 17.3407 12.4898 17.3364L12.5386 17.312C12.5443 17.309 12.5496 17.3053 12.5552 17.3022C12.5652 17.2966 12.5756 17.2915 12.5855 17.2856C12.591 17.2823 12.5966 17.2783 12.6021 17.2749C12.6124 17.2685 12.6232 17.2621 12.6333 17.2553C12.6386 17.2518 12.6437 17.2482 12.6489 17.2446C12.6578 17.2385 12.6667 17.2324 12.6753 17.226C12.6824 17.2209 12.6889 17.2148 12.6958 17.2094C12.7014 17.2051 12.7079 17.2012 12.7134 17.1967C12.7228 17.1892 12.7316 17.1811 12.7407 17.1733C12.7447 17.1699 12.7495 17.167 12.7534 17.1635C12.7627 17.1554 12.7718 17.1466 12.7808 17.1382L12.814 17.105C12.8208 17.0979 12.8278 17.0907 12.8345 17.0835C12.8403 17.0772 12.8464 17.0713 12.8521 17.0649C12.8572 17.0592 12.8627 17.0532 12.8677 17.0473C12.8753 17.0384 12.8828 17.0292 12.8902 17.02C12.8925 17.0171 12.8947 17.0132 12.897 17.0102C12.9056 16.9993 12.9142 16.9883 12.9224 16.977C12.9245 16.9742 12.9272 16.9711 12.9292 16.9682C12.9467 16.9437 12.9635 16.918 12.979 16.8921C12.9842 16.8833 12.9897 16.8746 12.9946 16.8657C12.9985 16.8588 13.0016 16.8512 13.0054 16.8442C13.0098 16.8359 13.0148 16.8273 13.0191 16.8188C13.023 16.811 13.027 16.8033 13.0308 16.7954C13.035 16.7865 13.0385 16.7771 13.0425 16.768C13.0454 16.7615 13.0485 16.7551 13.0513 16.7485L13.0718 16.6958C13.0993 16.6194 13.1188 16.5385 13.1294 16.4555C13.1354 16.4083 13.1392 16.3599 13.1392 16.311C13.139 15.6844 12.6302 15.1763 12.0034 15.1763C11.9839 15.1763 11.9642 15.1772 11.9448 15.1782ZM11.9663 7.11287C11.2282 7.12167 10.5677 7.37085 10.022 7.85993C9.44304 8.36843 9.14424 9.03754 9.13433 9.81011C9.12907 10.2241 9.46058 10.5644 9.87456 10.5699C10.2887 10.5751 10.629 10.2438 10.6343 9.82964C10.6389 9.46779 10.7621 9.20581 11.0113 8.98687L11.0152 8.98297L11.0191 8.98004C11.2838 8.74137 11.5902 8.61928 11.9751 8.61285C12.3902 8.61924 12.7146 8.7405 12.9849 8.96246C13.2244 9.16358 13.358 9.42711 13.3648 9.82964C13.3594 10.0615 13.3127 10.1884 13.1138 10.524C13.0256 10.6728 12.871 10.7926 12.5708 10.9683C12.442 11.0437 12.2542 11.1485 12.0933 11.2564C11.9249 11.3693 11.7275 11.5225 11.5659 11.7368C11.4081 11.9463 11.3111 12.1609 11.2701 12.397C11.2371 12.5867 11.2463 12.7776 11.2495 12.8726V13.3316C11.2496 13.7456 11.5856 14.0813 11.9995 14.0815C12.4137 14.0815 12.7495 13.7457 12.7495 13.3316V12.8443C12.7473 12.7669 12.7454 12.7305 12.7456 12.6919C12.7457 12.679 12.7462 12.6696 12.7466 12.6636C12.7499 12.6582 12.7559 12.6501 12.7642 12.6392C12.7826 12.6148 12.8255 12.5704 12.9282 12.5015C13.0387 12.4274 13.1538 12.3651 13.3296 12.2622C13.6389 12.0811 14.1017 11.7981 14.4038 11.2886C14.6595 10.8573 14.8543 10.4635 14.8647 9.84233V9.82085C14.8551 9.01627 14.5551 8.31825 13.9419 7.8072L13.938 7.80329L13.8325 7.72028C13.2985 7.31873 12.6714 7.12083 11.9839 7.11287H11.9663Z" fill="#141518"/>
</svg>
