<svg width="24" height="24" viewBox="0 0 24 24" fill="none" xmlns="http://www.w3.org/2000/svg">
<path d="M18.5631 2.25574C20.3359 2.25574 21.7731 3.69296 21.7731 5.4658V16.269C21.7731 18.0419 20.3359 19.4791 18.5631 19.4791H15.0524L13.4408 21.1358C12.6516 21.9471 11.3484 21.9472 10.5592 21.1358L8.94754 19.4791H5.4369C3.66406 19.4791 2.22684 18.0419 2.22684 16.269V5.4658C2.22684 3.69296 3.66406 2.25574 5.4369 2.25574H18.5631ZM5.4369 3.87585C4.55876 3.87585 3.84695 4.58766 3.84695 5.4658V16.269C3.84695 17.1472 4.55876 17.8593 5.4369 17.8593H9.26424C9.4698 17.8593 9.66781 17.9319 9.82381 18.0629L9.88797 18.1226L11.7205 20.0064C11.8736 20.1638 12.1264 20.1638 12.2795 20.0064L14.112 18.1226L14.1762 18.0629C14.3322 17.9319 14.5302 17.8593 14.7357 17.8593H18.5631C19.4412 17.8593 20.153 17.1472 20.153 16.269V5.4658C20.153 4.58766 19.4412 3.87585 18.5631 3.87585H5.4369ZM11.4609 5.48279C12.0546 5.4828 12.6348 5.69878 13.0711 6.09919C13.5093 6.50145 13.768 7.06032 13.768 7.65691V8.08025H16.3125C16.5165 8.0803 16.7199 8.12012 16.9093 8.19861C17.0987 8.27715 17.2721 8.39383 17.4161 8.54373C17.5603 8.69382 17.6717 8.8742 17.7389 9.07459C17.8062 9.27497 17.8265 9.48788 17.7978 9.69802L17.1917 14.1511L17.1914 14.152C17.1416 14.5144 16.9514 14.8343 16.6749 15.0582C16.3997 15.281 16.0547 15.3973 15.706 15.3974H7.2451C6.94794 15.3974 6.67412 15.2699 6.48074 15.0617C6.289 14.8552 6.18927 14.5853 6.18924 14.3137V9.98074C6.18924 9.70909 6.28897 9.43902 6.48074 9.2325L6.51795 9.19441C6.70843 9.00886 6.96652 8.89675 7.2451 8.89675H9.19129L10.8551 5.84255L10.8788 5.80212C11.0048 5.60413 11.2241 5.48283 11.4609 5.48279ZM10.1297 10.0587V14.0176H15.7057L15.7377 14.0146C15.7675 14.0095 15.7912 13.9978 15.8062 13.9856C15.8157 13.978 15.8206 13.9713 15.8226 13.9677C15.8234 13.9665 15.8238 13.9655 15.8241 13.9648L16.4303 9.51316C16.4296 9.51157 16.4275 9.50659 16.4209 9.49968C16.4132 9.49171 16.4003 9.48141 16.3807 9.47332C16.3709 9.46926 16.36 9.46592 16.3485 9.46365L16.3122 9.46013H13.0781C12.6971 9.46006 12.3882 9.15122 12.3882 8.77019V7.65691C12.3881 7.4663 12.3059 7.27019 12.1377 7.1158C12.0524 7.03758 11.949 6.97407 11.8339 6.93035L10.1297 10.0587ZM7.56912 14.0176H8.74949V10.2766H7.56912V14.0176Z" fill="#141518"/>
</svg>
