<svg width="24" height="24" viewBox="0 0 24 24" fill="none" xmlns="http://www.w3.org/2000/svg">
<path d="M8.38278 3.11567C10.129 2.40714 12.0456 2.22866 13.8925 2.60297C15.7279 2.97496 17.4135 3.87683 18.7422 5.19574L19.9824 6.33051V3.38422C19.9824 2.93694 20.3457 2.57477 20.7929 2.57465C21.2401 2.57482 21.6025 2.93697 21.6025 3.38422V8.17231C21.6025 8.21014 21.5988 8.24718 21.5937 8.28363C21.5929 8.28952 21.5917 8.29534 21.5908 8.30121C21.5702 8.42904 21.5192 8.54555 21.4463 8.64594C21.4286 8.67017 21.4103 8.69459 21.3896 8.71723C21.3867 8.72045 21.3828 8.72285 21.3799 8.72602C21.3681 8.73844 21.3562 8.75049 21.3437 8.76215C21.3172 8.78694 21.2897 8.80995 21.2607 8.83051C21.1284 8.92462 20.9676 8.98181 20.7929 8.98188H16.0049C15.5578 8.98176 15.1955 8.61936 15.1953 8.17231C15.1953 7.72503 15.5576 7.36188 16.0049 7.36176H18.709L17.6484 6.39106L17.4111 6.16254C16.3382 5.16575 15.0093 4.48251 13.5703 4.19086C12.0356 3.8799 10.4432 4.02791 8.99216 4.61664C7.54106 5.20546 6.29524 6.20886 5.4111 7.50141C4.52708 8.79388 4.04325 10.3185 4.02048 11.8842C3.99781 13.45 4.43697 14.9885 5.28317 16.3061C6.12947 17.6237 7.34585 18.6628 8.77926 19.2934C10.2127 19.924 11.8005 20.1184 13.3437 19.852C14.8868 19.5856 16.3171 18.87 17.456 17.7954C17.7814 17.4883 18.2945 17.5032 18.6015 17.8286C18.9085 18.1539 18.8937 18.6671 18.5683 18.9741C17.1978 20.2672 15.476 21.1281 13.6191 21.4487C11.7622 21.7692 9.85174 21.5356 8.12692 20.7768C6.40202 20.018 4.93925 18.7667 3.92087 17.1811C2.90259 15.5956 2.37406 13.7449 2.40133 11.8608C2.42872 9.97679 3.0105 8.14258 4.07419 6.58735C5.13805 5.03203 6.63672 3.82422 8.38278 3.11567Z" fill="#141518"/>
</svg>
