<svg width="24" height="24" viewBox="0 0 24 24" fill="none" xmlns="http://www.w3.org/2000/svg">
<path d="M19.954 12.7991H19.9604C19.9629 12.7991 19.9653 12.7994 19.9678 12.7994C19.9909 12.7996 20.0141 12.8005 20.0372 12.8027C20.0437 12.8033 20.0501 12.8042 20.0565 12.805C20.0767 12.8074 20.0967 12.8105 20.1166 12.8144C20.1237 12.8158 20.1307 12.8175 20.1377 12.8191C20.1558 12.8231 20.1738 12.8275 20.1916 12.8328C20.2003 12.8354 20.2088 12.8385 20.2174 12.8413C20.234 12.8469 20.2505 12.8528 20.2669 12.8595C20.2743 12.8625 20.2816 12.8656 20.2889 12.8689C20.3061 12.8765 20.3233 12.8845 20.3401 12.8935C20.3455 12.8963 20.3507 12.8996 20.3559 12.9026C20.374 12.9127 20.3918 12.9234 20.4093 12.9351C20.4127 12.9373 20.4159 12.9398 20.4192 12.9421C20.4368 12.9542 20.454 12.9668 20.4708 12.9805C20.4752 12.9841 20.4794 12.9879 20.4837 12.9916C20.496 13.0021 20.5088 13.0122 20.5206 13.0235C20.5244 13.0272 20.5277 13.0315 20.5314 13.0353C20.5337 13.0375 20.536 13.0397 20.5382 13.042C20.5542 13.0583 20.5695 13.0748 20.5839 13.0921C20.5865 13.0952 20.5887 13.0986 20.5912 13.1018C20.6558 13.1819 20.7032 13.2713 20.7327 13.3654C20.7351 13.373 20.7367 13.3807 20.7389 13.3883C20.744 13.4064 20.7491 13.4244 20.7529 13.4428C20.7547 13.4515 20.7558 13.4604 20.7573 13.4692C20.7602 13.4859 20.7631 13.5027 20.7649 13.5195C20.7661 13.5298 20.7665 13.5402 20.7673 13.5506C20.7685 13.568 20.7695 13.5853 20.7696 13.6027C20.7696 13.6049 20.7702 13.6071 20.7702 13.6092V18.435C20.7701 18.8822 20.4077 19.245 19.9604 19.245C19.5131 19.245 19.1505 18.8822 19.1504 18.435V15.6254L17.1875 17.6756C16.3216 18.632 15.2456 19.3397 14.0536 19.7229C12.853 20.1088 11.5815 20.1508 10.361 19.8439C9.14121 19.5371 8.02048 18.894 7.09999 17.9847C6.18002 17.0759 5.48925 15.9302 5.08437 14.6586C4.94868 14.2324 5.18404 13.7769 5.61025 13.6411C6.03645 13.5054 6.49194 13.7409 6.62773 14.167C6.95688 15.2008 7.51383 16.1163 8.23847 16.8321C8.96262 17.5475 9.82996 18.0397 10.7562 18.2727C11.6819 18.5054 12.6448 18.4739 13.5579 18.1804C14.4717 17.8866 15.3134 17.3373 16.0001 16.5737L16.0174 16.555L18.0626 14.4193H15.6184C15.171 14.4193 14.8084 14.0565 14.8083 13.6092C14.8083 13.1618 15.171 12.7991 15.6184 12.7991H19.9385C19.9436 12.799 19.9488 12.7992 19.954 12.7991ZM9.94648 4.27726C11.147 3.89134 12.4183 3.84938 13.6388 4.15627C14.8586 4.46302 15.9796 5.10587 16.9001 6.01515C17.8201 6.92395 18.5108 8.06989 18.9157 9.34152C19.0514 9.76775 18.8158 10.2233 18.3895 10.359C17.9633 10.4946 17.5078 10.2591 17.3721 9.83283C17.0429 8.79908 16.4862 7.88351 15.7616 7.16769C15.0375 6.45237 14.1701 5.9601 13.2438 5.72717C12.3182 5.4944 11.3553 5.52589 10.4422 5.81945C9.52828 6.11325 8.68646 6.66274 7.9997 7.42638C7.99407 7.43264 7.98824 7.43876 7.98242 7.44484L5.93661 9.58146H8.38173C8.82903 9.58151 9.19148 9.94422 9.1915 10.3915C9.19147 10.8388 8.82903 11.2015 8.38173 11.2016H4.03964C4.02854 11.2016 4.01753 11.2003 4.00654 11.1998C3.99461 11.1993 3.9827 11.1991 3.97079 11.1981C3.9554 11.1968 3.94023 11.1946 3.92509 11.1925C3.91393 11.1909 3.9028 11.1893 3.89169 11.1872C3.87578 11.1843 3.8601 11.1808 3.84453 11.177C3.83521 11.1747 3.82594 11.1723 3.81669 11.1696C3.80013 11.1649 3.78388 11.1596 3.76777 11.1538C3.75895 11.1507 3.75013 11.1476 3.7414 11.1442C3.7272 11.1385 3.7133 11.1324 3.69951 11.126C3.68811 11.1207 3.67671 11.1154 3.66552 11.1096C3.65418 11.1037 3.64314 11.0973 3.63212 11.0908C3.62061 11.0841 3.60909 11.0774 3.59785 11.07C3.58468 11.0614 3.57209 11.0521 3.55947 11.0428C3.55163 11.037 3.5437 11.0313 3.53603 11.0252C3.52213 11.0142 3.50873 11.0026 3.4956 10.9906C3.49035 10.9859 3.48464 10.9815 3.47949 10.9766C3.47754 10.9747 3.47584 10.9726 3.47392 10.9707C3.46012 10.9572 3.44718 10.943 3.43437 10.9285C3.42986 10.9235 3.42496 10.9188 3.4206 10.9136C3.40879 10.8996 3.39776 10.885 3.38691 10.8702C3.38135 10.8627 3.37547 10.8554 3.37021 10.8477C3.36321 10.8374 3.35711 10.8266 3.35058 10.816C3.34305 10.8038 3.33514 10.7919 3.32831 10.7794C3.32202 10.7679 3.31677 10.7558 3.31103 10.744C3.30564 10.7328 3.29977 10.7219 3.29492 10.7106C3.27705 10.6689 3.26317 10.6254 3.25244 10.5805C3.25089 10.574 3.24884 10.5677 3.24745 10.5611C3.24409 10.5453 3.24198 10.5292 3.23954 10.5131C3.23796 10.5026 3.23574 10.4923 3.23456 10.4818C3.23303 10.4679 3.23276 10.4539 3.23193 10.4399C3.23116 10.4271 3.23004 10.4143 3.22988 10.4015C3.22984 10.3982 3.22958 10.3948 3.22958 10.3915V5.56574C3.2296 5.11841 3.5923 4.75568 4.03964 4.75568C4.48698 4.75568 4.84968 5.11841 4.8497 5.56574V8.37384L6.8123 6.32453C7.67817 5.36802 8.75443 4.66048 9.94648 4.27726Z" fill="#141518"/>
</svg>
