<svg width="24" height="24" viewBox="0 0 24 24" fill="none" xmlns="http://www.w3.org/2000/svg">
<path d="M8.42943 4.54409C9.89461 3.94969 11.5028 3.80039 13.0525 4.1144C14.5905 4.42615 16.0036 5.18107 17.1179 6.28531L19.1951 8.1857V6.08023C19.1951 5.63299 19.5584 5.27083 20.0056 5.27066C20.4527 5.27091 20.8152 5.63303 20.8152 6.08023V10.0275C20.8151 10.065 20.8113 10.1017 20.8064 10.1379C20.8049 10.1489 20.8035 10.16 20.8015 10.1711C20.7997 10.1809 20.7978 10.1906 20.7956 10.2004C20.7919 10.2174 20.7878 10.2343 20.7829 10.2511C20.7804 10.26 20.778 10.2688 20.7751 10.2775C20.7695 10.2947 20.7624 10.3114 20.7556 10.3283C20.7526 10.3358 20.75 10.3434 20.7468 10.3507C20.7402 10.3659 20.7329 10.3808 20.7253 10.3957C20.7213 10.4035 20.7179 10.4115 20.7136 10.4191C20.7061 10.4327 20.6976 10.4459 20.6892 10.4591C20.6831 10.4687 20.6771 10.4782 20.6706 10.4875C20.6501 10.517 20.6282 10.5461 20.6033 10.5734C20.5973 10.5799 20.5899 10.5857 20.5837 10.592C20.5787 10.5971 20.5732 10.6016 20.5681 10.6066C20.536 10.6378 20.5023 10.6657 20.4665 10.6906C20.455 10.6986 20.4434 10.7066 20.4314 10.714C20.4213 10.7203 20.4114 10.7268 20.4011 10.7326C20.3911 10.7382 20.3811 10.744 20.3708 10.7492C20.3573 10.756 20.3437 10.7627 20.3298 10.7687C20.3186 10.7736 20.3071 10.778 20.2956 10.7824C20.2837 10.787 20.2716 10.7911 20.2595 10.7951C20.245 10.7999 20.2305 10.8048 20.2156 10.8088C20.2065 10.8112 20.1973 10.8125 20.1882 10.8146C20.1426 10.8252 20.0958 10.8317 20.0476 10.8341C20.0427 10.8344 20.0378 10.8349 20.0329 10.8351C20.024 10.8354 20.0147 10.8371 20.0056 10.8371H16.0583C15.6113 10.8369 15.2491 10.4745 15.2488 10.0275C15.2488 9.58026 15.6111 9.21713 16.0583 9.21695H17.9216L16.0242 7.48062C16.0155 7.4727 16.0071 7.46449 15.9988 7.45621C15.1058 6.56325 13.9689 5.95322 12.7312 5.7023C11.4936 5.45147 10.209 5.57045 9.03881 6.04507C7.86861 6.51988 6.86319 7.32995 6.15014 8.37222C5.4374 9.41439 5.04751 10.644 5.02904 11.9064C5.01074 13.1692 5.36511 14.4101 6.0476 15.4728C6.73015 16.5355 7.71085 17.3734 8.86693 17.882C10.0229 18.3905 11.3031 18.547 12.5476 18.3322C13.7921 18.1173 14.9465 17.5407 15.865 16.674C16.1903 16.3674 16.7026 16.3821 17.0095 16.7072C17.3164 17.0324 17.3013 17.5447 16.9763 17.8517C15.8263 18.9369 14.382 19.6597 12.824 19.9289C11.2656 20.1979 9.66211 20.0012 8.21459 19.3644C6.76711 18.7276 5.53891 17.6784 4.68432 16.3478C3.82992 15.0173 3.386 13.464 3.40893 11.883C3.432 10.302 3.92055 8.76225 4.81322 7.45718C5.70604 6.1521 6.9642 5.13862 8.42943 4.54409Z" fill="#141518"/>
</svg>
