<svg width="24" height="24" viewBox="0 0 24 24" fill="none" xmlns="http://www.w3.org/2000/svg">
<path d="M10.0938 7.82031C10.7159 7.82037 11.3324 7.94252 11.9072 8.18066C12.4816 8.41866 13.0037 8.76753 13.4434 9.20703L13.6104 9.38184C13.9886 9.79911 14.29 10.2813 14.499 10.8057C14.7379 11.4052 14.8509 12.0482 14.832 12.6934C14.8187 13.1401 14.4458 13.4914 13.999 13.4785C13.5519 13.4654 13.1998 13.0926 13.2129 12.6455C13.2253 12.2216 13.1511 11.7992 12.9941 11.4053C12.8372 11.0115 12.6002 10.6536 12.2998 10.3545L12.2988 10.3535C12.0094 10.064 11.6653 9.83449 11.2871 9.67773C10.9089 9.52103 10.5032 9.43951 10.0938 9.43945C9.68431 9.43945 9.27867 9.52106 8.90039 9.67773C8.56942 9.81485 8.2649 10.008 8 10.248L7.88867 10.3535L4.96289 13.2793C4.37875 13.8634 4.04968 14.6554 4.04883 15.4814C4.04808 16.3077 4.37572 17.1012 4.95899 17.6865C5.24833 17.9767 5.59232 18.207 5.97071 18.3643C6.34912 18.5215 6.75527 18.6032 7.16504 18.6035C7.57492 18.6038 7.98161 18.5229 8.36035 18.3662C8.73903 18.2095 9.08325 17.9793 9.37305 17.6895L10.3008 16.7627C10.6171 16.4468 11.1301 16.4465 11.4463 16.7627C11.762 17.0789 11.7621 17.592 11.4463 17.9082L10.5186 18.835C10.0782 19.2753 9.55492 19.6251 8.97949 19.8633C8.40406 20.1013 7.7868 20.2241 7.16406 20.2236C6.54138 20.2231 5.92465 20.0992 5.34961 19.8604C4.77445 19.6213 4.25129 19.2712 3.81153 18.8301C2.92534 17.9408 2.42858 16.7359 2.42969 15.4805C2.43083 14.2251 2.92971 13.0215 3.81738 12.1338L6.74317 9.20801C7.18308 8.76808 7.7055 8.41879 8.28028 8.18066C8.8551 7.94258 9.47156 7.82031 10.0938 7.82031ZM16.833 3.77734C17.4551 3.77743 18.0718 3.89959 18.6465 4.1377C19.2212 4.37589 19.7437 4.72506 20.1836 5.16504L20.3438 5.33398C20.7086 5.73655 21.0025 6.19915 21.2109 6.70215C21.4491 7.277 21.5713 7.8934 21.5713 8.51562C21.5713 9.13782 21.449 9.75427 21.2109 10.3291C20.9728 10.9038 20.6235 11.4263 20.1836 11.8662L17.2578 14.792C16.8174 15.2324 16.2943 15.5821 15.7188 15.8203C15.1433 16.0584 14.5261 16.1811 13.9033 16.1807C13.2804 16.1802 12.6631 16.0564 12.0879 15.8174C11.5129 15.5784 10.9905 15.2281 10.5508 14.7871V14.7861C10.0959 14.3311 9.73857 13.7883 9.50098 13.1904C9.26322 12.592 9.15019 11.9513 9.16895 11.3076C9.18202 10.8605 9.5548 10.5084 10.002 10.5215C10.4489 10.5348 10.8011 10.9075 10.7881 11.3545C10.7757 11.7775 10.8497 12.1985 11.0059 12.5918C11.1427 12.9361 11.3401 13.2531 11.5879 13.5273L11.6973 13.6426L11.6982 13.6436C11.9876 13.9337 12.3316 14.164 12.71 14.3213C13.0885 14.4785 13.4944 14.5602 13.9043 14.5605C14.3142 14.5608 14.7208 14.48 15.0996 14.3232C15.4783 14.1665 15.8225 13.9363 16.1123 13.6465L19.0381 10.7207C19.3276 10.4312 19.5572 10.0872 19.7139 9.70898C19.8706 9.3307 19.9512 8.92508 19.9512 8.51562C19.9511 8.10618 19.8706 7.70054 19.7139 7.32227C19.5767 6.99132 19.3836 6.68675 19.1436 6.42188L19.0381 6.31055C18.7487 6.02108 18.4045 5.79151 18.0264 5.63477C17.6482 5.4781 17.2423 5.39657 16.833 5.39648C16.4236 5.39648 16.0179 5.47815 15.6397 5.63477C15.2614 5.79146 14.9174 6.02108 14.6279 6.31055H14.627L13.7002 7.2373C13.3839 7.55345 12.871 7.55343 12.5547 7.2373C12.2386 6.921 12.2386 6.40805 12.5547 6.0918L13.4814 5.16504C13.9214 4.725 14.4447 4.37586 15.0195 4.1377C15.5943 3.89967 16.2109 3.77734 16.833 3.77734Z" fill="#141518"/>
</svg>
