<svg width="24" height="24" viewBox="0 0 24 24" fill="none" xmlns="http://www.w3.org/2000/svg">
<path d="M18.464 11.7619C18.7803 11.446 19.2933 11.4459 19.6095 11.7619C19.9258 12.0782 19.9258 12.5921 19.6095 12.9084L12.9083 19.6096C12.592 19.9259 12.0782 19.9258 11.7618 19.6096C11.4458 19.2933 11.4459 18.7803 11.7618 18.4641L18.464 11.7619ZM17.1232 4.38983C17.4393 4.07395 17.9524 4.0742 18.2687 4.38983C18.585 4.70616 18.585 5.21999 18.2687 5.53632L5.53626 18.2687C5.21993 18.5851 4.7061 18.5851 4.38977 18.2687C4.07414 17.9524 4.07389 17.4394 4.38977 17.1232L17.1232 4.38983Z" fill="#141518"/>
</svg>
