<svg width="24" height="24" viewBox="0 0 24 24" fill="none" xmlns="http://www.w3.org/2000/svg">
<path d="M8.48666 17.8996C8.77944 17.6068 9.25429 17.6071 9.54721 17.8996C9.8399 18.1925 9.84003 18.6673 9.54721 18.9601L8.40366 20.1037C8.11082 20.3964 7.63597 20.3963 7.34311 20.1037C7.05061 19.8108 7.05047 19.3359 7.34311 19.0432L8.48666 17.8996ZM6.77182 16.1848C7.06471 15.8919 7.53947 15.8919 7.83237 16.1848C8.12506 16.4777 8.12519 16.9525 7.83237 17.2453L5.54526 19.5324C5.25241 19.825 4.77754 19.825 4.48471 19.5324C4.1919 19.2396 4.19205 18.7648 4.48471 18.4719L6.77182 16.1848ZM18.4056 3.30096C19.7472 3.12628 20.8574 4.23753 20.682 5.57928C20.4582 7.28971 19.8387 10.2594 18.0472 12.1916C17.5199 12.7601 16.89 13.2853 16.2415 13.757L16.5033 15.3986C16.533 15.5856 16.4732 15.7756 16.3412 15.9113L16.1244 16.133C16.081 16.191 16.0356 16.248 15.9837 16.3L15.2308 17.0519L13.2914 19.0461C12.946 19.4011 12.3785 19.4102 12.0218 19.0666L11.6966 18.7531C11.3799 18.5254 11.1432 18.1762 11.0794 17.7307L10.7923 15.718C10.6207 15.62 10.4595 15.5002 10.3167 15.3576L8.62631 13.6672C8.4834 13.5241 8.36303 13.3627 8.26498 13.1906L8.25131 13.1887L8.24448 13.1965L6.13998 12.8976C5.87977 12.8606 5.63896 12.7391 5.45444 12.5519L4.92514 12.0148C4.57755 11.6621 4.58011 11.0947 4.931 10.7453L6.72495 8.95917L7.68393 8.00018C7.697 7.98712 7.71147 7.97561 7.72495 7.96307L8.03061 7.65936C8.16479 7.52582 8.35504 7.46377 8.54233 7.49139L10.224 7.73944C10.6955 7.09121 11.2231 6.46288 11.7914 5.93573C13.7237 4.14377 16.6954 3.52466 18.4056 3.30096ZM5.056 14.4689C5.34889 14.176 5.82463 14.176 6.11752 14.4689C6.41022 14.7617 6.40995 15.2366 6.11752 15.5295L4.97397 16.673C4.68107 16.9659 4.20532 16.9659 3.91245 16.673C3.62004 16.3802 3.61984 15.9052 3.91245 15.6125L5.056 14.4689ZM15.931 8.08612C15.2704 7.42548 14.1991 7.42553 13.5384 8.08612C12.878 8.74681 12.8778 9.81811 13.5384 10.4787C14.199 11.1389 15.2704 11.139 15.931 10.4787C16.5915 9.81815 16.5913 8.74679 15.931 8.08612Z" fill="#141518"/>
</svg>
