<svg width="24" height="24" viewBox="0 0 24 24" fill="none" xmlns="http://www.w3.org/2000/svg">
<path d="M19.1572 3.30859C19.5117 3.30866 19.8537 3.43241 20.125 3.65527L20.2363 3.75684L20.3379 3.86914C20.5597 4.14077 20.6826 4.4824 20.6826 4.83594V19.1758C20.6825 19.58 20.5221 19.9685 20.2363 20.2549C19.9505 20.5413 19.5622 20.703 19.1572 20.7031H4.84961C4.44464 20.7031 4.05543 20.5412 3.76953 20.2549C3.4839 19.9685 3.32436 19.5799 3.32422 19.1758V8C3.32449 7.59634 3.4844 7.20903 3.76953 6.92285V6.92188L6.92773 3.75684H6.92871C7.04435 3.64107 7.17687 3.54608 7.32031 3.47363C7.34801 3.45838 7.37669 3.4446 7.40625 3.43262C7.59413 3.35202 7.79837 3.30869 8.00684 3.30859H19.1572ZM17.1055 7.7041C17.1055 8.1084 16.9449 8.49673 16.6592 8.7832C16.3734 9.06954 15.985 9.23135 15.5801 9.23145H8.42676C8.0217 9.23145 7.63259 9.06965 7.34668 8.7832C7.06093 8.49673 6.90138 8.1084 6.90137 7.7041V6.07617L4.94336 8.03809V19.083H19.0625V4.92871H17.1055V7.7041ZM12.0029 10.4795C14.0323 10.4796 15.6748 12.1277 15.6748 14.1572C15.6747 16.1866 14.0322 17.8348 12.0029 17.835C9.97368 17.8348 8.33216 16.1866 8.33203 14.1572C8.33203 12.1277 9.9736 10.4796 12.0029 10.4795ZM12.0029 12.0986C10.8717 12.0988 9.95117 13.0191 9.95117 14.1572C9.9513 15.2953 10.8718 16.2147 12.0029 16.2148C13.1341 16.2147 14.0546 15.2953 14.0547 14.1572C14.0547 13.0191 13.1342 12.0988 12.0029 12.0986ZM8.52051 7.61133H15.4854V4.92871H8.52051V7.61133Z" fill="#141518"/>
</svg>
