<svg width="24" height="24" viewBox="0 0 24 24" fill="none" xmlns="http://www.w3.org/2000/svg">
<path d="M10.7819 2.90576C15.1318 2.90576 18.6583 6.43203 18.6584 10.7819L18.6558 10.9853C18.6101 12.7894 17.9574 14.4427 16.8947 15.7489L20.5226 19.3771C20.8389 19.6934 20.8389 20.2062 20.5226 20.5226C20.2062 20.8389 19.6934 20.8389 19.3771 20.5226L15.7486 16.8944C14.3935 17.9969 12.6651 18.6584 10.7819 18.6584L10.5786 18.6558C6.32268 18.5479 2.90576 15.0639 2.90576 10.7819C2.90582 6.43207 6.43207 2.90582 10.7819 2.90576ZM10.7819 4.52588C7.32677 4.52594 4.52594 7.32677 4.52588 10.7819C4.52588 14.2371 7.32673 17.0382 10.7819 17.0383C14.2372 17.0383 17.0383 14.2372 17.0383 10.7819C17.0382 7.32673 14.2371 4.52588 10.7819 4.52588Z" fill="#141518"/>
</svg>
