<svg width="24" height="24" viewBox="0 0 24 24" fill="none" xmlns="http://www.w3.org/2000/svg">
<path d="M5.53367 3.23252C5.7496 3.22823 5.96378 3.27328 6.15975 3.36406L6.25613 3.41328L6.26229 3.4165L19.1178 10.7513H19.1175C19.308 10.8585 19.4709 11.0079 19.5938 11.1878L19.6451 11.2681L19.6905 11.3516C19.7899 11.5493 19.842 11.768 19.842 11.9902C19.842 12.2443 19.7741 12.4939 19.6451 12.7127C19.518 12.9282 19.3359 13.1058 19.1181 13.2286L19.1183 13.2292L6.26287 20.5818C6.26143 20.5827 6.25993 20.5836 6.25848 20.5845C6.00514 20.7272 5.71386 20.7889 5.4244 20.7611C5.13498 20.7333 4.86081 20.6175 4.63924 20.4292C4.41774 20.2409 4.25927 19.9893 4.18514 19.7082C4.11273 19.4335 4.1248 19.1437 4.21854 18.8759H4.21795L6.54149 11.9973L4.21795 5.11924L4.21854 5.11894C4.12556 4.85005 4.11461 4.5595 4.18865 4.28457L4.22088 4.18115C4.30472 3.94358 4.45055 3.73174 4.64393 3.56826L4.72918 3.50176C4.93338 3.35424 5.17382 3.26323 5.42586 3.23896L5.53367 3.23252ZM7.97791 11.1872H12.2939C12.7413 11.1872 13.104 11.5499 13.104 11.9973C13.104 12.4446 12.7412 12.8073 12.2939 12.8073H7.97791L5.91483 18.9145L18.0209 11.9905L5.916 5.08408L7.97791 11.1872Z" fill="#141518"/>
</svg>
