<svg width="24" height="24" viewBox="0 0 24 24" fill="none" xmlns="http://www.w3.org/2000/svg">
<path d="M19.5 12.6904C20.3616 12.6904 21.0596 13.3884 21.0596 14.25V18.75C21.0596 19.6116 20.3616 20.3096 19.5 20.3096H4.5C3.63844 20.3096 2.94043 19.6116 2.94043 18.75V14.25C2.94043 13.3884 3.63844 12.6904 4.5 12.6904H19.5ZM4.55957 18.6904H19.4404V14.3096H4.55957V18.6904ZM16.875 15.375C17.4963 15.375 18 15.8787 18 16.5C18 17.1213 17.4963 17.625 16.875 17.625C16.2537 17.625 15.75 17.1213 15.75 16.5C15.75 15.8787 16.2537 15.375 16.875 15.375ZM19.5 3.69043C20.3616 3.69043 21.0596 4.38844 21.0596 5.25V9.75C21.0596 10.6116 20.3616 11.3096 19.5 11.3096H4.5C3.63844 11.3096 2.94043 10.6116 2.94043 9.75V5.25C2.94043 4.38844 3.63844 3.69043 4.5 3.69043H19.5ZM4.55957 9.69043H19.4404V5.30957H4.55957V9.69043ZM16.875 6.375C17.4963 6.375 18 6.87868 18 7.5C18 8.12132 17.4963 8.625 16.875 8.625C16.2537 8.625 15.75 8.12132 15.75 7.5C15.75 6.87868 16.2537 6.375 16.875 6.375Z" fill="#141518"/>
</svg>
