<svg width="24" height="24" viewBox="0 0 24 24" fill="none" xmlns="http://www.w3.org/2000/svg">
<path d="M7.13574 2.50115C7.42841 2.46638 7.72455 2.51514 7.98926 2.6408L8.10156 2.69939L8.20801 2.76677C8.4452 2.93087 8.63267 3.1585 8.74902 3.424L10.7305 7.8488L10.7354 7.8615C10.8365 8.09776 10.8778 8.35548 10.8555 8.6115C10.833 8.86756 10.7471 9.11416 10.6064 9.32927C10.5888 9.35629 10.5696 9.38268 10.5488 9.4074L8.62695 11.6916C9.3233 13.0828 10.7866 14.5297 12.1865 15.2219L14.4385 13.3078C14.4626 13.2873 14.4883 13.2687 14.5146 13.2511C14.7306 13.1075 14.979 13.0198 15.2373 12.9963L15.4316 12.9904C15.5606 12.9948 15.6886 13.0151 15.8125 13.051L15.9951 13.1164L16.0059 13.1213L20.4277 15.1027H20.4268C20.6924 15.219 20.9198 15.4064 21.084 15.6437L21.1514 15.7502L21.21 15.8615C21.3359 16.1263 21.3853 16.4222 21.3506 16.715L21.3486 16.7267C21.177 18.0097 20.5456 19.1871 19.5713 20.0392C18.597 20.8912 17.346 21.3594 16.0518 21.3586V21.3595C12.4555 21.3595 9.00684 19.9307 6.46387 17.3879C4.00031 14.9243 2.5822 11.6103 2.4961 8.13591L2.49219 7.79998C2.4913 6.50561 2.96047 5.25484 3.8125 4.28044C4.66455 3.30618 5.84118 2.67385 7.12402 2.50212L7.13574 2.50115ZM7.2832 4.11541C6.41111 4.24559 5.61251 4.68217 5.03125 5.34685C4.43775 6.02569 4.11068 6.8973 4.11133 7.799V7.79998C4.11143 10.9665 5.37034 14.0033 7.60938 16.2424C9.84854 18.4814 12.8852 19.7394 16.0518 19.7394H16.0527C16.9545 19.74 17.8261 19.4131 18.5049 18.8195C19.1697 18.238 19.6045 17.4391 19.7344 16.5666L15.3936 14.6222L13.1416 16.5383C13.1188 16.5576 13.0951 16.5762 13.0703 16.5929C12.8467 16.7439 12.5873 16.8333 12.3184 16.8537C12.0492 16.874 11.779 16.824 11.5352 16.7082L11.5312 16.7062C9.77784 15.8605 8.0036 14.1083 7.14746 12.3556L7.14453 12.3508C7.02835 12.1084 6.97658 11.8396 6.99512 11.5715C7.01374 11.3035 7.10161 11.0444 7.25 10.8205C7.26694 10.795 7.28595 10.7707 7.30567 10.7472L9.22852 8.45916L7.2832 4.11541ZM13.0156 6.84099C13.1312 6.40901 13.5748 6.15247 14.0068 6.26775C15.8353 6.75697 17.0909 8.01248 17.5801 9.84099C17.6954 10.273 17.4389 10.7166 17.0068 10.8322C16.5749 10.9474 16.1312 10.6908 16.0156 10.259C15.6761 8.99022 14.8576 8.17175 13.5889 7.8322C13.157 7.71653 12.9004 7.2729 13.0156 6.84099ZM13.7646 3.84392C13.8785 3.41153 14.3215 3.15327 14.7539 3.26677C16.1539 3.63543 17.4314 4.36913 18.4551 5.39275C19.4788 6.41646 20.2124 7.69391 20.5811 9.09392C20.6949 9.52647 20.4364 9.96927 20.0039 10.0832C19.5715 10.1967 19.1285 9.93842 19.0146 9.50603C18.719 8.38337 18.1305 7.35917 17.3096 6.53826C16.4887 5.71744 15.4644 5.12883 14.3418 4.83318C13.9096 4.7191 13.651 4.27628 13.7646 3.84392Z" fill="#1F2025"/>
</svg>
