<svg width="24" height="24" viewBox="0 0 24 24" fill="none" xmlns="http://www.w3.org/2000/svg">
<path d="M3.33105 13.97C3.75976 13.8422 4.21105 14.0862 4.33887 14.5149C4.78466 16.01 5.67747 17.3332 6.89648 18.3069C8.11541 19.2804 9.60269 19.8587 11.1592 19.9631C12.7157 20.0675 14.2675 19.693 15.6055 18.8909C16.6688 18.2533 17.5563 17.3685 18.1982 16.3186H17.9844C17.5869 16.3186 17.2639 15.9963 17.2637 15.5989C17.2638 15.2013 17.5868 14.8782 17.9844 14.8782H20.3018C20.6992 14.8784 21.0214 15.2015 21.0215 15.5989V17.9163C21.0215 18.3138 20.6992 18.6358 20.3018 18.636C19.9041 18.636 19.582 18.3139 19.582 17.9163V17.1604C18.8043 18.4336 17.7286 19.5064 16.4395 20.2796C14.818 21.2518 12.9371 21.7058 11.0508 21.5794C9.16458 21.4528 7.36185 20.7524 5.88477 19.5725C4.40771 18.3926 3.32629 16.7894 2.78613 14.9778C2.65835 14.5492 2.90252 14.0979 3.33105 13.97ZM12.126 7.17702C12.2095 7.18754 12.2918 7.20768 12.3701 7.23854L12.4844 7.29225L15.9893 9.2112L16.1025 9.28346C16.1749 9.33669 16.2401 9.39956 16.2959 9.46999L16.3721 9.58131L16.3936 9.62428C16.3955 9.62771 16.3985 9.63057 16.4004 9.63405C16.4041 9.64079 16.4057 9.64872 16.4092 9.65553L16.4326 9.70143C16.4852 9.8251 16.5134 9.95873 16.5137 10.094V13.9065C16.5131 14.0869 16.4642 14.2642 16.3721 14.4192C16.3029 14.5356 16.2109 14.6364 16.1025 14.7161L15.9893 14.7883L12.4844 16.7073C12.3423 16.785 12.1832 16.8259 12.0215 16.8294C12.0143 16.8296 12.0072 16.8323 12 16.8323C11.9925 16.8323 11.985 16.8296 11.9775 16.8294C11.8162 16.8258 11.6574 16.7848 11.5156 16.7073L8.01074 14.7883L8.01172 14.7874C7.85347 14.7007 7.72015 14.5742 7.62793 14.4192C7.53582 14.2642 7.48686 14.0868 7.48633 13.9065V10.094C7.48667 9.94243 7.52218 9.79334 7.58789 9.65749C7.59171 9.64984 7.5945 9.64161 7.59863 9.63405C7.6012 9.62935 7.60476 9.62499 7.60742 9.62038C7.61436 9.60742 7.62041 9.59398 7.62793 9.58131L7.70508 9.46999C7.78861 9.36455 7.89292 9.2762 8.01172 9.2112H8.01074L11.5156 7.29225L11.6309 7.23854C11.748 7.19246 11.8733 7.16825 12 7.16823L12.126 7.17702ZM8.86719 13.6839L11.3096 15.0208V12.4514L8.86719 11.1145V13.6839ZM12.6904 12.4505V15.0198L15.1338 13.6829V11.1135L12.6904 12.4505ZM6.94238 4.12526C8.79981 2.79945 11.0814 2.20512 13.3496 2.45631C15.6177 2.70758 17.7141 3.78654 19.2363 5.48659C20.7584 7.18669 21.5995 9.38924 21.5996 11.6712C21.5995 12.1184 21.2373 12.4807 20.79 12.4807C20.3428 12.4807 19.9806 12.1184 19.9805 11.6712C19.9804 9.7879 19.2855 7.96971 18.0293 6.56666C16.773 5.1637 15.0427 4.273 13.1709 4.06569C11.2992 3.85845 9.41658 4.34961 7.88379 5.44362C6.57679 6.3766 5.60414 7.69372 5.08984 9.20045H5.375C5.77245 9.20052 6.09548 9.52277 6.0957 9.92018C6.09555 10.3177 5.7725 10.6408 5.375 10.6409H3.05762C2.66007 10.6409 2.33804 10.3177 2.33789 9.92018V7.6028C2.33789 7.20515 2.65997 6.88307 3.05762 6.88307C3.45521 6.88314 3.77734 7.20519 3.77734 7.6028V8.09303C4.43913 6.51181 5.52996 5.13352 6.94238 4.12526ZM9.57422 9.92799L11.999 11.2551L14.4238 9.92799L12 8.60084L9.57422 9.92799Z" fill="#141518"/>
</svg>
