<svg width="24" height="24" viewBox="0 0 24 24" fill="none" xmlns="http://www.w3.org/2000/svg">
<path d="M16.679 3.30011C18.4016 3.30033 19.7981 4.69755 19.7981 6.42023C19.7979 8.14271 18.4014 9.53914 16.679 9.53937C15.863 9.53927 15.1226 9.22318 14.5667 8.71027L10.3313 11.1839C10.4017 11.4442 10.4407 11.7177 10.4407 12.0003C10.4406 12.2854 10.401 12.5612 10.3293 12.8235L14.5579 15.2816C15.1147 14.7642 15.8592 14.4457 16.679 14.4456C18.4014 14.4458 19.7979 15.8433 19.7981 17.5657C19.7979 19.2882 18.4014 20.6847 16.679 20.6849C14.9564 20.6847 13.5591 19.2882 13.5588 17.5657C13.5589 17.2481 13.6063 16.9414 13.6946 16.6526L9.50806 14.221C8.94502 14.7754 8.17408 15.1193 7.32153 15.1194C5.59886 15.1194 4.20164 13.7229 4.20142 12.0003C4.20142 10.2775 5.59872 8.88019 7.32153 8.88019C8.17749 8.8803 8.95227 9.226 9.51587 9.78448L13.6975 7.3421C13.6074 7.05077 13.5589 6.74111 13.5588 6.42023C13.5588 4.69753 14.9563 3.30031 16.679 3.30011ZM16.679 16.0062C15.818 16.0064 15.1196 16.7048 15.1194 17.5657C15.1196 18.4267 15.818 19.1241 16.679 19.1243C17.5399 19.1241 18.2373 18.4267 18.2375 17.5657C18.2373 16.7048 17.5399 16.0064 16.679 16.0062ZM7.32153 10.4407C6.46028 10.4407 5.76196 11.1391 5.76196 12.0003C5.76219 12.8614 6.46042 13.5589 7.32153 13.5589C8.18246 13.5587 8.8799 12.8612 8.88013 12.0003C8.88013 11.1392 8.18259 10.441 7.32153 10.4407ZM16.679 4.86066C15.8179 4.86085 15.1194 5.5591 15.1194 6.42023C15.1196 7.28117 15.818 7.97862 16.679 7.97882C17.5399 7.9786 18.2373 7.28115 18.2375 6.42023C18.2375 5.55911 17.54 4.86088 16.679 4.86066Z" fill="#141518"/>
</svg>
