<svg width="24" height="24" viewBox="0 0 24 24" fill="none" xmlns="http://www.w3.org/2000/svg">
<path d="M9.05859 13.7891C9.37508 13.4733 9.88806 13.4738 10.2041 13.79C10.52 14.1065 10.5193 14.6194 10.2031 14.9355L6.06055 19.0742H8.84082C9.28801 19.0744 9.65129 19.4366 9.65137 19.8838C9.65137 20.3311 9.28806 20.6942 8.84082 20.6943H4.10352L4.10254 20.6934H4.10156C3.99848 20.6931 3.90017 20.674 3.80957 20.6387C3.80467 20.6368 3.79979 20.6348 3.79492 20.6328C3.75218 20.6152 3.71154 20.5937 3.67285 20.5693C3.62623 20.54 3.58212 20.5056 3.54102 20.4658C3.5344 20.4594 3.52788 20.4529 3.52148 20.4463C3.49071 20.4145 3.463 20.3809 3.43848 20.3457C3.43461 20.3401 3.43048 20.3348 3.42676 20.3291C3.36566 20.2364 3.32662 20.1339 3.30762 20.0283C3.29916 19.9814 3.29395 19.9332 3.29395 19.8838V15.1514C3.29395 14.704 3.65616 14.3418 4.10352 14.3418C4.55075 14.3419 4.91309 14.7041 4.91309 15.1514V17.9297L9.05859 13.7891ZM13.7949 13.79C14.1109 13.4737 14.6239 13.4734 14.9404 13.7891L19.0859 17.9297V15.1514C19.0859 14.7042 19.4484 14.3421 19.8955 14.3418C20.3429 14.3418 20.7061 14.704 20.7061 15.1514V19.8838C20.7061 19.9332 20.6999 19.9813 20.6914 20.0283C20.6905 20.0335 20.6905 20.0388 20.6895 20.0439C20.6715 20.1335 20.6376 20.2167 20.5928 20.293C20.5607 20.3475 20.5224 20.3989 20.4766 20.4463C20.4701 20.4529 20.4637 20.4594 20.457 20.4658C20.4114 20.5099 20.3619 20.5469 20.3096 20.5781C20.2756 20.5984 20.241 20.6176 20.2041 20.6328C20.1992 20.6348 20.1944 20.6368 20.1895 20.6387C20.0985 20.6741 19.9999 20.6932 19.8965 20.6934H19.8955V20.6943H15.1582C14.7109 20.6943 14.3486 20.3311 14.3486 19.8838C14.3487 19.4365 14.7109 19.0742 15.1582 19.0742H17.9385L13.7959 14.9355C13.4798 14.6194 13.4791 14.1064 13.7949 13.79ZM8.84082 3.29883C9.28806 3.29896 9.65137 3.66113 9.65137 4.1084C9.65137 4.55567 9.28806 4.91784 8.84082 4.91797H6.06055L10.2031 9.05664C10.5195 9.37269 10.52 9.88563 10.2041 10.2021C9.88802 10.5186 9.37511 10.5191 9.05859 10.2031L4.91309 6.06152V8.84082C4.91309 9.28809 4.55075 9.65124 4.10352 9.65137C3.65616 9.65137 3.29395 9.28817 3.29395 8.84082V4.1084C3.29395 4.04691 3.30149 3.98724 3.31445 3.92969C3.32453 3.88504 3.33678 3.8406 3.35449 3.79785C3.35795 3.78951 3.36248 3.78164 3.36621 3.77344C3.38333 3.73577 3.40357 3.69927 3.42676 3.66406C3.43178 3.65643 3.43712 3.64905 3.44238 3.6416C3.4684 3.60487 3.4974 3.56906 3.53027 3.53613C3.57685 3.48954 3.62778 3.44987 3.68164 3.41699C3.7174 3.39515 3.75481 3.37554 3.79395 3.35938C3.8029 3.35568 3.81223 3.35297 3.82129 3.34961C3.83649 3.34396 3.85157 3.33775 3.86719 3.33301C3.89735 3.32386 3.92814 3.31708 3.95898 3.31152C4.00525 3.30321 4.05291 3.29893 4.10156 3.29883H8.84082ZM19.8965 3.29883C19.9451 3.29889 19.9928 3.30326 20.0391 3.31152C20.0699 3.31704 20.1007 3.3239 20.1309 3.33301C20.1468 3.33782 20.1622 3.34386 20.1777 3.34961C20.1865 3.35286 20.1954 3.35581 20.2041 3.35938C20.2137 3.36332 20.223 3.36778 20.2324 3.37207C20.318 3.41115 20.3983 3.4657 20.4688 3.53613C20.5036 3.57107 20.5344 3.60924 20.5615 3.64844C20.564 3.65208 20.5669 3.6555 20.5693 3.65918C20.5751 3.66784 20.5805 3.67672 20.5859 3.68555C20.6617 3.80867 20.7061 3.95321 20.7061 4.1084V8.84082C20.7061 9.28817 20.3429 9.65137 19.8955 9.65137C19.4484 9.65111 19.0859 9.28801 19.0859 8.84082V6.06152L14.9404 10.2031C14.6239 10.519 14.111 10.5186 13.7949 10.2021C13.4792 9.88562 13.4796 9.37264 13.7959 9.05664L17.9385 4.91797H15.1582C14.7109 4.91797 14.3486 4.55575 14.3486 4.1084C14.3486 3.66105 14.7109 3.29883 15.1582 3.29883H19.8965Z" fill="#141518"/>
</svg>
