<svg width="24" height="24" viewBox="0 0 24 24" fill="none" xmlns="http://www.w3.org/2000/svg">
<path d="M12 2.40039C17.3015 2.40064 21.5994 6.69846 21.5996 12L21.5869 12.4941C21.3297 17.5662 17.1359 21.5994 12 21.5996L11.5068 21.5869C6.43448 21.33 2.40064 17.1361 2.40039 12C2.4006 6.69843 6.69843 2.4006 12 2.40039ZM12 4.02051C7.59312 4.02072 4.02072 7.59312 4.02051 12C4.02076 16.4068 7.59315 19.9793 12 19.9795C16.4068 19.9792 19.9792 16.4068 19.9795 12C19.9793 7.59315 16.4068 4.02076 12 4.02051ZM15.1895 13.7568C15.3969 13.3989 15.8556 13.2765 16.2139 13.4834C16.5724 13.6908 16.6946 14.1503 16.4873 14.5088C15.5774 16.0817 14.0115 17.1855 12 17.1855C9.98841 17.1855 8.42165 16.0818 7.51172 14.5088C7.3047 14.1504 7.42696 13.6908 7.78516 13.4834C8.14349 13.2761 8.60298 13.3988 8.81055 13.7568C9.49359 14.9378 10.6013 15.6855 12 15.6855C13.3987 15.6855 14.5064 14.9378 15.1895 13.7568ZM8.47656 8.95312C9.09702 8.95325 9.59957 9.45668 9.59961 10.0771C9.59961 10.6977 9.09704 11.201 8.47656 11.2012C7.85598 11.2012 7.35254 10.6977 7.35254 10.0771C7.35258 9.4566 7.856 8.95312 8.47656 8.95312ZM15.2686 8.95312C15.8891 8.95312 16.3925 9.4566 16.3926 10.0771C16.3926 10.6977 15.8891 11.2012 15.2686 11.2012C14.6481 11.201 14.1455 10.6976 14.1455 10.0771C14.1455 9.45672 14.6482 8.95333 15.2686 8.95312Z" fill="#141518"/>
</svg>
