<svg width="24" height="24" viewBox="0 0 24 24" fill="none" xmlns="http://www.w3.org/2000/svg">
<path d="M3.77979 16.2539C4.2271 16.2539 4.5893 16.6162 4.58936 17.0635V19.4404H6.96631C7.41366 19.4404 7.77686 19.8026 7.77686 20.25C7.77684 20.6973 7.41365 21.0596 6.96631 21.0596H4.07959C3.46672 21.0595 2.97034 20.5631 2.97021 19.9502V17.0635C2.97027 16.6162 3.33247 16.2539 3.77979 16.2539ZM19.52 2.94043C20.3535 2.94063 21.0295 3.61578 21.0298 4.44922V15.6445C21.0298 16.4782 20.3536 17.1541 19.52 17.1543H18.0288V19.9502C18.0287 20.5631 17.5323 21.0595 16.9194 21.0596H14.0327C13.5855 21.0595 13.2222 20.6973 13.2222 20.25C13.2222 19.8027 13.5854 19.4405 14.0327 19.4404H16.4097V17.1543H8.32471C7.49115 17.154 6.81592 16.4782 6.81592 15.6445V7.55957H4.58936V9.93652C4.5893 10.3838 4.2271 10.7461 3.77979 10.7461C3.33247 10.7461 2.97027 10.3838 2.97021 9.93652V7.0498C2.97034 6.43694 3.46672 5.94053 4.07959 5.94043H6.81592V4.44922C6.81617 3.61581 7.4913 2.94068 8.32471 2.94043H19.52ZM8.43506 15.5342H19.4097V4.55957H8.43506V15.5342ZM9.98975 11.2803C10.3872 11.2805 10.7095 11.6025 10.7095 12C10.7094 12.3974 10.3872 12.7195 9.98975 12.7197C9.59217 12.7197 9.26916 12.3975 9.26904 12C9.26904 11.6024 9.5921 11.2803 9.98975 11.2803ZM17.7563 11.2803C18.1539 11.2803 18.4761 11.6024 18.4761 12C18.4761 12.3976 18.1539 12.7197 17.7563 12.7197H12.1646C11.7669 12.7197 11.4448 12.3976 11.4448 12C11.4448 11.6024 11.7669 11.2803 12.1646 11.2803H17.7563ZM9.98975 7.2002C10.3871 7.20038 10.7093 7.52251 10.7095 7.91992C10.7095 8.31745 10.3872 8.64044 9.98975 8.64062C9.5921 8.64062 9.26904 8.31757 9.26904 7.91992C9.26919 7.5224 9.59219 7.2002 9.98975 7.2002ZM17.7563 7.2002C18.1539 7.20025 18.4761 7.52231 18.4761 7.91992C18.4761 8.31753 18.1539 8.63959 17.7563 8.63965H12.1646C11.7669 8.63962 11.4448 8.31755 11.4448 7.91992C11.4448 7.5223 11.7669 7.20023 12.1646 7.2002H17.7563Z" fill="#141518"/>
</svg>
