<svg width="24" height="24" viewBox="0 0 24 24" fill="none" xmlns="http://www.w3.org/2000/svg">
<path d="M4.11914 15.4756C4.56639 15.4756 4.92855 15.8379 4.92871 16.2852V19.0684H7.71191C8.15926 19.0684 8.52246 19.4306 8.52246 19.8779C8.52244 20.3253 8.15925 20.6875 7.71191 20.6875H4.41895C3.8061 20.6874 3.3097 20.191 3.30957 19.5781V16.2852C3.30974 15.838 3.67192 15.4756 4.11914 15.4756ZM19.8877 15.4756C20.3349 15.4756 20.6971 15.8379 20.6973 16.2852V19.5781C20.6971 20.191 20.2008 20.6874 19.5879 20.6875H16.2949C15.8476 20.6875 15.4844 20.3252 15.4844 19.8779C15.4844 19.4306 15.8476 19.0684 16.2949 19.0684H19.0781V16.2852C19.0783 15.838 19.4405 15.4756 19.8877 15.4756ZM12 8.26953C12.4471 8.26978 12.8096 8.63191 12.8096 9.0791V11.1982H14.916C15.3634 11.1982 15.7256 11.5614 15.7256 12.0088C15.7253 12.4559 15.3632 12.8184 14.916 12.8184H12.8096V14.9072C12.8096 15.3544 12.4471 15.7165 12 15.7168C11.5528 15.7166 11.1895 15.3544 11.1895 14.9072V12.8184H9.06934C8.62256 12.8179 8.26002 12.4556 8.25977 12.0088C8.25977 11.5617 8.62241 11.1987 9.06934 11.1982H11.1895V9.0791C11.1895 8.6319 11.5528 8.26976 12 8.26953ZM7.71191 3.31445C8.15925 3.31445 8.52244 3.67669 8.52246 4.12402C8.52246 4.57137 8.15926 4.93359 7.71191 4.93359H4.92871V7.7168C4.92855 8.16401 4.56639 8.52637 4.11914 8.52637C3.67192 8.52633 3.30974 8.16399 3.30957 7.7168V4.42383C3.3097 3.81099 3.8061 3.31459 4.41895 3.31445H7.71191ZM19.5879 3.31445C20.2008 3.31456 20.6971 3.81097 20.6973 4.42383V7.7168C20.6971 8.16401 20.3349 8.52637 19.8877 8.52637C19.4405 8.52633 19.0783 8.16399 19.0781 7.7168V4.93359H16.2949C15.8476 4.93356 15.4844 4.57135 15.4844 4.12402C15.4844 3.67671 15.8476 3.31449 16.2949 3.31445H19.5879Z" fill="#141518"/>
</svg>
