<svg width="24" height="24" viewBox="0 0 24 24" fill="none" xmlns="http://www.w3.org/2000/svg">
<path d="M18.3047 18.5977C19.1331 18.5977 19.8047 19.2692 19.8047 20.0977C19.8047 20.9261 19.1331 21.5977 18.3047 21.5977C17.715 21.5977 17.206 21.2567 16.9609 20.7617H13.3594C13.1143 21.2567 12.6054 21.5977 12.0156 21.5977C11.4259 21.5977 10.917 21.2567 10.6719 20.7617H7.04688C6.8018 21.2567 6.29286 21.5977 5.70312 21.5977C4.8747 21.5977 4.20312 20.9261 4.20312 20.0977C4.20312 19.2692 4.8747 18.5977 5.70312 18.5977C6.2843 18.5977 6.78707 18.9288 7.03613 19.4121H10.6826C10.9317 18.9288 11.4345 18.5977 12.0156 18.5977C12.5968 18.5977 13.0996 18.9288 13.3486 19.4121H16.9707C17.2197 18.9286 17.7234 18.5977 18.3047 18.5977Z" fill="#141518"/>
<path d="M12.0635 2.48828C13.3992 2.48828 14.6556 2.83933 15.7422 3.45508C16.1313 3.67557 16.2681 4.16944 16.0479 4.55859C15.8273 4.94779 15.3326 5.08482 14.9434 4.86426C14.094 4.38298 13.1119 4.10742 12.0635 4.10742C8.83255 4.10765 6.21302 6.72719 6.21289 9.95801C6.21289 13.1889 8.83247 15.8084 12.0635 15.8086C15.2947 15.8086 17.9141 13.1891 17.9141 9.95801C17.914 9.5268 17.8683 9.10731 17.7803 8.7041C17.6849 8.26705 17.9614 7.83468 18.3984 7.73926C18.8355 7.64391 19.2669 7.92138 19.3623 8.3584C19.475 8.87448 19.5342 9.40977 19.5342 9.95801C19.5342 14.0838 16.1893 17.4287 12.0635 17.4287C7.9378 17.4285 4.59375 14.0837 4.59375 9.95801C4.59388 5.83245 7.93788 2.48851 12.0635 2.48828Z" fill="#141518"/>
<path d="M18.1514 4.05664C18.4676 3.74066 18.9806 3.74165 19.2969 4.05762C19.613 4.37394 19.6131 4.88686 19.2969 5.20312L12.6367 11.8633C12.3205 12.1795 11.8076 12.1793 11.4912 11.8633L8.82715 9.19922C8.51123 8.88301 8.51035 8.36998 8.82617 8.05371C9.14238 7.73755 9.65534 7.73775 9.97168 8.05371L12.0635 10.1445L18.1514 4.05664Z" fill="#141518"/>
</svg>
