<svg width="24" height="24" viewBox="0 0 24 24" fill="none" xmlns="http://www.w3.org/2000/svg">
<path d="M10.385 3.39771C11.0579 2.06746 12.9421 2.06746 13.6151 3.39772L15.2303 6.5905C15.4937 7.1113 15.9881 7.47366 16.5605 7.56549L20.0697 8.1285C21.5318 8.36308 22.1141 10.1708 21.0679 11.2275L18.5569 13.7638C18.1474 14.1775 17.9585 14.7638 18.0488 15.3414L18.6024 18.8821C18.8331 20.3573 17.3087 21.4746 15.9892 20.7974L12.8222 19.1721C12.3056 18.907 11.6945 18.907 11.1779 19.1721L8.01084 20.7974C6.69131 21.4746 5.16695 20.3573 5.39761 18.8821L5.95122 15.3414C6.04152 14.7638 5.85268 14.1775 5.4431 13.7638L2.93216 11.2275C1.88599 10.1708 2.46824 8.36308 3.93032 8.1285L7.43951 7.56549C8.01192 7.47366 8.50631 7.1113 8.76977 6.5905L10.385 3.39771Z" fill="#141518"/>
</svg>
