<svg width="24" height="24" viewBox="0 0 24 24" fill="none" xmlns="http://www.w3.org/2000/svg">
<path d="M10.3849 3.39764C11.0579 2.06749 12.9422 2.06749 13.6152 3.39764L15.2303 6.59071C15.4938 7.11144 15.9883 7.47359 16.5607 7.56542L20.0698 8.1285C21.5318 8.36314 22.114 10.1708 21.068 11.2275L18.5569 13.7638L18.4828 13.8434C18.1249 14.2509 17.9643 14.7999 18.0489 15.3414L18.6024 18.8822C18.833 20.3574 17.3086 21.4745 15.9891 20.7974L12.8221 19.1723C12.3055 18.9072 11.6945 18.9072 11.178 19.1723L8.01097 20.7974L7.94886 20.8278C6.66482 21.4299 5.21725 20.369 5.38802 18.9511L5.39769 18.8822L5.95111 15.3414C6.04141 14.7638 5.85267 14.1775 5.4431 13.7638L2.93207 11.2275C1.88604 10.1708 2.46825 8.36314 3.93021 8.1285L7.43939 7.56542C7.97603 7.47932 8.44411 7.15551 8.71761 6.68622L8.76976 6.59071L10.3849 3.39764ZM12.1697 4.12918C12.0961 3.98388 11.9039 3.98388 11.8304 4.12918L10.2153 7.32196C9.71935 8.30215 8.78502 8.99031 7.69603 9.16503L4.18685 9.72811C4.1349 9.73647 4.10961 9.75345 4.09281 9.76854C4.07116 9.788 4.04747 9.82075 4.03275 9.86639C4.01803 9.9121 4.01748 9.95503 4.02455 9.98768C4.0303 10.0142 4.04318 10.0472 4.08344 10.0879L6.59447 12.6241C7.36779 13.4053 7.72125 14.5082 7.55189 15.5916L6.99818 19.1324C6.98866 19.1933 6.99828 19.2294 7.00872 19.2534C7.02159 19.283 7.04549 19.3148 7.0805 19.3404C7.11555 19.3661 7.14997 19.3769 7.17513 19.3794C7.19382 19.3812 7.22306 19.381 7.27122 19.3562L10.4382 17.7309C11.4191 17.2275 12.5809 17.2275 13.5618 17.7309L16.7288 19.3562C16.777 19.381 16.8062 19.3812 16.8249 19.3794C16.8501 19.3769 16.8845 19.3661 16.9195 19.3404C16.9546 19.3148 16.9785 19.283 16.9913 19.2534C17.0018 19.2294 17.0114 19.1933 17.0019 19.1324L16.4482 15.5916C16.2788 14.5082 16.6323 13.4053 17.4056 12.6241L19.9166 10.0879C19.9569 10.0472 19.9697 10.0142 19.9755 9.98768C19.9826 9.95503 19.982 9.9121 19.9673 9.86639C19.9526 9.82075 19.9289 9.788 19.9072 9.76854C19.8904 9.75345 19.8652 9.73647 19.8132 9.72811L16.304 9.16503C15.215 8.99031 14.2807 8.30216 13.7848 7.32196L12.1697 4.12918Z" fill="#141518"/>
</svg>
