<svg width="24" height="24" viewBox="0 0 24 24" fill="none" xmlns="http://www.w3.org/2000/svg">
<path d="M19.3184 3.30762C20.566 3.30762 21.5916 4.31033 21.5918 5.56543V15.7061C21.5916 16.9612 20.566 17.9639 19.3184 17.9639H12.8096V19.2422H14.9268C15.3741 19.2422 15.7373 19.6044 15.7373 20.0518C15.737 20.4989 15.3739 20.8613 14.9268 20.8613H9.07227C8.62525 20.8611 8.26296 20.4988 8.2627 20.0518C8.2627 19.6045 8.62508 19.2424 9.07227 19.2422H11.1904V17.9639H4.68164C3.43398 17.9639 2.40837 16.9612 2.4082 15.7061V5.56543C2.40843 4.31033 3.43401 3.30762 4.68164 3.30762H19.3184ZM4.68164 4.92773C4.3128 4.92773 4.02855 5.22086 4.02832 5.56543V15.7061C4.02849 16.0507 4.31276 16.3447 4.68164 16.3447H19.3184C19.6872 16.3447 19.9725 16.0507 19.9727 15.7061V5.56543C19.9724 5.22086 19.6872 4.92773 19.3184 4.92773H4.68164ZM14.3896 8.87598C14.6862 8.58716 15.1611 8.59324 15.4502 8.88965C15.739 9.18617 15.7328 9.66111 15.4365 9.9502L12.3877 12.9238C11.8576 13.4409 11.0094 13.4343 10.4873 12.9092L9.15527 11.5693C8.86328 11.2756 8.8654 10.8008 9.15918 10.5088C9.45298 10.2169 9.92777 10.218 10.2197 10.5117L11.4453 11.7461L14.3896 8.87598Z" fill="#141518"/>
</svg>
