<svg width="24" height="24" viewBox="0 0 24 24" fill="none" xmlns="http://www.w3.org/2000/svg">
<path fill-rule="evenodd" clip-rule="evenodd" d="M12 12.6299C13.5574 12.6299 14.8201 13.8925 14.8201 15.45C14.8201 17.0074 13.5574 18.2701 12 18.2701C10.4425 18.2701 9.17986 17.0074 9.17986 15.45C9.17986 13.8925 10.4425 12.6299 12 12.6299ZM12 14.0701C11.2378 14.0701 10.6201 14.6878 10.6201 15.45C10.6201 16.2121 11.2378 16.8299 12 16.8299C12.7621 16.8299 13.3799 16.2121 13.3799 15.45C13.3799 14.6878 12.7621 14.0701 12 14.0701Z" fill="#141518"/>
<path fill-rule="evenodd" clip-rule="evenodd" d="M12 5.72987C13.5574 5.72987 14.8201 6.99254 14.8201 8.54999C14.8201 10.1074 13.5574 11.3701 12 11.3701C10.4425 11.3701 9.17986 10.1074 9.17986 8.54999C9.17986 6.99254 10.4425 5.72987 12 5.72987ZM12 7.1701C11.2378 7.1701 10.6201 7.78783 10.6201 8.54999C10.6201 9.31214 11.2378 9.92987 12 9.92987C12.7621 9.92987 13.3799 9.31214 13.3799 8.54999C13.3799 7.78783 12.7621 7.1701 12 7.1701Z" fill="#141518"/>
<path fill-rule="evenodd" clip-rule="evenodd" d="M15.6 2.48993C17.7042 2.48993 19.41 4.19578 19.41 6.29999V6.59149C19.962 6.62261 20.4 7.08028 20.4 7.64003V8.54003C20.3999 9.0997 19.9619 9.55685 19.41 9.58798V11.6915C19.962 11.7226 20.4 12.1803 20.4 12.74V13.64C20.3999 14.1997 19.9619 14.6568 19.41 14.688V17.7C19.41 19.8042 17.7042 21.51 15.6 21.51H8.39998C6.29577 21.51 4.58992 19.8042 4.58992 17.7V14.688C4.03802 14.6568 3.60005 14.1997 3.59998 13.64V12.74C3.59998 12.1803 4.03796 11.7226 4.58992 11.6915V9.58798C4.03802 9.55685 3.60005 9.0997 3.59998 8.54003V7.64003C3.59998 7.08028 4.03796 6.62261 4.58992 6.59149V6.29999C4.58992 4.19578 6.29577 2.48993 8.39998 2.48993H15.6ZM8.39998 4.11005C7.19047 4.11005 6.21003 5.09048 6.21003 6.29999V17.7C6.21003 18.9095 7.19047 19.8899 8.39998 19.8899H15.6C16.8095 19.8899 17.7899 18.9095 17.7899 17.7V6.29999C17.7899 5.09048 16.8095 4.11005 15.6 4.11005H8.39998Z" fill="#141518"/>
</svg>
