<svg width="24" height="24" viewBox="0 0 24 24" fill="none" xmlns="http://www.w3.org/2000/svg">
<path d="M12 2.33105C17.34 2.3312 21.6689 6.65999 21.6689 12C21.6688 17.3399 17.3399 21.6688 12 21.6689C6.65999 21.6689 2.3312 17.34 2.33105 12C2.33105 6.6599 6.6599 2.33105 12 2.33105ZM12 3.9502C7.5546 3.9502 3.9502 7.5546 3.9502 12C3.95034 16.4453 7.5547 20.0488 12 20.0488C16.4452 20.0487 20.0487 16.4452 20.0488 12C20.0488 7.5547 16.4453 3.95034 12 3.9502ZM14.5498 8.25C15.2124 8.25006 15.7498 8.78665 15.75 9.44922V14.5498C15.7498 15.2124 15.2124 15.7499 14.5498 15.75H9.44922C8.78679 15.7497 8.25016 15.2123 8.25 14.5498V9.44922C8.25016 8.78677 8.78679 8.25026 9.44922 8.25H14.5498Z" fill="#141518"/>
</svg>
