<svg width="24" height="24" viewBox="0 0 24 24" fill="none" xmlns="http://www.w3.org/2000/svg">
<path d="M13.1342 3.23682C14.5756 3.2369 15.7443 4.40546 15.7443 5.84688V6.17588C15.7442 7.61723 14.5756 8.78557 13.1342 8.78564H12.8108V10.6999H15.2913C16.7327 10.7 17.9011 11.8686 17.9011 13.31V15.2002H18.1323C19.5737 15.2003 20.7423 16.3688 20.7423 17.8103V18.1393C20.7422 19.5806 19.5736 20.749 18.1323 20.749H15.8653C14.4239 20.749 13.2553 19.5806 13.2552 18.1393V17.8103C13.2552 16.3688 14.4238 15.2002 15.8653 15.2002H16.2813V13.31C16.2812 12.7633 15.838 12.3201 15.2913 12.32H8.76312C8.21641 12.32 7.77323 12.7633 7.77318 13.31V15.2002H8.14115C9.58261 15.2002 10.7512 16.3688 10.7512 17.8103V18.1393C10.7511 19.5806 9.58254 20.749 8.14115 20.749H5.87416C4.43277 20.749 3.26422 19.5806 3.2641 18.1393V17.8103C3.2641 16.3688 4.43269 15.2002 5.87416 15.2002H6.15306V13.31C6.15311 11.8686 7.32171 10.6999 8.76312 10.6999H11.1907V8.78564H10.8672C9.42581 8.78564 8.25724 7.61728 8.25717 6.17588V5.84688C8.25717 4.40541 9.42576 3.23682 10.8672 3.23682H13.1342ZM5.87416 16.8203C5.3274 16.8203 4.88422 17.2635 4.88422 17.8103V18.1393C4.88434 18.6859 5.32747 19.1292 5.87416 19.1292H8.14115C8.68784 19.1292 9.13097 18.6859 9.13109 18.1393V17.8103C9.13109 17.2635 8.68791 16.8203 8.14115 16.8203H5.87416ZM15.8653 16.8203C15.3185 16.8203 14.8753 17.2635 14.8753 17.8103V18.1393C14.8755 18.6859 15.3186 19.1292 15.8653 19.1292H18.1323C18.6789 19.1291 19.1221 18.6859 19.1222 18.1393V17.8103C19.1222 17.2635 18.679 16.8204 18.1323 16.8203H15.8653ZM10.8672 4.85693C10.3205 4.85693 9.87728 5.30011 9.87728 5.84688V6.17588C9.87736 6.72258 10.3205 7.16582 10.8672 7.16582H13.1342C13.6809 7.16574 14.1241 6.72253 14.1242 6.17588V5.84688C14.1242 5.30016 13.6809 4.85701 13.1342 4.85693H10.8672Z" fill="#141518"/>
</svg>
