<svg width="24" height="24" viewBox="0 0 24 24" fill="none" xmlns="http://www.w3.org/2000/svg">
<path d="M19.3457 4.05371C19.7929 4.05385 20.1562 4.41602 20.1562 4.86328V10.044C20.1562 10.4912 19.7929 10.8544 19.3457 10.8545H14.7431C14.7103 10.9084 14.6716 10.9602 14.625 11.0068L10.7012 14.9307L11.6357 15.8652H16.4248C16.7211 15.2778 17.3283 14.8741 18.0312 14.874C19.0253 14.874 19.8309 15.6798 19.831 16.6738C19.831 17.668 19.0253 18.4736 18.0312 18.4736C17.329 18.4736 16.7224 18.071 16.4258 17.4844H11.6347L8.40428 20.7149C8.08801 21.031 7.57506 21.0309 7.25877 20.7149L3.79099 17.2471C3.47472 16.9308 3.47483 16.4179 3.79099 16.1016L7.25877 12.6338C7.57509 12.3175 8.08796 12.3175 8.40428 12.6338L9.55564 13.7852L13.3554 9.98633V8.5918H7.61131C7.30568 9.15013 6.71262 9.52833 6.03123 9.52833C5.03714 9.5283 4.23142 8.72262 4.23142 7.72852C4.23153 6.73451 5.03721 5.92874 6.03123 5.92871C6.75498 5.92871 7.37719 6.35671 7.66307 6.97266H13.3554V4.86328C13.3554 4.41593 13.7177 4.05371 14.165 4.05371H19.3457ZM5.50877 16.6738L7.83103 18.9961L10.1533 16.6738L7.83103 14.3516L5.50877 16.6738ZM14.9746 9.23438H18.5361V5.67285H14.9746V9.23438Z" fill="#141518"/>
</svg>
