<svg width="24" height="24" viewBox="0 0 24 24" fill="none" xmlns="http://www.w3.org/2000/svg">
<path d="M13.873 4.89453C16.7623 4.89461 19.2467 6.6186 20.3574 9.09082C20.7568 9.9798 20.9795 10.9651 20.9795 12C20.9795 12.3815 20.9488 12.7569 20.8906 13.123C20.8851 13.1576 20.8758 13.1909 20.8662 13.2236C21.3325 14.0412 21.6005 14.9867 21.6006 15.9951L21.5928 16.2842C21.4425 19.2453 18.9936 21.6005 15.9951 21.6006L15.707 21.5928C13.8827 21.5003 12.2893 20.5348 11.334 19.1064H10.127C6.20244 19.1063 3.02148 15.9245 3.02148 12C3.0215 11.679 3.04255 11.3622 3.08398 11.0518C3.14339 10.6086 3.55087 10.2973 3.99414 10.3564C4.43743 10.4157 4.74863 10.8233 4.68945 11.2666C4.65749 11.5061 4.64064 11.7509 4.64062 12C4.64062 15.0298 7.09715 17.4862 10.127 17.4863H10.5928C10.462 17.0114 10.3906 16.5116 10.3906 15.9951C10.3908 12.8999 12.8999 10.3908 15.9951 10.3906C17.2465 10.3907 18.4021 10.8009 19.335 11.4941C19.2786 10.8786 19.1218 10.2935 18.8799 9.75488C18.021 7.8431 16.1014 6.51375 13.873 6.51367H11.583C11.1357 6.51367 10.7725 6.15145 10.7725 5.7041C10.7725 5.25675 11.1357 4.89453 11.583 4.89453H13.873ZM15.9951 12.0107C13.7946 12.0109 12.0109 13.7946 12.0107 15.9951C12.0107 18.1958 13.7945 19.9803 15.9951 19.9805C18.1958 19.9803 19.9805 18.1958 19.9805 15.9951C19.9803 13.7946 18.1956 12.0109 15.9951 12.0107ZM17.3896 14.418C17.7099 14.106 18.2229 14.1127 18.5352 14.4326C18.8473 14.7528 18.8405 15.2658 18.5205 15.5781L15.9355 18.0996C15.6056 18.4213 15.0778 18.4167 14.7529 18.0898L13.4609 16.79C13.1459 16.4728 13.1469 15.9598 13.4639 15.6445C13.781 15.3295 14.294 15.3307 14.6094 15.6475L15.3574 16.3994L17.3896 14.418ZM5.90527 2.7002C7.67534 2.70033 9.11117 4.13521 9.11133 5.90527L9.10645 6.07031C9.02069 7.76394 7.62018 9.1112 5.90527 9.11133L5.74023 9.10645C4.0468 9.0204 2.7002 7.62009 2.7002 5.90527C2.70035 4.13523 4.13523 2.70035 5.90527 2.7002ZM5.90527 4.32031C5.02993 4.32047 4.32047 5.02993 4.32031 5.90527C4.32031 6.78075 5.02983 7.49105 5.90527 7.49121C6.78074 7.49108 7.49121 6.78077 7.49121 5.90527C7.49105 5.02991 6.78064 4.32044 5.90527 4.32031Z" fill="#141518"/>
</svg>
