<svg width="24" height="24" viewBox="0 0 24 24" fill="none" xmlns="http://www.w3.org/2000/svg">
<path d="M11.457 11.0879C11.7462 10.981 12.0711 11.0469 12.2949 11.2588L17.9512 16.6211C18.1817 16.8397 18.2638 17.1734 18.1602 17.4736C18.0562 17.7738 17.786 17.986 17.4697 18.0156L14.1338 18.3281L11.3965 20.2607C11.1371 20.4438 10.7946 20.4581 10.5205 20.2979C10.2464 20.1372 10.0902 19.8306 10.123 19.5146L10.9326 11.7627L10.9521 11.6504C11.0164 11.3933 11.204 11.1815 11.457 11.0879ZM11.9199 17.9072L13.375 16.8799C13.4907 16.7982 13.6266 16.7476 13.7676 16.7344L15.541 16.5684L12.373 13.5654L11.9199 17.9072ZM18 4.22363C19.3353 4.22375 20.6104 5.19133 20.6104 6.60645V12.0605C20.6104 13.4757 19.3353 14.4442 18 14.4443H17.0859C16.6387 14.4442 16.2764 14.0811 16.2764 13.6338C16.2764 13.1866 16.6387 12.8243 17.0859 12.8242H18C18.6526 12.8241 18.9902 12.3827 18.9902 12.0605V6.60645C18.9902 6.28427 18.6526 5.84288 18 5.84277H6C5.34733 5.84286 5.00977 6.28426 5.00977 6.60645V12.0605C5.00977 12.3827 5.34733 12.8241 6 12.8242H8.94141C9.3886 12.8244 9.75092 13.1866 9.75098 13.6338C9.75098 14.0811 9.38863 14.4442 8.94141 14.4443H6C4.66465 14.4442 3.39062 13.4757 3.39062 12.0605V6.60645C3.39062 5.19132 4.66465 4.22373 6 4.22363H18ZM7.84375 10.0518C7.99614 9.72063 8.3886 9.57613 8.71973 9.72852L9.69531 10.1768C10.0264 10.3291 10.1718 10.7216 10.0195 11.0527C9.86716 11.3838 9.47466 11.5293 9.14355 11.377L8.16797 10.9277C7.83689 10.7754 7.69146 10.3829 7.84375 10.0518ZM12.5469 8.31152C12.6993 7.98059 13.0909 7.83609 13.4219 7.98828C13.7529 8.14063 13.8983 8.53221 13.7461 8.86328L13.2969 9.83984C13.1444 10.1707 12.7519 10.3154 12.4209 10.1631C12.09 10.0106 11.9453 9.61813 12.0977 9.28711L12.5469 8.31152ZM10.2051 7.86621C10.5469 7.73989 10.9262 7.91419 11.0527 8.25586L11.4258 9.26367C11.5521 9.60555 11.377 9.98593 11.0352 10.1123C10.6934 10.2385 10.314 10.0633 10.1875 9.72168L9.81445 8.71387C9.68814 8.372 9.86322 7.99258 10.2051 7.86621Z" fill="#141518"/>
</svg>
