<svg width="24" height="24" viewBox="0 0 24 24" fill="none" xmlns="http://www.w3.org/2000/svg">
<path d="M15.6475 3.73438C16.0948 3.73438 16.457 4.09659 16.457 4.54395C16.457 4.9913 16.0948 5.35352 15.6475 5.35352H14.6475V18.6475H15.6475C16.0948 18.6475 16.457 19.0097 16.457 19.457C16.457 19.9044 16.0948 20.2666 15.6475 20.2666H12.0273C11.5801 20.2664 11.2178 19.9043 11.2178 19.457C11.2178 19.0098 11.5801 18.6476 12.0273 18.6475H13.0283V5.35352H12.0273C11.5801 5.35333 11.2178 4.99118 11.2178 4.54395C11.2178 4.09671 11.5801 3.73456 12.0273 3.73438H15.6475ZM11.6084 6.43945C12.0557 6.43952 12.4189 6.80171 12.4189 7.24902C12.4189 7.69633 12.0557 8.05853 11.6084 8.05859H5.81445C5.26785 8.0587 4.82432 8.50222 4.82422 9.04883V14.9502C4.82422 15.4969 5.26778 15.9403 5.81445 15.9404H11.6084C12.0556 15.9405 12.4188 16.3028 12.4189 16.75C12.4189 17.1973 12.0557 17.5605 11.6084 17.5605H5.81445C4.37308 17.5604 3.20508 16.3916 3.20508 14.9502V9.04883C3.20518 7.60752 4.37315 6.43956 5.81445 6.43945H11.6084ZM18 6.43848C19.4414 6.43858 20.6094 7.60743 20.6094 9.04883V14.9502C20.6093 16.3915 19.4413 17.5595 18 17.5596H16.0664C15.6192 17.5594 15.2568 17.1972 15.2568 16.75C15.2568 16.3028 15.6192 15.9406 16.0664 15.9404H18C18.5466 15.9403 18.9901 15.4968 18.9902 14.9502V9.04883C18.9902 8.50213 18.5467 8.0587 18 8.05859H16.0664C15.6193 8.05839 15.2569 7.69615 15.2568 7.24902C15.2568 6.8018 15.6192 6.43868 16.0664 6.43848H18ZM8.2002 9.78027C8.39629 9.78027 8.57577 9.89037 8.66602 10.0645L10.4229 13.4541C10.5558 13.7113 10.4552 14.0277 10.1982 14.1611C9.94084 14.2943 9.62357 14.1939 9.49023 13.9365L9.0625 13.1113H7.33789L6.91016 13.9365C6.77676 14.1938 6.46052 14.2944 6.20312 14.1611C5.94594 14.0277 5.84538 13.7114 5.97852 13.4541L7.73438 10.0645L7.77246 10.002C7.86993 9.86459 8.02882 9.78042 8.2002 9.78027ZM7.88184 12.0605H8.51855L8.2002 11.4453L7.88184 12.0605Z" fill="#141518"/>
</svg>
