<svg width="24" height="24" viewBox="0 0 24 24" fill="none" xmlns="http://www.w3.org/2000/svg">
<path d="M13.4199 4.03906C13.6257 4.03911 13.8292 4.07403 14.0205 4.14273C14.9718 4.48434 15.3801 5.49656 15.0996 6.34905C15.0958 6.36062 15.0913 6.37251 15.0869 6.38391L14.2432 8.56913H15.3711C15.7003 8.56922 16.0182 8.66075 16.291 8.826C17.1263 9.33243 17.3574 10.3805 16.9199 11.1763L16.9209 11.1773C16.5591 11.8453 13.0738 17.3472 11.9697 19.0879C11.4206 19.9538 10.1016 19.4728 10.1582 18.5622L10.4824 13.3707L9.20508 13.3735C9.19931 13.3735 9.19327 13.3736 9.1875 13.3735C9.16923 13.3732 9.14027 13.3723 9.11035 13.3707C9.08047 13.3692 9.05148 13.3668 9.0332 13.3652C9.02844 13.3648 9.02331 13.3648 9.01855 13.3643C7.98241 13.2561 7.36136 12.3376 7.44336 11.4506L7.95019 5.63807V5.63165C8.03038 4.79538 8.73096 4.03925 9.70996 4.03906H13.4199ZM3.56933 6.27841C3.81649 5.92822 4.31956 5.83168 4.69238 6.06374C5.06508 6.29593 5.16691 6.76853 4.91992 7.11874C3.04448 9.77594 3.04354 13.2602 4.91894 15.9174C5.16599 16.2676 5.06508 16.7393 4.69238 16.9715C4.31965 17.2036 3.81759 17.1077 3.57031 16.7577C1.3352 13.5909 1.3344 9.4453 3.56933 6.27841ZM19.3076 6.06374C19.6804 5.83168 20.1835 5.92822 20.4307 6.27841C22.6656 9.4453 22.6648 13.5909 20.4297 16.7577C20.1824 17.1077 19.6803 17.2036 19.3076 16.9715C18.9349 16.7393 18.834 16.2676 19.0811 15.9174C20.9565 13.2602 20.9555 9.77594 19.0801 7.11874C18.8331 6.76853 18.9349 6.29593 19.3076 6.06374ZM9.70996 5.56009C9.69889 5.56016 9.67415 5.56425 9.6416 5.59495C9.60756 5.62728 9.57142 5.68547 9.56347 5.76834L9.05761 11.5754L9.05664 11.5818C9.04812 11.672 9.0767 11.7468 9.11426 11.7947C9.14864 11.8385 9.17947 11.8483 9.19433 11.8506C9.19874 11.851 9.20188 11.8504 9.2041 11.8506L11.3398 11.847C11.5628 11.8466 11.7764 11.9324 11.9297 12.0846C12.0831 12.2371 12.1635 12.443 12.1504 12.6524L11.9297 16.1679C13.372 13.8865 15.2398 10.9264 15.4775 10.4874L15.4814 10.48C15.5183 10.4136 15.5289 10.3302 15.5088 10.2507C15.4886 10.1712 15.4461 10.1251 15.4131 10.1048C15.3941 10.0933 15.3795 10.0912 15.3711 10.0911H13.0879C12.824 10.0911 12.5764 9.97016 12.4248 9.76724C12.2733 9.56418 12.2363 9.30409 12.3262 9.07094L13.5527 5.89402C13.5773 5.81477 13.5699 5.73242 13.5391 5.66651C13.5077 5.59961 13.4657 5.57319 13.4424 5.56468H13.4414C13.4329 5.56168 13.4257 5.56015 13.4199 5.56009H9.70996ZM5.1289 8.13979C5.33651 7.76765 5.82643 7.62469 6.22265 7.81962C6.61839 8.01474 6.77171 8.47414 6.56445 8.84618C5.63476 10.5141 5.63467 12.5221 6.56445 14.19C6.7719 14.5622 6.61878 15.0224 6.22265 15.2174C5.82643 15.4124 5.33651 15.2685 5.1289 14.8964C3.95259 12.7863 3.95263 10.2499 5.1289 8.13979ZM17.7773 7.81962C18.1736 7.62469 18.6635 7.76765 18.8711 8.13979C20.0474 10.2499 20.0474 12.7863 18.8711 14.8964C18.6635 15.2685 18.1736 15.4124 17.7773 15.2174C17.3812 15.0224 17.2281 14.5622 17.4355 14.19C18.3653 12.5221 18.3652 10.5141 17.4355 8.84618C17.2283 8.47414 17.3816 8.01473 17.7773 7.81962Z" fill="#141518"/>
</svg>
