<svg width="24" height="24" viewBox="0 0 24 24" fill="none" xmlns="http://www.w3.org/2000/svg">
<path d="M13.3887 3.24513C13.8359 3.24532 14.1982 3.60747 14.1982 4.0547C14.1982 4.50187 13.8358 4.86407 13.3887 4.86427H5.99805C5.34849 4.8644 4.82129 5.39144 4.82129 6.04103V17.959C4.82135 18.6085 5.34853 19.1356 5.99805 19.1357H17.916C18.5656 19.1357 19.0927 18.6086 19.0928 17.959V10.3438C19.0928 9.89649 19.4551 9.53432 19.9023 9.53419C20.3497 9.53419 20.7119 9.89641 20.7119 10.3438V17.959C20.7118 19.5033 19.4603 20.7549 17.916 20.7549H5.99805C4.45383 20.7548 3.20221 19.5032 3.20215 17.959V6.04103C3.20215 4.49674 4.45379 3.24526 5.99805 3.24513H13.3887ZM9.17578 6.89649C9.5732 6.89676 9.89551 7.21874 9.89551 7.61622V11.8887C10.6697 12.1802 11.2215 12.9255 11.2217 13.8018C11.2216 14.6781 10.6697 15.423 9.89551 15.7148V16.6846C9.89531 17.0819 9.57308 17.404 9.17578 17.4043C8.77826 17.4043 8.45626 17.082 8.45605 16.6846V15.7158C7.6811 15.4243 7.12896 14.6785 7.12891 13.8018C7.12907 12.9251 7.68107 12.179 8.45605 11.8877V7.61622C8.45605 7.21858 8.77814 6.89649 9.17578 6.89649ZM14.7744 6.89649C15.1719 6.89663 15.4941 7.21866 15.4941 7.61622V9.0918C16.2688 9.38317 16.8201 10.1293 16.8203 11.0059C16.8203 11.9018 16.2441 12.6612 15.4424 12.9385C15.4742 13.0198 15.4941 13.1076 15.4941 13.2002V16.6846C15.494 17.082 15.1719 17.4042 14.7744 17.4043C14.3769 17.4043 14.0548 17.0821 14.0547 16.6846V13.2002C14.0547 13.1076 14.0737 13.0197 14.1055 12.9385C13.3041 12.661 12.7276 11.9015 12.7275 11.0059C12.7277 10.1293 13.2799 9.38317 14.0547 9.0918V7.61622C14.0547 7.21858 14.3768 6.89649 14.7744 6.89649ZM9.17578 13.1953C8.84092 13.1953 8.56857 13.4669 8.56836 13.8018C8.56842 14.1367 8.84083 14.4092 9.17578 14.4092C9.51045 14.4088 9.78216 14.1365 9.78223 13.8018C9.78202 13.4672 9.51035 13.1957 9.17578 13.1953ZM14.7744 10.3994C14.4397 10.3996 14.1672 10.6711 14.167 11.0059C14.1671 11.3407 14.4396 11.6132 14.7744 11.6133C15.1092 11.6131 15.3808 11.3407 15.3809 11.0059C15.3806 10.6712 15.1091 10.3996 14.7744 10.3994ZM18.4209 2.69337C18.5596 2.28727 19.1338 2.28727 19.2725 2.69337L19.6953 3.93165C19.7554 4.10727 19.8937 4.24568 20.0693 4.30567L21.3076 4.72853C21.713 4.86751 21.7132 5.44128 21.3076 5.58009L20.0693 6.00294C19.8935 6.06297 19.7553 6.20116 19.6953 6.37696L19.2725 7.61427C19.1338 8.02037 18.5596 8.02037 18.4209 7.61427L17.998 6.37696C17.938 6.20127 17.7997 6.06303 17.624 6.00294L16.3857 5.58009C15.9797 5.44141 15.9797 4.86723 16.3857 4.72853L17.624 4.30567C17.7997 4.24565 17.938 4.10733 17.998 3.93165L18.4209 2.69337Z" fill="#141518"/>
</svg>
