<svg width="24" height="24" viewBox="0 0 24 24" fill="none" xmlns="http://www.w3.org/2000/svg">
<path d="M19.0844 10.1837H10.1849V19.0831H15.6869C16.4366 19.0831 16.9501 19.0824 17.348 19.0499C17.7365 19.0182 17.9431 18.9603 18.0912 18.8849C18.4334 18.7104 18.7117 18.4322 18.8861 18.09C18.9616 17.9419 19.0194 17.7353 19.0512 17.3468C19.0837 16.9489 19.0844 16.4354 19.0844 15.6857V10.1837ZM4.9242 15.6857C4.9242 16.4353 4.9249 16.9489 4.9574 17.3468C4.98914 17.7353 5.04797 17.9419 5.12342 18.09C5.2979 18.4322 5.57605 18.7105 5.91834 18.8849C6.06641 18.9603 6.27303 19.0182 6.6615 19.0499C7.05939 19.0824 7.57296 19.0831 8.32263 19.0831H8.56482V10.1837H4.9242V15.6857ZM19.0844 8.32141C19.0844 7.57174 19.0836 7.05817 19.0512 6.66028C19.0194 6.27181 18.9616 6.06519 18.8861 5.91712C18.7117 5.57483 18.4334 5.29668 18.0912 5.1222C17.9431 5.04675 17.7365 4.98792 17.348 4.95618C16.9502 4.92368 16.4365 4.92298 15.6869 4.92298H10.1849V8.5636H19.0844V8.32141ZM4.9242 8.5636H8.56482V4.92298H8.32263C7.573 4.92298 7.05938 4.92369 6.6615 4.95618C6.27303 4.98792 6.06641 5.04675 5.91834 5.1222C5.57603 5.29666 5.29788 5.57481 5.12342 5.91712C5.04797 6.06519 4.98914 6.27181 4.9574 6.66028C4.92491 7.05816 4.9242 7.57178 4.9242 8.32141V8.5636ZM20.7045 15.6857C20.7045 16.4086 20.7055 16.9995 20.6664 17.4786C20.6265 17.9673 20.5407 18.4108 20.3295 18.8253C19.9997 19.4724 19.4736 19.9985 18.8265 20.3282C18.412 20.5395 17.9685 20.6252 17.4799 20.6652C17.0007 20.7043 16.4098 20.7032 15.6869 20.7032H8.32263C7.59973 20.7032 7.00879 20.7043 6.52967 20.6652C6.04102 20.6252 5.5975 20.5395 5.18299 20.3282C4.53572 19.9984 4.00888 19.4726 3.67908 18.8253C3.4679 18.4108 3.38306 17.9673 3.34314 17.4786C3.30401 16.9995 3.30506 16.4086 3.30506 15.6857V8.32141C3.30506 7.5985 3.30402 7.00757 3.34314 6.52845C3.38306 6.0399 3.46797 5.5962 3.67908 5.18177C4.00888 4.53449 4.53571 4.00766 5.18299 3.67786C5.59742 3.46675 6.04112 3.38184 6.52967 3.34192C7.00879 3.3028 7.59972 3.30384 8.32263 3.30384H15.6869C16.4098 3.30384 17.0007 3.30279 17.4799 3.34192C17.9685 3.38184 18.412 3.46668 18.8265 3.67786C19.4738 4.00766 19.9997 4.5345 20.3295 5.18177C20.5407 5.59628 20.6265 6.0398 20.6664 6.52845C20.7055 7.00757 20.7045 7.59851 20.7045 8.32141V15.6857Z" fill="#141518"/>
</svg>
