<svg width="24" height="24" viewBox="0 0 24 24" fill="none" xmlns="http://www.w3.org/2000/svg">
<path d="M9.44758 3.29297C9.89493 3.29297 10.2571 3.65519 10.2571 4.10254C10.2569 4.54966 9.89476 4.91211 9.44758 4.91211H4.45929V8.32422C5.80674 8.87875 6.75607 10.2028 6.75617 11.751C6.75617 13.2991 5.80663 14.6222 4.45929 15.1768V18.1807H8.80011C8.81419 18.1807 8.82821 18.1819 8.84211 18.1826C8.85155 18.1831 8.86103 18.1828 8.87043 18.1836C8.89151 18.1854 8.91233 18.188 8.93293 18.1914C8.93715 18.1921 8.94142 18.1926 8.94562 18.1934C9.06685 18.2153 9.1777 18.2655 9.27375 18.335C9.30403 18.3568 9.33346 18.3801 9.36066 18.4062C9.37099 18.4161 9.38017 18.4271 9.38996 18.4375C9.41461 18.4638 9.43808 18.4915 9.45929 18.5215C9.49544 18.5721 9.52726 18.6262 9.55109 18.6846C9.89422 19.449 10.6601 19.9795 11.5491 19.9795C12.4461 19.9794 13.2195 19.4396 13.5579 18.6641C13.5599 18.6595 13.5617 18.6549 13.5638 18.6504C13.573 18.6304 13.5833 18.6109 13.5941 18.5918C13.6299 18.5278 13.6733 18.4702 13.723 18.4199C13.7249 18.418 13.7269 18.416 13.7288 18.4141C13.7776 18.3657 13.8325 18.3252 13.8909 18.291C13.922 18.2728 13.9541 18.2562 13.9876 18.2422C13.9932 18.2398 13.9985 18.2366 14.0042 18.2344L14.0589 18.2168C14.0864 18.2083 14.1142 18.1999 14.1429 18.1943C14.2076 18.1815 14.2742 18.1773 14.3411 18.1807H18.6361V17.4004C18.6361 16.9531 18.9983 16.5909 19.4456 16.5908C19.8929 16.5908 20.2552 16.9531 20.2552 17.4004V18.9902C20.2549 19.4373 19.8928 19.8008 19.4456 19.8008H14.7845C14.1126 20.8797 12.916 21.5995 11.5491 21.5996C10.1819 21.5996 8.98364 20.8802 8.31183 19.8008H3.64972C3.20258 19.8007 2.84042 19.4373 2.84015 18.9902V14.6074C2.82893 14.223 3.09313 13.8738 3.48273 13.792C4.4274 13.5934 5.13703 12.754 5.13703 11.751C5.13691 10.7477 4.42686 9.90809 3.48175 9.70996C3.24135 9.6596 3.05079 9.50613 2.94074 9.30664C2.93688 9.29963 2.93366 9.29229 2.93 9.28516C2.86465 9.15795 2.83035 9.0147 2.84015 8.86523V4.10254C2.84015 3.65522 3.20242 3.29302 3.64972 3.29297H9.44758ZM17.4271 14.5488C17.427 14.913 17.2977 15.225 17.0384 15.4844C16.7789 15.7438 16.4662 15.873 16.1019 15.873C15.7377 15.873 15.4257 15.7437 15.1663 15.4844C14.907 15.225 14.7778 14.913 14.7777 14.5488H17.4271ZM18.0989 12.4404C18.546 12.4408 18.9085 12.8029 18.9085 13.25C18.9085 13.6971 18.546 14.0592 18.0989 14.0596H14.2015C13.7543 14.0594 13.3919 13.6972 13.3919 13.25C13.3919 12.8028 13.7543 12.4406 14.2015 12.4404H18.0989ZM16.1155 2.40039C18.9021 2.40079 21.1614 4.65969 21.1614 7.44629C21.1614 8.28538 20.8535 9.1353 20.4544 9.85059C20.0519 10.5718 19.5146 11.2313 18.9661 11.6904C18.8205 11.8123 18.6355 11.8798 18.4456 11.8799H13.7581C13.5682 11.8799 13.3843 11.8122 13.2386 11.6904C12.6871 11.2289 12.1557 10.5668 11.7601 9.84473C11.3674 9.12787 11.0697 8.28063 11.0696 7.44629C11.0696 4.65944 13.3287 2.40039 16.1155 2.40039ZM16.1155 4.01953C14.2234 4.01953 12.6888 5.55414 12.6888 7.44629C12.6889 7.91714 12.8666 8.49246 13.181 9.06641C13.4365 9.53274 13.7577 9.95046 14.0726 10.2598H18.1321C18.4508 9.94841 18.7785 9.52886 19.0394 9.06152C19.3605 8.486 19.5413 7.91239 19.5413 7.44629C19.5413 5.55439 18.0074 4.01993 16.1155 4.01953Z" fill="#141518"/>
</svg>
