<svg width="24" height="24" viewBox="0 0 24 24" fill="none" xmlns="http://www.w3.org/2000/svg">
<path fill-rule="evenodd" clip-rule="evenodd" d="M11.3246 21.5875C12.2557 21.5875 13.1486 21.2176 13.807 20.5592C14.4655 19.9008 14.8363 19.008 14.8363 18.0768V16.0436H19.4281L19.6566 16.0319C19.8843 16.0076 20.1073 15.9468 20.3168 15.8522C20.596 15.726 20.8456 15.542 21.0482 15.3121C21.2508 15.0823 21.4024 14.812 21.4926 14.5192C21.5814 14.2308 21.6074 13.9271 21.5717 13.6276L20.56 4.31604L20.558 4.30237C20.4922 3.78038 20.2387 3.29983 19.8441 2.95178C19.4497 2.60385 18.9414 2.41196 18.4154 2.41174H3.89688C3.50313 2.41186 3.12551 2.56886 2.84708 2.84729C2.56869 3.12574 2.41259 3.50335 2.41251 3.89709V12.8336C2.41266 13.2273 2.56867 13.605 2.84708 13.8834L2.95645 13.9821C3.22058 14.1984 3.5525 14.3179 3.89688 14.318H7.43204L10.5902 21.1188L10.6469 21.2213C10.7949 21.4478 11.0489 21.5874 11.3246 21.5875ZM8.75919 13.3307V4.03186H18.4145C18.5459 4.0319 18.6732 4.07979 18.7719 4.16663C18.8458 4.23186 18.9006 4.31599 18.9301 4.40881L18.9506 4.50452L19.9623 13.8024L19.9633 13.816C19.9728 13.8921 19.9663 13.9694 19.9438 14.0426C19.9212 14.1158 19.8831 14.1834 19.8324 14.2408C19.7818 14.2982 19.7196 14.3441 19.6498 14.3756C19.6149 14.3914 19.5786 14.4037 19.5414 14.4117L19.4272 14.4235H14.0258C13.5785 14.4236 13.2162 14.7867 13.2162 15.234V18.0768C13.2162 18.5783 13.0162 19.0591 12.6615 19.4137C12.4241 19.6511 12.1299 19.818 11.8109 19.903L8.75919 13.3307ZM4.03165 4.03186H7.13907V12.6989H4.03165V4.03186Z" fill="#141518"/>
</svg>
