<svg width="24" height="24" viewBox="0 0 24 24" fill="none" xmlns="http://www.w3.org/2000/svg">
<path fill-rule="evenodd" clip-rule="evenodd" d="M11.3246 2.41217C12.2557 2.41217 13.1486 2.78211 13.807 3.44049C14.4655 4.09893 14.8363 4.99174 14.8363 5.92291V7.95612H19.4281L19.6566 7.96783C19.8843 7.99212 20.1073 8.0529 20.3168 8.14752C20.596 8.27366 20.8456 8.45774 21.0482 8.68756C21.2508 8.91739 21.4024 9.18772 21.4926 9.48053C21.5814 9.76891 21.6074 10.0726 21.5717 10.3721L20.56 19.6837L20.558 19.6973C20.4922 20.2193 20.2387 20.6999 19.8441 21.0479C19.4497 21.3958 18.9414 21.5877 18.4154 21.588H3.89688C3.50313 21.5878 3.12551 21.4308 2.84708 21.1524C2.56869 20.874 2.41259 20.4963 2.41251 20.1026V11.1661C2.41266 10.7724 2.56867 10.3947 2.84708 10.1163L2.95645 10.0176C3.22058 9.80134 3.5525 9.6818 3.89688 9.6817H7.43204L10.5902 2.88092L10.6469 2.77838C10.7949 2.55188 11.0489 2.4123 11.3246 2.41217ZM8.75919 10.669V19.9678H18.4145C18.5459 19.9678 18.6732 19.9199 18.7719 19.8331C18.8458 19.7678 18.9006 19.6837 18.9301 19.5909L18.9506 19.4952L19.9623 10.1973L19.9633 10.1837C19.9728 10.1076 19.9663 10.0303 19.9438 9.95709C19.9212 9.88392 19.8831 9.81629 19.8324 9.75885C19.7818 9.70148 19.7196 9.65559 19.6498 9.62408C19.6149 9.60834 19.5786 9.59597 19.5414 9.58795L19.4272 9.57623H14.0258C13.5785 9.57613 13.2162 9.21297 13.2162 8.76569V5.92291C13.2162 5.42139 13.0162 4.94063 12.6615 4.586C12.4241 4.34856 12.1299 4.18167 11.8109 4.09674L8.75919 10.669ZM4.03165 19.9678H7.13907V11.3008H4.03165V19.9678Z" fill="#141518"/>
</svg>
