<svg width="24" height="24" viewBox="0 0 24 24" fill="none" xmlns="http://www.w3.org/2000/svg">
<path d="M12 2.49023C12.2441 2.49023 12.4846 2.5522 12.6992 2.66895L19.8496 6.56055C19.9529 6.61677 20.0476 6.68602 20.1338 6.76465C20.2901 6.83521 20.4261 6.95372 20.5137 7.11621C20.6033 7.2829 20.6252 7.46666 20.5947 7.63965C20.6037 7.70439 20.6102 7.77012 20.6104 7.83594V16.166C20.6096 16.4274 20.5383 16.6841 20.4043 16.9082C20.2703 17.1322 20.0783 17.3159 19.8496 17.4404L12.6992 21.333C12.4847 21.4497 12.244 21.5107 12 21.5107C11.7561 21.5107 11.5153 21.4497 11.3008 21.333L4.15137 17.4404C3.92242 17.3159 3.72977 17.1323 3.5957 16.9082C3.4618 16.6841 3.39137 16.4273 3.39062 16.166V7.83594C3.39078 7.76854 3.39594 7.70103 3.40527 7.63477C3.37616 7.46326 3.39841 7.28134 3.4873 7.11621C3.57412 6.95505 3.70889 6.83744 3.86328 6.7666C3.95048 6.68693 4.0469 6.6174 4.15137 6.56055L11.3008 2.66895C11.5153 2.55223 11.756 2.49027 12 2.49023ZM5.00977 16.0625L11.1914 19.4287V16.5068C8.88403 16.1215 7.12509 14.1169 7.125 11.7002C7.125 11.1522 7.21606 10.6255 7.38281 10.1338L5.00977 8.85547V16.0625ZM16.6162 10.1338C16.783 10.6256 16.875 11.1521 16.875 11.7002C16.8749 14.1162 15.1168 16.1196 12.8105 16.5059V19.4277L18.9902 16.0635V8.85547L16.6162 10.1338ZM12 8.1748C10.0532 8.1748 8.47461 9.75339 8.47461 11.7002C8.47472 13.6469 10.0533 15.2246 12 15.2246C13.9466 15.2245 15.5243 13.6468 15.5244 11.7002C15.5244 9.75346 13.9467 8.17491 12 8.1748ZM13.6768 10.3721C13.9127 10.1401 14.292 10.1434 14.5244 10.3789C14.7569 10.615 14.7546 10.995 14.5186 11.2275L12.502 13.2129C12.0349 13.6727 11.2844 13.6728 10.8174 13.2129L9.77637 12.1875C9.54062 11.955 9.53734 11.5749 9.76953 11.3389C10.0019 11.1029 10.382 11.1 10.6182 11.332L11.6602 12.3574L13.6768 10.3721ZM5.86035 7.47363L8.15234 8.70801C9.04438 7.56258 10.4357 6.8252 12 6.8252C13.564 6.82526 14.9546 7.56288 15.8467 8.70801L18.1396 7.47363L12 4.13184L5.86035 7.47363Z" fill="#141518"/>
</svg>
