<svg width="24" height="24" viewBox="0 0 24 24" fill="none" xmlns="http://www.w3.org/2000/svg">
<path d="M10.7739 3.557C9.56651 3.27328 8.30083 3.37052 7.15089 3.83532C6.90442 3.93504 6.72279 4.14912 6.66457 4.40856C6.60635 4.66802 6.67864 4.93965 6.8589 5.13512L9.82082 8.34411L9.56007 9.55895L8.34523 9.81969L5.13527 6.85876C4.93979 6.6785 4.66817 6.60621 4.40871 6.66442C4.14927 6.72263 3.9352 6.90428 3.83546 7.15075C3.37067 8.30068 3.27343 9.56638 3.55714 10.7738C3.84089 11.9812 4.49118 13.0714 5.41945 13.8939C6.34783 14.7165 7.50886 15.2312 8.74171 15.3675C9.7529 15.4793 10.7718 15.3314 11.7046 14.9437L15.8491 19.7504C15.8619 19.7652 15.8753 19.7795 15.8892 19.7933C16.4069 20.311 17.1092 20.6019 17.8413 20.6019C18.5736 20.6019 19.2757 20.3111 19.7935 19.7933C20.3112 19.2755 20.6021 18.5734 20.6021 17.8412C20.602 17.109 20.3112 16.4067 19.7935 15.889C19.7796 15.8752 19.7653 15.8618 19.7505 15.849L14.9448 11.7035C15.3321 10.771 15.4794 9.75233 15.3677 8.74157C15.2314 7.50871 14.7166 6.34768 13.8941 5.4193C13.0715 4.49104 11.9813 3.84074 10.7739 3.557ZM18.9829 17.8412C18.9829 18.1438 18.8619 18.4339 18.648 18.6478C18.434 18.8618 18.1439 18.9828 17.8413 18.9828C17.5452 18.9827 17.2619 18.8661 17.0493 18.6605L12.5259 13.4173L12.4253 13.3187C12.1728 13.1123 11.8146 13.0754 11.521 13.2377C10.7284 13.6756 9.81952 13.8567 8.91945 13.7572C8.01928 13.6577 7.17153 13.2826 6.49367 12.682C5.81583 12.0814 5.34052 11.2853 5.13332 10.4037C5.0228 9.9334 4.99523 9.45114 5.04152 8.97594L7.55421 11.2953C7.74779 11.4739 8.01642 11.5479 8.27394 11.4925L10.4116 11.0326C10.7229 10.9656 10.9657 10.7227 11.0327 10.4115L11.4927 8.2738C11.548 8.01629 11.474 7.74764 11.2954 7.55407L8.97707 5.0404C9.45191 4.99426 9.93391 5.02274 10.4038 5.13317C11.2854 5.34038 12.0816 5.81569 12.6821 6.49352C13.2827 7.17138 13.6578 8.01913 13.7573 8.9193C13.8568 9.81937 13.6757 10.7282 13.2378 11.5209C13.0525 11.8562 13.1274 12.2754 13.4175 12.5257L18.6616 17.0482C18.8672 17.2607 18.9829 17.545 18.9829 17.8412Z" fill="black"/>
</svg>
