<svg width="24" height="24" viewBox="0 0 24 24" fill="none" xmlns="http://www.w3.org/2000/svg">
<path d="M6.67939 13.0099C6.99572 12.6935 7.50858 12.6935 7.8249 13.0099C8.14122 13.3262 8.14123 13.8391 7.8249 14.1554L6.04248 15.9378H19.9131C20.3604 15.9378 20.7231 16.3006 20.7231 16.7479C20.7231 17.1952 20.3604 17.5579 19.9131 17.5579H6.04248L7.8249 19.3403C8.14122 19.6567 8.14122 20.1695 7.8249 20.4858C7.50858 20.8022 6.99572 20.8022 6.67939 20.4858L3.51416 17.3206C3.49489 17.3013 3.47663 17.2811 3.45938 17.26C3.4561 17.256 3.45318 17.2517 3.45 17.2477C3.43666 17.2307 3.42389 17.2133 3.41191 17.1952C3.40746 17.1885 3.40355 17.1815 3.39932 17.1747C3.38987 17.1595 3.38052 17.1443 3.37207 17.1284C3.36797 17.1207 3.36448 17.1128 3.36064 17.105C3.34104 17.0652 3.32377 17.0239 3.31084 16.9808C3.30894 16.9744 3.30789 16.9678 3.30615 16.9614C3.28758 16.8934 3.27686 16.8218 3.27686 16.7479C3.27686 16.702 3.28125 16.6571 3.28857 16.6134C3.28982 16.606 3.29064 16.5985 3.29209 16.5911C3.29552 16.5737 3.30016 16.5566 3.30469 16.5396C3.30693 16.5311 3.30861 16.5225 3.31113 16.5141C3.31668 16.4956 3.32338 16.4777 3.33018 16.4599C3.33261 16.4535 3.33461 16.4469 3.33721 16.4405C3.34382 16.4244 3.35158 16.4089 3.35918 16.3934C3.3635 16.3845 3.36741 16.3754 3.37207 16.3667C3.37931 16.3532 3.38754 16.3402 3.39551 16.3272C3.40054 16.3189 3.4051 16.3104 3.41045 16.3022L3.41514 16.2952C3.42261 16.2841 3.43087 16.2737 3.43887 16.263C3.44608 16.2534 3.45285 16.2434 3.46055 16.234C3.47741 16.2135 3.49539 16.1939 3.51416 16.1751L6.67939 13.0099ZM16.1751 3.51416C16.4914 3.19784 17.0043 3.19784 17.3206 3.51416L20.4858 6.6791C20.5425 6.7358 20.5906 6.80104 20.6285 6.87246C20.6319 6.87888 20.6347 6.8856 20.6379 6.89209C20.6465 6.90935 20.6551 6.9266 20.6625 6.94453C20.6649 6.9504 20.6667 6.95649 20.6689 6.9624C20.6761 6.98101 20.6831 6.99971 20.6889 7.01895C20.6908 7.0253 20.6918 7.03189 20.6936 7.03828C20.7122 7.10641 20.7231 7.17783 20.7231 7.25186C20.7231 7.29659 20.7184 7.34034 20.7114 7.38311C20.71 7.39168 20.7093 7.40035 20.7076 7.40889C20.7046 7.42435 20.7004 7.43946 20.6965 7.45459C20.6937 7.46523 20.6915 7.47598 20.6883 7.48652C20.6836 7.50214 20.6778 7.51732 20.6722 7.53252C20.6688 7.54179 20.6657 7.55119 20.6619 7.56035C20.6564 7.57364 20.6499 7.58639 20.6438 7.59932C20.6382 7.61098 20.6329 7.62274 20.6268 7.63418C20.6209 7.64516 20.6144 7.65574 20.608 7.66641C20.6011 7.67797 20.5944 7.6897 20.5869 7.70098C20.5787 7.71326 20.5697 7.72492 20.5608 7.73672C20.5536 7.74634 20.5469 7.75636 20.5392 7.76572C20.5313 7.77529 20.5225 7.78407 20.5143 7.79326C20.5048 7.80372 20.4959 7.81483 20.4858 7.8249L17.3206 10.9901C17.0043 11.3064 16.4914 11.3064 16.1751 10.9901C15.8588 10.6738 15.8588 10.161 16.1751 9.84463L17.9578 8.06191H4.08691C3.63957 8.06191 3.27686 7.6992 3.27686 7.25186C3.27688 6.80453 3.63958 6.4418 4.08691 6.4418H17.9572L16.1751 4.65967C15.8588 4.34335 15.8588 3.83049 16.1751 3.51416Z" fill="#141518"/>
</svg>
