<svg width="24" height="24" viewBox="0 0 24 24" fill="none" xmlns="http://www.w3.org/2000/svg">
<path d="M13.7998 1.6655C14.3986 1.66556 14.9255 1.96394 15.2812 2.40867C15.6331 2.8487 15.8096 3.41386 15.8096 3.97507V4.6655H19.2002C19.6474 4.66571 20.0098 5.02785 20.0098 5.47507C20.0098 5.92229 19.6474 6.28443 19.2002 6.28464H18.8096V18.9827C18.8096 20.4241 17.6415 21.5929 16.2002 21.5931H7.7998C6.35843 21.593 5.19043 20.4241 5.19043 18.9827V6.28464H4.7998C4.35245 6.28464 3.99023 5.92242 3.99023 5.47507C3.99023 5.02772 4.35245 4.6655 4.7998 4.6655H8.19043V3.97507C8.19043 3.41382 8.36683 2.84871 8.71875 2.40867C9.07457 1.96394 9.60139 1.6655 10.2002 1.6655H13.7998ZM6.80957 18.9827C6.80957 19.5294 7.25313 19.9729 7.7998 19.973H16.2002C16.7468 19.9728 17.1904 19.5294 17.1904 18.9827V6.28464H6.80957V18.9827ZM10.0586 10.5462C10.5059 10.5462 10.8681 10.9085 10.8682 11.3558V15.1243C10.8682 15.5717 10.5059 15.9349 10.0586 15.9349C9.61124 15.9349 9.24902 15.5717 9.24902 15.1243V11.3558C9.24909 10.9085 9.61128 10.5462 10.0586 10.5462ZM13.8945 10.5462C14.3418 10.5462 14.704 10.9085 14.7041 11.3558V15.1243C14.7041 15.5717 14.3419 15.9349 13.8945 15.9349C13.4474 15.9347 13.085 15.5715 13.085 15.1243V11.3558C13.085 10.9086 13.4474 10.5464 13.8945 10.5462ZM10.2002 3.28464C10.1626 3.28464 10.0785 3.30282 9.98438 3.42038C9.88635 3.54291 9.80957 3.74078 9.80957 3.97507V4.6655H14.1904V3.97507C14.1904 3.74084 14.1136 3.54292 14.0156 3.42038C13.9216 3.30293 13.8375 3.2847 13.7998 3.28464H10.2002Z" fill="#141518"/>
</svg>
