<svg width="24" height="24" viewBox="0 0 24 24" fill="none" xmlns="http://www.w3.org/2000/svg">
<path d="M19.1947 12.4228C19.6594 11.9582 19.6599 11.2048 19.1954 10.74L12.4234 3.96794C11.9586 3.50321 11.2046 3.50321 10.7398 3.96794L3.96778 10.74C3.50336 11.2048 3.50385 11.9582 3.96847 12.4228L10.7405 19.1949C11.2052 19.6592 11.958 19.6592 12.4227 19.1949L19.1947 12.4228ZM13.5683 20.3405C12.471 21.4375 10.6922 21.4375 9.59494 20.3405L2.82288 13.5684C1.72561 12.4712 1.72581 10.6925 2.82288 9.5951L9.59494 2.82303C10.6923 1.72566 12.4709 1.72566 13.5683 2.82303L20.3403 9.5951C21.4374 10.6925 21.4376 12.4712 20.3403 13.5684L13.5683 20.3405Z" fill="#141518"/>
<path d="M10.7646 12.8846V12.4413C10.7622 12.3549 10.7492 12.147 10.7852 11.9403C10.828 11.6937 10.9289 11.47 11.0918 11.2538C11.259 11.0318 11.4628 10.8743 11.6338 10.7596C11.7969 10.6502 11.9882 10.544 12.1152 10.4696C12.415 10.2941 12.5571 10.1811 12.6367 10.0467C12.834 9.71401 12.8741 9.59772 12.8789 9.37975C12.8716 8.99551 12.7454 8.75054 12.5215 8.56236L12.4209 8.48619C12.1828 8.3217 11.9013 8.23099 11.5498 8.22545C11.1792 8.23179 10.8872 8.34948 10.6338 8.57799L10.626 8.58482C10.3898 8.79223 10.2729 9.03809 10.2686 9.38365C10.2629 9.83097 9.89556 10.1891 9.44824 10.1835C9.00116 10.1775 8.64376 9.81029 8.64941 9.36314C8.65939 8.57763 8.96196 7.89513 9.54883 7.37584C9.55037 7.37445 9.55216 7.37235 9.55371 7.37096L9.55664 7.36803C10.1135 6.86887 10.7878 6.61529 11.54 6.60631H11.5596C12.2122 6.61389 12.8119 6.79071 13.332 7.14732L13.5498 7.31041L13.5547 7.31432C14.1829 7.83778 14.4903 8.55329 14.5 9.37389V9.39732C14.4893 10.0337 14.2881 10.438 14.0303 10.8729C13.7195 11.3971 13.2432 11.6858 12.9336 11.867C12.7559 11.9711 12.6445 12.0326 12.5361 12.1053C12.436 12.1725 12.3984 12.2116 12.3857 12.2284C12.3839 12.2308 12.3823 12.2332 12.3809 12.2352C12.3808 12.2383 12.3809 12.242 12.3809 12.246C12.3808 12.261 12.3812 12.2799 12.3818 12.3055C12.3822 12.3182 12.3823 12.3314 12.3828 12.3465C12.3833 12.3613 12.3833 12.3782 12.3838 12.3954L12.3848 12.4071V12.8846C12.3848 13.332 12.0216 13.6952 11.5742 13.6952C11.1269 13.6951 10.7646 13.3319 10.7646 12.8846Z" fill="#141518"/>
<path d="M12.7136 15.8651C12.7136 16.4919 12.2054 17 11.5785 17C10.9516 17 10.4434 16.4919 10.4434 15.8651C10.4434 15.2383 10.9516 14.7301 11.5785 14.7301C12.2054 14.7301 12.7136 15.2383 12.7136 15.8651Z" fill="#141518"/>
<path d="M12.2969 15.8649C12.2968 15.4683 11.975 15.1471 11.5781 15.1471C11.1814 15.1473 10.8604 15.4684 10.8604 15.8649C10.8604 16.2615 11.1814 16.5835 11.5781 16.5837L11.5785 17C10.9516 17 10.4434 16.4919 10.4434 15.8651C10.4434 15.2383 10.9516 14.7301 11.5785 14.7301C12.2054 14.7301 12.7136 15.2383 12.7136 15.8651L12.708 15.9811C12.6499 16.5534 12.1662 17 11.5785 17L11.5781 16.5837C11.975 16.5837 12.2969 16.2616 12.2969 15.8649Z" fill="#141518"/>
</svg>
