<svg width="24" height="24" viewBox="0 0 24 24" fill="none" xmlns="http://www.w3.org/2000/svg">
<path d="M6.49511 10.9341C6.81864 10.6253 7.33173 10.6371 7.64062 10.9604C7.94943 11.284 7.93773 11.7971 7.61425 12.1059C7.38685 12.323 6.78038 12.9156 6.22558 13.4595C5.94934 13.7303 5.68686 13.9879 5.49413 14.1772C5.39793 14.2717 5.31859 14.3498 5.26367 14.4038C5.23637 14.4306 5.21471 14.452 5.20019 14.4663C5.19769 14.4687 5.19444 14.4701 5.19238 14.4722C4.63409 15.0502 4.32602 15.8258 4.333 16.6294C4.34007 17.4329 4.66229 18.2018 5.23046 18.77C5.7987 19.3381 6.56759 19.6604 7.37109 19.6675C8.17152 19.6744 8.94221 19.3671 9.51952 18.813C9.52301 18.8094 9.52853 18.805 9.53417 18.7993C9.5485 18.7847 9.56983 18.7631 9.59667 18.7358C9.6507 18.6809 9.72874 18.6016 9.82324 18.5054C10.0125 18.3127 10.2694 18.051 10.54 17.7749C11.0837 17.2203 11.6762 16.614 11.8935 16.3862C12.2023 16.0627 12.7154 16.0503 13.0391 16.3589C13.3627 16.6677 13.3743 17.1808 13.0654 17.5044C12.8388 17.7418 12.2372 18.3578 11.6973 18.9087C11.426 19.1854 11.1681 19.4481 10.9785 19.6411C10.8839 19.7374 10.806 19.8165 10.7519 19.8716C10.725 19.899 10.7038 19.9204 10.6894 19.935C10.6824 19.9422 10.6765 19.9479 10.6728 19.9517C10.671 19.9535 10.6699 19.9556 10.6689 19.9565L10.668 19.9575C10.6631 19.9624 10.6573 19.9674 10.6523 19.9722C9.76872 20.8255 8.58482 21.2983 7.35644 21.2876C6.12834 21.2768 4.95345 20.7839 4.08495 19.9155C3.21635 19.0469 2.72356 17.8714 2.71288 16.6431C2.70223 15.4147 3.17398 14.2308 4.02734 13.3472C4.0321 13.3422 4.0371 13.3373 4.04199 13.3325L4.06445 13.311C4.07907 13.2967 4.10139 13.2756 4.1289 13.2485C4.18398 13.1944 4.26293 13.1157 4.35937 13.021C4.55225 12.8315 4.8143 12.5743 5.09081 12.3032C5.64169 11.7632 6.25765 11.1607 6.49511 10.9341ZM7.60937 7.60888C7.9256 7.29272 8.43757 7.29288 8.7539 7.60888L16.3906 15.2456C16.7069 15.5619 16.7079 16.0748 16.3916 16.3911C16.0753 16.7074 15.5624 16.7065 15.2461 16.3901L7.60937 8.75439C7.29304 8.43806 7.29304 7.9252 7.60937 7.60888ZM16.6435 2.71239C17.8717 2.72316 19.0465 3.21607 19.915 4.08446C20.7835 4.95298 21.2763 6.12775 21.2871 7.35595C21.2978 8.58431 20.826 9.76824 19.9727 10.6518C19.9671 10.6576 19.9608 10.6638 19.9551 10.6694L17.7588 12.812C17.4386 13.1242 16.9256 13.1175 16.6133 12.7974C16.3012 12.4771 16.3069 11.9641 16.6269 11.6518L18.8154 9.51708C19.3683 8.94 19.6749 8.17005 19.668 7.3706C19.6609 6.567 19.3378 5.79823 18.7695 5.22997C18.2013 4.66185 17.4324 4.33949 16.6289 4.33251C15.8254 4.32567 15.0506 4.63465 14.4726 5.19286L12.3476 7.37255C12.0353 7.69273 11.5224 7.69854 11.2021 7.38622C10.8824 7.07396 10.8757 6.56183 11.1875 6.24169L13.3301 4.04442L13.3476 4.02685C14.2312 3.17357 15.4153 2.70181 16.6435 2.71239Z" fill="#141518"/>
</svg>
