<svg width="24" height="24" viewBox="0 0 24 24" fill="none" xmlns="http://www.w3.org/2000/svg">
<path d="M19.8867 13.4404C20.3339 13.4406 20.6962 13.8029 20.6963 14.25V16.9229C20.6962 19.0269 18.9907 20.7323 16.8867 20.7324H7.11328C5.00912 20.7324 3.30378 19.027 3.30371 16.9229V14.25C3.30384 13.8028 3.66601 13.4404 4.11328 13.4404C4.56055 13.4404 4.92272 13.8028 4.92285 14.25V16.9229C4.92292 18.1323 5.90382 19.1123 7.11328 19.1123H16.8867C18.096 19.1121 19.0761 18.1322 19.0762 16.9229V14.25C19.0763 13.8028 19.4394 13.4404 19.8867 13.4404ZM12.0254 3.26855C12.0355 3.26886 12.0456 3.26983 12.0557 3.27051C12.0949 3.27318 12.1334 3.27808 12.1709 3.28613C12.1834 3.28881 12.1956 3.29262 12.208 3.2959C12.2387 3.30404 12.2687 3.31365 12.2979 3.3252C12.3157 3.33225 12.3332 3.34026 12.3506 3.34863C12.3782 3.36191 12.4049 3.37638 12.4307 3.39258C12.4808 3.42416 12.5295 3.46022 12.5732 3.50391L16.1865 7.11816C16.5027 7.43435 16.5024 7.94733 16.1865 8.26367C15.8702 8.5798 15.3573 8.57989 15.041 8.26367L12.8096 6.03223V14.1963C12.8093 14.6434 12.4471 15.0058 12 15.0059C11.5528 15.0059 11.1907 14.6434 11.1904 14.1963V6.03223L8.95996 8.26367C8.64365 8.57998 8.12981 8.57995 7.81348 8.26367C7.49743 7.94744 7.49752 7.43445 7.81348 7.11816L11.4277 3.50391L11.4893 3.44922C11.4987 3.44149 11.5098 3.43594 11.5195 3.42871C11.5461 3.40904 11.5727 3.38941 11.6016 3.37305C11.6112 3.36757 11.621 3.36247 11.6309 3.35742C11.6645 3.34019 11.6992 3.32497 11.7354 3.3125C11.7426 3.31001 11.7496 3.30697 11.7568 3.30469C11.795 3.29271 11.8346 3.28457 11.875 3.27832C11.8857 3.27664 11.8964 3.27469 11.9072 3.27344C11.9376 3.26998 11.9687 3.26758 12 3.26758C12.0085 3.26758 12.017 3.26829 12.0254 3.26855Z" fill="#141518"/>
</svg>
