<svg width="24" height="24" viewBox="0 0 24 24" fill="none" xmlns="http://www.w3.org/2000/svg">
<path d="M7.751 13.123C8.19528 13.0725 8.5966 13.3917 8.64749 13.8359C8.6979 14.2802 8.37882 14.6817 7.9346 14.7324C5.04579 15.0623 3.6978 17.6055 3.54592 19.4316C3.50866 19.8772 3.11654 20.2088 2.67092 20.1719C2.22557 20.1346 1.89401 19.7433 1.93069 19.2979C2.12106 17.0067 3.82596 13.5711 7.751 13.123ZM13.9971 13.376C15.717 13.376 17.3893 13.9433 18.7539 14.9902C20.1185 16.0373 21.0997 17.5057 21.5449 19.167C21.6532 19.571 21.4138 19.9864 21.0098 20.0947C20.6059 20.2027 20.1903 19.9625 20.0821 19.5586C19.723 18.2195 18.932 17.0354 17.8321 16.1914C16.732 15.3475 15.3835 14.8897 13.9971 14.8896C12.6106 14.8898 11.2621 15.3474 10.1621 16.1914C9.06225 17.0354 8.27113 18.2195 7.91213 19.5586C7.80384 19.9626 7.38841 20.203 6.9844 20.0947C6.58081 19.9862 6.34109 19.5708 6.44924 19.167C6.8945 17.5056 7.87573 16.0373 9.24026 14.9902C10.6048 13.9432 12.2771 13.3761 13.9971 13.376ZM14.2188 4.20605C16.4255 4.31798 18.1807 6.14236 18.1807 8.37695L18.1748 8.5918C18.063 10.7986 16.2385 12.5536 14.0039 12.5537L13.7891 12.5479C11.6535 12.4395 9.9413 10.7274 9.83303 8.5918L9.82717 8.37695C9.82717 6.07035 11.6974 4.20037 14.0039 4.2002L14.2188 4.20605ZM8.6221 4.48242C9.03968 4.48292 9.37888 4.82157 9.37893 5.23926C9.37867 5.65677 9.03955 5.99559 8.6221 5.99609C8.293 5.99612 7.96621 6.06164 7.66213 6.1875C7.35808 6.3135 7.08044 6.49777 6.84768 6.73047C6.61499 6.96326 6.43069 7.24084 6.30471 7.54492C6.17884 7.84904 6.11331 8.17574 6.11331 8.50488C6.11343 8.83386 6.17885 9.15992 6.30471 9.46387C6.43075 9.76795 6.61493 10.0456 6.84768 10.2783C7.0805 10.511 7.358 10.6953 7.66213 10.8213C7.96622 10.9472 8.29299 11.0127 8.6221 11.0127C9.03971 11.0132 9.37893 11.3518 9.37893 11.7695C9.37867 12.187 9.03955 12.5259 8.6221 12.5264C8.09414 12.5263 7.56985 12.4227 7.08206 12.2207C6.59434 12.0186 6.15071 11.7219 5.77737 11.3486C5.40416 10.9754 5.10838 10.5315 4.90628 10.0439C4.70427 9.55626 4.59976 9.03275 4.59963 8.50488C4.59963 7.97688 4.70428 7.45268 4.90628 6.96484C5.10833 6.47731 5.40424 6.03338 5.77737 5.66016C6.15057 5.28702 6.59454 4.99114 7.08206 4.78906C7.56985 4.58708 8.09414 4.48245 8.6221 4.48242ZM14.0039 5.71484C12.534 5.71502 11.3418 6.90694 11.3418 8.37695C11.3419 9.84693 12.534 11.0389 14.0039 11.0391C15.4739 11.039 16.666 9.84697 16.666 8.37695C16.666 6.9069 15.474 5.71494 14.0039 5.71484Z" fill="#141518"/>
</svg>
