<svg width="24" height="24" viewBox="0 0 24 24" fill="none" xmlns="http://www.w3.org/2000/svg">
<path d="M11.9928 12.4614C13.9077 12.4615 15.7694 13.0936 17.2887 14.2593C18.808 15.4252 19.9004 17.0598 20.3961 18.9097C20.5118 19.3416 20.2556 19.7859 19.8238 19.9019C19.3918 20.0174 18.9474 19.7606 18.8316 19.3286C18.4282 17.8234 17.5387 16.4932 16.3023 15.5445C15.066 14.5959 13.5511 14.0816 11.9928 14.0816C10.4344 14.0816 8.91858 14.5958 7.68223 15.5445C6.44614 16.4931 5.55731 17.8236 5.15391 19.3286C5.03805 19.7606 4.59372 20.0176 4.16173 19.9019C3.7299 19.786 3.47386 19.3416 3.58946 18.9097C4.08511 17.0601 5.17689 15.4251 6.6959 14.2593C8.21518 13.0936 10.0778 12.4615 11.9928 12.4614ZM12.2398 2.25244C14.6966 2.37722 16.65 4.40921 16.65 6.89698L16.6441 7.13624C16.5193 9.59276 14.4881 11.5461 12.0006 11.5464L11.7613 11.5405C9.38363 11.4202 7.47689 9.51381 7.35606 7.13624L7.3502 6.89698C7.3502 4.3288 9.43241 2.24658 12.0006 2.24658L12.2398 2.25244ZM12.0006 3.8667C10.3271 3.8667 8.97031 5.22352 8.97031 6.89698C8.97067 8.57014 10.3273 9.92628 12.0006 9.92628C13.6736 9.92602 15.0295 8.56997 15.0299 6.89698C15.0299 5.22368 13.6738 3.86697 12.0006 3.8667Z" fill="#141518"/>
</svg>
