<svg width="24" height="24" viewBox="0 0 24 24" fill="none" xmlns="http://www.w3.org/2000/svg">
<path d="M7.01926 12.2593C8.64941 12.2595 9.972 13.5814 9.97238 15.2115L9.96847 15.3638C9.9211 16.2975 9.43707 17.1142 8.71945 17.6216C9.11716 17.7787 9.4939 17.9908 9.83762 18.2544C10.646 18.8748 11.228 19.7449 11.4919 20.7291C11.5947 21.1131 11.3661 21.5079 10.9821 21.6109C10.5983 21.7134 10.2032 21.4859 10.1003 21.1021C9.9185 20.4242 9.51838 19.8244 8.96164 19.397C8.40463 18.9698 7.72125 18.7379 7.01926 18.7378C6.31707 18.7379 5.63397 18.9696 5.07687 19.397C4.5198 19.8245 4.11905 20.4239 3.93722 21.1021C3.8343 21.4861 3.43941 21.7137 3.05539 21.6109C2.67161 21.5078 2.44376 21.113 2.5466 20.7291C2.8105 19.7449 3.39154 18.8748 4.19992 18.2544C4.54269 17.9914 4.91854 17.7796 5.31515 17.6226C4.5601 17.0876 4.06711 16.2071 4.06711 15.2115C4.06749 13.5813 5.38904 12.2595 7.01926 12.2593ZM10.6745 3.75444C12.2949 3.42614 13.9765 3.58305 15.5085 4.20464C17.0405 4.8263 18.3563 5.88591 19.2898 7.25054C20.2229 8.61499 20.7334 10.2246 20.7575 11.8775C20.7815 13.5304 20.3177 15.1545 19.4245 16.5455C18.5311 17.9365 17.2464 19.0339 15.7331 19.6998C15.7182 19.7063 15.7026 19.7127 15.6872 19.7183C15.3214 19.853 14.6273 20.142 13.7849 20.2164C13.3393 20.2556 12.9463 19.9265 12.907 19.481C12.8679 19.0357 13.197 18.6425 13.6423 18.6031C14.2098 18.5529 14.6739 18.3659 15.0935 18.2105C16.3097 17.6723 17.3424 16.7897 18.0612 15.6705C18.7825 14.5473 19.1568 13.2356 19.1374 11.9009C19.1179 10.5662 18.7055 9.26635 17.9519 8.1646C17.1983 7.06303 16.1368 6.20756 14.9001 5.70562C13.6633 5.20375 12.305 5.07735 10.9968 5.34233C9.68853 5.60748 8.48667 6.25304 7.54269 7.19683C6.92258 7.82503 6.37045 8.43409 5.78488 9.11675H7.50851C7.95556 9.1171 8.31808 9.48016 8.31808 9.9273C8.31789 10.3743 7.95544 10.7365 7.50851 10.7369H4.05246C4.03084 10.7369 4.0092 10.7346 3.98801 10.733C3.98315 10.7326 3.9782 10.7334 3.97336 10.733C3.96614 10.7323 3.95903 10.7309 3.95187 10.73C3.90747 10.7245 3.86338 10.7156 3.82004 10.7027C3.79981 10.6966 3.77999 10.6897 3.76047 10.6822C3.75584 10.6804 3.75139 10.6782 3.74679 10.6763C3.72715 10.6683 3.70802 10.6594 3.68918 10.65C3.68437 10.6475 3.6793 10.6456 3.67453 10.6431C3.6717 10.6416 3.66855 10.6407 3.66574 10.6392L3.60715 10.6041C3.58426 10.589 3.56244 10.5719 3.54074 10.5542C3.47734 10.5026 3.42306 10.444 3.37961 10.3794C3.36489 10.3576 3.35214 10.3344 3.33957 10.3111C3.31274 10.2613 3.29086 10.2094 3.27511 10.1558C3.26288 10.1142 3.25418 10.0711 3.24875 10.0269C3.24705 10.0133 3.24585 9.9996 3.24484 9.98589C3.24345 9.96653 3.2429 9.947 3.24289 9.9273V6.47124C3.24289 6.02389 3.60511 5.66167 4.05246 5.66167C4.49966 5.66185 4.86203 6.024 4.86203 6.47124V7.70366C5.35969 7.13514 5.85165 6.60278 6.39328 6.05425L6.39719 6.05132C7.56628 4.88242 9.05426 4.08285 10.6745 3.75444ZM7.01926 13.6998C6.18433 13.6999 5.50792 14.3766 5.50754 15.2115C5.50754 16.0467 6.1841 16.724 7.01926 16.7242C7.85435 16.724 8.53195 16.0466 8.53195 15.2115C8.53157 14.3767 7.85412 13.7 7.01926 13.6998ZM12.3454 7.04351C12.7926 7.04351 13.1548 7.40594 13.155 7.85308V11.5406L16.2175 13.3785C16.601 13.6085 16.7256 14.1063 16.4958 14.4898C16.2657 14.8734 15.7681 14.9982 15.3845 14.7681L11.9284 12.6949C11.6848 12.5484 11.5359 12.2839 11.5359 11.9996V7.85308C11.5361 7.40607 11.8984 7.04372 12.3454 7.04351Z" fill="#141518"/>
</svg>
