<svg width="24" height="24" viewBox="0 0 24 24" fill="none" xmlns="http://www.w3.org/2000/svg">
<path fill-rule="evenodd" clip-rule="evenodd" d="M12.8779 2.39507C13.5037 2.42576 14.0984 2.68424 14.5484 3.12427L14.5493 3.12515L19.0748 7.5645C19.3195 7.80377 19.5144 8.08956 19.6472 8.40503C19.78 8.72053 19.8485 9.05968 19.8485 9.402V11.8202C19.8485 12.2675 19.4858 12.6302 19.0384 12.6302C18.5911 12.6302 18.2284 12.2675 18.2284 11.8202V10.0084H15.0409C14.2959 10.0084 13.5813 9.71252 13.0545 9.18579C12.5278 8.65904 12.2319 7.94439 12.2319 7.19946V4.01196H6.72115C6.46931 4.01197 6.22774 4.11191 6.04966 4.28999C5.87159 4.46807 5.77165 4.70964 5.77164 4.96147V19.0383C5.77164 19.2902 5.8716 19.5317 6.04966 19.7098C6.22774 19.8879 6.46931 19.9878 6.72115 19.9878H14.6999C15.1472 19.9878 15.5099 20.3506 15.5099 20.7979C15.5099 21.2453 15.1472 21.608 14.6999 21.608H6.72115C6.03966 21.608 5.38604 21.3372 4.90416 20.8553C4.42228 20.3734 4.15152 19.7198 4.15152 19.0383V4.96147C4.15153 4.27999 4.42227 3.62637 4.90416 3.14448C5.38604 2.6626 6.03966 2.39186 6.72115 2.39185H12.7522L12.8779 2.39507ZM13.852 7.19946C13.852 7.51474 13.9771 7.81734 14.2001 8.04028C14.423 8.2632 14.7256 8.38833 15.0409 8.38833H17.6014L13.852 4.71011V7.19946Z" fill="#141518"/>
<path fill-rule="evenodd" clip-rule="evenodd" d="M18.434 13.6298C18.8482 13.6298 19.184 13.9656 19.184 14.3798V14.945C19.4791 15.0448 19.7475 15.2017 19.9765 15.4029L20.4667 15.1202C20.8253 14.9131 21.284 15.0361 21.4912 15.3947C21.6983 15.7533 21.5753 16.212 21.2167 16.4192L20.7274 16.7016C20.7568 16.8498 20.7728 17.003 20.7728 17.1598C20.7728 17.3165 20.7568 17.4694 20.7274 17.6174L21.2167 17.9001C21.5753 18.1073 21.6983 18.5663 21.4912 18.925C21.284 19.2836 20.8253 19.4063 20.4667 19.1992L19.9768 18.9162C19.7477 19.1176 19.4793 19.2747 19.184 19.3747V19.9398C19.184 20.354 18.8482 20.6898 18.434 20.6898C18.0199 20.6898 17.6841 20.354 17.684 19.9398V19.3747C17.3888 19.2747 17.1201 19.1179 16.891 18.9165L16.4014 19.1992C16.0428 19.4063 15.5841 19.2836 15.3769 18.925C15.1698 18.5663 15.2927 18.1073 15.6514 17.9001L16.1404 17.6174C16.111 17.4694 16.0956 17.3164 16.0956 17.1598C16.0956 17.003 16.111 16.8498 16.1404 16.7016L15.6514 16.4192C15.2927 16.2121 15.1698 15.7534 15.3769 15.3947C15.5841 15.0361 16.0428 14.9131 16.4014 15.1202L16.891 15.4029C17.1201 15.2015 17.3888 15.0446 17.684 14.9447V14.3798C17.6841 13.9656 18.0198 13.6298 18.434 13.6298ZM18.434 16.3213C17.971 16.3214 17.5956 16.6968 17.5956 17.1598C17.5956 17.6219 17.9693 17.9967 18.4311 17.9983H18.4367C18.8985 17.9968 19.2728 17.622 19.2728 17.1598C19.2728 16.6968 18.8971 16.3214 18.434 16.3213Z" fill="#141518"/>
<path d="M12.5395 15.5889C12.9868 15.589 13.3493 15.9517 13.3493 16.399C13.3493 16.8463 12.9868 17.209 12.5395 17.209H8.7605C8.3132 17.209 7.95075 16.8463 7.95074 16.399C7.95074 15.9517 8.31319 15.589 8.7605 15.5889H12.5395Z" fill="#141518"/>
<path d="M14.3395 12.0698C14.7868 12.0698 15.1493 12.4325 15.1493 12.8798C15.1492 13.3271 14.7868 13.6895 14.3395 13.6896H8.7605C8.31323 13.6896 7.95079 13.3271 7.95074 12.8798C7.95074 12.4325 8.31319 12.0698 8.7605 12.0698H14.3395Z" fill="#141518"/>
</svg>
