<svg width="24" height="24" viewBox="0 0 24 24" fill="none" xmlns="http://www.w3.org/2000/svg">
<path fill-rule="evenodd" clip-rule="evenodd" d="M12 8.23535C14.0788 8.23537 15.7643 9.92025 15.7646 11.999C15.7646 14.0781 14.079 15.7637 12 15.7637C9.92106 15.7635 8.23628 14.078 8.23628 11.999C8.23663 9.92037 9.92127 8.23556 12 8.23535ZM12 9.85449C10.816 9.8547 9.85577 10.8151 9.85542 11.999C9.85542 13.1833 10.8158 14.1433 12 14.1436C13.1843 14.1435 14.1445 13.1834 14.1445 11.999C14.1441 10.815 13.1841 9.85451 12 9.85449Z" fill="#141518"/>
<path fill-rule="evenodd" clip-rule="evenodd" d="M12 5.46582C18.0624 5.46582 20.9115 10.2507 21.5048 11.3867C21.7061 11.7721 21.7061 12.2279 21.5048 12.6133C20.9111 13.7499 18.0618 18.5342 12 18.5342C5.9379 18.534 3.08857 13.7495 2.49507 12.6133C2.29383 12.228 2.29393 11.7721 2.49507 11.3867L2.63374 11.1328C3.45797 9.67091 6.3168 5.46596 12 5.46582ZM12 7.08496C7.10989 7.08511 4.66918 10.7916 4.00581 11.999C4.66831 13.2053 7.10842 16.9139 12 16.9141C16.8914 16.9141 19.3314 13.2056 19.9941 11.999C19.3305 10.7913 16.8899 7.08496 12 7.08496Z" fill="#141518"/>
</svg>
