<svg width="24" height="24" viewBox="0 0 24 24" fill="none" xmlns="http://www.w3.org/2000/svg">
<path fill-rule="evenodd" clip-rule="evenodd" d="M14.0088 3.06445C13.4769 2.62379 12.7826 2.39453 12.084 2.39453H10.0938C9.3951 2.39453 8.70088 2.62379 8.16895 3.06445C7.84824 3.3302 7.59963 3.66609 7.4502 4.04395H6.11133C5.36857 4.04398 4.65608 4.33905 4.13086 4.86426C3.60566 5.38949 3.31055 6.10196 3.31055 6.84473V18.7891C3.31067 19.5317 3.60578 20.2434 4.13086 20.7686C4.65608 21.2938 5.36857 21.5888 6.11133 21.5889H11.7812C12.2286 21.5889 12.5918 21.2266 12.5918 20.7793C12.5918 20.332 12.2286 19.9697 11.7812 19.9697H6.11133C5.79821 19.9697 5.49777 19.8444 5.27637 19.623C5.05509 19.4017 4.92981 19.102 4.92969 18.7891V6.84473C4.92969 6.53161 5.05497 6.23119 5.27637 6.00977C5.49777 5.78836 5.79821 5.66312 6.11133 5.66309H7.4502C7.59963 6.04139 7.84792 6.37859 8.16895 6.64453C8.70082 7.08495 9.39529 7.31348 10.0938 7.31348H12.084C12.7825 7.31348 13.4769 7.08506 14.0088 6.64453C14.3298 6.37859 14.5781 6.04139 14.7275 5.66309H16.0674C16.3803 5.6632 16.681 5.78855 16.9023 6.00977C17.1235 6.23115 17.248 6.53179 17.248 6.84473V11.1416C17.248 11.5888 17.6105 11.9519 18.0576 11.9521C18.505 11.9521 18.8682 11.589 18.8682 11.1416V6.84473C18.8682 6.10214 18.5728 5.38945 18.0479 4.86426C17.5227 4.33924 16.8099 4.04406 16.0674 4.04395H14.7266C14.5771 3.66623 14.3293 3.33011 14.0088 3.06445ZM10.0938 4.01465C9.73646 4.01465 9.4169 4.13364 9.20215 4.31152C8.99196 4.48575 8.91211 4.68648 8.91211 4.85449C8.91233 5.02237 8.99224 5.2225 9.20215 5.39648C9.4169 5.57428 9.73657 5.69336 10.0938 5.69336H12.084C12.4411 5.69336 12.7599 5.57421 12.9746 5.39648C13.1847 5.22246 13.2644 5.02242 13.2646 4.85449C13.2646 4.68648 13.1848 4.48575 12.9746 4.31152C12.7599 4.13381 12.4411 4.01465 12.084 4.01465H10.0938Z" fill="#141518"/>
<path fill-rule="evenodd" clip-rule="evenodd" d="M11.0889 13.998C11.5361 13.9981 11.8984 14.3603 11.8984 14.8076C11.8982 15.2547 11.536 15.6171 11.0889 15.6172H8.10254C7.65535 15.6172 7.29323 15.2547 7.29297 14.8076C7.29297 14.3603 7.65519 13.998 8.10254 13.998H11.0889Z" fill="#141518"/>
<path fill-rule="evenodd" clip-rule="evenodd" d="M14.2227 10.8262C14.2227 10.3788 13.8604 10.0166 13.4131 10.0166H8.10254C7.65519 10.0166 7.29297 10.3788 7.29297 10.8262C7.29323 11.2733 7.65535 11.6357 8.10254 11.6357H13.4131C13.8602 11.6357 14.2224 11.2733 14.2227 10.8262Z" fill="#141518"/>
<path fill-rule="evenodd" clip-rule="evenodd" d="M16.4414 13.2119C18.3868 13.2124 19.9639 14.7899 19.9639 16.7354C19.9637 17.4363 19.7563 18.088 19.4033 18.6367L20.9355 20.1689C21.2284 20.4618 21.2284 20.9366 20.9355 21.2295C20.6427 21.5224 20.1679 21.5224 19.875 21.2295L18.3428 19.6973C17.7941 20.0503 17.1423 20.2576 16.4414 20.2578C14.4959 20.2578 12.9184 18.6807 12.918 16.7354C12.918 14.7896 14.4957 13.2119 16.4414 13.2119ZM14.418 16.7354C14.418 15.618 15.3241 14.7119 16.4414 14.7119C17.5583 14.7124 18.4639 15.6183 18.4639 16.7354C18.4634 17.852 17.5581 18.7574 16.4414 18.7578C15.3244 18.7578 14.4184 17.8523 14.418 16.7354Z" fill="#141518"/>
</svg>
