<svg width="24" height="24" viewBox="0 0 24 24" fill="none" xmlns="http://www.w3.org/2000/svg">
<path d="M11.8195 2.00311C12.3164 2.0518 12.7887 2.24422 13.1779 2.55682L13.3654 2.72284L13.3664 2.72382L17.8918 7.16327C18.1366 7.40252 18.3312 7.68863 18.4641 8.00409C18.5969 8.31959 18.6652 8.65884 18.6652 9.00116V11.4191C18.6652 11.8664 18.3029 12.2295 17.8557 12.2297C17.4083 12.2297 17.0451 11.8665 17.0451 11.4191V9.6076H13.8557C13.1107 9.6076 12.3961 9.31112 11.8693 8.78436C11.3428 8.2577 11.0471 7.54373 11.0471 6.79901V3.61053H5.53827C5.28642 3.61053 5.04448 3.71077 4.86639 3.88885C4.68831 4.06694 4.58807 4.30888 4.58807 4.56073V18.6379C4.5882 18.8895 4.68853 19.1308 4.86639 19.3088C5.04448 19.4869 5.28642 19.5871 5.53827 19.5871H9.24335C9.69037 19.5873 10.0527 19.9496 10.0529 20.3967C10.0529 20.8439 9.69049 21.207 9.24335 21.2072H5.53827C4.85677 21.2072 4.20278 20.9362 3.72089 20.4543C3.23921 19.9725 2.96906 19.3191 2.96893 18.6379V4.56073C2.96893 3.87923 3.23899 3.22524 3.72089 2.74335C4.20278 2.26145 4.85677 1.99139 5.53827 1.99139H11.5695L11.8195 2.00311ZM14.9982 14.2375C15.4601 13.4379 16.6144 13.438 17.0764 14.2375L20.0568 19.3996C20.5183 20.1995 19.9412 21.1992 19.0178 21.1994H13.0578C12.1344 21.1993 11.5566 20.1994 12.0178 19.3996L14.9982 14.2375ZM16.0383 18.7971C15.7699 18.7971 15.5519 19.015 15.5519 19.2834C15.5524 19.5514 15.7702 19.7686 16.0383 19.7687C16.3062 19.7685 16.5232 19.5513 16.5236 19.2834C16.5236 19.0151 16.3065 18.7973 16.0383 18.7971ZM16.0627 16.0109C15.8738 16.0112 15.7209 16.1533 15.7209 16.3283V17.9152C15.7211 18.09 15.8739 18.2323 16.0627 18.2326C16.2517 18.2326 16.4052 18.0902 16.4055 17.9152V16.3283C16.4055 16.1531 16.2519 16.0109 16.0627 16.0109ZM11.3566 15.1877C11.8038 15.1878 12.1662 15.551 12.1662 15.9982C12.1661 16.4454 11.8038 16.8076 11.3566 16.8078H7.57733C7.13014 16.8077 6.76788 16.4454 6.76776 15.9982C6.76776 15.5509 7.13007 15.1878 7.57733 15.1877H11.3566ZM13.1564 11.6691C13.6037 11.6692 13.966 12.0314 13.966 12.4787C13.966 12.926 13.6037 13.2892 13.1564 13.2892H7.57733C7.13007 13.2891 6.76776 12.926 6.76776 12.4787C6.76781 12.0315 7.1301 11.6692 7.57733 11.6691H13.1564ZM12.6662 6.79901C12.6663 7.11408 12.7921 7.416 13.0148 7.63885C13.2378 7.86181 13.5403 7.98749 13.8557 7.98749H16.4182L12.6662 4.30682V6.79901Z" fill="#141518"/>
</svg>
