<svg width="24" height="24" viewBox="0 0 24 24" fill="none" xmlns="http://www.w3.org/2000/svg">
<path d="M9.92127 3.60015C10.845 2.00015 13.1547 2.00015 14.0785 3.60015L21.8812 17.1148C22.805 18.7148 21.6506 20.7153 19.8031 20.7154H4.19666C2.34925 20.7153 1.19481 18.7147 2.11854 17.1148L9.92127 3.60015ZM12.0004 15.0347C11.3659 15.0347 10.8511 15.5487 10.851 16.1832C10.851 16.8178 11.3658 17.3326 12.0004 17.3326C12.6348 17.3323 13.1488 16.8176 13.1488 16.1832C13.1487 15.5488 12.6347 15.0349 12.0004 15.0347ZM12.0599 8.4478C11.6127 8.4478 11.2505 8.78368 11.2504 9.1978V12.9507C11.2505 13.3649 11.6126 13.7007 12.0599 13.7007C12.5072 13.7007 12.8694 13.3649 12.8695 12.9507V9.1978C12.8694 8.78368 12.5072 8.4478 12.0599 8.4478Z" fill="#141518"/>
</svg>
