<svg width="24" height="24" viewBox="0 0 24 24" fill="none" xmlns="http://www.w3.org/2000/svg">
<path d="M9.92073 3.60016C10.8445 2.00041 13.1541 2.00052 14.078 3.60016L21.8807 17.1158C22.7755 18.6659 21.7201 20.5919 19.9735 20.7105L19.8026 20.7164H4.19612L4.02522 20.7105C2.33564 20.5952 1.29229 18.7881 2.03694 17.2672L2.11799 17.1158L9.92073 3.60016ZM12.6746 4.41071C12.3744 3.89077 11.6243 3.89073 11.324 4.41071L3.52131 17.9263C3.22194 18.446 3.59639 19.0957 4.19612 19.0963H19.8026C20.4028 19.0963 20.778 18.4463 20.4783 17.9263L12.6746 4.41071ZM11.9998 15.0347C12.6343 15.0347 13.149 15.5487 13.1492 16.1832C13.1492 16.8178 12.6344 17.3326 11.9998 17.3326C11.3653 17.3325 10.8514 16.8177 10.8514 16.1832C10.8516 15.5488 11.3654 15.0348 11.9998 15.0347ZM11.9998 8.38825C12.447 8.38825 12.8091 8.75068 12.8094 9.19782V12.9507C12.8092 13.3979 12.4471 13.7603 11.9998 13.7603C11.5527 13.7602 11.1904 13.3979 11.1903 12.9507V9.19782C11.1905 8.75074 11.5527 8.38834 11.9998 8.38825Z" fill="#141518"/>
</svg>
