<svg width="24" height="24" viewBox="0 0 24 24" fill="none" xmlns="http://www.w3.org/2000/svg">
<path d="M12.0586 2.63965C13.2866 2.64142 14.5086 2.88191 15.6543 3.35645C17.3772 4.07008 18.8497 5.27857 19.8857 6.8291C20.307 7.45962 20.6465 8.13578 20.9033 8.84082C20.9267 8.88887 20.9454 8.93939 20.959 8.99219C21.2984 9.97597 21.4746 11.0145 21.4746 12.0664C21.4745 12.5137 21.1123 12.8769 20.665 12.877C20.2178 12.8769 19.8556 12.5137 19.8555 12.0664C19.8554 11.3657 19.7594 10.6725 19.5762 10.0039H16.2939C16.3023 10.0597 16.3126 10.1154 16.3203 10.1719C16.381 10.6151 16.0702 11.0233 15.627 11.084C15.184 11.1444 14.7755 10.8346 14.7148 10.3916C14.6969 10.2603 14.6771 10.1311 14.6553 10.0039H9.43945C9.33046 10.64 9.26468 11.3271 9.26465 12.0664C9.26465 12.806 9.3304 13.4935 9.43945 14.1299H10.5615C11.0087 14.13 11.3711 14.4922 11.3711 14.9395C11.3711 15.3867 11.0087 15.7489 10.5615 15.749H9.83984C10.1478 16.6861 10.5429 17.4702 10.9375 18.1016C11.3544 18.7686 11.7698 19.266 12.0762 19.5928C12.2291 19.7559 12.3544 19.8763 12.4385 19.9531C12.4803 19.9914 12.5117 20.0194 12.5313 20.0361C12.5409 20.0443 12.5482 20.0498 12.5518 20.0527L12.5527 20.0537C12.618 20.1061 12.6733 20.1665 12.7178 20.2324C12.8053 20.3617 12.8564 20.5177 12.8564 20.6855C12.8564 20.7257 12.8524 20.7651 12.8467 20.8037C12.8449 20.8158 12.8431 20.8278 12.8408 20.8398C12.8392 20.848 12.8378 20.8562 12.8359 20.8643C12.8322 20.8806 12.828 20.8969 12.8232 20.9131C12.8042 20.978 12.776 21.0386 12.7422 21.0957C12.7229 21.1283 12.703 21.161 12.6787 21.1914C12.5726 21.324 12.4333 21.414 12.2822 21.46C12.2357 21.4741 12.1874 21.4837 12.1377 21.4893L12.1348 21.4902C12.1056 21.4934 12.0759 21.4951 12.0459 21.4951C10.1814 21.495 8.35893 20.9421 6.80859 19.9062C5.25809 18.8702 4.04957 17.3976 3.33594 15.6748C3.28136 15.543 3.23005 15.4101 3.18164 15.2764C3.16125 15.2318 3.14493 15.1851 3.13281 15.1367C2.59026 13.5618 2.47257 11.868 2.79883 10.2275C2.88282 9.80528 2.99623 9.39111 3.13574 8.9873C3.14651 8.94638 3.15904 8.90628 3.17578 8.86816C3.64398 7.56933 4.39462 6.38373 5.37891 5.39941C6.69751 4.08081 8.37808 3.18315 10.207 2.81934C10.7785 2.70568 11.3565 2.6455 11.9336 2.63867H12.0459C12.0501 2.63867 12.0544 2.63958 12.0586 2.63965ZM16.3262 12.9121C18.2267 12.9122 19.7676 14.453 19.7676 16.3535C19.7676 17.0323 19.5697 17.6641 19.2305 18.1973L20.7051 19.6719C20.9978 19.9648 20.9979 20.4396 20.7051 20.7324C20.4123 21.0251 19.9374 21.025 19.6445 20.7324L18.1699 19.2578C17.6368 19.5969 17.0047 19.7949 16.3262 19.7949C14.4258 19.7947 12.8848 18.2539 12.8848 16.3535C12.8848 14.453 14.4258 12.9123 16.3262 12.9121ZM5.16211 15.749C5.76554 16.8772 6.63782 17.8445 7.70801 18.5596C8.41275 19.0305 9.18601 19.3792 9.99512 19.5996C9.85378 19.403 9.70757 19.1905 9.56348 18.96C9.0364 18.1166 8.51335 17.0453 8.14648 15.749H5.16211ZM16.3262 14.4121C15.2542 14.4123 14.3848 15.2815 14.3848 16.3535C14.3848 17.4255 15.2542 18.2947 16.3262 18.2949C17.3983 18.2949 18.2675 17.4256 18.2676 16.3535C18.2676 15.2814 17.3983 14.4122 16.3262 14.4121ZM4.51562 10.0039C4.46686 10.1819 4.42387 10.3621 4.38769 10.5439C4.15039 11.7374 4.19737 12.9649 4.5166 14.1299H7.79785C7.70125 13.4851 7.64551 12.7973 7.64551 12.0664C7.64553 11.3359 7.7013 10.6484 7.79785 10.0039H4.51562ZM9.99609 4.53223C8.68646 4.88857 7.48844 5.5809 6.52441 6.54492C5.97871 7.09065 5.52006 7.7113 5.16016 8.38477H8.14648C8.51336 7.08849 9.03636 6.01727 9.56348 5.17383C9.70802 4.94256 9.85433 4.72936 9.99609 4.53223ZM12.0459 4.57422C11.7428 4.9011 11.3407 5.38711 10.9375 6.03223C10.5429 6.66358 10.1478 7.44773 9.83984 8.38477H14.2529C13.8742 7.23227 13.3617 6.31012 12.8818 5.61816C12.5742 5.17459 12.2801 4.82678 12.0459 4.57422ZM14.2139 4.69531C14.839 5.59683 15.5063 6.82734 15.9473 8.38477H18.9316C18.8117 8.16051 18.6812 7.94125 18.5391 7.72852C17.681 6.44443 16.461 5.44355 15.0342 4.85254C14.7274 4.72549 14.4137 4.61972 14.0957 4.5332C14.1341 4.58658 14.1751 4.63944 14.2139 4.69531Z" fill="#141518"/>
</svg>
