<svg width="24" height="24" viewBox="0 0 24 24" fill="none" xmlns="http://www.w3.org/2000/svg">
<path d="M18.9971 3.30371C20.4383 3.30395 21.6063 4.47186 21.6064 5.91309V18.0781C21.6063 19.5193 20.4382 20.6873 18.9971 20.6875H5.00781C3.56655 20.6874 2.39862 19.5194 2.39844 18.0781V5.91309C2.39854 4.47178 3.5665 3.30382 5.00781 3.30371H18.9971ZM4.01758 18.0781C4.01776 18.6247 4.46125 19.0673 5.00781 19.0674H11.208L11.1855 10.0176H4.01758V18.0781ZM12.8184 15.5898L12.8271 19.0674H18.9971C19.5435 19.0671 19.9871 18.6246 19.9873 18.0781V15.5898H12.8184ZM12.8145 13.9707H19.9873V5.91309C19.9872 5.36656 19.5436 4.92309 18.9971 4.92285H12.792L12.8145 13.9707ZM5.00781 4.92285C4.46121 4.92296 4.01768 5.36648 4.01758 5.91309V8.39844H11.1816L11.1729 4.92285H5.00781Z" fill="#141518"/>
</svg>
