<svg width="24" height="24" viewBox="0 0 24 24" fill="none" xmlns="http://www.w3.org/2000/svg">
<path d="M11.5581 4.11523C12.0052 4.11558 12.3677 4.47766 12.3677 4.9248C12.3677 5.37194 12.0052 5.73403 11.5581 5.73438H6.31299C6.03939 5.73438 5.81104 5.95898 5.81104 6.24219V14.6504H18.1782V12.3877C18.1782 11.9403 18.5414 11.5771 18.9888 11.5771C19.4358 11.5775 19.7983 11.9405 19.7983 12.3877V14.6514H20.7935C21.2408 14.6514 21.604 15.0136 21.604 15.4609V16.3457C21.6035 18.2535 20.064 19.8085 18.1558 19.8086H5.84424C3.93592 19.8086 2.39651 18.2535 2.396 16.3457V15.4609C2.396 15.0136 2.75822 14.6514 3.20557 14.6514H4.19189V6.24219C4.19189 5.07082 5.13816 4.11523 6.31299 4.11523H11.5581ZM4.01514 16.3457C4.01565 17.3673 4.83906 18.1885 5.84424 18.1885H18.1558C19.1609 18.1884 19.9834 17.3673 19.9839 16.3457V16.2705H4.01514V16.3457ZM15.8911 5.72168C16.184 5.42889 16.6588 5.42884 16.9517 5.72168C17.2444 6.01456 17.2444 6.48938 16.9517 6.78223L16.4634 7.27051H19.9585L20.0356 7.27441C20.4136 7.31309 20.7085 7.63238 20.7085 8.02051C20.7085 8.40864 20.4136 8.72793 20.0356 8.7666L19.9585 8.77051H16.4634L16.9517 9.25879C17.2444 9.55166 17.2444 10.0265 16.9517 10.3193C16.6588 10.6122 16.184 10.6121 15.8911 10.3193L14.1226 8.55078C14.0694 8.49765 14.0285 8.43696 13.9946 8.37402C13.9826 8.35175 13.9692 8.3302 13.9595 8.30664C13.952 8.28857 13.9479 8.26946 13.9419 8.25098C13.9183 8.17809 13.9028 8.10126 13.9028 8.02051C13.9028 7.93942 13.9181 7.8622 13.9419 7.78906C13.9474 7.77225 13.9508 7.75475 13.9575 7.73828L13.9614 7.72852C13.9689 7.71074 13.98 7.69477 13.9888 7.67773C14.0234 7.6107 14.0663 7.54644 14.1226 7.49023L15.8911 5.72168Z" fill="#141518"/>
</svg>
