<svg width="24" height="24" viewBox="0 0 24 24" fill="none" xmlns="http://www.w3.org/2000/svg">
<path d="M10.782 2.90576C15.1319 2.90576 18.6584 6.43203 18.6584 10.7819L18.6558 10.9853C18.6101 12.7895 17.9572 14.4426 16.8945 15.7489L20.5226 19.3771C20.8389 19.6934 20.8389 20.2065 20.5226 20.5229C20.2063 20.839 19.6934 20.8391 19.3771 20.5229L15.7487 16.8944C14.3935 17.9969 12.6651 18.6584 10.782 18.6584L10.5786 18.6558C6.32271 18.5479 2.90579 15.0639 2.90579 10.7819C2.90585 6.43207 6.4321 2.90582 10.782 2.90576ZM10.782 4.52588C7.3268 4.52594 4.52597 7.32677 4.52591 10.7819C4.52591 14.2371 7.32676 17.0382 10.782 17.0383C14.2372 17.0383 17.0383 14.2372 17.0383 10.7819C17.0383 7.32673 14.2372 4.52588 10.782 4.52588ZM10.782 7.39287C11.1962 7.39287 11.532 7.72866 11.532 8.14287V10.0319H13.4196C13.8338 10.0319 14.1696 10.3677 14.1696 10.7819C14.1696 11.1961 13.8338 11.5319 13.4196 11.5319H11.532V13.4213C11.5319 13.8355 11.1961 14.1713 10.782 14.1713C10.3678 14.1712 10.032 13.8354 10.032 13.4213V11.5319H8.14437C7.73022 11.5319 7.39437 11.1961 7.39437 10.7819C7.39437 10.3678 7.73022 10.032 8.14437 10.0319H10.032V8.14287C10.032 7.72869 10.3678 7.39293 10.782 7.39287Z" fill="#141518"/>
</svg>
